<svg width="55" height="55" viewBox="0 0 55 55" fill="none" xmlns="http://www.w3.org/2000/svg">
<path fill-rule="evenodd" clip-rule="evenodd" d="M42.6379 22.2255C44.8748 23.2319 46.3185 25.4311 46.3185 27.8299C46.3185 31.2322 43.4889 34 40.0107 34H20.7087C16.6831 34 13.4063 30.7991 13.4063 26.8677C13.4063 23.9719 15.2615 21.3086 18.0227 20.24L18.8419 19.9218L19.0134 19.0802C19.7507 15.4849 23.0082 12.8762 26.7552 12.8762C28.9439 12.8762 31.0526 13.7733 32.5416 15.338L33.2134 16.0441L34.1646 15.7842C34.7072 15.6355 35.2575 15.5602 35.801 15.5602C38.8821 15.5602 41.4727 17.9081 41.7002 20.9047L41.7705 21.8358L42.6379 22.2255ZM41.5595 11.0357C46.3686 11.9554 49.999 16.0902 50 21.0563C50 23.4174 49.1721 25.5845 47.7949 27.314C47.6003 24.5452 45.8819 22.0551 43.273 20.8812L43.2161 20.8557L43.2113 20.7955C42.9713 17.6332 40.6275 15.0706 37.5936 14.3231L37.5541 13.9541C37.2823 11.3614 35.4223 8.98899 32.6987 7.75948C31.5104 7.22475 30.218 6.94232 28.9613 6.94232C28.0149 6.94232 27.0974 7.09859 26.257 7.40079C25.0224 6.40476 23.6067 5.70057 22.11 5.32117C24.0722 2.70587 27.2294 1 30.804 1C36.5865 1 41.2915 5.45109 41.5595 11.0357ZM11.8922 26.8677C11.8922 27.7875 12.0436 28.6724 12.3192 29.5047C12.0754 29.5056 11.9154 29.5056 11.9038 29.5047C7.74329 28.9464 4.59278 25.2579 5.04285 20.9565C5.35318 17.9768 7.53126 15.4933 10.3801 14.389L10.8938 14.1904C10.9295 14.1772 10.9545 14.1471 10.9622 14.1104L11.0653 13.6058C11.5916 11.0385 13.1548 8.71691 15.514 7.47328C18.97 5.65067 22.9224 6.45465 25.5891 8.7894C25.7231 8.90614 25.8426 9.03229 25.965 9.15562C27.6294 8.23584 29.9231 8.13793 32.0646 9.1029C34.3747 10.1451 35.8405 12.1211 36.0477 14.1057C35.9649 14.1019 35.8858 14.0821 35.803 14.0821C35.1216 14.0821 34.4325 14.1763 33.7569 14.3608L33.6952 14.3777L33.6509 14.3307C31.8766 12.4666 29.3632 11.3981 26.7562 11.3981C22.2873 11.3981 18.4072 14.5058 17.5292 18.7902L17.5177 18.8448L17.4647 18.8655C14.131 20.1553 11.8922 23.3712 11.8922 26.8677Z" fill="white"/>
</svg>
