<svg width="55" height="55" viewBox="0 0 55 55" fill="none" xmlns="http://www.w3.org/2000/svg">
<path fill-rule="evenodd" clip-rule="evenodd" d="M42.6379 22.8687C44.8748 23.9056 46.3185 26.1714 46.3185 28.6429C46.3185 32.1483 43.4889 35 40.0107 35H20.7087C16.6831 35 13.4063 31.7021 13.4063 27.6516C13.4063 24.668 15.2615 21.924 18.0227 20.8231L18.8419 20.4952L19.0134 19.6281C19.7507 15.9238 23.0082 13.236 26.7552 13.236C28.9439 13.236 31.0526 14.1604 32.5416 15.7725L33.2134 16.5L34.1646 16.2322C34.7072 16.079 35.2575 16.0014 35.801 16.0014C38.8821 16.0014 41.4727 18.4205 41.7002 21.5079L41.7705 22.4671L42.6379 22.8687ZM41.5595 11.3398C46.3686 12.2874 49.999 16.5475 50 21.664C50 24.0967 49.1721 26.3295 47.7949 28.1113C47.6003 25.2587 45.8819 22.6931 43.273 21.4836L43.2161 21.4574L43.2113 21.3953C42.9713 18.1372 40.6275 15.497 37.5936 14.7269L37.5541 14.3466C37.2823 11.6754 35.4223 9.23108 32.6987 7.96431C31.5104 7.41337 30.218 7.12239 28.9613 7.12239C28.0149 7.12239 27.0974 7.2834 26.257 7.59476C25.0224 6.56854 23.6067 5.84301 22.11 5.45212C24.0722 2.75757 27.2294 1 30.804 1C36.5865 1 41.2915 5.58597 41.5595 11.3398ZM11.8922 27.6516C11.8922 28.5992 12.0436 29.511 12.3192 30.3684C12.0754 30.3694 11.9154 30.3694 11.9038 30.3684C7.74329 29.7933 4.59278 25.993 5.04285 21.5612C5.35318 18.4913 7.53126 15.9325 10.3801 14.7948L10.8938 14.5901C10.9295 14.5765 10.9545 14.5455 10.9622 14.5077L11.0653 13.9878C11.5916 11.3427 13.1548 8.95076 15.514 7.66944C18.97 5.7916 22.9224 6.61995 25.5891 9.02545C25.7231 9.14572 25.8426 9.2757 25.965 9.40276C27.6294 8.45511 29.9231 8.35424 32.0646 9.34844C34.3747 10.4222 35.8405 12.4581 36.0477 14.5028C35.9649 14.4989 35.8858 14.4786 35.803 14.4786C35.1216 14.4786 34.4325 14.5756 33.7569 14.7657L33.6952 14.7831L33.6509 14.7346C31.8766 12.8141 29.3632 11.7132 26.7562 11.7132C22.2873 11.7132 18.4072 14.915 17.5292 19.3293L17.5177 19.3856L17.4647 19.4069C14.131 20.7358 11.8922 24.0492 11.8922 27.6516Z" fill="white"/>
<path fill-rule="evenodd" clip-rule="evenodd" d="M31.2838 50.7308C29.9149 53.2708 26.7913 51.609 28.1053 49.1575C29.2206 47.074 31.9004 45.8139 31.9004 45.8139C31.9004 45.8139 32.366 48.7139 31.2838 50.7308ZM22.4943 42.9169C21.1255 45.4569 18.0019 43.795 19.3159 41.3436C20.4312 39.2601 23.111 38 23.111 38C23.111 38 23.5766 40.9 22.4943 42.9169Z" fill="#009EFF"/>
<path fill-rule="evenodd" clip-rule="evenodd" d="M38.7539 41.5034L36.5676 40.963L38.1666 39.3641C38.2906 39.237 38.2936 39.0318 38.1666 38.9047L38.1201 38.8588C37.996 38.7298 37.7906 38.7298 37.6646 38.8558L36.0626 40.4567L35.5296 38.2479C35.488 38.074 35.3116 37.9665 35.1371 38.0095L35.0751 38.0251C34.9026 38.0662 34.7931 38.247 34.8348 38.419L35.3833 40.6727L33.1475 40.1225C32.976 40.0804 32.7987 40.186 32.7551 40.3619L32.7415 40.4245C32.6959 40.6014 32.8064 40.7773 32.9789 40.8183L35.1633 41.3568L33.5672 42.9538C33.4412 43.0818 33.4412 43.288 33.5643 43.4161L33.6108 43.462C33.7377 43.59 33.9403 43.59 34.0672 43.4649L35.6672 41.8602L36.2051 44.0728C36.2468 44.2468 36.4232 44.3553 36.5947 44.3113L36.6567 44.2976C36.8321 44.2537 36.9407 44.0777 36.8961 43.9038L36.3505 41.65L38.5843 42.1993C38.7558 42.2433 38.9322 42.1338 38.9739 41.9608L38.9903 41.8983C39.034 41.7243 38.9254 41.5455 38.7539 41.5034ZM19.0227 49.1823L16.8364 48.6419L18.4354 47.043C18.5594 46.9159 18.5624 46.7107 18.4354 46.5836L18.3889 46.5377C18.2648 46.4087 18.0594 46.4087 17.9334 46.5347L16.3314 48.1356L15.7984 45.9268C15.7568 45.7529 15.5804 45.6454 15.4059 45.6884L15.3439 45.704C15.1714 45.7451 15.0619 45.9259 15.1036 46.0979L15.6521 48.3516L13.4163 47.8014C13.2448 47.7593 13.0675 47.8649 13.0239 48.0408L13.0103 48.1034C12.9647 48.2803 13.0752 48.4562 13.2477 48.4972L15.4321 49.0357L13.836 50.6327C13.71 50.7607 13.71 50.9669 13.8331 51.095L13.8796 51.1409C14.0065 51.2689 14.2091 51.2689 14.336 51.1438L15.936 49.5391L16.4739 51.7517C16.5156 51.9257 16.692 52.0342 16.8635 51.9902L16.9255 51.9765C17.1009 51.9325 17.2095 51.7566 17.1649 51.5827L16.6193 49.3289L18.8531 49.8782C19.0246 49.9222 19.201 49.8127 19.2427 49.6397L19.2591 49.5772C19.3028 49.4032 19.1942 49.2244 19.0227 49.1823Z" fill="#38C0E0"/>
</svg>
