<svg width="55" height="55" viewBox="0 0 55 55" fill="none" xmlns="http://www.w3.org/2000/svg">
<path fill-rule="evenodd" clip-rule="evenodd" d="M42.6379 22.8687C44.8748 23.9056 46.3185 26.1714 46.3185 28.6429C46.3185 32.1483 43.4889 35 40.0107 35H20.7087C16.6831 35 13.4063 31.7021 13.4063 27.6516C13.4063 24.668 15.2615 21.924 18.0227 20.8231L18.8419 20.4952L19.0134 19.6281C19.7507 15.9238 23.0082 13.236 26.7552 13.236C28.9439 13.236 31.0526 14.1604 32.5416 15.7725L33.2134 16.5L34.1646 16.2322C34.7072 16.079 35.2575 16.0014 35.801 16.0014C38.8821 16.0014 41.4727 18.4205 41.7002 21.5079L41.7705 22.4671L42.6379 22.8687ZM41.5595 11.3398C46.3686 12.2874 49.999 16.5475 50 21.664C50 24.0967 49.1721 26.3295 47.7949 28.1113C47.6003 25.2587 45.8819 22.6931 43.273 21.4836L43.2161 21.4574L43.2113 21.3953C42.9713 18.1372 40.6275 15.497 37.5936 14.7269L37.5541 14.3466C37.2823 11.6754 35.4223 9.23108 32.6987 7.96431C31.5104 7.41337 30.218 7.12239 28.9613 7.12239C28.0149 7.12239 27.0974 7.2834 26.257 7.59476C25.0224 6.56854 23.6067 5.84301 22.11 5.45212C24.0722 2.75757 27.2294 1 30.804 1C36.5865 1 41.2915 5.58597 41.5595 11.3398ZM11.8922 27.6516C11.8922 28.5992 12.0436 29.511 12.3192 30.3684C12.0754 30.3694 11.9154 30.3694 11.9038 30.3684C7.74329 29.7933 4.59278 25.993 5.04285 21.5612C5.35318 18.4913 7.53126 15.9325 10.3801 14.7948L10.8938 14.5901C10.9295 14.5765 10.9545 14.5455 10.9622 14.5077L11.0653 13.9878C11.5916 11.3427 13.1548 8.95076 15.514 7.66944C18.97 5.7916 22.9224 6.61995 25.5891 9.02545C25.7231 9.14572 25.8426 9.2757 25.965 9.40276C27.6294 8.45511 29.9231 8.35424 32.0646 9.34844C34.3747 10.4222 35.8405 12.4581 36.0477 14.5028C35.9649 14.4989 35.8858 14.4786 35.803 14.4786C35.1216 14.4786 34.4325 14.5756 33.7569 14.7657L33.6952 14.7831L33.6509 14.7346C31.8766 12.8141 29.3632 11.7132 26.7562 11.7132C22.2873 11.7132 18.4072 14.915 17.5292 19.3293L17.5177 19.3856L17.4647 19.4069C14.131 20.7358 11.8922 24.0492 11.8922 27.6516Z" fill="white"/>
<path fill-rule="evenodd" clip-rule="evenodd" d="M19.1914 41.8901C17.9412 44.4163 15.0884 42.7635 16.2885 40.3254C17.3072 38.2532 19.7546 37 19.7546 37C19.7546 37 20.1808 39.8842 19.1914 41.8901ZM25.8733 49.7377C24.6231 52.2639 21.7702 50.6111 22.9703 48.1729C23.989 46.1008 26.4365 44.8476 26.4365 44.8476C26.4365 44.8476 26.8626 47.7318 25.8733 49.7377ZM38.3458 41.8901C37.0957 44.4163 34.2428 42.7635 35.4429 40.3254C36.4616 38.2532 38.909 37 38.909 37C38.909 37 39.3343 39.8842 38.3458 41.8901Z" fill="#009EFF"/>
<path fill-rule="evenodd" clip-rule="evenodd" d="M30.8776 40.511C31.0497 40.5541 31.1586 40.7334 31.1149 40.9067L31.0983 40.9694C31.0565 41.1428 30.8795 41.2525 30.7074 41.2084L28.4659 40.658L29.0134 42.9166C29.0581 43.0909 28.9492 43.2672 28.7732 43.3113L28.711 43.325C28.5389 43.3691 28.3619 43.2604 28.3201 43.086L27.7804 40.8685L26.1749 42.4768C26.0475 42.6022 25.8442 42.6022 25.7168 42.4739L25.6702 42.4278C25.5467 42.2995 25.5467 42.0929 25.6731 41.9645L27.2747 40.3641L25.0828 39.8244C24.9097 39.7833 24.7989 39.607 24.8446 39.4297L24.8582 39.367C24.9019 39.1907 25.0799 39.085 25.252 39.1271L27.4954 39.6785L26.945 37.4199C26.9032 37.2475 27.0131 37.0663 27.1862 37.0252L27.2484 37.0095C27.4235 36.9664 27.6005 37.0741 27.6423 37.2485L28.1771 39.462L29.7846 37.8577C29.911 37.7314 30.1171 37.7314 30.2416 37.8606L30.2883 37.9067C30.4157 38.034 30.4128 38.2397 30.2883 38.367L28.6838 39.9694L30.8776 40.511ZM37.7527 48.1762C37.9248 48.2183 38.0347 48.3986 37.99 48.5719L37.9735 48.6346C37.9316 48.808 37.7547 48.9177 37.5825 48.8736L35.3411 48.3231L35.8886 50.5818C35.9333 50.7561 35.8244 50.9324 35.6484 50.9765L35.5861 50.9902C35.414 51.0343 35.237 50.9255 35.1952 50.7512L34.6555 48.5337L33.05 50.142C32.9226 50.2674 32.7194 50.2674 32.592 50.139L32.5453 50.093C32.4218 49.9647 32.4218 49.758 32.5482 49.6297L34.1498 48.0293L31.958 47.4896C31.7849 47.4485 31.674 47.2722 31.7197 47.0949L31.7333 47.0322C31.7771 46.8559 31.955 46.7501 32.1272 46.7923L34.3706 47.3437L33.8202 45.0851C33.7784 44.9127 33.8882 44.7315 34.0613 44.6904L34.1236 44.6747C34.2986 44.6316 34.4756 44.7393 34.5174 44.9137L35.0523 47.1272L36.6597 45.5229C36.7861 45.3965 36.9923 45.3965 37.1167 45.5258L37.1634 45.5719C37.2908 45.6992 37.2879 45.9049 37.1634 46.0322L35.5589 47.6346L37.7527 48.1762ZM18.0424 48.1762C18.2145 48.2183 18.3234 48.3986 18.2806 48.5719L18.2641 48.6346C18.2223 48.808 18.0453 48.9177 17.8732 48.8736L15.6317 48.3231L16.1792 50.5818C16.2239 50.7561 16.115 50.9324 15.939 50.9765L15.8767 50.9902C15.7046 51.0343 15.5276 50.9255 15.4858 50.7512L14.9461 48.5337L13.3406 50.142C13.2132 50.2674 13.01 50.2674 12.8826 50.139L12.8359 50.093C12.7124 49.9647 12.7124 49.758 12.8388 49.6297L14.4404 48.0293L12.2486 47.4896C12.0755 47.4485 11.9646 47.2722 12.0103 47.0949L12.0239 47.0322C12.0677 46.8559 12.2457 46.7501 12.4178 46.7923L14.6612 47.3437L14.1108 45.0851C14.068 44.9127 14.1779 44.7315 14.351 44.6904L14.4132 44.6747C14.5883 44.6316 14.7652 44.7393 14.8071 44.9137L15.3419 47.1272L16.9493 45.5229C17.0758 45.3965 17.2819 45.3965 17.4064 45.5258L17.4531 45.5719C17.5805 45.6992 17.5775 45.9049 17.4531 46.0322L15.8485 47.6346L18.0424 48.1762Z" fill="#38C0E0"/>
</svg>
