<svg width="55" height="55" viewBox="0 0 55 55" fill="none" xmlns="http://www.w3.org/2000/svg">
<path fill-rule="evenodd" clip-rule="evenodd" d="M42.6379 22.8687C44.8748 23.9056 46.3185 26.1714 46.3185 28.6429C46.3185 32.1483 43.4889 35 40.0107 35H20.7087C16.6831 35 13.4063 31.7021 13.4063 27.6516C13.4063 24.668 15.2615 21.924 18.0227 20.8231L18.8419 20.4952L19.0134 19.6281C19.7507 15.9238 23.0082 13.236 26.7552 13.236C28.9439 13.236 31.0526 14.1604 32.5416 15.7725L33.2134 16.5L34.1646 16.2322C34.7072 16.079 35.2575 16.0014 35.801 16.0014C38.8821 16.0014 41.4727 18.4205 41.7002 21.5079L41.7705 22.4671L42.6379 22.8687ZM41.5595 11.3398C46.3686 12.2874 49.999 16.5475 50 21.664C50 24.0967 49.1721 26.3295 47.7949 28.1113C47.6003 25.2587 45.8819 22.6931 43.273 21.4836L43.2161 21.4574L43.2113 21.3953C42.9713 18.1372 40.6275 15.497 37.5936 14.7269L37.5541 14.3466C37.2823 11.6754 35.4223 9.23108 32.6987 7.96431C31.5104 7.41337 30.218 7.12239 28.9613 7.12239C28.0149 7.12239 27.0974 7.2834 26.257 7.59476C25.0224 6.56854 23.6067 5.84301 22.11 5.45212C24.0722 2.75757 27.2294 1 30.804 1C36.5865 1 41.2915 5.58597 41.5595 11.3398ZM11.8922 27.6516C11.8922 28.5992 12.0436 29.511 12.3192 30.3684C12.0754 30.3694 11.9154 30.3694 11.9038 30.3684C7.74329 29.7933 4.59278 25.993 5.04285 21.5612C5.35318 18.4913 7.53126 15.9325 10.3801 14.7948L10.8938 14.5901C10.9295 14.5765 10.9545 14.5455 10.9622 14.5077L11.0653 13.9878C11.5916 11.3427 13.1548 8.95076 15.514 7.66944C18.97 5.7916 22.9224 6.61995 25.5891 9.02545C25.7231 9.14572 25.8426 9.2757 25.965 9.40276C27.6294 8.45511 29.9231 8.35424 32.0646 9.34844C34.3747 10.4222 35.8405 12.4581 36.0477 14.5028C35.9649 14.4989 35.8858 14.4786 35.803 14.4786C35.1216 14.4786 34.4325 14.5756 33.7569 14.7657L33.6952 14.7831L33.6509 14.7346C31.8766 12.8141 29.3632 11.7132 26.7562 11.7132C22.2873 11.7132 18.4072 14.915 17.5292 19.3293L17.5177 19.3856L17.4647 19.4069C14.131 20.7358 11.8922 24.0492 11.8922 27.6516Z" fill="white"/>
<path fill-rule="evenodd" clip-rule="evenodd" d="M32 41.0311L29.2392 40.9886L31.5028 37L28.0083 37.0296L25.0435 42.9804H27.6249L24 52L32 41.0311Z" fill="#FFA800"/>
<path fill-rule="evenodd" clip-rule="evenodd" d="M20.896 50.7081C19.6128 53.2936 16.6847 51.602 17.9165 49.1065C18.962 46.9856 21.474 45.703 21.474 45.703C21.474 45.703 21.9105 48.654 20.896 50.7081ZM33.6772 50.7081C32.394 53.2936 29.4659 51.602 30.6977 49.1065C31.7432 46.9856 34.2552 45.703 34.2552 45.703C34.2552 45.703 34.6917 48.654 33.6772 50.7081ZM40.0018 43.0051C38.7186 45.5906 35.7905 43.899 37.0223 41.4035C38.0678 39.2826 40.5798 38 40.5798 38C40.5798 38 41.0163 40.952 40.0018 43.0051ZM41.3286 50.7081C40.0454 53.2936 37.1173 51.602 38.3491 49.1065C39.3946 46.9856 41.9066 45.703 41.9066 45.703C41.9066 45.703 42.3431 48.654 41.3286 50.7081ZM13.2756 50.7081C11.9924 53.2936 9.06435 51.602 10.2961 49.1065C11.3416 46.9856 13.8537 45.703 13.8537 45.703C13.8537 45.703 14.2901 48.654 13.2756 50.7081ZM20.2093 43.0051C18.9262 45.5906 15.9981 43.899 17.2298 41.4035C18.2754 39.2826 20.7874 38 20.7874 38C20.7874 38 21.2238 40.952 20.2093 43.0051Z" fill="#009EFF"/>
</svg>
