<svg width="55" height="55" viewBox="0 0 55 55" fill="none" xmlns="http://www.w3.org/2000/svg">
<path fill-rule="evenodd" clip-rule="evenodd" d="M42.6379 23.5119C44.8748 24.5793 46.3185 26.9118 46.3185 29.4559C46.3185 33.0644 43.4889 36 40.0107 36H20.7087C16.6831 36 13.4063 32.6051 13.4063 28.4355C13.4063 25.3641 15.2615 22.5394 18.0227 21.4061L18.8419 21.0686L19.0134 20.176C19.7507 16.3627 23.0082 13.5959 26.7552 13.5959C28.9439 13.5959 31.0526 14.5475 32.5416 16.207L33.2134 16.9558L34.1646 16.6803C34.7072 16.5225 35.2575 16.4426 35.801 16.4426C38.8821 16.4426 41.4727 18.9328 41.7002 22.111L41.7705 23.0985L42.6379 23.5119ZM41.5595 11.6439C46.3686 12.6194 49.999 17.0048 50 22.2718C50 24.776 49.1721 27.0745 47.7949 28.9087C47.6003 25.9722 45.8819 23.3312 43.273 22.0861L43.2161 22.0591L43.2113 21.9952C42.9713 18.6413 40.6275 15.9234 37.5936 15.1306L37.5541 14.7392C37.2823 11.9894 35.4223 9.47317 32.6987 8.16914C31.5104 7.602 30.218 7.30246 28.9613 7.30246C28.0149 7.30246 27.0974 7.4682 26.257 7.78872C25.0224 6.73232 23.6067 5.98545 22.11 5.58306C24.0722 2.80926 27.2294 1 30.804 1C36.5865 1 41.2915 5.72085 41.5595 11.6439ZM11.8922 28.4355C11.8922 29.411 12.0436 30.3496 12.3192 31.2322C12.0754 31.2332 11.9154 31.2332 11.9038 31.2322C7.74329 30.6401 4.59278 26.728 5.04285 22.1659C5.35318 19.0057 7.53126 16.3717 10.3801 15.2005L10.8938 14.9898C10.9295 14.9758 10.9545 14.9439 10.9622 14.9049L11.0653 14.3698C11.5916 11.6469 13.1548 9.18461 15.514 7.8656C18.97 5.93253 22.9224 6.78524 25.5891 9.26149C25.7231 9.3853 25.8426 9.5191 25.965 9.6499C27.6294 8.67438 29.9231 8.57054 32.0646 9.59399C34.3747 10.6993 35.8405 12.7951 36.0477 14.9C35.9649 14.896 35.8858 14.875 35.803 14.875C35.1216 14.875 34.4325 14.9748 33.7569 15.1705L33.6952 15.1885L33.6509 15.1386C31.8766 13.1616 29.3632 12.0283 26.7562 12.0283C22.2873 12.0283 18.4072 15.3243 17.5292 19.8684L17.5177 19.9263L17.4647 19.9483C14.131 21.3162 11.8922 24.7271 11.8922 28.4355Z" fill="white"/>
<path fill-rule="evenodd" clip-rule="evenodd" d="M36.339 43.0051C35.0757 45.5906 32.193 43.899 33.4057 41.4035C34.435 39.2826 36.9081 38 36.9081 38C36.9081 38 37.3378 40.952 36.339 43.0051ZM29.6589 50.7081C28.3956 53.2936 25.5129 51.602 26.7256 49.1065C27.7549 46.9856 30.228 45.703 30.228 45.703C30.228 45.703 30.6576 48.654 29.6589 50.7081ZM23.7369 43.0051C22.4736 45.5906 19.5909 43.899 20.8036 41.4035C21.8329 39.2826 24.306 38 24.306 38C24.306 38 24.7357 40.952 23.7369 43.0051ZM17.2248 50.7081C15.9615 53.2936 13.0789 51.602 14.2915 49.1065C15.3208 46.9856 17.7939 45.703 17.7939 45.703C17.7939 45.703 18.2245 48.654 17.2248 50.7081Z" fill="#009EFF"/>
</svg>
