<svg width="55" height="55" viewBox="0 0 55 55" fill="none" xmlns="http://www.w3.org/2000/svg">
<path fill-rule="evenodd" clip-rule="evenodd" d="M42.6379 22.8687C44.8748 23.9056 46.3185 26.1714 46.3185 28.6429C46.3185 32.1483 43.4889 35 40.0107 35H20.7087C16.6831 35 13.4063 31.7021 13.4063 27.6516C13.4063 24.668 15.2615 21.924 18.0227 20.8231L18.8419 20.4952L19.0134 19.6281C19.7507 15.9238 23.0082 13.236 26.7552 13.236C28.9439 13.236 31.0526 14.1604 32.5416 15.7725L33.2134 16.5L34.1646 16.2322C34.7072 16.079 35.2575 16.0014 35.801 16.0014C38.8821 16.0014 41.4727 18.4205 41.7002 21.5079L41.7705 22.4671L42.6379 22.8687ZM41.5595 11.3398C46.3686 12.2874 49.999 16.5475 50 21.664C50 24.0967 49.1721 26.3295 47.7949 28.1113C47.6003 25.2587 45.8819 22.6931 43.273 21.4836L43.2161 21.4574L43.2113 21.3953C42.9713 18.1372 40.6275 15.497 37.5936 14.7269L37.5541 14.3466C37.2823 11.6754 35.4223 9.23108 32.6987 7.96431C31.5104 7.41337 30.218 7.12239 28.9613 7.12239C28.0149 7.12239 27.0974 7.2834 26.257 7.59476C25.0224 6.56854 23.6067 5.84301 22.11 5.45212C24.0722 2.75757 27.2294 1 30.804 1C36.5865 1 41.2915 5.58597 41.5595 11.3398ZM11.8922 27.6516C11.8922 28.5992 12.0436 29.511 12.3192 30.3684C12.0754 30.3694 11.9154 30.3694 11.9038 30.3684C7.74329 29.7933 4.59278 25.993 5.04285 21.5612C5.35318 18.4913 7.53126 15.9325 10.3801 14.7948L10.8938 14.5901C10.9295 14.5765 10.9545 14.5455 10.9622 14.5077L11.0653 13.9878C11.5916 11.3427 13.1548 8.95076 15.514 7.66944C18.97 5.7916 22.9224 6.61995 25.5891 9.02545C25.7231 9.14572 25.8426 9.2757 25.965 9.40276C27.6294 8.45511 29.9231 8.35424 32.0646 9.34844C34.3747 10.4222 35.8405 12.4581 36.0477 14.5028C35.9649 14.4989 35.8858 14.4786 35.803 14.4786C35.1216 14.4786 34.4325 14.5756 33.7569 14.7657L33.6952 14.7831L33.6509 14.7346C31.8766 12.8141 29.3632 11.7132 26.7562 11.7132C22.2873 11.7132 18.4072 14.915 17.5292 19.3293L17.5177 19.3856L17.4647 19.4069C14.131 20.7358 11.8922 24.0492 11.8922 27.6516Z" fill="white"/>
<path fill-rule="evenodd" clip-rule="evenodd" d="M18.2407 42.933C16.9712 45.4813 14.0743 43.814 15.293 41.3545C16.3274 39.2642 18.8126 38 18.8126 38C18.8126 38 19.2445 40.9095 18.2407 42.933ZM20.1925 50.7267C18.923 53.275 16.0261 51.6077 17.2447 49.1482C18.2791 47.0578 20.7644 45.7936 20.7644 45.7936C20.7644 45.7936 21.1962 48.7022 20.1925 50.7267ZM40.3357 42.933C39.0662 45.4813 36.1693 43.814 37.3879 41.3545C38.4224 39.2642 40.9076 38 40.9076 38C40.9076 38 41.3394 40.9095 40.3357 42.933Z" fill="#009EFF"/>
<path fill-rule="evenodd" clip-rule="evenodd" d="M32 41.0311L29.2392 40.9886L31.5028 37L28.0083 37.0296L25.0435 42.9804H27.6249L24 52L32 41.0311Z" fill="#FFA800"/>
<path fill-rule="evenodd" clip-rule="evenodd" d="M13.9302 49.3239C14.0991 49.3638 14.207 49.5344 14.164 49.6985L14.1478 49.7579C14.1068 49.922 13.9331 50.0259 13.7642 49.9841L11.5647 49.463L12.1019 51.6013C12.1449 51.7663 12.038 51.9332 11.8653 51.9749L11.8042 51.9879C11.6353 52.0297 11.4616 51.9267 11.4206 51.7617L10.891 49.6624L9.31553 51.1849C9.19052 51.3036 8.99109 51.3036 8.86608 51.1821L8.82028 51.1386C8.69909 51.0171 8.69909 50.8214 8.82314 50.7L10.3948 49.1848L8.24392 48.6739C8.07406 48.635 7.96528 48.4681 8.01013 48.3002L8.02349 48.2409C8.06643 48.074 8.24105 47.9738 8.40995 48.0137L10.6114 48.5358L10.0713 46.3975C10.0303 46.2343 10.1381 46.0628 10.3079 46.0238L10.369 46.009C10.5408 45.9682 10.7144 46.0702 10.7555 46.2352L11.2803 48.3308L12.8577 46.812C12.9817 46.6924 13.184 46.6924 13.3062 46.8148L13.352 46.8584C13.477 46.9789 13.4741 47.1736 13.352 47.2942L11.7775 48.8112L13.9302 49.3239ZM36.6431 49.3239C36.812 49.3638 36.9188 49.5344 36.8759 49.6985L36.8597 49.7579C36.8186 49.922 36.645 50.0259 36.4761 49.9841L34.2766 49.463L34.8138 51.6013C34.8577 51.7663 34.7508 51.9332 34.5781 51.9749L34.517 51.9879C34.3481 52.0297 34.1744 51.9267 34.1334 51.7617L33.6038 49.6624L32.0284 51.1849C31.9034 51.3036 31.7039 51.3036 31.5789 51.1821L31.5331 51.1386C31.4119 51.0171 31.4119 50.8214 31.536 50.7L33.1076 49.1848L30.9567 48.6739C30.7869 48.635 30.6781 48.4681 30.723 48.3002L30.7363 48.2409C30.7793 48.074 30.9539 47.9738 31.1228 48.0137L33.3242 48.5358L32.7841 46.3975C32.7431 46.2343 32.8509 46.0628 33.0208 46.0238L33.0818 46.009C33.2536 45.9682 33.4273 46.0702 33.4683 46.2352L33.9931 48.3308L35.5705 46.812C35.6945 46.6924 35.8969 46.6924 36.019 46.8148L36.0648 46.8584C36.1898 46.9789 36.1869 47.1736 36.0648 47.2942L34.4903 48.8112L36.6431 49.3239ZM44.7579 49.3239C44.9268 49.3638 45.0347 49.5344 44.9898 49.7013L44.9736 49.7607C44.9326 49.9248 44.7589 50.0286 44.59 49.9869L42.3905 49.4658L42.9277 51.604C42.9716 51.7691 42.8647 51.936 42.692 51.9777L42.6309 51.9907C42.462 52.0324 42.2884 51.9295 42.2473 51.7645L41.7177 49.6652L40.1423 51.1877C40.0173 51.3064 39.8178 51.3064 39.6928 51.1849L39.647 51.1413C39.5258 51.0199 39.5258 50.8242 39.6499 50.7028L41.2225 49.1848L39.0716 48.6739C38.9018 48.635 38.793 48.4681 38.8378 48.3002L38.8512 48.2409C38.8941 48.074 39.0687 47.9738 39.2376 48.0137L41.4391 48.5358L40.899 46.3975C40.8579 46.2343 40.9658 46.0628 41.1356 46.0238L41.1967 46.009C41.3685 45.9682 41.5421 46.0702 41.5832 46.2352L42.108 48.3308L43.6854 46.812C43.8094 46.6924 44.0117 46.6924 44.1339 46.8148L44.1797 46.8584C44.3047 46.9789 44.3018 47.1736 44.1797 47.2942L42.6052 48.8112L44.7579 49.3239Z" fill="#38C0E0"/>
</svg>
