<svg width="55" height="55" viewBox="0 0 55 55" fill="none" xmlns="http://www.w3.org/2000/svg">
<path fill-rule="evenodd" clip-rule="evenodd" d="M42.6379 22.8687C44.8748 23.9056 46.3185 26.1714 46.3185 28.6429C46.3185 32.1483 43.4889 35 40.0107 35H20.7087C16.6831 35 13.4063 31.7021 13.4063 27.6516C13.4063 24.668 15.2615 21.924 18.0227 20.8231L18.8419 20.4952L19.0134 19.6281C19.7507 15.9238 23.0082 13.236 26.7552 13.236C28.9439 13.236 31.0526 14.1604 32.5416 15.7725L33.2134 16.5L34.1646 16.2322C34.7072 16.079 35.2575 16.0014 35.801 16.0014C38.8821 16.0014 41.4727 18.4205 41.7002 21.5079L41.7705 22.4671L42.6379 22.8687ZM41.5595 11.3398C46.3686 12.2874 49.999 16.5475 50 21.664C50 24.0967 49.1721 26.3295 47.7949 28.1113C47.6003 25.2587 45.8819 22.6931 43.273 21.4836L43.2161 21.4574L43.2113 21.3953C42.9713 18.1372 40.6275 15.497 37.5936 14.7269L37.5541 14.3466C37.2823 11.6754 35.4223 9.23108 32.6987 7.96431C31.5104 7.41337 30.218 7.12239 28.9613 7.12239C28.0149 7.12239 27.0974 7.2834 26.257 7.59476C25.0224 6.56854 23.6067 5.84301 22.11 5.45212C24.0722 2.75757 27.2294 1 30.804 1C36.5865 1 41.2915 5.58597 41.5595 11.3398ZM11.8922 27.6516C11.8922 28.5992 12.0436 29.511 12.3192 30.3684C12.0754 30.3694 11.9154 30.3694 11.9038 30.3684C7.74329 29.7933 4.59278 25.993 5.04285 21.5612C5.35318 18.4913 7.53126 15.9325 10.3801 14.7948L10.8938 14.5901C10.9295 14.5765 10.9545 14.5455 10.9622 14.5077L11.0653 13.9878C11.5916 11.3427 13.1548 8.95076 15.514 7.66944C18.97 5.7916 22.9224 6.61995 25.5891 9.02545C25.7231 9.14572 25.8426 9.2757 25.965 9.40276C27.6294 8.45511 29.9231 8.35424 32.0646 9.34844C34.3747 10.4222 35.8405 12.4581 36.0477 14.5028C35.9649 14.4989 35.8858 14.4786 35.803 14.4786C35.1216 14.4786 34.4325 14.5756 33.7569 14.7657L33.6952 14.7831L33.6509 14.7346C31.8766 12.8141 29.3632 11.7132 26.7562 11.7132C22.2873 11.7132 18.4072 14.915 17.5292 19.3293L17.5177 19.3856L17.4647 19.4069C14.131 20.7358 11.8922 24.0492 11.8922 27.6516Z" fill="white"/>
<path fill-rule="evenodd" clip-rule="evenodd" d="M32 41.0311L29.2392 40.9886L31.5028 37L28.0083 37.0296L25.0435 42.9804H27.6249L24 52L32 41.0311Z" fill="#FFA800"/>
<path fill-rule="evenodd" clip-rule="evenodd" d="M20.2886 42.9169C19.0003 45.4569 16.0606 43.795 17.2973 41.3436C18.347 39.2601 20.8689 38 20.8689 38C20.8689 38 21.3071 40.9 20.2886 42.9169ZM36.3259 50.7308C35.0377 53.2708 32.098 51.609 33.3346 49.1575C34.3843 47.074 36.9063 45.8139 36.9063 45.8139C36.9063 45.8139 37.3445 48.7139 36.3259 50.7308Z" fill="#009EFF"/>
<path fill-rule="evenodd" clip-rule="evenodd" d="M21.0502 49.1823C21.2226 49.2244 21.3326 49.4032 21.2888 49.5772L21.2722 49.6397C21.2303 49.8127 21.0531 49.9222 20.8808 49.8782L18.6364 49.3289L19.1846 51.5827C19.2294 51.7566 19.1203 51.9325 18.9441 51.9765L18.8818 51.9902C18.7094 52.0342 18.5322 51.9257 18.4903 51.7517L17.9499 49.5391L16.3424 51.1438C16.2148 51.2689 16.0113 51.2689 15.8837 51.1409L15.837 51.095C15.7133 50.9669 15.7133 50.7607 15.8399 50.6327L17.4436 49.0357L15.2489 48.4972C15.0756 48.4562 14.9646 48.2803 15.0103 48.1034L15.024 48.0408C15.0678 47.8649 15.246 47.7593 15.4183 47.8014L17.6646 48.3516L17.1135 46.0979C17.0707 45.9259 17.1807 45.7451 17.354 45.704L17.4164 45.6884C17.5916 45.6454 17.7688 45.7529 17.8107 45.9268L18.3462 48.1356L19.9558 46.5347C20.0824 46.4087 20.2888 46.4087 20.4134 46.5377L20.4601 46.5836C20.5877 46.7107 20.5848 46.9159 20.4601 47.043L18.8535 48.6419L21.0502 49.1823ZM40.7521 41.5034C40.9245 41.5455 41.0335 41.7243 40.9907 41.8983L40.9741 41.9608C40.9322 42.1338 40.755 42.2433 40.5827 42.1993L38.3383 41.65L38.8865 43.9038C38.9303 44.0777 38.8213 44.2537 38.645 44.2976L38.5827 44.3113C38.4104 44.3553 38.2331 44.2468 38.1913 44.0728L37.6509 41.8602L36.0433 43.4649C35.9157 43.59 35.7122 43.59 35.5847 43.462L35.5379 43.4161C35.4143 43.288 35.4143 43.0818 35.5409 42.9538L37.1445 41.3568L34.9498 40.8183C34.7765 40.7773 34.6655 40.6014 34.7113 40.4245L34.7249 40.3619C34.7687 40.186 34.9469 40.0804 35.1192 40.1225L37.3656 40.6727L36.8145 38.419C36.7726 38.247 36.8826 38.0662 37.0559 38.0251L37.1183 38.0095C37.2935 37.9665 37.4707 38.074 37.5126 38.2479L38.0481 40.4567L39.6577 38.8558C39.7843 38.7298 39.9907 38.7298 40.1153 38.8588L40.162 38.9047C40.2896 39.0318 40.2867 39.237 40.162 39.3641L38.5554 40.963L40.7521 41.5034Z" fill="#38C0E0"/>
</svg>
