<svg width="55" height="55" viewBox="0 0 55 55" fill="none" xmlns="http://www.w3.org/2000/svg">
<path fill-rule="evenodd" clip-rule="evenodd" d="M42.6379 22.8687C44.8748 23.9056 46.3185 26.1714 46.3185 28.6429C46.3185 32.1483 43.4889 35 40.0107 35H20.7087C16.6831 35 13.4063 31.7021 13.4063 27.6516C13.4063 24.668 15.2615 21.924 18.0227 20.8231L18.8419 20.4952L19.0134 19.6281C19.7507 15.9238 23.0082 13.236 26.7552 13.236C28.9439 13.236 31.0526 14.1604 32.5416 15.7725L33.2134 16.5L34.1646 16.2322C34.7072 16.079 35.2575 16.0014 35.801 16.0014C38.8821 16.0014 41.4727 18.4205 41.7002 21.5079L41.7705 22.4671L42.6379 22.8687ZM41.5595 11.3398C46.3686 12.2874 49.999 16.5475 50 21.664C50 24.0967 49.1721 26.3295 47.7949 28.1113C47.6003 25.2587 45.8819 22.6931 43.273 21.4836L43.2161 21.4574L43.2113 21.3953C42.9713 18.1372 40.6275 15.497 37.5936 14.7269L37.5541 14.3466C37.2823 11.6754 35.4223 9.23108 32.6987 7.96431C31.5104 7.41337 30.218 7.12239 28.9613 7.12239C28.0149 7.12239 27.0974 7.2834 26.257 7.59476C25.0224 6.56854 23.6067 5.84301 22.11 5.45212C24.0722 2.75757 27.2294 1 30.804 1C36.5865 1 41.2915 5.58597 41.5595 11.3398ZM11.8922 27.6516C11.8922 28.5992 12.0436 29.511 12.3192 30.3684C12.0754 30.3694 11.9154 30.3694 11.9038 30.3684C7.74329 29.7933 4.59278 25.993 5.04285 21.5612C5.35318 18.4913 7.53126 15.9325 10.3801 14.7948L10.8938 14.5901C10.9295 14.5765 10.9545 14.5455 10.9622 14.5077L11.0653 13.9878C11.5916 11.3427 13.1548 8.95076 15.514 7.66944C18.97 5.7916 22.9224 6.61995 25.5891 9.02545C25.7231 9.14572 25.8426 9.2757 25.965 9.40276C27.6294 8.45511 29.9231 8.35424 32.0646 9.34844C34.3747 10.4222 35.8405 12.4581 36.0477 14.5028C35.9649 14.4989 35.8858 14.4786 35.803 14.4786C35.1216 14.4786 34.4325 14.5756 33.7569 14.7657L33.6952 14.7831L33.6509 14.7346C31.8766 12.8141 29.3632 11.7132 26.7562 11.7132C22.2873 11.7132 18.4072 14.915 17.5292 19.3293L17.5177 19.3856L17.4647 19.4069C14.131 20.7358 11.8922 24.0492 11.8922 27.6516Z" fill="white"/>
<path fill-rule="evenodd" clip-rule="evenodd" d="M36.3196 42.769C35.0192 45.2326 32.0518 43.6207 33.3001 41.243C34.3597 39.2221 36.9054 38 36.9054 38C36.9054 38 37.3477 40.8128 36.3196 42.769Z" fill="#009EFF"/>
<path fill-rule="evenodd" clip-rule="evenodd" d="M24.7638 41.3255L22.6711 40.8125L24.2017 39.2948C24.3204 39.1742 24.3232 38.9794 24.2017 38.8588L24.1572 38.8152C24.0385 38.6927 23.8418 38.6927 23.7212 38.8124L22.1879 40.3319L21.6777 38.2354C21.6378 38.0702 21.469 37.9682 21.302 38.009L21.2426 38.0238C21.0775 38.0628 20.9727 38.2344 21.0135 38.3977L21.5385 40.5369L19.3985 40.0146C19.2343 39.9748 19.0646 40.0749 19.0228 40.2419L19.0098 40.3013C18.9662 40.4692 19.072 40.6362 19.2371 40.6752L21.328 41.1863L19.8002 42.7022C19.6796 42.8237 19.6796 43.0194 19.7974 43.1409L19.8419 43.1845C19.9634 43.3061 20.1573 43.3061 20.2788 43.1873L21.8103 41.6641L22.3251 43.7643C22.365 43.9295 22.5339 44.0324 22.698 43.9907L22.7574 43.9777C22.9253 43.936 23.0292 43.769 22.9865 43.6039L22.4643 41.4646L24.6024 41.986C24.7666 42.0277 24.9355 41.9238 24.9753 41.7596L24.9911 41.7002C25.0319 41.5351 24.928 41.3654 24.7638 41.3255Z" fill="#38C0E0"/>
</svg>
