<svg width="55" height="55" viewBox="0 0 55 55" fill="none" xmlns="http://www.w3.org/2000/svg">
<path fill-rule="evenodd" clip-rule="evenodd" d="M42.6379 22.8687C44.8748 23.9056 46.3185 26.1714 46.3185 28.6429C46.3185 32.1483 43.4889 35 40.0107 35H20.7087C16.6831 35 13.4063 31.7021 13.4063 27.6516C13.4063 24.668 15.2615 21.924 18.0227 20.8231L18.8419 20.4952L19.0134 19.6281C19.7507 15.9238 23.0082 13.236 26.7552 13.236C28.9439 13.236 31.0526 14.1604 32.5416 15.7725L33.2134 16.5L34.1646 16.2322C34.7072 16.079 35.2575 16.0014 35.801 16.0014C38.8821 16.0014 41.4727 18.4205 41.7002 21.5079L41.7705 22.4671L42.6379 22.8687ZM41.5595 11.3398C46.3686 12.2874 49.999 16.5475 50 21.664C50 24.0967 49.1721 26.3295 47.7949 28.1113C47.6003 25.2587 45.8819 22.6931 43.273 21.4836L43.2161 21.4574L43.2113 21.3953C42.9713 18.1372 40.6275 15.497 37.5936 14.7269L37.5541 14.3466C37.2823 11.6754 35.4223 9.23108 32.6987 7.96431C31.5104 7.41337 30.218 7.12239 28.9613 7.12239C28.0149 7.12239 27.0974 7.2834 26.257 7.59476C25.0224 6.56854 23.6067 5.84301 22.11 5.45212C24.0722 2.75757 27.2294 1 30.804 1C36.5865 1 41.2915 5.58597 41.5595 11.3398ZM11.8922 27.6516C11.8922 28.5992 12.0436 29.511 12.3192 30.3684C12.0754 30.3694 11.9154 30.3694 11.9038 30.3684C7.74329 29.7933 4.59278 25.993 5.04285 21.5612C5.35318 18.4913 7.53126 15.9325 10.3801 14.7948L10.8938 14.5901C10.9295 14.5765 10.9545 14.5455 10.9622 14.5077L11.0653 13.9878C11.5916 11.3427 13.1548 8.95076 15.514 7.66944C18.97 5.7916 22.9224 6.61995 25.5891 9.02545C25.7231 9.14572 25.8426 9.2757 25.965 9.40276C27.6294 8.45511 29.9231 8.35424 32.0646 9.34844C34.3747 10.4222 35.8405 12.4581 36.0477 14.5028C35.9649 14.4989 35.8858 14.4786 35.803 14.4786C35.1216 14.4786 34.4325 14.5756 33.7569 14.7657L33.6952 14.7831L33.6509 14.7346C31.8766 12.8141 29.3632 11.7132 26.7562 11.7132C22.2873 11.7132 18.4072 14.915 17.5292 19.3293L17.5177 19.3856L17.4647 19.4069C14.131 20.7358 11.8922 24.0492 11.8922 27.6516Z" fill="white"/>
<path fill-rule="evenodd" clip-rule="evenodd" d="M25.9709 41.3255C26.141 41.3654 26.2486 41.5351 26.2053 41.7002L26.189 41.7596C26.1477 41.9238 25.9728 42.0277 25.8028 41.986L23.5882 41.4646L24.1291 43.6039C24.1733 43.769 24.0657 43.936 23.8918 43.9777L23.8303 43.9907C23.6602 44.0324 23.4854 43.9295 23.444 43.7643L22.9108 41.6641L21.3246 43.1873C21.1987 43.3061 20.9979 43.3061 20.872 43.1845L20.8259 43.1409C20.7039 43.0194 20.7039 42.8237 20.8288 42.7022L22.4112 41.1863L20.2456 40.6752C20.0746 40.6362 19.965 40.4692 20.0102 40.3013L20.0236 40.2419C20.0669 40.0749 20.2427 39.9748 20.4128 40.0146L22.6293 40.5369L22.0855 38.3977C22.0442 38.2344 22.1527 38.0628 22.3238 38.0238L22.3853 38.009C22.5582 37.9682 22.7331 38.0702 22.7744 38.2354L23.3028 40.3319L24.891 38.8124C25.0159 38.6927 25.2196 38.6927 25.3426 38.8152L25.3887 38.8588C25.5145 38.9794 25.5117 39.1742 25.3887 39.2948L23.8034 40.8125L25.9709 41.3255ZM40.7555 41.3255C40.9246 41.3654 41.0331 41.5351 40.9908 41.7002L40.9745 41.7596C40.9332 41.9238 40.7583 42.0277 40.5883 41.986L38.3737 41.4646L38.9146 43.6039C38.9578 43.769 38.8502 43.936 38.6763 43.9777L38.6148 43.9907C38.4448 44.0324 38.2699 43.9295 38.2286 43.7643L37.6954 41.6641L36.1091 43.1873C35.9832 43.3061 35.7824 43.3061 35.6566 43.1845L35.6105 43.1409C35.4884 43.0194 35.4884 42.8237 35.6133 42.7022L37.1957 41.1863L35.0301 40.6752C34.8591 40.6362 34.7496 40.4692 34.7948 40.3013L34.8082 40.2419C34.8514 40.0749 35.0273 39.9748 35.1973 40.0146L37.4138 40.5369L36.87 38.3977C36.8287 38.2344 36.9373 38.0628 37.1083 38.0238L37.1698 38.009C37.3427 37.9682 37.5176 38.0702 37.5589 38.2354L38.0874 40.3319L39.6755 38.8124C39.8004 38.6927 40.0041 38.6927 40.1271 38.8152L40.1732 38.8588C40.2991 38.9794 40.2962 39.1742 40.1732 39.2948L38.5879 40.8125L40.7555 41.3255Z" fill="#38C0E0"/>
</svg>
