<svg width="55" height="55" viewBox="0 0 55 55" fill="none" xmlns="http://www.w3.org/2000/svg">
<path fill-rule="evenodd" clip-rule="evenodd" d="M42.6379 22.8687C44.8748 23.9056 46.3185 26.1714 46.3185 28.6429C46.3185 32.1483 43.4889 35 40.0107 35H20.7087C16.6831 35 13.4063 31.7021 13.4063 27.6516C13.4063 24.668 15.2615 21.924 18.0227 20.8231L18.8419 20.4952L19.0134 19.6281C19.7507 15.9238 23.0082 13.236 26.7552 13.236C28.9439 13.236 31.0526 14.1604 32.5416 15.7725L33.2134 16.5L34.1646 16.2322C34.7072 16.079 35.2575 16.0014 35.801 16.0014C38.8821 16.0014 41.4727 18.4205 41.7002 21.5079L41.7705 22.4671L42.6379 22.8687ZM41.5595 11.3398C46.3686 12.2874 49.999 16.5475 50 21.664C50 24.0967 49.1721 26.3295 47.7949 28.1113C47.6003 25.2587 45.8819 22.6931 43.273 21.4836L43.2161 21.4574L43.2113 21.3953C42.9713 18.1372 40.6275 15.497 37.5936 14.7269L37.5541 14.3466C37.2823 11.6754 35.4223 9.23108 32.6987 7.96431C31.5104 7.41337 30.218 7.12239 28.9613 7.12239C28.0149 7.12239 27.0974 7.2834 26.257 7.59476C25.0224 6.56854 23.6067 5.84301 22.11 5.45212C24.0722 2.75757 27.2294 1 30.804 1C36.5865 1 41.2915 5.58597 41.5595 11.3398ZM11.8922 27.6516C11.8922 28.5992 12.0436 29.511 12.3192 30.3684C12.0754 30.3694 11.9154 30.3694 11.9038 30.3684C7.74329 29.7933 4.59278 25.993 5.04285 21.5612C5.35318 18.4913 7.53126 15.9325 10.3801 14.7948L10.8938 14.5901C10.9295 14.5765 10.9545 14.5455 10.9622 14.5077L11.0653 13.9878C11.5916 11.3427 13.1548 8.95076 15.514 7.66944C18.97 5.7916 22.9224 6.61995 25.5891 9.02545C25.7231 9.14572 25.8426 9.2757 25.965 9.40276C27.6294 8.45511 29.9231 8.35424 32.0646 9.34844C34.3747 10.4222 35.8405 12.4581 36.0477 14.5028C35.9649 14.4989 35.8858 14.4786 35.803 14.4786C35.1216 14.4786 34.4325 14.5756 33.7569 14.7657L33.6952 14.7831L33.6509 14.7346C31.8766 12.8141 29.3632 11.7132 26.7562 11.7132C22.2873 11.7132 18.4072 14.915 17.5292 19.3293L17.5177 19.3856L17.4647 19.4069C14.131 20.7358 11.8922 24.0492 11.8922 27.6516Z" fill="white"/>
<path fill-rule="evenodd" clip-rule="evenodd" d="M22.7293 41.5034C22.9011 41.5455 23.0114 41.7243 22.9685 41.8983L22.9519 41.9608C22.9099 42.1338 22.7322 42.2433 22.5594 42.1993L20.309 41.65L20.8586 43.9038C20.9035 44.0777 20.7942 44.2537 20.6175 44.2976L20.555 44.3113C20.3822 44.3553 20.2045 44.2468 20.1625 44.0728L19.6206 41.8602L18.0087 43.4649C17.8808 43.59 17.6768 43.59 17.5489 43.462L17.502 43.4161C17.378 43.288 17.378 43.0818 17.5049 42.9538L19.1129 41.3568L16.9123 40.8183C16.7385 40.7773 16.6272 40.6014 16.6731 40.4245L16.6868 40.3619C16.7307 40.186 16.9094 40.0804 17.0822 40.1225L19.3346 40.6727L18.782 38.419C18.739 38.247 18.8493 38.0662 19.0231 38.0251L19.0856 38.0095C19.2613 37.9665 19.439 38.074 19.481 38.2479L20.018 40.4567L21.6319 38.8558C21.7588 38.7298 21.9658 38.7298 22.0908 38.8588L22.1376 38.9047C22.2655 39.0318 22.2626 39.237 22.1376 39.3641L20.5267 40.963L22.7293 41.5034ZM17.0675 49.1823C17.2403 49.2244 17.3497 49.4032 17.3067 49.5772L17.2901 49.6397C17.2482 49.8127 17.0705 49.9222 16.8976 49.8782L14.6472 49.3289L15.1969 51.5827C15.2408 51.7566 15.1315 51.9325 14.9547 51.9765L14.8923 51.9902C14.7194 52.0342 14.5418 51.9257 14.4998 51.7517L13.9579 49.5391L12.346 51.1438C12.2181 51.2689 12.014 51.2689 11.8861 51.1409L11.8393 51.095C11.7153 50.9669 11.7153 50.7607 11.8422 50.6327L13.4502 49.0357L11.2496 48.4972C11.0758 48.4562 10.9645 48.2803 11.0104 48.1034L11.024 48.0408C11.068 47.8649 11.2466 47.7593 11.4194 47.8014L13.6718 48.3516L13.1192 46.0979C13.0773 45.9259 13.1876 45.7451 13.3614 45.704L13.4239 45.6884C13.5996 45.6454 13.7773 45.7529 13.8193 45.9268L14.3563 48.1356L15.9701 46.5347C16.0971 46.4087 16.304 46.4087 16.429 46.5377L16.4759 46.5836C16.6038 46.7107 16.6008 46.9159 16.4759 47.043L14.8649 48.6419L17.0675 49.1823ZM31.9654 49.1823C32.1382 49.2244 32.2475 49.4032 32.2036 49.5772L32.187 49.6397C32.145 49.8127 31.9673 49.9222 31.7945 49.8782L29.5441 49.3289L30.0938 51.5827C30.1387 51.7566 30.0293 51.9325 29.8526 51.9765L29.7901 51.9902C29.6173 52.0342 29.4396 51.9257 29.3976 51.7517L28.8558 49.5391L27.2438 51.1438C27.1159 51.2689 26.9119 51.2689 26.784 51.1409L26.7371 51.095C26.6131 50.9669 26.6131 50.7607 26.7401 50.6327L28.3481 49.0357L26.1474 48.4972C25.9736 48.4562 25.8623 48.2803 25.9082 48.1034L25.9219 48.0408C25.9658 47.8649 26.1445 47.7593 26.3173 47.8014L28.5697 48.3516L28.0171 46.0979C27.9751 45.9259 28.0854 45.7451 28.2592 45.704L28.3217 45.6884C28.4975 45.6454 28.6751 45.7529 28.7171 45.9268L29.2541 48.1356L30.868 46.5347C30.9949 46.4087 31.2019 46.4087 31.3269 46.5377L31.3737 46.5836C31.5016 46.7107 31.4987 46.9159 31.3737 47.043L29.7628 48.6419L31.9654 49.1823ZM37.7521 41.5034C37.9239 41.5455 38.0343 41.7243 37.9903 41.8983L37.9737 41.9608C37.9317 42.1338 37.7541 42.2433 37.5812 42.1993L35.3308 41.65L35.8805 43.9038C35.9254 44.0777 35.816 44.2537 35.6393 44.2976L35.5768 44.3113C35.404 44.3553 35.2263 44.2468 35.1844 44.0728L34.6425 41.8602L33.0306 43.4649C32.9027 43.59 32.6986 43.59 32.5707 43.462L32.5238 43.4161C32.3998 43.288 32.3999 43.0818 32.5268 42.9538L34.1348 41.3568L31.9341 40.8183C31.7604 40.7773 31.649 40.6014 31.6949 40.4245L31.7086 40.3619C31.7525 40.186 31.9312 40.0804 32.104 40.1225L34.3564 40.6727L33.8038 38.419C33.7618 38.247 33.8722 38.0662 34.0459 38.0251L34.1084 38.0095C34.2842 37.9665 34.4619 38.074 34.5038 38.2479L35.0408 40.4567L36.6547 38.8558C36.7816 38.7298 36.9886 38.7298 37.1136 38.8588L37.1604 38.9047C37.2883 39.0318 37.2854 39.237 37.1604 39.3641L35.5495 40.963L37.7521 41.5034Z" fill="#38C0E0"/>
</svg>
