<svg width="55" height="55" viewBox="0 0 55 55" fill="none" xmlns="http://www.w3.org/2000/svg">
<path fill-rule="evenodd" clip-rule="evenodd" d="M42.6379 22.8687C44.8748 23.9056 46.3185 26.1714 46.3185 28.6429C46.3185 32.1483 43.4889 35 40.0107 35H20.7087C16.6831 35 13.4063 31.7021 13.4063 27.6516C13.4063 24.668 15.2615 21.924 18.0227 20.8231L18.8419 20.4952L19.0134 19.6281C19.7507 15.9238 23.0082 13.236 26.7552 13.236C28.9439 13.236 31.0526 14.1604 32.5416 15.7725L33.2134 16.5L34.1646 16.2322C34.7072 16.079 35.2575 16.0014 35.801 16.0014C38.8821 16.0014 41.4727 18.4205 41.7002 21.5079L41.7705 22.4671L42.6379 22.8687ZM41.5595 11.3398C46.3686 12.2874 49.999 16.5475 50 21.664C50 24.0967 49.1721 26.3295 47.7949 28.1113C47.6003 25.2587 45.8819 22.6931 43.273 21.4836L43.2161 21.4574L43.2113 21.3953C42.9713 18.1372 40.6275 15.497 37.5936 14.7269L37.5541 14.3466C37.2823 11.6754 35.4223 9.23108 32.6987 7.96431C31.5104 7.41337 30.218 7.12239 28.9613 7.12239C28.0149 7.12239 27.0974 7.2834 26.257 7.59476C25.0224 6.56854 23.6067 5.84301 22.11 5.45212C24.0722 2.75757 27.2294 1 30.804 1C36.5865 1 41.2915 5.58597 41.5595 11.3398ZM11.8922 27.6516C11.8922 28.5992 12.0436 29.511 12.3192 30.3684C12.0754 30.3694 11.9154 30.3694 11.9038 30.3684C7.74329 29.7933 4.59278 25.993 5.04285 21.5612C5.35318 18.4913 7.53126 15.9325 10.3801 14.7948L10.8938 14.5901C10.9295 14.5765 10.9545 14.5455 10.9622 14.5077L11.0653 13.9878C11.5916 11.3427 13.1548 8.95076 15.514 7.66944C18.97 5.7916 22.9224 6.61995 25.5891 9.02545C25.7231 9.14572 25.8426 9.2757 25.965 9.40276C27.6294 8.45511 29.9231 8.35424 32.0646 9.34844C34.3747 10.4222 35.8405 12.4581 36.0477 14.5028C35.9649 14.4989 35.8858 14.4786 35.803 14.4786C35.1216 14.4786 34.4325 14.5756 33.7569 14.7657L33.6952 14.7831L33.6509 14.7346C31.8766 12.8141 29.3632 11.7132 26.7562 11.7132C22.2873 11.7132 18.4072 14.915 17.5292 19.3293L17.5177 19.3856L17.4647 19.4069C14.131 20.7358 11.8922 24.0492 11.8922 27.6516Z" fill="white"/>
<path fill-rule="evenodd" clip-rule="evenodd" d="M33 41.0311L30.2392 40.9886L32.5028 37L29.0083 37.0296L26.0435 42.9804H28.6249L25 52L33 41.0311Z" fill="#FFA800"/>
<path fill-rule="evenodd" clip-rule="evenodd" d="M37.6765 49.1816C37.8505 49.2236 37.9616 49.4024 37.9164 49.5773L37.8997 49.6399C37.8574 49.8129 37.6785 49.9223 37.5045 49.8783L35.2387 49.3291L35.7921 51.5827C35.8374 51.7566 35.7273 51.9325 35.5493 51.9765L35.4864 51.9902C35.3124 52.0342 35.1335 51.9257 35.0913 51.7518L34.5457 49.5392L32.9228 51.1439C32.794 51.269 32.5886 51.269 32.4598 51.141L32.4126 51.095C32.2878 50.967 32.2878 50.7608 32.4156 50.6328L34.0346 49.0359L31.8189 48.4975C31.6439 48.4564 31.5319 48.2805 31.5781 48.1036L31.5918 48.0411C31.6361 47.8652 31.8159 47.7596 31.9899 47.8017L34.2577 48.3509L33.7013 46.0973C33.659 45.9253 33.7701 45.7445 33.9451 45.7035L34.008 45.6878C34.1849 45.6448 34.3639 45.7523 34.4061 45.9263L34.9468 48.1349L36.5717 46.5341C36.6994 46.4081 36.9078 46.4081 37.0337 46.5371L37.0808 46.583C37.2096 46.7101 37.2067 46.9153 37.0808 47.0423L35.4589 48.6411L37.6765 49.1816ZM42.7498 41.5032C42.9237 41.5452 43.0338 41.7241 42.9906 41.898L42.9739 41.9606C42.9316 42.1335 42.7527 42.243 42.5787 42.199L40.3129 41.6498L40.8663 43.9034C40.9106 44.0773 40.8005 44.2532 40.6226 44.2972L40.5596 44.3109C40.3857 44.3548 40.2068 44.2464 40.1645 44.0724L39.6189 41.8599L37.996 43.4646C37.8672 43.5896 37.6618 43.5897 37.533 43.4616L37.4858 43.4157C37.361 43.2877 37.361 43.0815 37.4888 42.9535L39.1078 41.3566L36.8921 40.8181C36.7171 40.7771 36.6051 40.6012 36.6513 40.4243L36.665 40.3617C36.7093 40.1858 36.8892 40.0803 37.0631 40.1223L39.3309 40.6725L38.7745 38.419C38.7323 38.247 38.8433 38.0662 39.0183 38.0251L39.0812 38.0095C39.2582 37.9665 39.4371 38.074 39.4793 38.2479L40.02 40.4565L41.6449 38.8558C41.7727 38.7297 41.9811 38.7297 42.1069 38.8587L42.1541 38.9046C42.2828 39.0317 42.2799 39.2369 42.1541 39.364L40.5321 40.9628L42.7498 41.5032ZM22.1079 49.1816C22.2819 49.2236 22.392 49.4024 22.3488 49.5764L22.332 49.6389C22.2898 49.8119 22.1109 49.9213 21.9369 49.8774L19.6711 49.3281L20.2245 51.5817C20.2697 51.7557 20.1596 51.9316 19.9817 51.9755L19.9188 51.9892C19.7448 52.0332 19.5659 51.9247 19.5236 51.7508L18.9781 49.5383L17.3552 51.1429C17.2264 51.268 17.0209 51.268 16.8922 51.14L16.845 51.0941C16.7202 50.966 16.7202 50.7598 16.8479 50.6318L18.4669 49.035L16.2513 48.4965C16.0763 48.4554 15.9642 48.2795 16.0104 48.1027L16.0242 48.0401C16.0684 47.8642 16.2483 47.7587 16.4223 47.8007L18.6901 48.3509L18.1337 46.0973C18.0904 45.9253 18.2015 45.7445 18.3765 45.7035L18.4394 45.6878C18.6163 45.6448 18.7952 45.7523 18.8375 45.9263L19.3782 48.1349L21.003 46.5341C21.1308 46.4081 21.3392 46.4081 21.4651 46.5371L21.5122 46.583C21.641 46.7101 21.6381 46.9153 21.5122 47.0423L19.8903 48.6411L22.1079 49.1816ZM22.2485 41.5032C22.4215 41.5452 22.5326 41.7241 22.4893 41.898L22.4726 41.9606C22.4303 42.1335 22.2514 42.243 22.0775 42.199L19.8117 41.6498L20.3651 43.9034C20.4103 44.0773 20.3002 44.2532 20.1223 44.2972L20.0594 44.3109C19.8854 44.3548 19.7065 44.2464 19.6642 44.0724L19.1187 41.8599L17.4957 43.4646C17.367 43.5896 17.1615 43.5897 17.0327 43.4616L16.9856 43.4157C16.8607 43.2877 16.8607 43.0815 16.9885 42.9535L18.6075 41.3566L16.3918 40.8181C16.2169 40.7771 16.1048 40.6012 16.151 40.4243L16.1648 40.3617C16.209 40.1858 16.3889 40.0803 16.5629 40.1223L18.8306 40.6725L18.2743 38.419C18.231 38.247 18.3421 38.0662 18.5171 38.0251L18.58 38.0095C18.7569 37.9665 18.9358 38.074 18.9781 38.2479L19.5187 40.4565L21.1436 38.8558C21.2714 38.7297 21.4798 38.7297 21.6056 38.8587L21.6528 38.9046C21.7816 39.0317 21.7786 39.2369 21.6528 39.364L20.0309 40.9628L22.2485 41.5032Z" fill="#38C0E0"/>
</svg>
