<svg width="55" height="55" viewBox="0 0 55 55" fill="none" xmlns="http://www.w3.org/2000/svg">
<path fill-rule="evenodd" clip-rule="evenodd" d="M42.6379 22.8687C44.8748 23.9056 46.3185 26.1714 46.3185 28.6429C46.3185 32.1483 43.4889 35 40.0107 35H20.7087C16.6831 35 13.4063 31.7021 13.4063 27.6516C13.4063 24.668 15.2615 21.924 18.0227 20.8231L18.8419 20.4952L19.0134 19.6281C19.7507 15.9238 23.0082 13.236 26.7552 13.236C28.9439 13.236 31.0526 14.1604 32.5416 15.7725L33.2134 16.5L34.1646 16.2322C34.7072 16.079 35.2575 16.0014 35.801 16.0014C38.8821 16.0014 41.4727 18.4205 41.7002 21.5079L41.7705 22.4671L42.6379 22.8687ZM41.5595 11.3398C46.3686 12.2874 49.999 16.5475 50 21.664C50 24.0967 49.1721 26.3295 47.7949 28.1113C47.6003 25.2587 45.8819 22.6931 43.273 21.4836L43.2161 21.4574L43.2113 21.3953C42.9713 18.1372 40.6275 15.497 37.5936 14.7269L37.5541 14.3466C37.2823 11.6754 35.4223 9.23108 32.6987 7.96431C31.5104 7.41337 30.218 7.12239 28.9613 7.12239C28.0149 7.12239 27.0974 7.2834 26.257 7.59476C25.0224 6.56854 23.6067 5.84301 22.11 5.45212C24.0722 2.75757 27.2294 1 30.804 1C36.5865 1 41.2915 5.58597 41.5595 11.3398ZM11.8922 27.6516C11.8922 28.5992 12.0436 29.511 12.3192 30.3684C12.0754 30.3694 11.9154 30.3694 11.9038 30.3684C7.74329 29.7933 4.59278 25.993 5.04285 21.5612C5.35318 18.4913 7.53126 15.9325 10.3801 14.7948L10.8938 14.5901C10.9295 14.5765 10.9545 14.5455 10.9622 14.5077L11.0653 13.9878C11.5916 11.3427 13.1548 8.95076 15.514 7.66944C18.97 5.7916 22.9224 6.61995 25.5891 9.02545C25.7231 9.14572 25.8426 9.2757 25.965 9.40276C27.6294 8.45511 29.9231 8.35424 32.0646 9.34844C34.3747 10.4222 35.8405 12.4581 36.0477 14.5028C35.9649 14.4989 35.8858 14.4786 35.803 14.4786C35.1216 14.4786 34.4325 14.5756 33.7569 14.7657L33.6952 14.7831L33.6509 14.7346C31.8766 12.8141 29.3632 11.7132 26.7562 11.7132C22.2873 11.7132 18.4072 14.915 17.5292 19.3293L17.5177 19.3856L17.4647 19.4069C14.131 20.7358 11.8922 24.0492 11.8922 27.6516Z" fill="white"/>
<path fill-rule="evenodd" clip-rule="evenodd" d="M22.4447 41.5032C22.6119 41.5452 22.7192 41.7241 22.6774 41.898L22.6613 41.9606C22.6205 42.1335 22.4476 42.243 22.2795 42.199L20.0903 41.6498L20.625 43.9034C20.6687 44.0773 20.5623 44.2532 20.3904 44.2972L20.3296 44.3109C20.1615 44.3548 19.9886 44.2464 19.9478 44.0724L19.4207 41.8599L17.8526 43.4646C17.7282 43.5896 17.5297 43.5897 17.4052 43.4616L17.3597 43.4157C17.239 43.2877 17.239 43.0815 17.3625 42.9535L18.9268 41.3566L16.786 40.8181C16.6169 40.7771 16.5087 40.6012 16.5533 40.4243L16.5666 40.3617C16.6093 40.1858 16.7831 40.0803 16.9513 40.1223L19.1424 40.6725L18.6048 38.419C18.563 38.247 18.6703 38.0662 18.8394 38.0251L18.9002 38.0095C19.0711 37.9665 19.244 38.074 19.2848 38.2479L19.8072 40.4565L21.3772 38.8558C21.5007 38.7297 21.702 38.7297 21.8236 38.8587L21.8692 38.9046C21.9936 39.0317 21.9908 39.2369 21.8692 39.364L20.3021 40.9628L22.4447 41.5032ZM13.9025 49.1816C14.0706 49.2236 14.1779 49.4024 14.1342 49.5773L14.1181 49.6399C14.0772 49.8129 13.9044 49.9223 13.7363 49.8783L11.547 49.3291L12.0818 51.5827C12.1255 51.7566 12.0191 51.9325 11.8472 51.9765L11.7864 51.9902C11.6183 52.0342 11.4454 51.9257 11.4046 51.7518L10.8774 49.5392L9.30937 51.1439C9.18495 51.269 8.98645 51.269 8.86203 51.141L8.81644 51.095C8.69582 50.967 8.69582 50.7608 8.81929 50.6328L10.3836 49.0359L8.24278 48.4975C8.07372 48.4564 7.96544 48.2805 8.01008 48.1036L8.02338 48.0411C8.06612 47.8652 8.23993 47.7596 8.40804 47.8017L10.5992 48.3519L10.0616 46.0983C10.0208 45.9263 10.1281 45.7455 10.2971 45.7044L10.3579 45.6878C10.5289 45.6448 10.7017 45.7523 10.7426 45.9263L11.265 48.1349L12.8349 46.5341C12.9584 46.4081 13.1598 46.4081 13.2813 46.5371L13.3269 46.583C13.4513 46.7101 13.4485 46.9153 13.3269 47.0423L11.7598 48.6411L13.9025 49.1816ZM22.3089 49.1816C22.477 49.2236 22.5834 49.4024 22.5416 49.5764L22.5255 49.6389C22.4846 49.8119 22.3118 49.9213 22.1437 49.8774L19.9544 49.3281L20.4892 51.5817C20.5328 51.7557 20.4265 51.9316 20.2546 51.9755L20.1938 51.9892C20.0257 52.0332 19.8528 51.9247 19.812 51.7508L19.2848 49.5383L17.7168 51.1429C17.5924 51.268 17.3938 51.268 17.2694 51.14L17.2238 51.0941C17.1032 50.966 17.1032 50.7598 17.2267 50.6318L18.791 49.035L16.6502 48.4965C16.4811 48.4554 16.3728 48.2795 16.4175 48.1027L16.4308 48.0401C16.4735 47.8642 16.6473 47.7587 16.8154 47.8007L19.0066 48.3509L18.469 46.0973C18.4272 45.9253 18.5345 45.7445 18.7036 45.7035L18.7644 45.6878C18.9353 45.6448 19.1082 45.7523 19.149 45.9263L19.6714 48.1349L21.2414 46.5341C21.3649 46.4081 21.5662 46.4081 21.6878 46.5371L21.7334 46.583C21.8578 46.7101 21.8549 46.9153 21.7334 47.0423L20.1662 48.6411L22.3089 49.1816ZM37.3514 49.1816C37.5196 49.2236 37.6269 49.4024 37.5832 49.5773L37.567 49.6399C37.5262 49.8129 37.3533 49.9223 37.1852 49.8783L34.996 49.3291L35.5307 51.5827C35.5744 51.7566 35.468 51.9325 35.2961 51.9765L35.2353 51.9902C35.0672 52.0342 34.8944 51.9257 34.8535 51.7518L34.3264 49.5392L32.7583 51.1439C32.6339 51.269 32.4354 51.269 32.311 51.141L32.2654 51.095C32.1448 50.967 32.1448 50.7608 32.2683 50.6328L33.8325 49.0359L31.6917 48.4975C31.5227 48.4564 31.4144 48.2805 31.459 48.1036L31.4723 48.0411C31.5151 47.8652 31.6889 47.7596 31.857 47.8017L34.0481 48.3509L33.5106 46.0973C33.4697 45.9253 33.577 45.7445 33.7461 45.7035L33.8069 45.6878C33.9778 45.6448 34.1507 45.7523 34.1915 45.9263L34.7139 48.1349L36.2839 46.5341C36.4074 46.4081 36.6087 46.4081 36.7303 46.5371L36.7759 46.583C36.9003 46.7101 36.8975 46.9153 36.7759 47.0423L35.2088 48.6411L37.3514 49.1816ZM45.7588 49.1816C45.926 49.2236 46.0333 49.4024 45.9906 49.5773L45.9744 49.6399C45.9336 49.8129 45.7607 49.9223 45.5926 49.8783L43.4034 49.3291L43.9381 51.5827C43.9818 51.7566 43.8754 51.9325 43.7035 51.9765L43.6427 51.9902C43.4746 52.0342 43.3018 51.9257 43.2609 51.7518L42.7338 49.5392L41.1657 51.1439C41.0413 51.269 40.8428 51.269 40.7184 51.141L40.6728 51.095C40.5522 50.967 40.5522 50.7608 40.6757 50.6328L42.2399 49.0359L40.0991 48.4975C39.9301 48.4564 39.8218 48.2805 39.8664 48.1036L39.8797 48.0411C39.9225 47.8652 40.0963 47.7596 40.2644 47.8017L42.4555 48.3519L41.918 46.0983C41.8762 45.9263 41.9835 45.7455 42.1526 45.7044L42.2143 45.6878C42.3852 45.6448 42.5581 45.7523 42.5989 45.9263L43.1213 48.1349L44.6913 46.5341C44.8148 46.4081 45.0161 46.4081 45.1377 46.5371L45.1833 46.583C45.3077 46.7101 45.3049 46.9153 45.1833 47.0423L43.6162 48.6411L45.7588 49.1816ZM42.2532 41.5032C42.4213 41.5452 42.5277 41.7241 42.4859 41.898L42.4698 41.9606C42.4289 42.1335 42.2561 42.243 42.088 42.199L39.8987 41.6498L40.4335 43.9034C40.4762 44.0773 40.3698 44.2532 40.1979 44.2972L40.1371 44.3109C39.969 44.3548 39.7962 44.2464 39.7553 44.0724L39.2282 41.8599L37.6601 43.4646C37.5357 43.5896 37.3372 43.5897 37.2128 43.4616L37.1672 43.4157C37.0466 43.2877 37.0466 43.0815 37.17 42.9535L38.7343 41.3566L36.5935 40.8181C36.4245 40.7771 36.3162 40.6012 36.3608 40.4243L36.3741 40.3617C36.4169 40.1858 36.5907 40.0803 36.7588 40.1223L38.9499 40.6725L38.4123 38.419C38.3715 38.247 38.4788 38.0662 38.6479 38.0251L38.7087 38.0095C38.8796 37.9665 39.0525 38.074 39.0933 38.2479L39.6157 40.4565L41.1857 38.8558C41.3092 38.7297 41.5105 38.7297 41.6321 38.8587L41.6777 38.9046C41.8021 39.0317 41.7992 39.2369 41.6777 39.364L40.1105 40.9628L42.2532 41.5032Z" fill="#38C0E0"/>
<path fill-rule="evenodd" clip-rule="evenodd" d="M33 41.0311L30.2392 40.9886L32.5028 37L29.0083 37.0296L26.0435 42.9804H28.6249L25 52L33 41.0311Z" fill="#FFA800"/>
</svg>
