<svg width="55" height="55" viewBox="0 0 55 55" fill="none" xmlns="http://www.w3.org/2000/svg">
<path fill-rule="evenodd" clip-rule="evenodd" d="M42.6379 22.8687C44.8748 23.9056 46.3185 26.1714 46.3185 28.6429C46.3185 32.1483 43.4889 35 40.0107 35H20.7087C16.6831 35 13.4063 31.7021 13.4063 27.6516C13.4063 24.668 15.2615 21.924 18.0227 20.8231L18.8419 20.4952L19.0134 19.6281C19.7507 15.9238 23.0082 13.236 26.7552 13.236C28.9439 13.236 31.0526 14.1604 32.5416 15.7725L33.2134 16.5L34.1646 16.2322C34.7072 16.079 35.2575 16.0014 35.801 16.0014C38.8821 16.0014 41.4727 18.4205 41.7002 21.5079L41.7705 22.4671L42.6379 22.8687ZM41.5595 11.3398C46.3686 12.2874 49.999 16.5475 50 21.664C50 24.0967 49.1721 26.3295 47.7949 28.1113C47.6003 25.2587 45.8819 22.6931 43.273 21.4836L43.2161 21.4574L43.2113 21.3953C42.9713 18.1372 40.6275 15.497 37.5936 14.7269L37.5541 14.3466C37.2823 11.6754 35.4223 9.23108 32.6987 7.96431C31.5104 7.41337 30.218 7.12239 28.9613 7.12239C28.0149 7.12239 27.0974 7.2834 26.257 7.59476C25.0224 6.56854 23.6067 5.84301 22.11 5.45212C24.0722 2.75757 27.2294 1 30.804 1C36.5865 1 41.2915 5.58597 41.5595 11.3398ZM11.8922 27.6516C11.8922 28.5992 12.0436 29.511 12.3192 30.3684C12.0754 30.3694 11.9154 30.3694 11.9038 30.3684C7.74329 29.7933 4.59278 25.993 5.04285 21.5612C5.35318 18.4913 7.53126 15.9325 10.3801 14.7948L10.8938 14.5901C10.9295 14.5765 10.9545 14.5455 10.9622 14.5077L11.0653 13.9878C11.5916 11.3427 13.1548 8.95076 15.514 7.66944C18.97 5.7916 22.9224 6.61995 25.5891 9.02545C25.7231 9.14572 25.8426 9.2757 25.965 9.40276C27.6294 8.45511 29.9231 8.35424 32.0646 9.34844C34.3747 10.4222 35.8405 12.4581 36.0477 14.5028C35.9649 14.4989 35.8858 14.4786 35.803 14.4786C35.1216 14.4786 34.4325 14.5756 33.7569 14.7657L33.6952 14.7831L33.6509 14.7346C31.8766 12.8141 29.3632 11.7132 26.7562 11.7132C22.2873 11.7132 18.4072 14.915 17.5292 19.3293L17.5177 19.3856L17.4647 19.4069C14.131 20.7358 11.8922 24.0492 11.8922 27.6516Z" fill="white"/>
<path fill-rule="evenodd" clip-rule="evenodd" d="M21.6276 41.5034C21.8032 41.5455 21.9153 41.7243 21.8706 41.8983L21.8538 41.9608C21.8111 42.1338 21.6306 42.2433 21.455 42.1993L19.1687 41.65L19.7272 43.9038C19.7728 44.0777 19.6617 44.2537 19.4822 44.2976L19.4187 44.3113C19.2431 44.3553 19.0626 44.2468 19.0199 44.0728L18.4694 41.8602L16.8318 43.4649C16.7019 43.59 16.4946 43.59 16.3646 43.462L16.317 43.4161C16.191 43.288 16.191 43.0818 16.32 42.9538L17.9536 41.3568L15.7179 40.8183C15.5413 40.7773 15.4283 40.6014 15.4749 40.4245L15.4888 40.3619C15.5334 40.186 15.7149 40.0804 15.8905 40.1225L18.1788 40.6727L17.6174 38.419C17.5737 38.247 17.6858 38.0662 17.8624 38.0251L17.9259 38.0095C18.1044 37.9665 18.2849 38.074 18.3276 38.2479L18.8731 40.4567L20.5127 38.8558C20.6417 38.7298 20.852 38.7298 20.9789 38.8588L21.0265 38.9047C21.1565 39.0318 21.1535 39.237 21.0265 39.3641L19.3899 40.963L21.6276 41.5034ZM37.2837 49.1823C37.4593 49.2244 37.5714 49.4032 37.5258 49.5772L37.5089 49.6397C37.4662 49.8127 37.2857 49.9222 37.1102 49.8782L34.8238 49.3289L35.3823 51.5827C35.4279 51.7566 35.3168 51.9325 35.1373 51.9765L35.0738 51.9902C34.8982 52.0342 34.7177 51.9257 34.675 51.7517L34.1245 49.5391L32.4869 51.1438C32.357 51.2689 32.1497 51.2689 32.0197 51.1409L31.9721 51.095C31.8462 50.9669 31.8462 50.7607 31.9751 50.6327L33.6088 49.0357L31.373 48.4972C31.1965 48.4562 31.0834 48.2803 31.13 48.1034L31.1439 48.0408C31.1885 47.8649 31.37 47.7593 31.5456 47.8014L33.8339 48.3516L33.2725 46.0979C33.2299 45.9259 33.3419 45.7451 33.5185 45.704L33.582 45.6884C33.7605 45.6454 33.941 45.7529 33.9837 45.9268L34.5292 48.1356L36.1688 46.5347C36.2978 46.4087 36.5081 46.4087 36.635 46.5377L36.6826 46.5836C36.8126 46.7107 36.8096 46.9159 36.6826 47.043L35.046 48.6419L37.2837 49.1823ZM27.337 49.1823C27.5126 49.2244 27.6246 49.4032 27.579 49.5772L27.5621 49.6397C27.5195 49.8127 27.339 49.9222 27.1634 49.8782L24.8771 49.3289L25.4355 51.5827C25.4811 51.7566 25.3701 51.9325 25.1905 51.9765L25.127 51.9902C24.9515 52.0342 24.7709 51.9257 24.7283 51.7517L24.1778 49.5391L22.5402 51.1438C22.4102 51.2689 22.2029 51.2689 22.073 51.1409L22.0254 51.095C21.8994 50.9669 21.8994 50.7607 22.0284 50.6327L23.662 49.0357L21.4263 48.4972C21.2497 48.4562 21.1366 48.2803 21.1833 48.1034L21.1971 48.0408C21.2418 47.8649 21.4233 47.7593 21.5989 47.8014L23.8872 48.3516L23.3258 46.0979C23.2831 45.9259 23.3952 45.7451 23.5717 45.704L23.6352 45.6884C23.8138 45.6454 23.9943 45.7529 24.0369 45.9268L24.5825 48.1356L26.2221 46.5347C26.351 46.4087 26.5613 46.4087 26.6883 46.5377L26.7359 46.5836C26.8658 46.7107 26.8629 46.9159 26.7359 47.043L25.0993 48.6419L27.337 49.1823ZM16.1643 49.1823C16.3398 49.2244 16.4509 49.4032 16.4073 49.5772L16.3904 49.6397C16.3478 49.8127 16.1672 49.9222 15.9917 49.8782L13.7053 49.3289L14.2638 51.5827C14.3084 51.7566 14.1973 51.9325 14.0178 51.9765L13.9543 51.9902C13.7787 52.0342 13.5982 51.9257 13.5556 51.7517L13.0051 49.5391L11.3674 51.1438C11.2375 51.2689 11.0302 51.2689 10.9003 51.1409L10.8526 51.095C10.7267 50.9669 10.7267 50.7607 10.8556 50.6327L12.4893 49.0357L10.2535 48.4972C10.077 48.4562 9.96391 48.2803 10.0105 48.1034L10.0244 48.0408C10.069 47.8649 10.2506 47.7593 10.4261 47.8014L12.7144 48.3516L12.153 46.0979C12.1104 45.9259 12.2225 45.7451 12.399 45.704L12.4625 45.6884C12.641 45.6454 12.8216 45.7529 12.8642 45.9268L13.4098 48.1356L15.0494 46.5347C15.1783 46.4087 15.3886 46.4087 15.5156 46.5377L15.5632 46.5836C15.6931 46.7107 15.6901 46.9159 15.5632 47.043L13.9265 48.6419L16.1643 49.1823ZM42.7481 41.5034C42.9237 41.5455 43.0347 41.7243 42.9901 41.8983L42.9733 41.9608C42.9306 42.1338 42.7501 42.2433 42.5745 42.1993L40.2882 41.65L40.8466 43.9038C40.8923 44.0777 40.7812 44.2537 40.6016 44.2976L40.5381 44.3113C40.3626 44.3553 40.1821 44.2468 40.1394 44.0728L39.5889 41.8602L37.9513 43.4649C37.8213 43.59 37.614 43.59 37.4841 43.462L37.4365 43.4161C37.3105 43.288 37.3105 43.0818 37.4395 42.9538L39.0731 41.3568L36.8374 40.8183C36.6608 40.7773 36.5477 40.6014 36.5944 40.4245L36.6083 40.3619C36.6529 40.186 36.8344 40.0804 37.01 40.1225L39.2983 40.6727L38.7369 38.419C38.6942 38.247 38.8063 38.0662 38.9829 38.0251L39.0463 38.0095C39.2249 37.9665 39.4054 38.074 39.4481 38.2479L39.9936 40.4567L41.6332 38.8558C41.7621 38.7298 41.9724 38.7298 42.0994 38.8588L42.147 38.9047C42.2769 39.0318 42.274 39.237 42.147 39.3641L40.5104 40.963L42.7481 41.5034ZM32.1884 41.5034C32.3629 41.5455 32.475 41.7243 32.4304 41.8983L32.4135 41.9608C32.3709 42.1338 32.1903 42.2433 32.0148 42.1993L29.7285 41.65L30.2869 43.9038C30.3325 44.0777 30.2214 44.2537 30.0419 44.2976L29.9784 44.3113C29.8028 44.3553 29.6223 44.2468 29.5797 44.0728L29.0292 41.8602L27.3915 43.4649C27.2616 43.59 27.0543 43.59 26.9244 43.462L26.8767 43.4161C26.7508 43.288 26.7508 43.0818 26.8797 42.9538L28.5134 41.3568L26.2776 40.8183C26.1011 40.7773 25.988 40.6014 26.0346 40.4245L26.0485 40.3619C26.0931 40.186 26.2747 40.0804 26.4502 40.1225L28.7385 40.6727L28.1771 38.419C28.1345 38.247 28.2466 38.0662 28.4231 38.0251L28.4866 38.0095C28.6651 37.9665 28.8457 38.074 28.8883 38.2479L29.4339 40.4567L31.0735 38.8558C31.2024 38.7298 31.4127 38.7298 31.5397 38.8588L31.5873 38.9047C31.7172 39.0318 31.7142 39.237 31.5873 39.3641L29.9506 40.963L32.1884 41.5034Z" fill="#38C0E0"/>
</svg>
