<svg width="55" height="55" viewBox="0 0 55 55" fill="none" xmlns="http://www.w3.org/2000/svg">
<path fill-rule="evenodd" clip-rule="evenodd" d="M42.6379 22.8687C44.8748 23.9056 46.3185 26.1714 46.3185 28.6429C46.3185 32.1483 43.4889 35 40.0107 35H20.7087C16.6831 35 13.4063 31.7021 13.4063 27.6516C13.4063 24.668 15.2615 21.924 18.0227 20.8231L18.8419 20.4952L19.0134 19.6281C19.7507 15.9238 23.0082 13.236 26.7552 13.236C28.9439 13.236 31.0526 14.1604 32.5416 15.7725L33.2134 16.5L34.1646 16.2322C34.7072 16.079 35.2575 16.0014 35.801 16.0014C38.8821 16.0014 41.4727 18.4205 41.7002 21.5079L41.7705 22.4671L42.6379 22.8687ZM41.5595 11.3398C46.3686 12.2874 49.999 16.5475 50 21.664C50 24.0967 49.1721 26.3295 47.7949 28.1113C47.6003 25.2587 45.8819 22.6931 43.273 21.4836L43.2161 21.4574L43.2113 21.3953C42.9713 18.1372 40.6275 15.497 37.5936 14.7269L37.5541 14.3466C37.2823 11.6754 35.4223 9.23108 32.6987 7.96431C31.5104 7.41337 30.218 7.12239 28.9613 7.12239C28.0149 7.12239 27.0974 7.2834 26.257 7.59476C25.0224 6.56854 23.6067 5.84301 22.11 5.45212C24.0722 2.75757 27.2294 1 30.804 1C36.5865 1 41.2915 5.58597 41.5595 11.3398ZM11.8922 27.6516C11.8922 28.5992 12.0436 29.511 12.3192 30.3684C12.0754 30.3694 11.9154 30.3694 11.9038 30.3684C7.74329 29.7933 4.59278 25.993 5.04285 21.5612C5.35318 18.4913 7.53126 15.9325 10.3801 14.7948L10.8938 14.5901C10.9295 14.5765 10.9545 14.5455 10.9622 14.5077L11.0653 13.9878C11.5916 11.3427 13.1548 8.95076 15.514 7.66944C18.97 5.7916 22.9224 6.61995 25.5891 9.02545C25.7231 9.14572 25.8426 9.2757 25.965 9.40276C27.6294 8.45511 29.9231 8.35424 32.0646 9.34844C34.3747 10.4222 35.8405 12.4581 36.0477 14.5028C35.9649 14.4989 35.8858 14.4786 35.803 14.4786C35.1216 14.4786 34.4325 14.5756 33.7569 14.7657L33.6952 14.7831L33.6509 14.7346C31.8766 12.8141 29.3632 11.7132 26.7562 11.7132C22.2873 11.7132 18.4072 14.915 17.5292 19.3293L17.5177 19.3856L17.4647 19.4069C14.131 20.7358 11.8922 24.0492 11.8922 27.6516Z" fill="white"/>
<path fill-rule="evenodd" clip-rule="evenodd" d="M39.7599 41.3255C39.927 41.3654 40.0337 41.5351 39.9903 41.7002L39.9742 41.7596C39.9336 41.9238 39.7618 42.0277 39.5947 41.986L37.4187 41.4646L37.9502 43.6039C37.9937 43.769 37.8879 43.936 37.7171 43.9777L37.6566 43.9907C37.4896 44.0324 37.3177 43.9295 37.2771 43.7643L36.7532 41.6641L35.1946 43.1873C35.0709 43.3061 34.8736 43.3061 34.75 43.1845L34.7047 43.1409C34.5848 43.0194 34.5848 42.8237 34.7075 42.7022L36.2623 41.1863L34.1345 40.6752C33.9664 40.6362 33.8588 40.4692 33.9032 40.3013L33.9164 40.2419C33.9589 40.0749 34.1316 39.9748 34.2987 40.0146L36.4766 40.5369L35.9423 38.3977C35.9017 38.2344 36.0084 38.0628 36.1764 38.0238L36.2368 38.009C36.4067 37.9682 36.5786 38.0702 36.6192 38.2354L37.1384 40.3319L38.6989 38.8124C38.8216 38.6927 39.0217 38.6927 39.1425 38.8152L39.1879 38.8588C39.3115 38.9794 39.3087 39.1742 39.1879 39.2948L37.6302 40.8125L39.7599 41.3255ZM21.8668 41.3255C22.0339 41.3654 22.1396 41.5351 22.0981 41.7002L22.082 41.7596C22.0414 41.9238 21.8696 42.0277 21.7025 41.986L19.5265 41.4646L20.058 43.6039C20.1005 43.769 19.9948 43.936 19.8239 43.9777L19.7635 43.9907C19.5964 44.0324 19.4246 43.9295 19.384 43.7643L18.86 41.6641L17.3015 43.1873C17.1778 43.3061 16.9805 43.3061 16.8568 43.1845L16.8115 43.1409C16.6916 43.0194 16.6916 42.8237 16.8143 42.7022L18.3692 41.1863L16.2413 40.6752C16.0733 40.6362 15.9657 40.4692 16.01 40.3013L16.0232 40.2419C16.0657 40.0749 16.2385 39.9748 16.4056 40.0146L18.5834 40.5369L18.0491 38.3977C18.0085 38.2344 18.1152 38.0628 18.2832 38.0238L18.3437 38.009C18.5136 37.9682 18.6854 38.0702 18.726 38.2354L19.2452 40.3319L20.8057 38.8124C20.9284 38.6927 21.1286 38.6927 21.2494 38.8152L21.2947 38.8588C21.4184 38.9794 21.4155 39.1742 21.2947 39.2948L19.7371 40.8125L21.8668 41.3255Z" fill="#38C0E0"/>
<path fill-rule="evenodd" clip-rule="evenodd" d="M31 41.0311L28.2392 40.9886L30.5028 37L27.0083 37.0296L24.0435 42.9804H26.6249L23 52L31 41.0311Z" fill="#FFA800"/>
</svg>
