<svg width="25" height="24" viewBox="0 0 25 24" fill="none" xmlns="http://www.w3.org/2000/svg">
<path d="M5.2 17H18.2C20.4091 17 22.2 15.2091 22.2 13C22.2 11.1238 20.9083 9.54938 19.1657 9.11736C19.1884 8.9147 19.2 8.70871 19.2 8.5C19.2 5.46243 16.7376 3 13.7 3C11.1806 3 9.05678 4.69403 8.40556 7.00519C8.33748 7.00174 8.26894 7 8.2 7C5.99086 7 4.2 8.79086 4.2 11C4.2 11.0568 4.20118 11.1133 4.20352 11.1695C3.03649 11.5803 2.2 12.6925 2.2 14C2.2 15.6569 3.54314 17 5.2 17Z" fill="white"/>
<path d="M11.7517 22H10.6483L10.7586 20.7778L9.75172 21.4861L9.2 20.5139L10.3034 20L9.2 19.4861L9.75172 18.5139L10.7586 19.2222L10.6483 18H11.7517L11.6414 19.2222L12.6483 18.5139L13.2 19.4861L12.0965 20L13.2 20.5139L12.6483 21.4861L11.6414 20.7778L11.7517 22Z" fill="white"/>
<path d="M5.64827 22H6.75172L6.64138 20.7778L7.64827 21.4861L8.2 20.5139L7.09655 20L8.2 19.4861L7.64827 18.5139L6.64138 19.2222L6.75172 18H5.64827L5.75862 19.2222L4.75172 18.5139L4.2 19.4861L5.30345 20L4.2 20.5139L4.75172 21.4861L5.75862 20.7778L5.64827 22Z" fill="white"/>
<path d="M14.7 18.5C14.4239 18.5 14.2 18.7239 14.2 19C14.2 19.2761 14.4239 19.5 14.7 19.5H20.2C20.4761 19.5 20.7 19.2761 20.7 19C20.7 18.7239 20.4761 18.5 20.2 18.5H14.7Z" fill="white"/>
<path d="M14.7 20.5C14.4239 20.5 14.2 20.7239 14.2 21C14.2 21.2761 14.4239 21.5 14.7 21.5H19.2C19.4761 21.5 19.7 21.2761 19.7 21C19.7 20.7239 19.4761 20.5 19.2 20.5H14.7Z" fill="white"/>
</svg>
