<svg width="55" height="55" viewBox="0 0 55 55" fill="none" xmlns="http://www.w3.org/2000/svg">
<path fill-rule="evenodd" clip-rule="evenodd" d="M28.6222 13.0847C32.4725 13.3825 35.9771 15.1632 38.4883 18.0991C40.9956 21.0325 42.2142 24.7674 41.9086 28.6189C41.3983 35.282 36.2257 40.8262 29.6168 41.8027C28.5497 41.9594 27.4579 41.9969 26.3726 41.9141C18.422 41.2911 12.4607 34.3211 13.0784 26.3759C13.5939 19.7154 18.7665 14.1712 25.378 13.1947C26.4426 13.0367 27.5356 13.0005 28.6222 13.0847ZM35.8799 41.7017C36.1817 41.5229 36.4783 41.3339 36.7671 41.1344C36.8564 41.0736 36.9536 41.0218 37.0416 40.9596L37.4574 50.038L31.0259 43.6313C32.6266 43.2803 34.138 42.6924 35.5303 41.9089C35.6494 41.8428 35.7634 41.7716 35.8799 41.7017ZM26.212 43.9732C27.1549 44.047 28.1003 44.0146 29.0366 43.9253L24.8431 52L22.4809 43.2272C23.6698 43.6067 24.9143 43.8709 26.212 43.9732ZM15.2931 38.6052C16.7747 40.2318 18.5735 41.5592 20.6081 42.4968L12.9438 47.3883L15.2931 38.6052ZM11.3573 31.0381C11.839 33.2242 12.7547 35.26 14.02 37.0407L4.95301 37.4551L11.3573 31.0381ZM11.0179 26.2153C10.9428 27.1685 10.97 28.1074 11.0581 29.0269L3 24.8477L11.7678 22.4855C11.3806 23.6822 11.1177 24.928 11.0179 26.2153ZM14.1417 17.8349C13.511 18.7026 12.9567 19.6273 12.4995 20.6064L7.60795 12.95L16.3965 15.2966C16.0002 15.6579 15.6272 16.0439 15.2659 16.4428C15.2374 16.4751 15.2102 16.5101 15.1791 16.5425C14.854 16.909 14.5458 17.2884 14.2518 17.6821C14.2142 17.7326 14.1793 17.7844 14.1417 17.8349ZM19.1214 13.2906C18.8131 13.4745 18.5127 13.6661 18.2187 13.8682C18.1332 13.9252 18.0413 13.9744 17.9571 14.0339L17.5414 4.95554L23.9715 11.3648C22.3708 11.7171 20.8581 12.3037 19.4659 13.0872C19.3506 13.152 19.2366 13.2232 19.1214 13.2906ZM28.7802 11.0255C27.8387 10.9517 26.8958 10.9841 25.9608 11.0708L30.1504 3L32.5153 11.765C31.3134 11.3855 30.0675 11.1239 28.7802 11.0255ZM34.4009 12.4941L42.0524 7.60654L39.7031 16.3793C38.1891 14.7177 36.3915 13.4084 34.4009 12.4941ZM40.9839 17.9502L50.0457 17.5345L43.6466 23.9489C43.1791 21.803 42.2764 19.7698 40.9839 17.9502ZM43.9406 25.9615L52 30.1406L43.2218 32.5132C43.6091 31.3153 43.8733 30.0681 43.9717 28.7769C44.0455 27.8289 44.0248 26.8887 43.9406 25.9615ZM38.5957 39.6969C40.2237 38.2141 41.5525 36.4113 42.4875 34.3716L47.3959 42.0423L38.5957 39.6969Z" fill="#FFF500"/>
</svg>
