<svg width="55" height="55" viewBox="0 0 55 55" fill="none" xmlns="http://www.w3.org/2000/svg">
<path fill-rule="evenodd" clip-rule="evenodd" d="M39.3091 24.7371L38.4394 24.3312L38.3689 23.3615C38.1408 20.2407 35.5434 17.7953 32.454 17.7953C31.909 17.7953 31.3572 17.8738 30.8132 18.0287L29.8594 18.2993L29.1859 17.564C27.6929 15.9344 25.5786 15 23.3841 15C19.627 15 16.3608 17.7169 15.6216 21.4614L15.4486 22.3379L14.6282 22.6693C11.8597 23.7822 9.99951 26.5559 9.99951 29.5719C9.99951 33.6664 13.285 37 17.3214 37H36.6749C40.1624 37 42.9995 34.1174 42.9995 30.5739C42.9995 28.0747 41.552 25.7843 39.3091 24.7371Z" fill="white"/>
<path fill-rule="evenodd" clip-rule="evenodd" d="M15.0711 19.5934C14.8421 20.079 14.6491 20.5865 14.5009 21.1148L8.99951 18.4654L15.5302 16.4147C15.2729 17.3394 15.1082 18.2999 15.0682 19.2881C15.0643 19.3912 15.0721 19.4913 15.0711 19.5934ZM39.7739 21.8007C39.8528 21.317 39.9035 20.8284 39.924 20.3308C39.9552 19.6043 39.9142 18.8866 39.8246 18.179L45.9995 21.1515L40.1277 23C40.0419 22.5857 39.923 22.1872 39.7739 21.8007ZM17.1892 12.791C16.737 13.4729 16.3471 14.1954 16.0313 14.9557L12.143 9.23563L18.8171 10.7858C18.5285 11.0742 18.2576 11.3805 17.9973 11.6947C17.9759 11.7205 17.9564 11.7482 17.9349 11.774C17.7 12.0634 17.4778 12.3628 17.2682 12.672C17.2419 12.7107 17.2165 12.7503 17.1892 12.791ZM20.8104 9.17715C20.5842 9.32682 20.362 9.48144 20.1456 9.64399C20.0852 9.69057 20.017 9.73121 19.9546 9.77879L19.3941 2.84655L24.4052 7.56947C23.2121 7.88367 22.0902 8.3743 21.0648 9.01262C20.979 9.06515 20.8942 9.12164 20.8104 9.17715ZM28.0127 7.17598C27.3031 7.14624 26.5954 7.19778 25.8936 7.28996L28.8247 1L30.8414 7.63786C29.9271 7.38115 28.9826 7.21662 28.0127 7.17598ZM32.2811 8.14336L37.9014 4.19256L36.375 10.9682C35.1916 9.73815 33.8036 8.78762 32.2811 8.14336ZM37.3809 12.1338L44.1846 11.5639L39.5468 16.6466C39.1374 15.0191 38.4034 13.4897 37.3809 12.1338ZM23.6508 14.0854C21.1116 14.0854 18.7615 15.1182 17.0313 16.823C18.1445 12.8554 21.4108 9.70346 25.5145 8.93134C26.3089 8.78068 27.1296 8.72121 27.9503 8.7559C30.855 8.87682 33.5395 10.1406 35.5094 12.3162C37.301 14.2955 38.2932 16.8141 38.3664 19.4784C36.9813 17.9143 35.0016 16.9112 32.8006 16.9112C32.1115 16.9112 31.4145 17.0094 30.7312 17.2056L30.6689 17.2225L30.624 17.1749C28.8295 15.2104 26.2874 14.0854 23.6508 14.0854Z" fill="#FFF500"/>
<path fill-rule="evenodd" clip-rule="evenodd" d="M29.9995 43.0311L27.2387 42.9886L29.5023 39L26.0078 39.0296L23.043 44.9804H25.6244L21.9995 54L29.9995 43.0311Z" fill="#FFA800"/>
<path fill-rule="evenodd" clip-rule="evenodd" d="M37.3191 44.769C36.0187 47.2326 33.0513 45.6207 34.2996 43.243C35.3592 41.2221 37.9049 40 37.9049 40C37.9049 40 38.3472 42.8128 37.3191 44.769Z" fill="#009EFF"/>
<path fill-rule="evenodd" clip-rule="evenodd" d="M20.7631 43.3255L18.6705 42.8125L20.201 41.2948C20.3197 41.1742 20.3225 40.9794 20.201 40.8588L20.1564 40.8152C20.0377 40.6927 19.8411 40.6927 19.7205 40.8124L18.1872 42.3319L17.677 40.2354C17.6372 40.0702 17.4683 39.9682 17.3014 40.009L17.242 40.0238C17.0769 40.0628 16.9721 40.2344 17.0129 40.3977L17.5379 42.5369L15.398 42.0146C15.2338 41.9748 15.0641 42.0749 15.0223 42.2419L15.0094 42.3013C14.9658 42.4692 15.0715 42.6362 15.2366 42.6752L17.3274 43.1863L15.7996 44.7022C15.6791 44.8237 15.6791 45.0194 15.7969 45.1409L15.8414 45.1845C15.9629 45.3061 16.1568 45.3061 16.2783 45.1873L17.8097 43.6641L18.3245 45.7643C18.3644 45.9295 18.5332 46.0324 18.6974 45.9907L18.7567 45.9777C18.9246 45.936 19.0285 45.769 18.9858 45.6039L18.4636 43.4646L20.6017 43.986C20.7659 44.0277 20.9347 43.9238 20.9746 43.7596L20.9903 43.7002C21.0321 43.5351 20.9273 43.3654 20.7631 43.3255Z" fill="#38C0E0"/>
</svg>
