<svg width="55" height="55" viewBox="0 0 55 55" fill="none" xmlns="http://www.w3.org/2000/svg">
<path fill-rule="evenodd" clip-rule="evenodd" d="M39.3091 24.2945L38.4394 23.9071L38.3689 22.9815C38.1408 20.0025 35.5434 17.6683 32.454 17.6683C31.909 17.6683 31.3572 17.7432 30.8132 17.891L29.8594 18.1493L29.1859 17.4474C27.6929 15.8919 25.5786 15 23.3841 15C19.627 15 16.3608 17.5934 15.6216 21.1677L15.4486 22.0044L14.6282 22.3207C11.8597 23.383 9.99951 26.0307 9.99951 28.9095C9.99951 32.8179 13.285 36 17.3214 36H36.6749C40.1624 36 42.9995 33.2484 42.9995 29.866C42.9995 27.4804 41.552 25.2941 39.3091 24.2945Z" fill="white"/>
<path fill-rule="evenodd" clip-rule="evenodd" d="M15.0711 18.7482C14.8421 19.2118 14.6491 19.6962 14.5009 20.2005L8.99951 17.6715L15.5302 15.714C15.2729 16.5967 15.1082 17.5135 15.0682 18.4568C15.0643 18.5552 15.0721 18.6507 15.0711 18.7482ZM39.7739 20.8552C39.8528 20.3935 39.9035 19.9271 39.924 19.4521C39.9552 18.7586 39.9142 18.0736 39.8246 17.3981L45.9995 20.2355L40.1277 22C40.0419 21.6045 39.923 21.2242 39.7739 20.8552ZM17.1892 12.255C16.737 12.9059 16.3471 13.5956 16.0313 14.3213L12.143 8.86128L18.8171 10.341C18.5285 10.6163 18.2576 10.9087 17.9973 11.2086C17.9759 11.2332 17.9564 11.2597 17.9349 11.2843C17.7 11.5606 17.4778 11.8463 17.2682 12.1415C17.2419 12.1784 17.2165 12.2162 17.1892 12.255ZM20.8104 8.80546C20.5842 8.94832 20.362 9.09592 20.1456 9.25108C20.0852 9.29555 20.017 9.33434 19.9546 9.37975L19.3941 2.76261L24.4052 7.27086C23.2121 7.57078 22.0902 8.03911 21.0648 8.64841C20.979 8.69855 20.8942 8.75248 20.8104 8.80546ZM28.0127 6.89525C27.3031 6.86687 26.5954 6.91607 25.8936 7.00406L28.8247 1L30.8414 7.33614C29.9271 7.0911 28.9826 6.93404 28.0127 6.89525ZM32.2811 7.81866L37.9014 4.04744L36.375 10.5151C35.1916 9.34096 33.8036 8.43364 32.2811 7.81866ZM37.3809 11.6277L44.1846 11.0837L39.5468 15.9354C39.1374 14.3819 38.4034 12.922 37.3809 11.6277ZM23.6508 13.4906C21.1116 13.4906 18.7615 14.4765 17.0313 16.1038C18.1445 12.3165 21.4108 9.30785 25.5145 8.57082C26.3089 8.42701 27.1296 8.37025 27.9503 8.40336C30.855 8.51879 33.5395 9.72509 35.5094 11.8018C37.301 13.6912 38.2932 16.0953 38.3664 18.6384C36.9813 17.1455 35.0016 16.188 32.8006 16.188C32.1115 16.188 31.4145 16.2817 30.7312 16.469L30.6689 16.4851L30.624 16.4397C28.8295 14.5645 26.2874 13.4906 23.6508 13.4906Z" fill="#FFF500"/>
<path fill-rule="evenodd" clip-rule="evenodd" d="M22.9704 42.3255C23.1405 42.3654 23.2481 42.5351 23.2048 42.7002L23.1885 42.7596C23.1472 42.9238 22.9723 43.0277 22.8023 42.986L20.5877 42.4646L21.1286 44.6039C21.1728 44.769 21.0652 44.936 20.8913 44.9777L20.8298 44.9907C20.6597 45.0324 20.4849 44.9295 20.4436 44.7643L19.9103 42.6641L18.3241 44.1873C18.1982 44.3061 17.9974 44.3061 17.8715 44.1845L17.8254 44.1409C17.7034 44.0194 17.7034 43.8237 17.8283 43.7022L19.4107 42.1863L17.2451 41.6752C17.0741 41.6362 16.9646 41.4692 17.0097 41.3013L17.0232 41.2419C17.0664 41.0749 17.2422 40.9748 17.4123 41.0146L19.6288 41.5369L19.085 39.3977C19.0437 39.2344 19.1523 39.0628 19.3233 39.0238L19.3848 39.009C19.5577 38.9682 19.7326 39.0702 19.7739 39.2354L20.3023 41.3319L21.8905 39.8124C22.0154 39.6927 22.2191 39.6927 22.3421 39.8152L22.3882 39.8588C22.514 39.9794 22.5112 40.1742 22.3882 40.2948L20.8029 41.8125L22.9704 42.3255ZM37.755 42.3255C37.9241 42.3654 38.0326 42.5351 37.9904 42.7002L37.974 42.7596C37.9327 42.9238 37.7579 43.0277 37.5878 42.986L35.3732 42.4646L35.9141 44.6039C35.9573 44.769 35.8497 44.936 35.6758 44.9777L35.6143 44.9907C35.4443 45.0324 35.2694 44.9295 35.2281 44.7643L34.6949 42.6641L33.1086 44.1873C32.9828 44.3061 32.7819 44.3061 32.6561 44.1845L32.61 44.1409C32.4879 44.0194 32.4879 43.8237 32.6128 43.7022L34.1953 42.1863L32.0297 41.6752C31.8586 41.6362 31.7491 41.4692 31.7943 41.3013L31.8077 41.2419C31.8509 41.0749 32.0268 40.9748 32.1968 41.0146L34.4134 41.5369L33.8696 39.3977C33.8282 39.2344 33.9368 39.0628 34.1078 39.0238L34.1693 39.009C34.3423 38.9682 34.5171 39.0702 34.5584 39.2354L35.0869 41.3319L36.675 39.8124C36.7999 39.6927 37.0036 39.6927 37.1266 39.8152L37.1727 39.8588C37.2986 39.9794 37.2957 40.1742 37.1727 40.2948L35.5874 41.8125L37.755 42.3255Z" fill="#38C0E0"/>
</svg>
