<svg width="55" height="55" viewBox="0 0 55 55" fill="none" xmlns="http://www.w3.org/2000/svg">
<path fill-rule="evenodd" clip-rule="evenodd" d="M39.3091 24.7371L38.4394 24.3312L38.3689 23.3615C38.1408 20.2407 35.5434 17.7953 32.454 17.7953C31.909 17.7953 31.3572 17.8738 30.8132 18.0287L29.8594 18.2993L29.1859 17.564C27.6929 15.9344 25.5786 15 23.3841 15C19.627 15 16.3608 17.7169 15.6216 21.4614L15.4486 22.3379L14.6282 22.6693C11.8597 23.7822 9.99951 26.5559 9.99951 29.5719C9.99951 33.6664 13.285 37 17.3214 37H36.6749C40.1624 37 42.9995 34.1174 42.9995 30.5739C42.9995 28.0747 41.552 25.7843 39.3091 24.7371Z" fill="white"/>
<path fill-rule="evenodd" clip-rule="evenodd" d="M15.0711 19.5934C14.8421 20.079 14.6491 20.5865 14.5009 21.1148L8.99951 18.4654L15.5302 16.4147C15.2729 17.3394 15.1082 18.2999 15.0682 19.2881C15.0643 19.3912 15.0721 19.4913 15.0711 19.5934ZM39.7739 21.8007C39.8528 21.317 39.9035 20.8284 39.924 20.3308C39.9552 19.6043 39.9142 18.8866 39.8246 18.179L45.9995 21.1515L40.1277 23C40.0419 22.5857 39.923 22.1872 39.7739 21.8007ZM17.1892 12.791C16.737 13.4729 16.3471 14.1954 16.0313 14.9557L12.143 9.23563L18.8171 10.7858C18.5285 11.0742 18.2576 11.3805 17.9973 11.6947C17.9759 11.7205 17.9564 11.7482 17.9349 11.774C17.7 12.0634 17.4778 12.3628 17.2682 12.672C17.2419 12.7107 17.2165 12.7503 17.1892 12.791ZM20.8104 9.17715C20.5842 9.32682 20.362 9.48144 20.1456 9.64399C20.0852 9.69057 20.017 9.73121 19.9546 9.77879L19.3941 2.84655L24.4052 7.56947C23.2121 7.88367 22.0902 8.3743 21.0648 9.01262C20.979 9.06515 20.8942 9.12164 20.8104 9.17715ZM28.0127 7.17598C27.3031 7.14624 26.5954 7.19778 25.8936 7.28996L28.8247 1L30.8414 7.63786C29.9271 7.38115 28.9826 7.21662 28.0127 7.17598ZM32.2811 8.14336L37.9014 4.19256L36.375 10.9682C35.1916 9.73815 33.8036 8.78762 32.2811 8.14336ZM37.3809 12.1338L44.1846 11.5639L39.5468 16.6466C39.1374 15.0191 38.4034 13.4897 37.3809 12.1338ZM23.6508 14.0854C21.1116 14.0854 18.7615 15.1182 17.0313 16.823C18.1445 12.8554 21.4108 9.70346 25.5145 8.93134C26.3089 8.78068 27.1296 8.72121 27.9503 8.7559C30.855 8.87682 33.5395 10.1406 35.5094 12.3162C37.301 14.2955 38.2932 16.8141 38.3664 19.4784C36.9813 17.9143 35.0016 16.9112 32.8006 16.9112C32.1115 16.9112 31.4145 17.0094 30.7312 17.2056L30.6689 17.2225L30.624 17.1749C28.8295 15.2104 26.2874 14.0854 23.6508 14.0854Z" fill="#FFF500"/>
<path fill-rule="evenodd" clip-rule="evenodd" d="M30.2833 52.7308C28.9144 55.2708 25.7908 53.609 27.1048 51.1575C28.2202 49.074 30.8999 47.8139 30.8999 47.8139C30.8999 47.8139 31.3655 50.7139 30.2833 52.7308ZM21.4939 44.9169C20.125 47.4569 17.0014 45.795 18.3154 43.3436C19.4308 41.2601 22.1105 40 22.1105 40C22.1105 40 22.5761 42.9 21.4939 44.9169Z" fill="#009EFF"/>
<path fill-rule="evenodd" clip-rule="evenodd" d="M37.7534 43.5034L35.5671 42.963L37.1661 41.3641C37.2902 41.237 37.2931 41.0318 37.1661 40.9047L37.1196 40.8588C36.9955 40.7298 36.7901 40.7298 36.6641 40.8558L35.0622 42.4567L34.5291 40.2479C34.4875 40.074 34.3111 39.9665 34.1366 40.0095L34.0746 40.0251C33.9021 40.0662 33.7926 40.247 33.8343 40.419L34.3828 42.6727L32.1471 42.1225C31.9755 42.0804 31.7982 42.186 31.7546 42.3619L31.741 42.4245C31.6954 42.6014 31.8059 42.7773 31.9784 42.8183L34.1628 43.3568L32.5667 44.9538C32.4407 45.0818 32.4407 45.288 32.5638 45.4161L32.6103 45.462C32.7372 45.59 32.9398 45.59 33.0667 45.4649L34.6668 43.8602L35.2046 46.0728C35.2463 46.2468 35.4227 46.3553 35.5942 46.3113L35.6562 46.2976C35.8316 46.2537 35.9402 46.0777 35.8956 45.9038L35.35 43.65L37.5838 44.1993C37.7553 44.2433 37.9317 44.1338 37.9734 43.9608L37.9899 43.8983C38.0335 43.7243 37.9249 43.5455 37.7534 43.5034ZM18.0222 51.1823L15.8359 50.6419L17.4349 49.043C17.559 48.9159 17.5619 48.7107 17.4349 48.5836L17.3884 48.5377C17.2643 48.4087 17.0589 48.4087 16.9329 48.5347L15.331 50.1356L14.7979 47.9268C14.7563 47.7529 14.5799 47.6454 14.4055 47.6884L14.3434 47.704C14.1709 47.7451 14.0614 47.9259 14.1031 48.0979L14.6516 50.3516L12.4159 49.8014C12.2443 49.7593 12.067 49.8649 12.0234 50.0408L12.0098 50.1034C11.9642 50.2803 12.0747 50.4562 12.2472 50.4972L14.4316 51.0357L12.8355 52.6327C12.7095 52.7607 12.7095 52.9669 12.8326 53.095L12.8791 53.1409C13.006 53.2689 13.2086 53.2689 13.3355 53.1438L14.9356 51.5391L15.4734 53.7517C15.5151 53.9257 15.6915 54.0342 15.863 53.9902L15.925 53.9765C16.1004 53.9325 16.209 53.7566 16.1644 53.5827L15.6188 51.3289L17.8526 51.8782C18.0241 51.9222 18.2005 51.8127 18.2422 51.6397L18.2587 51.5772C18.3023 51.4032 18.1937 51.2244 18.0222 51.1823Z" fill="#38C0E0"/>
</svg>
