<svg width="55" height="55" viewBox="0 0 55 55" fill="none" xmlns="http://www.w3.org/2000/svg">
<path fill-rule="evenodd" clip-rule="evenodd" d="M39.3096 24.7371L38.4399 24.3312L38.3694 23.3615C38.1413 20.2407 35.5438 17.7953 32.4545 17.7953C31.9095 17.7953 31.3577 17.8738 30.8137 18.0287L29.8599 18.2993L29.1864 17.564C27.6934 15.9344 25.5791 15 23.3846 15C19.6275 15 16.3613 17.7169 15.6221 21.4614L15.4491 22.3379L14.6287 22.6693C11.8602 23.7822 10 26.5559 10 29.5719C10 33.6664 13.2855 37 17.3218 37H36.6754C40.1629 37 43 34.1174 43 30.5739C43 28.0747 41.5524 25.7843 39.3096 24.7371Z" fill="white"/>
<path fill-rule="evenodd" clip-rule="evenodd" d="M15.0716 19.5934C14.8426 20.079 14.6496 20.5865 14.5014 21.1148L9 18.4654L15.5307 16.4147C15.2734 17.3394 15.1087 18.2999 15.0687 19.2881C15.0648 19.3912 15.0726 19.4913 15.0716 19.5934ZM39.7744 21.8007C39.8533 21.317 39.904 20.8284 39.9245 20.3308C39.9557 19.6043 39.9147 18.8866 39.825 18.179L46 21.1515L40.1282 23C40.0424 22.5857 39.9235 22.1872 39.7744 21.8007ZM17.1897 12.791C16.7375 13.4729 16.3476 14.1954 16.0317 14.9557L12.1435 9.23563L18.8175 10.7858C18.529 11.0742 18.258 11.3805 17.9978 11.6947C17.9763 11.7205 17.9568 11.7482 17.9354 11.774C17.7005 12.0634 17.4783 12.3628 17.2687 12.672C17.2424 12.7107 17.217 12.7503 17.1897 12.791ZM20.8109 9.17715C20.5847 9.32682 20.3625 9.48144 20.1461 9.64399C20.0857 9.69057 20.0174 9.73121 19.9551 9.77879L19.3946 2.84655L24.4057 7.56947C23.2126 7.88367 22.0907 8.3743 21.0653 9.01262C20.9795 9.06515 20.8947 9.12164 20.8109 9.17715ZM28.0132 7.17598C27.3036 7.14624 26.5959 7.19778 25.8941 7.28996L28.8252 1L30.8419 7.63786C29.9276 7.38115 28.9831 7.21662 28.0132 7.17598ZM32.2816 8.14336L37.9019 4.19256L36.3755 10.9682C35.1921 9.73815 33.8041 8.78762 32.2816 8.14336ZM37.3814 12.1338L44.185 11.5639L39.5472 16.6466C39.1379 15.0191 38.4039 13.4897 37.3814 12.1338ZM23.6513 14.0854C21.1121 14.0854 18.762 15.1182 17.0318 16.823C18.145 12.8554 21.4113 9.70346 25.5149 8.93134C26.3094 8.78068 27.1301 8.72121 27.9508 8.7559C30.8555 8.87682 33.5399 10.1406 35.5099 12.3162C37.3015 14.2955 38.2937 16.8141 38.3668 19.4784C36.9817 17.9143 35.0021 16.9112 32.8011 16.9112C32.112 16.9112 31.415 17.0094 30.7317 17.2056L30.6694 17.2225L30.6245 17.1749C28.83 15.2104 26.2879 14.0854 23.6513 14.0854Z" fill="#FFF500"/>
<path fill-rule="evenodd" clip-rule="evenodd" d="M19.3302 44.8901C18.0256 47.4163 15.0488 45.7635 16.301 43.3254C17.364 41.2532 19.9179 40 19.9179 40C19.9179 40 20.3626 42.8842 19.3302 44.8901ZM26.3025 52.7377C24.998 55.2639 22.0211 53.6111 23.2734 51.1729C24.3364 49.1008 26.8902 47.8476 26.8902 47.8476C26.8902 47.8476 27.3349 50.7318 26.3025 52.7377ZM39.3174 44.8901C38.0129 47.4163 35.036 45.7635 36.2883 43.3254C37.3512 41.2532 39.9051 40 39.9051 40C39.9051 40 40.3488 42.8842 39.3174 44.8901Z" fill="#009EFF"/>
<path fill-rule="evenodd" clip-rule="evenodd" d="M30.8776 43.511C31.0497 43.5541 31.1586 43.7334 31.1149 43.9067L31.0983 43.9694C31.0565 44.1428 30.8795 44.2525 30.7074 44.2084L28.4659 43.658L29.0134 45.9166C29.0581 46.0909 28.9492 46.2672 28.7732 46.3113L28.711 46.325C28.5389 46.3691 28.3619 46.2604 28.3201 46.086L27.7804 43.8685L26.1749 45.4768C26.0475 45.6022 25.8442 45.6022 25.7168 45.4739L25.6702 45.4278C25.5467 45.2995 25.5467 45.0929 25.6731 44.9645L27.2747 43.3641L25.0828 42.8244C24.9097 42.7833 24.7989 42.607 24.8446 42.4297L24.8582 42.367C24.9019 42.1907 25.0799 42.085 25.252 42.1271L27.4954 42.6785L26.945 40.4199C26.9032 40.2475 27.0131 40.0663 27.1862 40.0252L27.2484 40.0095C27.4235 39.9664 27.6005 40.0741 27.6423 40.2485L28.1771 42.462L29.7846 40.8577C29.911 40.7314 30.1171 40.7314 30.2416 40.8606L30.2883 40.9067C30.4157 41.034 30.4128 41.2397 30.2883 41.367L28.6838 42.9694L30.8776 43.511ZM37.7527 51.1762C37.9248 51.2183 38.0347 51.3986 37.99 51.5719L37.9735 51.6346C37.9316 51.808 37.7547 51.9177 37.5825 51.8736L35.3411 51.3231L35.8886 53.5818C35.9333 53.7561 35.8244 53.9324 35.6484 53.9765L35.5861 53.9902C35.414 54.0343 35.237 53.9255 35.1952 53.7512L34.6555 51.5337L33.05 53.142C32.9226 53.2674 32.7194 53.2674 32.592 53.139L32.5453 53.093C32.4218 52.9647 32.4218 52.758 32.5482 52.6297L34.1498 51.0293L31.958 50.4896C31.7849 50.4485 31.674 50.2722 31.7197 50.0949L31.7333 50.0322C31.7771 49.8559 31.955 49.7501 32.1272 49.7923L34.3706 50.3437L33.8202 48.0851C33.7784 47.9127 33.8882 47.7315 34.0613 47.6904L34.1236 47.6747C34.2986 47.6316 34.4756 47.7393 34.5174 47.9137L35.0523 50.1272L36.6597 48.5229C36.7861 48.3965 36.9923 48.3965 37.1167 48.5258L37.1634 48.5719C37.2908 48.6992 37.2879 48.9049 37.1634 49.0322L35.5589 50.6346L37.7527 51.1762ZM18.0424 51.1762C18.2145 51.2183 18.3234 51.3986 18.2806 51.5719L18.2641 51.6346C18.2223 51.808 18.0453 51.9177 17.8732 51.8736L15.6317 51.3231L16.1792 53.5818C16.2239 53.7561 16.115 53.9324 15.939 53.9765L15.8767 53.9902C15.7046 54.0343 15.5276 53.9255 15.4858 53.7512L14.9461 51.5337L13.3406 53.142C13.2132 53.2674 13.01 53.2674 12.8826 53.139L12.8359 53.093C12.7124 52.9647 12.7124 52.758 12.8388 52.6297L14.4404 51.0293L12.2486 50.4896C12.0755 50.4485 11.9646 50.2722 12.0103 50.0949L12.0239 50.0322C12.0677 49.8559 12.2457 49.7501 12.4178 49.7923L14.6612 50.3437L14.1108 48.0851C14.068 47.9127 14.1779 47.7315 14.351 47.6904L14.4132 47.6747C14.5883 47.6316 14.7652 47.7393 14.8071 47.9137L15.3419 50.1272L16.9493 48.5229C17.0758 48.3965 17.2819 48.3965 17.4064 48.5258L17.4531 48.5719C17.5805 48.6992 17.5775 48.9049 17.4531 49.0322L15.8485 50.6346L18.0424 51.1762Z" fill="#38C0E0"/>
</svg>
