<svg width="55" height="55" viewBox="0 0 55 55" fill="none" xmlns="http://www.w3.org/2000/svg">
<path fill-rule="evenodd" clip-rule="evenodd" d="M40.1973 24.7371L39.3012 24.3312L39.2286 23.3615C38.9936 20.2407 36.3174 17.7953 33.1344 17.7953C32.5729 17.7953 32.0044 17.8738 31.4439 18.0287L30.4612 18.2993L29.7673 17.564C28.2291 15.9344 26.0507 15 23.7897 15C19.9188 15 16.5536 17.7169 15.792 21.4614L15.6137 22.3379L14.7685 22.6693C11.9161 23.7822 9.99951 26.5559 9.99951 29.5719C9.99951 33.6664 13.3846 37 17.5432 37H37.4833C41.0764 37 43.9995 34.1174 43.9995 30.5739C43.9995 28.0747 42.5081 25.7843 40.1973 24.7371Z" fill="white"/>
<path fill-rule="evenodd" clip-rule="evenodd" d="M15.0711 19.5934C14.8421 20.079 14.6491 20.5865 14.5009 21.1148L8.99951 18.4654L15.5302 16.4147C15.2729 17.3394 15.1082 18.2999 15.0682 19.2881C15.0643 19.3912 15.0721 19.4913 15.0711 19.5934ZM39.7739 21.8007C39.8528 21.317 39.9035 20.8284 39.924 20.3308C39.9552 19.6043 39.9142 18.8866 39.8246 18.179L45.9995 21.1515L40.1277 23C40.0419 22.5857 39.923 22.1872 39.7739 21.8007ZM17.1892 12.791C16.737 13.4729 16.3471 14.1954 16.0313 14.9557L12.143 9.23563L18.8171 10.7858C18.5285 11.0742 18.2576 11.3805 17.9973 11.6947C17.9759 11.7205 17.9564 11.7482 17.9349 11.774C17.7 12.0634 17.4778 12.3628 17.2682 12.672C17.2419 12.7107 17.2165 12.7503 17.1892 12.791ZM20.8104 9.17715C20.5842 9.32682 20.362 9.48144 20.1456 9.64399C20.0852 9.69057 20.017 9.73121 19.9546 9.77879L19.3941 2.84655L24.4052 7.56947C23.2121 7.88367 22.0902 8.3743 21.0648 9.01262C20.979 9.06515 20.8942 9.12164 20.8104 9.17715ZM28.0127 7.17598C27.3031 7.14624 26.5954 7.19778 25.8936 7.28996L28.8247 1L30.8414 7.63786C29.9271 7.38115 28.9826 7.21662 28.0127 7.17598ZM32.2811 8.14336L37.9014 4.19256L36.375 10.9682C35.1916 9.73815 33.8036 8.78762 32.2811 8.14336ZM37.3809 12.1338L44.1846 11.5639L39.5468 16.6466C39.1374 15.0191 38.4034 13.4897 37.3809 12.1338ZM23.6508 14.0854C21.1116 14.0854 18.7615 15.1182 17.0313 16.823C18.1445 12.8554 21.4108 9.70346 25.5145 8.93134C26.3089 8.78068 27.1296 8.72121 27.9503 8.7559C30.855 8.87682 33.5395 10.1406 35.5094 12.3162C37.301 14.2955 38.2932 16.8141 38.3664 19.4784C36.9813 17.9143 35.0016 16.9112 32.8006 16.9112C32.1115 16.9112 31.4145 17.0094 30.7312 17.2056L30.6689 17.2225L30.624 17.1749C28.8295 15.2104 26.2874 14.0854 23.6508 14.0854Z" fill="#FFF500"/>
<path fill-rule="evenodd" clip-rule="evenodd" d="M33.3385 45.0051C32.0752 47.5906 29.1926 45.899 30.4052 43.4035C31.4345 41.2826 33.9076 40 33.9076 40C33.9076 40 34.3373 42.952 33.3385 45.0051ZM26.6584 52.7081C25.3951 55.2936 22.5124 53.602 23.7251 51.1065C24.7544 48.9856 27.2275 47.703 27.2275 47.703C27.2275 47.703 27.6572 50.654 26.6584 52.7081ZM20.7364 45.0051C19.4731 47.5906 16.5904 45.899 17.8031 43.4035C18.8324 41.2826 21.3055 40 21.3055 40C21.3055 40 21.7352 42.952 20.7364 45.0051ZM14.2243 52.7081C12.9611 55.2936 10.0784 53.602 11.291 51.1065C12.3204 48.9856 14.7934 47.703 14.7934 47.703C14.7934 47.703 15.2241 50.654 14.2243 52.7081Z" fill="#009EFF"/>
</svg>
