<svg width="55" height="55" viewBox="0 0 55 55" fill="none" xmlns="http://www.w3.org/2000/svg">
<path fill-rule="evenodd" clip-rule="evenodd" d="M41.1978 24.7371L40.3017 24.3312L40.229 23.3615C39.9941 20.2407 37.3179 17.7953 34.1349 17.7953C33.5734 17.7953 33.0049 17.8738 32.4444 18.0287L31.4617 18.2993L30.7678 17.564C29.2296 15.9344 27.0512 15 24.7902 15C20.9192 15 17.5541 17.7169 16.7924 21.4614L16.6142 22.3379L15.769 22.6693C12.9165 23.7822 11 26.5559 11 29.5719C11 33.6664 14.3851 37 18.5437 37H38.4837C42.0769 37 45 34.1174 45 30.5739C45 28.0747 43.5086 25.7843 41.1978 24.7371Z" fill="white"/>
<path fill-rule="evenodd" clip-rule="evenodd" d="M16.2357 18.7482C16.0005 19.2118 15.8023 19.6962 15.6501 20.2005L10 17.6715L16.7072 15.714C16.443 16.5967 16.2738 17.5135 16.2327 18.4568C16.2287 18.5552 16.2367 18.6507 16.2357 18.7482ZM41.6061 20.8552C41.6872 20.3935 41.7392 19.9271 41.7603 19.4521C41.7923 18.7586 41.7503 18.0736 41.6582 17.3981L48 20.2355L41.9695 22C41.8814 21.6045 41.7593 21.2242 41.6061 20.8552ZM18.4111 12.255C17.9466 12.9059 17.5461 13.5956 17.2218 14.3213L13.2285 8.86128L20.0829 10.341C19.7866 10.6163 19.5083 10.9087 19.241 11.2086C19.2189 11.2332 19.1989 11.2597 19.1769 11.2843C18.9356 11.5606 18.7074 11.8463 18.4922 12.1415C18.4651 12.1784 18.4391 12.2162 18.4111 12.255ZM22.1301 8.80546C21.8978 8.94832 21.6696 9.09592 21.4474 9.25108C21.3853 9.29555 21.3152 9.33434 21.2511 9.37975L20.6755 2.76261L25.8221 7.27086C24.5968 7.57078 23.4445 8.03911 22.3914 8.64841C22.3033 8.69855 22.2162 8.75248 22.1301 8.80546ZM29.5271 6.89525C28.7983 6.86687 28.0715 6.91607 27.3507 7.00406L30.361 1L32.4322 7.33614C31.4932 7.0911 30.5231 6.93404 29.5271 6.89525ZM33.9108 7.81866L39.683 4.04744L38.1153 10.5151C36.9 9.34096 35.4745 8.43364 33.9108 7.81866ZM39.1485 11.6277L46.136 11.0837L41.3729 15.9354C40.9524 14.3819 40.1986 12.922 39.1485 11.6277ZM25.0472 13.4906C22.4394 13.4906 20.0258 14.4765 18.2489 16.1038C19.3921 12.3165 22.7468 9.30785 26.9613 8.57082C27.7772 8.42701 28.6201 8.37025 29.463 8.40336C32.4462 8.51879 35.2032 9.72509 37.2264 11.8018C39.0664 13.6912 40.0855 16.0953 40.1605 18.6384C38.738 17.1455 36.7048 16.188 34.4444 16.188C33.7366 16.188 33.0208 16.2817 32.3191 16.469L32.255 16.4851L32.209 16.4397C30.366 14.5645 27.7552 13.4906 25.0472 13.4906Z" fill="#FFF500"/>
<path fill-rule="evenodd" clip-rule="evenodd" d="M18.2407 44.933C16.9712 47.4813 14.0743 45.814 15.293 43.3545C16.3274 41.2642 18.8126 40 18.8126 40C18.8126 40 19.2445 42.9095 18.2407 44.933ZM20.1925 52.7267C18.923 55.275 16.0261 53.6077 17.2447 51.1482C18.2791 49.0578 20.7644 47.7936 20.7644 47.7936C20.7644 47.7936 21.1962 50.7022 20.1925 52.7267ZM40.3357 44.933C39.0662 47.4813 36.1693 45.814 37.3879 43.3545C38.4224 41.2642 40.9076 40 40.9076 40C40.9076 40 41.3394 42.9095 40.3357 44.933Z" fill="#009EFF"/>
<path fill-rule="evenodd" clip-rule="evenodd" d="M32 43.7624L29.2392 43.7227L31.5028 40L28.0083 40.0277L25.0435 45.5817H27.6249L24 54L32 43.7624Z" fill="#FFA800"/>
<path fill-rule="evenodd" clip-rule="evenodd" d="M13.0905 51.3239C13.264 51.3638 13.3747 51.5344 13.3306 51.6985L13.314 51.7579C13.2718 51.922 13.0935 52.0259 12.92 51.9841L10.661 51.463L11.2128 53.6013C11.2569 53.7663 11.1471 53.9332 10.9697 53.9749L10.907 53.9879C10.7335 54.0297 10.5552 53.9267 10.513 53.7617L9.96911 51.6624L8.35108 53.1849C8.2227 53.3036 8.01787 53.3036 7.88949 53.1821L7.84245 53.1386C7.71798 53.0171 7.71798 52.8214 7.84539 52.7L9.4595 51.1848L7.25051 50.6739C7.07606 50.635 6.96434 50.4681 7.0104 50.3002L7.02412 50.2409C7.06822 50.074 7.24757 49.9738 7.42103 50.0137L9.68197 50.5358L9.12727 48.3975C9.08513 48.2343 9.19587 48.0628 9.37032 48.0238L9.43304 48.009C9.60944 47.9682 9.78781 48.0702 9.82995 48.2352L10.369 50.3308L11.989 48.812C12.1164 48.6924 12.3241 48.6924 12.4496 48.8148L12.4966 48.8584C12.625 48.9789 12.6221 49.1736 12.4966 49.2942L10.8796 50.8112L13.0905 51.3239ZM36.4172 51.3239C36.5907 51.3638 36.7004 51.5344 36.6563 51.6985L36.6397 51.7579C36.5975 51.922 36.4192 52.0259 36.2457 51.9841L33.9867 51.463L34.5385 53.6013C34.5836 53.7663 34.4738 53.9332 34.2964 53.9749L34.2337 53.9879C34.0602 54.0297 33.8819 53.9267 33.8397 53.7617L33.2958 51.6624L31.6778 53.1849C31.5494 53.3036 31.3446 53.3036 31.2162 53.1821L31.1691 53.1386C31.0447 53.0171 31.0447 52.8214 31.1721 52.7L32.7862 51.1848L30.5772 50.6739C30.4028 50.635 30.291 50.4681 30.3371 50.3002L30.3508 50.2409C30.3949 50.074 30.5743 49.9738 30.7477 50.0137L33.0087 50.5358L32.454 48.3975C32.4118 48.2343 32.5226 48.0628 32.697 48.0238L32.7597 48.009C32.9361 47.9682 33.1145 48.0702 33.1566 48.2352L33.6957 50.3308L35.3156 48.812C35.4431 48.6924 35.6508 48.6924 35.7763 48.8148L35.8233 48.8584C35.9517 48.9789 35.9487 49.1736 35.8233 49.2942L34.2063 50.8112L36.4172 51.3239ZM44.7514 51.3239C44.9249 51.3638 45.0356 51.5344 44.9895 51.7013L44.9729 51.7607C44.9307 51.9248 44.7524 52.0286 44.5789 51.9869L42.3199 51.4658L42.8717 53.604C42.9168 53.7691 42.807 53.936 42.6296 53.9777L42.5669 53.9907C42.3934 54.0324 42.2151 53.9295 42.1729 53.7645L41.629 51.6652L40.011 53.1877C39.8826 53.3064 39.6778 53.3064 39.5494 53.1849L39.5023 53.1413C39.3779 53.0199 39.3779 52.8242 39.5053 52.7028L41.1204 51.1848L38.9114 50.6739C38.7369 50.635 38.6252 50.4681 38.6713 50.3002L38.685 50.2409C38.7291 50.074 38.9084 49.9738 39.0819 50.0137L41.3428 50.5358L40.7881 48.3975C40.746 48.2343 40.8567 48.0628 41.0312 48.0238L41.0939 48.009C41.2703 47.9682 41.4487 48.0702 41.4908 48.2352L42.0298 50.3308L43.6498 48.812C43.7772 48.6924 43.985 48.6924 44.1104 48.8148L44.1575 48.8584C44.2859 48.9789 44.2829 49.1736 44.1575 49.2942L42.5404 50.8112L44.7514 51.3239Z" fill="#38C0E0"/>
</svg>
