<svg width="55" height="55" viewBox="0 0 55 55" fill="none" xmlns="http://www.w3.org/2000/svg">
<path fill-rule="evenodd" clip-rule="evenodd" d="M39.3091 24.7371L38.4394 24.3312L38.3689 23.3615C38.1408 20.2407 35.5434 17.7953 32.454 17.7953C31.909 17.7953 31.3572 17.8738 30.8132 18.0287L29.8594 18.2993L29.1859 17.564C27.6929 15.9344 25.5786 15 23.3841 15C19.627 15 16.3608 17.7169 15.6216 21.4614L15.4486 22.3379L14.6282 22.6693C11.8597 23.7822 9.99951 26.5559 9.99951 29.5719C9.99951 33.6664 13.285 37 17.3214 37H36.6749C40.1624 37 42.9995 34.1174 42.9995 30.5739C42.9995 28.0747 41.552 25.7843 39.3091 24.7371Z" fill="white"/>
<path fill-rule="evenodd" clip-rule="evenodd" d="M15.0711 19.5934C14.8421 20.079 14.6491 20.5865 14.5009 21.1148L8.99951 18.4654L15.5302 16.4147C15.2729 17.3394 15.1082 18.2999 15.0682 19.2881C15.0643 19.3912 15.0721 19.4913 15.0711 19.5934ZM39.7739 21.8007C39.8528 21.317 39.9035 20.8284 39.924 20.3308C39.9552 19.6043 39.9142 18.8866 39.8246 18.179L45.9995 21.1515L40.1277 23C40.0419 22.5857 39.923 22.1872 39.7739 21.8007ZM17.1892 12.791C16.737 13.4729 16.3471 14.1954 16.0313 14.9557L12.143 9.23563L18.8171 10.7858C18.5285 11.0742 18.2576 11.3805 17.9973 11.6947C17.9759 11.7205 17.9564 11.7482 17.9349 11.774C17.7 12.0634 17.4778 12.3628 17.2682 12.672C17.2419 12.7107 17.2165 12.7503 17.1892 12.791ZM20.8104 9.17715C20.5842 9.32682 20.362 9.48144 20.1456 9.64399C20.0852 9.69057 20.017 9.73121 19.9546 9.77879L19.3941 2.84655L24.4052 7.56947C23.2121 7.88367 22.0902 8.3743 21.0648 9.01262C20.979 9.06515 20.8942 9.12164 20.8104 9.17715ZM28.0127 7.17598C27.3031 7.14624 26.5954 7.19778 25.8936 7.28996L28.8247 1L30.8414 7.63786C29.9271 7.38115 28.9826 7.21662 28.0127 7.17598ZM32.2811 8.14336L37.9014 4.19256L36.375 10.9682C35.1916 9.73815 33.8036 8.78762 32.2811 8.14336ZM37.3809 12.1338L44.1846 11.5639L39.5468 16.6466C39.1374 15.0191 38.4034 13.4897 37.3809 12.1338ZM23.6508 14.0854C21.1116 14.0854 18.7615 15.1182 17.0313 16.823C18.1445 12.8554 21.4108 9.70346 25.5145 8.93134C26.3089 8.78068 27.1296 8.72121 27.9503 8.7559C30.855 8.87682 33.5395 10.1406 35.5094 12.3162C37.301 14.2955 38.2932 16.8141 38.3664 19.4784C36.9813 17.9143 35.0016 16.9112 32.8006 16.9112C32.1115 16.9112 31.4145 17.0094 30.7312 17.2056L30.6689 17.2225L30.624 17.1749C28.8295 15.2104 26.2874 14.0854 23.6508 14.0854Z" fill="#FFF500"/>
<path fill-rule="evenodd" clip-rule="evenodd" d="M39.7595 43.3255C39.9265 43.3654 40.0332 43.5351 39.9898 43.7002L39.9738 43.7596C39.9332 43.9238 39.7613 44.0277 39.5943 43.986L37.4183 43.4646L37.9498 45.6039C37.9932 45.769 37.8874 45.936 37.7166 45.9777L37.6562 45.9907C37.4891 46.0324 37.3173 45.9295 37.2767 45.7643L36.7527 43.6641L35.1941 45.1873C35.0705 45.3061 34.8732 45.3061 34.7495 45.1845L34.7042 45.1409C34.5843 45.0194 34.5843 44.8237 34.707 44.7022L36.2618 43.1863L34.134 42.6752C33.9659 42.6362 33.8583 42.4692 33.9027 42.3013L33.9159 42.2419C33.9584 42.0749 34.1311 41.9748 34.2982 42.0146L36.4761 42.5369L35.9418 40.3977C35.9012 40.2344 36.0079 40.0628 36.1759 40.0238L36.2363 40.009C36.4063 39.9682 36.5781 40.0702 36.6187 40.2354L37.1379 42.3319L38.6984 40.8124C38.8211 40.6927 39.0212 40.6927 39.1421 40.8152L39.1874 40.8588C39.311 40.9794 39.3082 41.1742 39.1874 41.2948L37.6297 42.8125L39.7595 43.3255ZM21.8663 43.3255C22.0334 43.3654 22.1391 43.5351 22.0976 43.7002L22.0815 43.7596C22.0409 43.9238 21.8691 44.0277 21.702 43.986L19.526 43.4646L20.0575 45.6039C20.1 45.769 19.9943 45.936 19.8234 45.9777L19.763 45.9907C19.5959 46.0324 19.4241 45.9295 19.3835 45.7643L18.8596 43.6641L17.301 45.1873C17.1773 45.3061 16.98 45.3061 16.8563 45.1845L16.811 45.1409C16.6911 45.0194 16.6911 44.8237 16.8138 44.7022L18.3687 43.1863L16.2408 42.6752C16.0728 42.6362 15.9652 42.4692 16.0095 42.3013L16.0227 42.2419C16.0652 42.0749 16.238 41.9748 16.4051 42.0146L18.583 42.5369L18.0486 40.3977C18.008 40.2344 18.1147 40.0628 18.2828 40.0238L18.3432 40.009C18.5131 39.9682 18.6849 40.0702 18.7255 40.2354L19.2447 42.3319L20.8052 40.8124C20.9279 40.6927 21.1281 40.6927 21.2489 40.8152L21.2942 40.8588C21.4179 40.9794 21.4151 41.1742 21.2942 41.2948L19.7366 42.8125L21.8663 43.3255Z" fill="#38C0E0"/>
<path fill-rule="evenodd" clip-rule="evenodd" d="M30.9995 43.0311L28.2387 42.9886L30.5023 39L27.0078 39.0296L24.043 44.9804H26.6244L22.9995 54L30.9995 43.0311Z" fill="#FFA800"/>
</svg>
