<svg width="55" height="55" viewBox="0 0 55 55" fill="none" xmlns="http://www.w3.org/2000/svg">
<path fill-rule="evenodd" clip-rule="evenodd" d="M39.3091 24.7371L38.4394 24.3312L38.3689 23.3615C38.1408 20.2407 35.5434 17.7953 32.454 17.7953C31.909 17.7953 31.3572 17.8738 30.8132 18.0287L29.8594 18.2993L29.1859 17.564C27.6929 15.9344 25.5786 15 23.3841 15C19.627 15 16.3608 17.7169 15.6216 21.4614L15.4486 22.3379L14.6282 22.6693C11.8597 23.7822 9.99951 26.5559 9.99951 29.5719C9.99951 33.6664 13.285 37 17.3214 37H36.6749C40.1624 37 42.9995 34.1174 42.9995 30.5739C42.9995 28.0747 41.552 25.7843 39.3091 24.7371Z" fill="white"/>
<path fill-rule="evenodd" clip-rule="evenodd" d="M15.0711 19.5934C14.8421 20.079 14.6491 20.5865 14.5009 21.1148L8.99951 18.4654L15.5302 16.4147C15.2729 17.3394 15.1082 18.2999 15.0682 19.2881C15.0643 19.3912 15.0721 19.4913 15.0711 19.5934ZM39.7739 21.8007C39.8528 21.317 39.9035 20.8284 39.924 20.3308C39.9552 19.6043 39.9142 18.8866 39.8246 18.179L45.9995 21.1515L40.1277 23C40.0419 22.5857 39.923 22.1872 39.7739 21.8007ZM17.1892 12.791C16.737 13.4729 16.3471 14.1954 16.0313 14.9557L12.143 9.23563L18.8171 10.7858C18.5285 11.0742 18.2576 11.3805 17.9973 11.6947C17.9759 11.7205 17.9564 11.7482 17.9349 11.774C17.7 12.0634 17.4778 12.3628 17.2682 12.672C17.2419 12.7107 17.2165 12.7503 17.1892 12.791ZM20.8104 9.17715C20.5842 9.32682 20.362 9.48144 20.1456 9.64399C20.0852 9.69057 20.017 9.73121 19.9546 9.77879L19.3941 2.84655L24.4052 7.56947C23.2121 7.88367 22.0902 8.3743 21.0648 9.01262C20.979 9.06515 20.8942 9.12164 20.8104 9.17715ZM28.0127 7.17598C27.3031 7.14624 26.5954 7.19778 25.8936 7.28996L28.8247 1L30.8414 7.63786C29.9271 7.38115 28.9826 7.21662 28.0127 7.17598ZM32.2811 8.14336L37.9014 4.19256L36.375 10.9682C35.1916 9.73815 33.8036 8.78762 32.2811 8.14336ZM37.3809 12.1338L44.1846 11.5639L39.5468 16.6466C39.1374 15.0191 38.4034 13.4897 37.3809 12.1338ZM23.6508 14.0854C21.1116 14.0854 18.7615 15.1182 17.0313 16.823C18.1445 12.8554 21.4108 9.70346 25.5145 8.93134C26.3089 8.78068 27.1296 8.72121 27.9503 8.7559C30.855 8.87682 33.5395 10.1406 35.5094 12.3162C37.301 14.2955 38.2932 16.8141 38.3664 19.4784C36.9813 17.9143 35.0016 16.9112 32.8006 16.9112C32.1115 16.9112 31.4145 17.0094 30.7312 17.2056L30.6689 17.2225L30.624 17.1749C28.8295 15.2104 26.2874 14.0854 23.6508 14.0854Z" fill="#FFF500"/>
<path fill-rule="evenodd" clip-rule="evenodd" d="M18.2989 44.769C17.0064 47.2326 14.0571 45.6207 15.2978 43.243C16.3509 41.2221 18.8811 40 18.8811 40C18.8811 40 19.3208 42.8128 18.2989 44.769ZM36.3232 44.769C35.0308 47.2326 32.0814 45.6207 33.3221 43.243C34.3752 41.2221 36.9055 40 36.9055 40C36.9055 40 37.3451 42.8128 36.3232 44.769Z" fill="#009EFF"/>
<path fill-rule="evenodd" clip-rule="evenodd" d="M28.9995 43.0314L26.2377 42.9889L28.5023 39L25.0078 39.0277L22.0421 44.9808H24.6234L20.9995 54L28.9995 43.0314Z" fill="#FFA800"/>
</svg>
