<svg width="55" height="55" viewBox="0 0 55 55" fill="none" xmlns="http://www.w3.org/2000/svg">
<path fill-rule="evenodd" clip-rule="evenodd" d="M39.3096 24.2945L38.4399 23.9071L38.3694 22.9815C38.1413 20.0025 35.5438 17.6683 32.4545 17.6683C31.9095 17.6683 31.3577 17.7432 30.8137 17.891L29.8599 18.1493L29.1864 17.4474C27.6934 15.8919 25.5791 15 23.3846 15C19.6275 15 16.3613 17.5934 15.6221 21.1677L15.4491 22.0044L14.6287 22.3207C11.8602 23.383 10 26.0307 10 28.9095C10 32.8179 13.2855 36 17.3218 36H36.6754C40.1629 36 43 33.2484 43 29.866C43 27.4804 41.5524 25.2941 39.3096 24.2945Z" fill="white"/>
<path fill-rule="evenodd" clip-rule="evenodd" d="M15.0716 19.5934C14.8426 20.079 14.6496 20.5865 14.5014 21.1148L9 18.4654L15.5307 16.4147C15.2734 17.3394 15.1087 18.2999 15.0687 19.2881C15.0648 19.3912 15.0726 19.4913 15.0716 19.5934ZM39.7744 21.8007C39.8533 21.317 39.904 20.8284 39.9245 20.3308C39.9557 19.6043 39.9147 18.8866 39.825 18.179L46 21.1515L40.1282 23C40.0424 22.5857 39.9235 22.1872 39.7744 21.8007ZM17.1897 12.791C16.7375 13.4729 16.3476 14.1954 16.0317 14.9557L12.1435 9.23563L18.8175 10.7858C18.529 11.0742 18.258 11.3805 17.9978 11.6947C17.9763 11.7205 17.9568 11.7482 17.9354 11.774C17.7005 12.0634 17.4783 12.3628 17.2687 12.672C17.2424 12.7107 17.217 12.7503 17.1897 12.791ZM20.8109 9.17715C20.5847 9.32682 20.3625 9.48144 20.1461 9.64399C20.0857 9.69057 20.0174 9.73121 19.9551 9.77879L19.3946 2.84655L24.4057 7.56947C23.2126 7.88367 22.0907 8.3743 21.0653 9.01262C20.9795 9.06515 20.8947 9.12164 20.8109 9.17715ZM28.0132 7.17598C27.3036 7.14624 26.5959 7.19778 25.8941 7.28996L28.8252 1L30.8419 7.63786C29.9276 7.38115 28.9831 7.21662 28.0132 7.17598ZM32.2816 8.14336L37.9019 4.19256L36.3755 10.9682C35.1921 9.73815 33.8041 8.78762 32.2816 8.14336ZM37.3814 12.1338L44.185 11.5639L39.5472 16.6466C39.1379 15.0191 38.4039 13.4897 37.3814 12.1338ZM23.6513 14.0854C21.1121 14.0854 18.762 15.1182 17.0318 16.823C18.145 12.8554 21.4113 9.70346 25.5149 8.93134C26.3094 8.78068 27.1301 8.72121 27.9508 8.7559C30.8555 8.87682 33.5399 10.1406 35.5099 12.3162C37.3015 14.2955 38.2937 16.8141 38.3668 19.4784C36.9817 17.9143 35.0021 16.9112 32.8011 16.9112C32.112 16.9112 31.415 17.0094 30.7317 17.2056L30.6694 17.2225L30.6245 17.1749C28.83 15.2104 26.2879 14.0854 23.6513 14.0854Z" fill="#FFF500"/>
<path fill-rule="evenodd" clip-rule="evenodd" d="M30 42.0311L27.2392 41.9886L29.5028 38L26.0083 38.0296L23.0435 43.9804H25.6249L22 53L30 42.0311Z" fill="#FFA800"/>
<path fill-rule="evenodd" clip-rule="evenodd" d="M34.6765 50.1816C34.8505 50.2236 34.9616 50.4024 34.9164 50.5773L34.8997 50.6399C34.8574 50.8129 34.6785 50.9223 34.5045 50.8783L32.2387 50.3291L32.7921 52.5827C32.8374 52.7566 32.7273 52.9325 32.5493 52.9765L32.4864 52.9902C32.3124 53.0342 32.1335 52.9257 32.0913 52.7518L31.5457 50.5392L29.9228 52.1439C29.794 52.269 29.5886 52.269 29.4598 52.141L29.4126 52.095C29.2878 51.967 29.2878 51.7608 29.4156 51.6328L31.0346 50.0359L28.8189 49.4975C28.6439 49.4564 28.5319 49.2805 28.5781 49.1036L28.5918 49.0411C28.6361 48.8652 28.8159 48.7596 28.9899 48.8017L31.2577 49.3509L30.7013 47.0973C30.659 46.9253 30.7701 46.7445 30.9451 46.7035L31.008 46.6878C31.1849 46.6448 31.3639 46.7523 31.4061 46.9263L31.9468 49.1349L33.5717 47.5341C33.6994 47.4081 33.9078 47.4081 34.0337 47.5371L34.0808 47.583C34.2096 47.7101 34.2067 47.9153 34.0808 48.0423L32.4589 49.6411L34.6765 50.1816ZM39.7498 42.5032C39.9237 42.5452 40.0338 42.7241 39.9906 42.898L39.9739 42.9606C39.9316 43.1335 39.7527 43.243 39.5787 43.199L37.3129 42.6498L37.8663 44.9034C37.9106 45.0773 37.8005 45.2532 37.6226 45.2972L37.5596 45.3109C37.3857 45.3548 37.2068 45.2464 37.1645 45.0724L36.6189 42.8599L34.996 44.4646C34.8672 44.5896 34.6618 44.5897 34.533 44.4616L34.4858 44.4157C34.361 44.2877 34.361 44.0815 34.4888 43.9535L36.1078 42.3566L33.8921 41.8181C33.7171 41.7771 33.6051 41.6012 33.6513 41.4243L33.665 41.3617C33.7093 41.1858 33.8892 41.0803 34.0631 41.1223L36.3309 41.6725L35.7745 39.419C35.7323 39.247 35.8433 39.0662 36.0183 39.0251L36.0812 39.0095C36.2582 38.9665 36.4371 39.074 36.4793 39.2479L37.02 41.4565L38.6449 39.8558C38.7727 39.7297 38.9811 39.7297 39.1069 39.8587L39.1541 39.9046C39.2828 40.0317 39.2799 40.2369 39.1541 40.364L37.5321 41.9628L39.7498 42.5032ZM19.1079 50.1816C19.2819 50.2236 19.392 50.4024 19.3488 50.5764L19.332 50.6389C19.2898 50.8119 19.1109 50.9213 18.9369 50.8774L16.6711 50.3281L17.2245 52.5817C17.2697 52.7557 17.1596 52.9316 16.9817 52.9755L16.9188 52.9892C16.7448 53.0332 16.5659 52.9247 16.5236 52.7508L15.9781 50.5383L14.3552 52.1429C14.2264 52.268 14.0209 52.268 13.8922 52.14L13.845 52.0941C13.7202 51.966 13.7202 51.7598 13.8479 51.6318L15.4669 50.035L13.2513 49.4965C13.0763 49.4554 12.9642 49.2795 13.0104 49.1027L13.0242 49.0401C13.0684 48.8642 13.2483 48.7587 13.4223 48.8007L15.6901 49.3509L15.1337 47.0973C15.0904 46.9253 15.2015 46.7445 15.3765 46.7035L15.4394 46.6878C15.6163 46.6448 15.7952 46.7523 15.8375 46.9263L16.3782 49.1349L18.003 47.5341C18.1308 47.4081 18.3392 47.4081 18.4651 47.5371L18.5122 47.583C18.641 47.7101 18.6381 47.9153 18.5122 48.0423L16.8903 49.6411L19.1079 50.1816ZM19.2485 42.5032C19.4215 42.5452 19.5326 42.7241 19.4893 42.898L19.4726 42.9606C19.4303 43.1335 19.2514 43.243 19.0775 43.199L16.8117 42.6498L17.3651 44.9034C17.4103 45.0773 17.3002 45.2532 17.1223 45.2972L17.0594 45.3109C16.8854 45.3548 16.7065 45.2464 16.6642 45.0724L16.1187 42.8599L14.4957 44.4646C14.367 44.5896 14.1615 44.5897 14.0327 44.4616L13.9856 44.4157C13.8607 44.2877 13.8607 44.0815 13.9885 43.9535L15.6075 42.3566L13.3918 41.8181C13.2169 41.7771 13.1048 41.6012 13.151 41.4243L13.1648 41.3617C13.209 41.1858 13.3889 41.0803 13.5629 41.1223L15.8306 41.6725L15.2743 39.419C15.231 39.247 15.3421 39.0662 15.5171 39.0251L15.58 39.0095C15.7569 38.9665 15.9358 39.074 15.9781 39.2479L16.5187 41.4565L18.1436 39.8558C18.2714 39.7297 18.4798 39.7297 18.6056 39.8587L18.6528 39.9046C18.7816 40.0317 18.7786 40.2369 18.6528 40.364L17.0309 41.9628L19.2485 42.5032Z" fill="#38C0E0"/>
</svg>
