<svg width="55" height="55" viewBox="0 0 55 55" fill="none" xmlns="http://www.w3.org/2000/svg">
<path fill-rule="evenodd" clip-rule="evenodd" d="M39.3096 24.2945L38.4399 23.9071L38.3694 22.9815C38.1413 20.0025 35.5438 17.6683 32.4545 17.6683C31.9095 17.6683 31.3577 17.7432 30.8137 17.891L29.8599 18.1493L29.1864 17.4474C27.6934 15.8919 25.5791 15 23.3846 15C19.6275 15 16.3613 17.5934 15.6221 21.1677L15.4491 22.0044L14.6287 22.3207C11.8602 23.383 10 26.0307 10 28.9095C10 32.8179 13.2855 36 17.3218 36H36.6754C40.1629 36 43 33.2484 43 29.866C43 27.4804 41.5524 25.2941 39.3096 24.2945Z" fill="white"/>
<path fill-rule="evenodd" clip-rule="evenodd" d="M15.0716 19.5934C14.8426 20.079 14.6496 20.5865 14.5014 21.1148L9 18.4654L15.5307 16.4147C15.2734 17.3394 15.1087 18.2999 15.0687 19.2881C15.0648 19.3912 15.0726 19.4913 15.0716 19.5934ZM39.7744 21.8007C39.8533 21.317 39.904 20.8284 39.9245 20.3308C39.9557 19.6043 39.9147 18.8866 39.825 18.179L46 21.1515L40.1282 23C40.0424 22.5857 39.9235 22.1872 39.7744 21.8007ZM17.1897 12.791C16.7375 13.4729 16.3476 14.1954 16.0317 14.9557L12.1435 9.23563L18.8175 10.7858C18.529 11.0742 18.258 11.3805 17.9978 11.6947C17.9763 11.7205 17.9568 11.7482 17.9354 11.774C17.7005 12.0634 17.4783 12.3628 17.2687 12.672C17.2424 12.7107 17.217 12.7503 17.1897 12.791ZM20.8109 9.17715C20.5847 9.32682 20.3625 9.48144 20.1461 9.64399C20.0857 9.69057 20.0174 9.73121 19.9551 9.77879L19.3946 2.84655L24.4057 7.56947C23.2126 7.88367 22.0907 8.3743 21.0653 9.01262C20.9795 9.06515 20.8947 9.12164 20.8109 9.17715ZM28.0132 7.17598C27.3036 7.14624 26.5959 7.19778 25.8941 7.28996L28.8252 1L30.8419 7.63786C29.9276 7.38115 28.9831 7.21662 28.0132 7.17598ZM32.2816 8.14336L37.9019 4.19256L36.3755 10.9682C35.1921 9.73815 33.8041 8.78762 32.2816 8.14336ZM37.3814 12.1338L44.185 11.5639L39.5472 16.6466C39.1379 15.0191 38.4039 13.4897 37.3814 12.1338ZM23.6513 14.0854C21.1121 14.0854 18.762 15.1182 17.0318 16.823C18.145 12.8554 21.4113 9.70346 25.5149 8.93134C26.3094 8.78068 27.1301 8.72121 27.9508 8.7559C30.8555 8.87682 33.5399 10.1406 35.5099 12.3162C37.3015 14.2955 38.2937 16.8141 38.3668 19.4784C36.9817 17.9143 35.0021 16.9112 32.8011 16.9112C32.112 16.9112 31.415 17.0094 30.7317 17.2056L30.6694 17.2225L30.6245 17.1749C28.83 15.2104 26.2879 14.0854 23.6513 14.0854Z" fill="#FFF500"/>
<path fill-rule="evenodd" clip-rule="evenodd" d="M29 42.0311L26.2392 41.9886L28.5028 38L25.0083 38.0296L22.0435 43.9804H24.6249L21 53L29 42.0311Z" fill="#FFA800"/>
</svg>
