<svg width="55" height="55" viewBox="0 0 55 55" fill="none" xmlns="http://www.w3.org/2000/svg">
<path fill-rule="evenodd" clip-rule="evenodd" d="M39.3091 24.7371L38.4394 24.3312L38.3689 23.3615C38.1408 20.2407 35.5434 17.7953 32.454 17.7953C31.909 17.7953 31.3572 17.8738 30.8132 18.0287L29.8594 18.2993L29.1859 17.564C27.6929 15.9344 25.5786 15 23.3841 15C19.627 15 16.3608 17.7169 15.6216 21.4614L15.4486 22.3379L14.6282 22.6693C11.8597 23.7822 9.99951 26.5559 9.99951 29.5719C9.99951 33.6664 13.285 37 17.3214 37H36.6749C40.1624 37 42.9995 34.1174 42.9995 30.5739C42.9995 28.0747 41.552 25.7843 39.3091 24.7371Z" fill="white"/>
<path fill-rule="evenodd" clip-rule="evenodd" d="M15.0711 18.7482C14.8421 19.2118 14.6491 19.6962 14.5009 20.2005L8.99951 17.6715L15.5302 15.714C15.2729 16.5967 15.1082 17.5135 15.0682 18.4568C15.0643 18.5552 15.0721 18.6507 15.0711 18.7482ZM39.7739 20.8552C39.8528 20.3935 39.9035 19.9271 39.924 19.4521C39.9552 18.7586 39.9142 18.0736 39.8246 17.3981L45.9995 20.2355L40.1277 22C40.0419 21.6045 39.923 21.2242 39.7739 20.8552ZM17.1892 12.255C16.737 12.9059 16.3471 13.5956 16.0313 14.3213L12.143 8.86128L18.8171 10.341C18.5285 10.6163 18.2576 10.9087 17.9973 11.2086C17.9759 11.2332 17.9564 11.2597 17.9349 11.2843C17.7 11.5606 17.4778 11.8463 17.2682 12.1415C17.2419 12.1784 17.2165 12.2162 17.1892 12.255ZM20.8104 8.80546C20.5842 8.94832 20.362 9.09592 20.1456 9.25108C20.0852 9.29555 20.017 9.33434 19.9546 9.37975L19.3941 2.76261L24.4052 7.27086C23.2121 7.57078 22.0902 8.03911 21.0648 8.64841C20.979 8.69855 20.8942 8.75248 20.8104 8.80546ZM28.0127 6.89525C27.3031 6.86687 26.5954 6.91607 25.8936 7.00406L28.8247 1L30.8414 7.33614C29.9271 7.0911 28.9826 6.93404 28.0127 6.89525ZM32.2811 7.81866L37.9014 4.04744L36.375 10.5151C35.1916 9.34096 33.8036 8.43364 32.2811 7.81866ZM37.3809 11.6277L44.1846 11.0837L39.5468 15.9354C39.1374 14.3819 38.4034 12.922 37.3809 11.6277ZM23.6508 13.4906C21.1116 13.4906 18.7615 14.4765 17.0313 16.1038C18.1445 12.3165 21.4108 9.30785 25.5145 8.57082C26.3089 8.42701 27.1296 8.37025 27.9503 8.40336C30.855 8.51879 33.5395 9.72509 35.5094 11.8018C37.301 13.6912 38.2932 16.0953 38.3664 18.6384C36.9813 17.1455 35.0016 16.188 32.8006 16.188C32.1115 16.188 31.4145 16.2817 30.7312 16.469L30.6689 16.4851L30.624 16.4397C28.8295 14.5645 26.2874 13.4906 23.6508 13.4906Z" fill="#FFF500"/>
</svg>
