<svg width="55" height="55" viewBox="0 0 55 55" fill="none" xmlns="http://www.w3.org/2000/svg">
<path fill-rule="evenodd" clip-rule="evenodd" d="M39.4214 24.2945L38.5781 23.9071L38.5097 22.9815C38.2886 20.0025 35.7698 17.6683 32.7741 17.6683C32.2456 17.6683 31.7105 17.7432 31.183 17.891L30.2581 18.1493L29.605 17.4474C28.1572 15.8919 26.107 15 23.979 15C20.3358 15 17.1686 17.5934 16.4517 21.1677L16.284 22.0044L15.4884 22.3207C12.8038 23.383 11 26.0307 11 28.9095C11 32.8179 14.1859 36 18.1 36H36.8671C40.2488 36 43 33.2484 43 29.866C43 27.4804 41.5963 25.2941 39.4214 24.2945Z" fill="white"/>
<path fill-rule="evenodd" clip-rule="evenodd" d="M15.0716 18.7482C14.8426 19.2118 14.6496 19.6962 14.5014 20.2005L9 17.6715L15.5307 15.714C15.2734 16.5967 15.1087 17.5135 15.0687 18.4568C15.0648 18.5552 15.0726 18.6507 15.0716 18.7482ZM39.7744 20.8552C39.8533 20.3935 39.904 19.9271 39.9245 19.4521C39.9557 18.7586 39.9147 18.0736 39.825 17.3981L46 20.2355L40.1282 22C40.0424 21.6045 39.9235 21.2242 39.7744 20.8552ZM17.1897 12.255C16.7375 12.9059 16.3476 13.5956 16.0317 14.3213L12.1435 8.86128L18.8175 10.341C18.529 10.6163 18.258 10.9087 17.9978 11.2086C17.9763 11.2332 17.9568 11.2597 17.9354 11.2843C17.7005 11.5606 17.4783 11.8463 17.2687 12.1415C17.2424 12.1784 17.217 12.2162 17.1897 12.255ZM20.8109 8.80546C20.5847 8.94832 20.3625 9.09592 20.1461 9.25108C20.0857 9.29555 20.0174 9.33434 19.9551 9.37975L19.3946 2.76261L24.4057 7.27086C23.2126 7.57078 22.0907 8.03911 21.0653 8.64841C20.9795 8.69855 20.8947 8.75248 20.8109 8.80546ZM28.0132 6.89525C27.3036 6.86687 26.5959 6.91607 25.8941 7.00406L28.8252 1L30.8419 7.33614C29.9276 7.0911 28.9831 6.93404 28.0132 6.89525ZM32.2816 7.81866L37.9019 4.04744L36.3755 10.5151C35.1921 9.34096 33.8041 8.43364 32.2816 7.81866ZM37.3814 11.6277L44.185 11.0837L39.5472 15.9354C39.1379 14.3819 38.4039 12.922 37.3814 11.6277ZM23.6513 13.4906C21.1121 13.4906 18.762 14.4765 17.0318 16.1038C18.145 12.3165 21.4113 9.30785 25.5149 8.57082C26.3094 8.42701 27.1301 8.37025 27.9508 8.40336C30.8555 8.51879 33.5399 9.72509 35.5099 11.8018C37.3015 13.6912 38.2937 16.0953 38.3668 18.6384C36.9817 17.1455 35.0021 16.188 32.8011 16.188C32.112 16.188 31.415 16.2817 30.7317 16.469L30.6694 16.4851L30.6245 16.4397C28.83 14.5645 26.2879 13.4906 23.6513 13.4906Z" fill="#FFF500"/>
<path fill-rule="evenodd" clip-rule="evenodd" d="M30 42.7624L27.2392 42.7227L29.5028 39L26.0083 39.0277L23.0435 44.5817H25.6249L22 53L30 42.7624Z" fill="#FFA800"/>
<path fill-rule="evenodd" clip-rule="evenodd" d="M19.1242 43.9169C17.9003 46.4569 15.1076 44.795 16.2824 42.3436C17.2796 40.2601 19.6755 39 19.6755 39C19.6755 39 20.0918 41.9 19.1242 43.9169ZM34.3596 51.7308C33.1358 54.2708 30.3431 52.609 31.5179 50.1575C32.5151 48.074 34.911 46.8139 34.911 46.8139C34.911 46.8139 35.3272 49.7139 34.3596 51.7308Z" fill="#009EFF"/>
<path fill-rule="evenodd" clip-rule="evenodd" d="M19.8175 50.1823C19.9832 50.2244 20.089 50.4032 20.0469 50.5772L20.031 50.6397C19.9907 50.8127 19.8203 50.9222 19.6546 50.8782L17.4965 50.3289L18.0237 52.5827C18.0667 52.7566 17.9619 52.9325 17.7924 52.9765L17.7325 52.9902C17.5668 53.0342 17.3964 52.9257 17.3561 52.7517L16.8365 50.5391L15.2907 52.1438C15.1681 52.2689 14.9724 52.2689 14.8498 52.1409L14.8048 52.095C14.6859 51.9669 14.6859 51.7607 14.8076 51.6327L16.3496 50.0357L14.2393 49.4972C14.0727 49.4562 13.9659 49.2803 14.0099 49.1034L14.023 49.0408C14.0652 48.8649 14.2365 48.7593 14.4022 48.8014L16.5622 49.3516L16.0322 47.0979C15.991 46.9259 16.0968 46.7451 16.2635 46.704L16.3234 46.6884C16.4919 46.6454 16.6623 46.7529 16.7026 46.9268L17.2175 49.1356L18.7652 47.5347C18.8869 47.4087 19.0854 47.4087 19.2052 47.5377L19.2501 47.5836C19.3728 47.7107 19.37 47.9159 19.2501 48.043L17.7053 49.6419L19.8175 50.1823ZM38.7617 42.5034C38.9274 42.5455 39.0322 42.7243 38.991 42.8983L38.9751 42.9608C38.9349 43.1338 38.7645 43.2433 38.5987 43.1993L36.4407 42.65L36.9678 44.9038C37.0099 45.0777 36.9051 45.2537 36.7356 45.2976L36.6757 45.3113C36.51 45.3553 36.3396 45.2468 36.2993 45.0728L35.7797 42.8602L34.2339 44.4649C34.1113 44.59 33.9156 44.59 33.793 44.462L33.748 44.4161C33.6291 44.288 33.6291 44.0818 33.7508 43.9538L35.2928 42.3568L33.1825 41.8183C33.0159 41.7773 32.9091 41.6014 32.9531 41.4245L32.9662 41.3619C33.0084 41.186 33.1797 41.0804 33.3454 41.1225L35.5054 41.6727L34.9754 39.419C34.9352 39.247 35.041 39.0662 35.2076 39.0251L35.2676 39.0095C35.4361 38.9665 35.6065 39.074 35.6467 39.2479L36.1617 41.4567L37.7093 39.8558C37.831 39.7298 38.0295 39.7298 38.1493 39.8588L38.1943 39.9047C38.3169 40.0318 38.3141 40.237 38.1943 40.3641L36.6495 41.963L38.7617 42.5034Z" fill="#38C0E0"/>
</svg>
