<svg width="55" height="55" viewBox="0 0 55 55" fill="none" xmlns="http://www.w3.org/2000/svg">
<path fill-rule="evenodd" clip-rule="evenodd" d="M39.3096 24.7371L38.4399 24.3312L38.3694 23.3615C38.1413 20.2407 35.5438 17.7953 32.4545 17.7953C31.9095 17.7953 31.3577 17.8738 30.8137 18.0287L29.8599 18.2993L29.1864 17.564C27.6934 15.9344 25.5791 15 23.3846 15C19.6275 15 16.3613 17.7169 15.6221 21.4614L15.4491 22.3379L14.6287 22.6693C11.8602 23.7822 10 26.5559 10 29.5719C10 33.6664 13.2855 37 17.3218 37H36.6754C40.1629 37 43 34.1174 43 30.5739C43 28.0747 41.5524 25.7843 39.3096 24.7371Z" fill="white"/>
<path fill-rule="evenodd" clip-rule="evenodd" d="M15.0716 18.7482C14.8426 19.2118 14.6496 19.6962 14.5014 20.2005L9 17.6715L15.5307 15.714C15.2734 16.5967 15.1087 17.5135 15.0687 18.4568C15.0648 18.5552 15.0726 18.6507 15.0716 18.7482ZM39.7744 20.8552C39.8533 20.3935 39.904 19.9271 39.9245 19.4521C39.9557 18.7586 39.9147 18.0736 39.825 17.3981L46 20.2355L40.1282 22C40.0424 21.6045 39.9235 21.2242 39.7744 20.8552ZM17.1897 12.255C16.7375 12.9059 16.3476 13.5956 16.0317 14.3213L12.1435 8.86128L18.8175 10.341C18.529 10.6163 18.258 10.9087 17.9978 11.2086C17.9763 11.2332 17.9568 11.2597 17.9354 11.2843C17.7005 11.5606 17.4783 11.8463 17.2687 12.1415C17.2424 12.1784 17.217 12.2162 17.1897 12.255ZM20.8109 8.80546C20.5847 8.94832 20.3625 9.09592 20.1461 9.25108C20.0857 9.29555 20.0174 9.33434 19.9551 9.37975L19.3946 2.76261L24.4057 7.27086C23.2126 7.57078 22.0907 8.03911 21.0653 8.64841C20.9795 8.69855 20.8947 8.75248 20.8109 8.80546ZM28.0132 6.89525C27.3036 6.86687 26.5959 6.91607 25.8941 7.00406L28.8252 1L30.8419 7.33614C29.9276 7.0911 28.9831 6.93404 28.0132 6.89525ZM32.2816 7.81866L37.9019 4.04744L36.3755 10.5151C35.1921 9.34096 33.8041 8.43364 32.2816 7.81866ZM37.3814 11.6277L44.185 11.0837L39.5472 15.9354C39.1379 14.3819 38.4039 12.922 37.3814 11.6277ZM23.6513 13.4906C21.1121 13.4906 18.762 14.4765 17.0318 16.1038C18.145 12.3165 21.4113 9.30785 25.5149 8.57082C26.3094 8.42701 27.1301 8.37025 27.9508 8.40336C30.8555 8.51879 33.5399 9.72509 35.5099 11.8018C37.3015 13.6912 38.2937 16.0953 38.3668 18.6384C36.9817 17.1455 35.0021 16.188 32.8011 16.188C32.112 16.188 31.415 16.2817 30.7317 16.469L30.6694 16.4851L30.6245 16.4397C28.83 14.5645 26.2879 13.4906 23.6513 13.4906Z" fill="#FFF500"/>
<path fill-rule="evenodd" clip-rule="evenodd" d="M19.9229 42.5034C20.0878 42.5455 20.1931 42.7243 20.1512 42.8983L20.1354 42.9608C20.0953 43.1338 19.9257 43.2433 19.7608 43.1993L17.613 42.65L18.1376 44.9038C18.1805 45.0777 18.0761 45.2537 17.9075 45.2976L17.8478 45.3113C17.6829 45.3553 17.5133 45.2468 17.4733 45.0728L16.9561 42.8602L15.4178 44.4649C15.2957 44.59 15.101 44.59 14.9789 44.462L14.9342 44.4161C14.8158 44.288 14.8158 44.0818 14.937 43.9538L16.4716 42.3568L14.3714 41.8183C14.2055 41.7773 14.0993 41.6014 14.1431 41.4245L14.1561 41.3619C14.1981 41.186 14.3686 41.0804 14.5335 41.1225L16.6831 41.6727L16.1557 39.419C16.1147 39.247 16.22 39.0662 16.3859 39.0251L16.4455 39.0095C16.6132 38.9665 16.7828 39.074 16.8229 39.2479L17.3354 41.4567L18.8756 39.8558C18.9967 39.7298 19.1943 39.7298 19.3135 39.8588L19.3583 39.9047C19.4803 40.0318 19.4775 40.237 19.3583 40.3641L17.8208 41.963L19.9229 42.5034ZM34.6302 50.1823C34.7951 50.2244 34.9004 50.4032 34.8575 50.5772L34.8417 50.6397C34.8016 50.8127 34.632 50.9222 34.4671 50.8782L32.3194 50.3289L32.8439 52.5827C32.8868 52.7566 32.7824 52.9325 32.6138 52.9765L32.5542 52.9902C32.3892 53.0342 32.2197 52.9257 32.1796 52.7517L31.6624 50.5391L30.1241 52.1438C30.002 52.2689 29.8073 52.2689 29.6852 52.1409L29.6405 52.095C29.5221 51.9669 29.5221 51.7607 29.6433 51.6327L31.1779 50.0357L29.0777 49.4972C28.9118 49.4562 28.8056 49.2803 28.8494 49.1034L28.8624 49.0408C28.9044 48.8649 29.0749 48.7593 29.2398 48.8014L31.3894 49.3516L30.862 47.0979C30.822 46.9259 30.9273 46.7451 31.0931 46.704L31.1528 46.6884C31.3205 46.6454 31.4901 46.7529 31.5301 46.9268L32.0426 49.1356L33.5828 47.5347C33.704 47.4087 33.9015 47.4087 34.0208 47.5377L34.0655 47.5836C34.1876 47.7107 34.1848 47.9159 34.0655 48.043L32.5281 49.6419L34.6302 50.1823ZM25.2863 50.1823C25.4512 50.2244 25.5565 50.4032 25.5136 50.5772L25.4978 50.6397C25.4577 50.8127 25.2881 50.9222 25.1232 50.8782L22.9754 50.3289L23.5 52.5827C23.5429 52.7566 23.4385 52.9325 23.2699 52.9765L23.2102 52.9902C23.0453 53.0342 22.8757 52.9257 22.8357 52.7517L22.3185 50.5391L20.7802 52.1438C20.6581 52.2689 20.4634 52.2689 20.3413 52.1409L20.2966 52.095C20.1782 51.9669 20.1782 51.7607 20.2994 51.6327L21.834 50.0357L19.7338 49.4972C19.5679 49.4562 19.4617 49.2803 19.5055 49.1034L19.5185 49.0408C19.5605 48.8649 19.731 48.7593 19.8959 48.8014L22.0455 49.3516L21.5181 47.0979C21.4781 46.9259 21.5834 46.7451 21.7492 46.704L21.8088 46.6884C21.9766 46.6454 22.1462 46.7529 22.1862 46.9268L22.6987 49.1356L24.2389 47.5347C24.3601 47.4087 24.5576 47.4087 24.6769 47.5377L24.7216 47.5836C24.8437 47.7107 24.8409 47.9159 24.7216 48.043L23.1842 49.6419L25.2863 50.1823ZM14.7907 50.1823C14.9556 50.2244 15.06 50.4032 15.019 50.5772L15.0031 50.6397C14.963 50.8127 14.7935 50.9222 14.6285 50.8782L12.4808 50.3289L13.0054 52.5827C13.0473 52.7566 12.9429 52.9325 12.7743 52.9765L12.7147 52.9902C12.5497 53.0342 12.3801 52.9257 12.3401 52.7517L11.8229 50.5391L10.2846 52.1438C10.1625 52.2689 9.96776 52.2689 9.8457 52.1409L9.80097 52.095C9.68264 51.9669 9.68264 51.7607 9.80377 51.6327L11.3384 50.0357L9.23818 49.4972C9.07232 49.4562 8.9661 49.2803 9.00989 49.1034L9.02293 49.0408C9.06486 48.8649 9.23538 48.7593 9.40031 48.8014L11.5499 49.3516L11.0225 47.0979C10.9825 46.9259 11.0878 46.7451 11.2536 46.704L11.3133 46.6884C11.481 46.6454 11.6506 46.7529 11.6906 46.9268L12.2031 49.1356L13.7433 47.5347C13.8645 47.4087 14.062 47.4087 14.1813 47.5377L14.226 47.5836C14.3481 47.7107 14.3453 47.9159 14.226 48.043L12.6886 49.6419L14.7907 50.1823ZM39.7634 42.5034C39.9283 42.5455 40.0326 42.7243 39.9907 42.8983L39.9749 42.9608C39.9348 43.1338 39.7652 43.2433 39.6003 43.1993L37.4525 42.65L37.9771 44.9038C38.02 45.0777 37.9156 45.2537 37.747 45.2976L37.6873 45.3113C37.5224 45.3553 37.3528 45.2468 37.3128 45.0728L36.7956 42.8602L35.2573 44.4649C35.1352 44.59 34.9405 44.59 34.8184 44.462L34.7737 44.4161C34.6553 44.288 34.6553 44.0818 34.7765 43.9538L36.3111 42.3568L34.2109 41.8183C34.045 41.7773 33.9388 41.6014 33.9826 41.4245L33.9956 41.3619C34.0376 41.186 34.2081 41.0804 34.373 41.1225L36.5226 41.6727L35.9952 39.419C35.9552 39.247 36.0605 39.0662 36.2263 39.0251L36.286 39.0095C36.4537 38.9665 36.6233 39.074 36.6633 39.2479L37.1758 41.4567L38.716 39.8558C38.8372 39.7298 39.0347 39.7298 39.154 39.8588L39.1987 39.9047C39.3208 40.0318 39.318 40.237 39.1987 40.3641L37.6613 41.963L39.7634 42.5034ZM29.8436 42.5034C30.0076 42.5455 30.1129 42.7243 30.071 42.8983L30.0551 42.9608C30.0151 43.1338 29.8455 43.2433 29.6805 43.1993L27.5328 42.65L28.0574 44.9038C28.1002 45.0777 27.9959 45.2537 27.8272 45.2976L27.7676 45.3113C27.6027 45.3553 27.4331 45.2468 27.393 45.0728L26.8759 42.8602L25.3375 44.4649C25.2154 44.59 25.0207 44.59 24.8986 44.462L24.8539 44.4161C24.7356 44.288 24.7356 44.0818 24.8567 43.9538L26.3914 42.3568L24.2911 41.8183C24.1253 41.7773 24.019 41.6014 24.0628 41.4245L24.0759 41.3619C24.1178 41.186 24.2883 41.0804 24.4532 41.1225L26.6029 41.6727L26.0755 39.419C26.0354 39.247 26.1407 39.0662 26.3066 39.0251L26.3662 39.0095C26.5339 38.9665 26.7035 39.074 26.7436 39.2479L27.256 41.4567L28.7963 39.8558C28.9174 39.7298 29.115 39.7298 29.2342 39.8588L29.2789 39.9047C29.401 40.0318 29.3982 40.237 29.2789 40.3641L27.7415 41.963L29.8436 42.5034Z" fill="#38C0E0"/>
</svg>
