<svg width="55" height="55" viewBox="0 0 55 55" fill="none" xmlns="http://www.w3.org/2000/svg">
<path fill-rule="evenodd" clip-rule="evenodd" d="M40.3096 24.7371L39.4399 24.3312L39.3694 23.3615C39.1413 20.2407 36.5438 17.7953 33.4545 17.7953C32.9095 17.7953 32.3577 17.8738 31.8137 18.0287L30.8599 18.2993L30.1864 17.564C28.6934 15.9344 26.5791 15 24.3846 15C20.6275 15 17.3613 17.7169 16.6221 21.4614L16.4491 22.3379L15.6287 22.6693C12.8602 23.7822 11 26.5559 11 29.5719C11 33.6664 14.2855 37 18.3218 37H37.6754C41.1629 37 44 34.1174 44 30.5739C44 28.0747 42.5524 25.7843 40.3096 24.7371Z" fill="white"/>
<path fill-rule="evenodd" clip-rule="evenodd" d="M16.0716 18.7482C15.8426 19.2118 15.6496 19.6962 15.5014 20.2005L10 17.6715L16.5307 15.714C16.2734 16.5967 16.1087 17.5135 16.0687 18.4568C16.0648 18.5552 16.0726 18.6507 16.0716 18.7482ZM40.7744 20.8552C40.8533 20.3935 40.904 19.9271 40.9245 19.4521C40.9557 18.7586 40.9147 18.0736 40.825 17.3981L47 20.2355L41.1282 22C41.0424 21.6045 40.9235 21.2242 40.7744 20.8552ZM18.1897 12.255C17.7375 12.9059 17.3476 13.5956 17.0317 14.3213L13.1435 8.86128L19.8175 10.341C19.529 10.6163 19.258 10.9087 18.9978 11.2086C18.9763 11.2332 18.9568 11.2597 18.9354 11.2843C18.7005 11.5606 18.4783 11.8463 18.2687 12.1415C18.2424 12.1784 18.217 12.2162 18.1897 12.255ZM21.8109 8.80546C21.5847 8.94832 21.3625 9.09592 21.1461 9.25108C21.0857 9.29555 21.0174 9.33434 20.9551 9.37975L20.3946 2.76261L25.4057 7.27086C24.2126 7.57078 23.0907 8.03911 22.0653 8.64841C21.9795 8.69855 21.8947 8.75248 21.8109 8.80546ZM29.0132 6.89525C28.3036 6.86687 27.5959 6.91607 26.8941 7.00406L29.8252 1L31.8419 7.33614C30.9276 7.0911 29.9831 6.93404 29.0132 6.89525ZM33.2816 7.81866L38.9019 4.04744L37.3755 10.5151C36.1921 9.34096 34.8041 8.43364 33.2816 7.81866ZM38.3814 11.6277L45.185 11.0837L40.5472 15.9354C40.1379 14.3819 39.4039 12.922 38.3814 11.6277ZM24.6513 13.4906C22.1121 13.4906 19.762 14.4765 18.0318 16.1038C19.145 12.3165 22.4113 9.30785 26.5149 8.57082C27.3094 8.42701 28.1301 8.37025 28.9508 8.40336C31.8555 8.51879 34.5399 9.72509 36.5099 11.8018C38.3015 13.6912 39.2937 16.0953 39.3668 18.6384C37.9817 17.1455 36.0021 16.188 33.8011 16.188C33.112 16.188 32.415 16.2817 31.7317 16.469L31.6694 16.4851L31.6245 16.4397C29.83 14.5645 27.2879 13.4906 24.6513 13.4906Z" fill="#FFF500"/>
<path fill-rule="evenodd" clip-rule="evenodd" d="M19.28 44.6476C17.9774 47.0484 15.0051 45.4776 16.2554 43.1604C17.3168 41.191 19.8667 40 19.8667 40C19.8667 40 20.3108 42.7412 19.28 44.6476ZM32.3636 51.8003C31.061 54.2012 28.0887 52.6304 29.3391 50.3132C30.4004 48.3438 32.9504 47.1528 32.9504 47.1528C32.9504 47.1528 33.3934 49.893 32.3636 51.8003ZM22.3449 51.8003C21.0423 54.2012 18.0699 52.6304 19.3203 50.3132C20.3817 48.3438 22.9316 47.1528 22.9316 47.1528C22.9316 47.1528 23.3747 49.893 22.3449 51.8003ZM12.3251 51.8003C11.0226 54.2012 8.05021 52.6304 9.30058 50.3132C10.3619 48.3438 12.9119 47.1528 12.9119 47.1528C12.9119 47.1528 13.3559 49.893 12.3251 51.8003ZM39.3184 44.6476C38.0159 47.0484 35.0435 45.4776 36.2939 43.1604C37.3553 41.191 39.9052 40 39.9052 40C39.9052 40 40.3483 42.7412 39.3184 44.6476ZM29.2987 44.6476C27.9962 47.0484 25.0238 45.4776 26.2742 43.1604C27.3355 41.191 29.8855 40 29.8855 40C29.8855 40 30.3285 42.7412 29.2987 44.6476Z" fill="#009EFF"/>
</svg>
