<svg width="55" height="55" viewBox="0 0 55 55" fill="none" xmlns="http://www.w3.org/2000/svg">
<path fill-rule="evenodd" clip-rule="evenodd" d="M39.4209 24.7371L38.5776 24.3312L38.5092 23.3615C38.2881 20.2407 35.7693 17.7953 32.7736 17.7953C32.2451 17.7953 31.71 17.8738 31.1825 18.0287L30.2576 18.2993L29.6045 17.564C28.1568 15.9344 26.1065 15 23.9785 15C20.3353 15 17.1681 17.7169 16.4512 21.4614L16.2835 22.3379L15.4879 22.6693C12.8033 23.7822 10.9995 26.5559 10.9995 29.5719C10.9995 33.6664 14.1855 37 18.0995 37H36.8666C40.2484 37 42.9995 34.1174 42.9995 30.5739C42.9995 28.0747 41.5958 25.7843 39.4209 24.7371Z" fill="white"/>
<path fill-rule="evenodd" clip-rule="evenodd" d="M15.0711 18.7482C14.8421 19.2118 14.6491 19.6962 14.5009 20.2005L8.99951 17.6715L15.5302 15.714C15.2729 16.5967 15.1082 17.5135 15.0682 18.4568C15.0643 18.5552 15.0721 18.6507 15.0711 18.7482ZM39.7739 20.8552C39.8528 20.3935 39.9035 19.9271 39.924 19.4521C39.9552 18.7586 39.9142 18.0736 39.8246 17.3981L45.9995 20.2355L40.1277 22C40.0419 21.6045 39.923 21.2242 39.7739 20.8552ZM17.1892 12.255C16.737 12.9059 16.3471 13.5956 16.0313 14.3213L12.143 8.86128L18.8171 10.341C18.5285 10.6163 18.2576 10.9087 17.9973 11.2086C17.9759 11.2332 17.9564 11.2597 17.9349 11.2843C17.7 11.5606 17.4778 11.8463 17.2682 12.1415C17.2419 12.1784 17.2165 12.2162 17.1892 12.255ZM20.8104 8.80546C20.5842 8.94832 20.362 9.09592 20.1456 9.25108C20.0852 9.29555 20.017 9.33434 19.9546 9.37975L19.3941 2.76261L24.4052 7.27086C23.2121 7.57078 22.0902 8.03911 21.0648 8.64841C20.979 8.69855 20.8942 8.75248 20.8104 8.80546ZM28.0127 6.89525C27.3031 6.86687 26.5954 6.91607 25.8936 7.00406L28.8247 1L30.8414 7.33614C29.9271 7.0911 28.9826 6.93404 28.0127 6.89525ZM32.2811 7.81866L37.9014 4.04744L36.375 10.5151C35.1916 9.34096 33.8036 8.43364 32.2811 7.81866ZM37.3809 11.6277L44.1846 11.0837L39.5468 15.9354C39.1374 14.3819 38.4034 12.922 37.3809 11.6277ZM23.6508 13.4906C21.1116 13.4906 18.7615 14.4765 17.0313 16.1038C18.1445 12.3165 21.4108 9.30785 25.5145 8.57082C26.3089 8.42701 27.1296 8.37025 27.9503 8.40336C30.855 8.51879 33.5395 9.72509 35.5094 11.8018C37.301 13.6912 38.2932 16.0953 38.3664 18.6384C36.9813 17.1455 35.0016 16.188 32.8006 16.188C32.1115 16.188 31.4145 16.2817 30.7312 16.469L30.6689 16.4851L30.624 16.4397C28.8295 14.5645 26.2874 13.4906 23.6508 13.4906Z" fill="#FFF500"/>
<path fill-rule="evenodd" clip-rule="evenodd" d="M22.2944 42.5034C22.4598 42.5455 22.5661 42.7243 22.5247 42.8983L22.5087 42.9608C22.4683 43.1338 22.2972 43.2433 22.1308 43.1993L19.9637 42.65L20.493 44.9038C20.5363 45.0777 20.431 45.2537 20.2608 45.2976L20.2006 45.3113C20.0342 45.3553 19.8631 45.2468 19.8227 45.0728L19.3009 42.8602L17.7486 44.4649C17.6255 44.59 17.429 44.59 17.3058 44.462L17.2607 44.4161C17.1413 44.288 17.1413 44.0818 17.2635 43.9538L18.812 42.3568L16.6928 41.8183C16.5255 41.7773 16.4183 41.6014 16.4625 41.4245L16.4757 41.3619C16.518 41.186 16.69 41.0804 16.8564 41.1225L19.0254 41.6727L18.4933 39.419C18.4519 39.247 18.5581 39.0662 18.7255 39.0251L18.7857 39.0095C18.9549 38.9665 19.126 39.074 19.1664 39.2479L19.6835 41.4567L21.2376 39.8558C21.3598 39.7298 21.5592 39.7298 21.6795 39.8588L21.7246 39.9047C21.8478 40.0318 21.845 40.237 21.7246 40.3641L20.1733 41.963L22.2944 42.5034ZM16.8423 50.1823C17.0087 50.2244 17.114 50.4032 17.0727 50.5772L17.0567 50.6397C17.0162 50.8127 16.8451 50.9222 16.6787 50.8782L14.5116 50.3289L15.0409 52.5827C15.0833 52.7566 14.978 52.9325 14.8078 52.9765L14.7476 52.9902C14.5812 53.0342 14.4101 52.9257 14.3697 52.7517L13.8479 50.5391L12.2956 52.1438C12.1725 52.2689 11.976 52.2689 11.8528 52.1409L11.8077 52.095C11.6883 51.9669 11.6883 51.7607 11.8105 51.6327L13.359 50.0357L11.2398 49.4972C11.0725 49.4562 10.9653 49.2803 11.0095 49.1034L11.0227 49.0408C11.065 48.8649 11.237 48.7593 11.4034 48.8014L13.5724 49.3516L13.0403 47.0979C12.9998 46.9259 13.1061 46.7451 13.2734 46.704L13.3336 46.6884C13.5028 46.6454 13.6739 46.7529 13.7144 46.9268L14.2315 49.1356L15.7856 47.5347C15.9078 47.4087 16.1071 47.4087 16.2274 47.5377L16.2726 47.5836C16.3957 47.7107 16.3929 47.9159 16.2726 48.043L14.7213 49.6419L16.8423 50.1823ZM31.1884 50.1823C31.3548 50.2244 31.4601 50.4032 31.4178 50.5772L31.4018 50.6397C31.3614 50.8127 31.1903 50.9222 31.0239 50.8782L28.8568 50.3289L29.3861 52.5827C29.4293 52.7566 29.324 52.9325 29.1539 52.9765L29.0937 52.9902C28.9273 53.0342 28.7562 52.9257 28.7157 52.7517L28.194 50.5391L26.6417 52.1438C26.5186 52.2689 26.3221 52.2689 26.1989 52.1409L26.1538 52.095C26.0344 51.9669 26.0344 51.7607 26.1566 51.6327L27.7051 50.0357L25.5859 49.4972C25.4186 49.4562 25.3114 49.2803 25.3556 49.1034L25.3687 49.0408C25.411 48.8649 25.5831 48.7593 25.7495 48.8014L27.9185 49.3516L27.3863 47.0979C27.3459 46.9259 27.4522 46.7451 27.6195 46.704L27.6797 46.6884C27.8489 46.6454 28.02 46.7529 28.0604 46.9268L28.5775 49.1356L30.1316 47.5347C30.2539 47.4087 30.4532 47.4087 30.5735 47.5377L30.6187 47.5836C30.7418 47.7107 30.739 47.9159 30.6187 48.043L29.0674 49.6419L31.1884 50.1823ZM36.7608 42.5034C36.9263 42.5455 37.0325 42.7243 36.9902 42.8983L36.9742 42.9608C36.9338 43.1338 36.7627 43.2433 36.5963 43.1993L34.4292 42.65L34.9585 44.9038C35.0017 45.0777 34.8964 45.2537 34.7263 45.2976L34.6661 45.3113C34.4997 45.3553 34.3286 45.2468 34.2881 45.0728L33.7663 42.8602L32.2141 44.4649C32.091 44.59 31.8945 44.59 31.7713 44.462L31.7262 44.4161C31.6068 44.288 31.6068 44.0818 31.729 43.9538L33.2775 42.3568L31.1583 41.8183C30.991 41.7773 30.8838 41.6014 30.928 41.4245L30.9411 41.3619C30.9834 41.186 31.1555 41.0804 31.3219 41.1225L33.4909 41.6727L32.9587 39.419C32.9183 39.247 33.0246 39.0662 33.1919 39.0251L33.2521 39.0095C33.4213 38.9665 33.5924 39.074 33.6328 39.2479L34.1499 41.4567L35.704 39.8558C35.8263 39.7298 36.0256 39.7298 36.1459 39.8588L36.1911 39.9047C36.3142 40.0318 36.3114 40.237 36.1911 40.3641L34.6398 41.963L36.7608 42.5034Z" fill="#38C0E0"/>
</svg>
