<svg width="55" height="55" viewBox="0 0 55 55" fill="none" xmlns="http://www.w3.org/2000/svg">
<path fill-rule="evenodd" clip-rule="evenodd" d="M40.4214 24.2945L39.5781 23.9071L39.5097 22.9815C39.2886 20.0025 36.7698 17.6683 33.7741 17.6683C33.2456 17.6683 32.7105 17.7432 32.183 17.891L31.2581 18.1493L30.605 17.4474C29.1572 15.8919 27.107 15 24.979 15C21.3358 15 18.1686 17.5934 17.4517 21.1677L17.284 22.0044L16.4884 22.3207C13.8038 23.383 12 26.0307 12 28.9095C12 32.8179 15.1859 36 19.1 36H37.8671C41.2488 36 44 33.2484 44 29.866C44 27.4804 42.5963 25.2941 40.4214 24.2945Z" fill="white"/>
<path fill-rule="evenodd" clip-rule="evenodd" d="M16.0716 18.7482C15.8426 19.2118 15.6496 19.6962 15.5014 20.2005L10 17.6715L16.5307 15.714C16.2734 16.5967 16.1087 17.5135 16.0687 18.4568C16.0648 18.5552 16.0726 18.6507 16.0716 18.7482ZM40.7744 20.8552C40.8533 20.3935 40.904 19.9271 40.9245 19.4521C40.9557 18.7586 40.9147 18.0736 40.825 17.3981L47 20.2355L41.1282 22C41.0424 21.6045 40.9235 21.2242 40.7744 20.8552ZM18.1897 12.255C17.7375 12.9059 17.3476 13.5956 17.0317 14.3213L13.1435 8.86128L19.8175 10.341C19.529 10.6163 19.258 10.9087 18.9978 11.2086C18.9763 11.2332 18.9568 11.2597 18.9354 11.2843C18.7005 11.5606 18.4783 11.8463 18.2687 12.1415C18.2424 12.1784 18.217 12.2162 18.1897 12.255ZM21.8109 8.80546C21.5847 8.94832 21.3625 9.09592 21.1461 9.25108C21.0857 9.29555 21.0174 9.33434 20.9551 9.37975L20.3946 2.76261L25.4057 7.27086C24.2126 7.57078 23.0907 8.03911 22.0653 8.64841C21.9795 8.69855 21.8947 8.75248 21.8109 8.80546ZM29.0132 6.89525C28.3036 6.86687 27.5959 6.91607 26.8941 7.00406L29.8252 1L31.8419 7.33614C30.9276 7.0911 29.9831 6.93404 29.0132 6.89525ZM33.2816 7.81866L38.9019 4.04744L37.3755 10.5151C36.1921 9.34096 34.8041 8.43364 33.2816 7.81866ZM38.3814 11.6277L45.185 11.0837L40.5472 15.9354C40.1379 14.3819 39.4039 12.922 38.3814 11.6277ZM24.6513 13.4906C22.1121 13.4906 19.762 14.4765 18.0318 16.1038C19.145 12.3165 22.4113 9.30785 26.5149 8.57082C27.3094 8.42701 28.1301 8.37025 28.9508 8.40336C31.8555 8.51879 34.5399 9.72509 36.5099 11.8018C38.3015 13.6912 39.2937 16.0953 39.3668 18.6384C37.9817 17.1455 36.0021 16.188 33.8011 16.188C33.112 16.188 32.415 16.2817 31.7317 16.469L31.6694 16.4851L31.6245 16.4397C29.83 14.5645 27.2879 13.4906 24.6513 13.4906Z" fill="#FFF500"/>
<path fill-rule="evenodd" clip-rule="evenodd" d="M31 42.7624L28.2392 42.7227L30.5028 39L27.0083 39.0277L24.0435 44.5817H26.6249L23 53L31 42.7624Z" fill="#FFA800"/>
<path fill-rule="evenodd" clip-rule="evenodd" d="M19.896 51.7081C18.6128 54.2936 15.6847 52.602 16.9165 50.1065C17.962 47.9856 20.474 46.703 20.474 46.703C20.474 46.703 20.9105 49.654 19.896 51.7081ZM32.6772 51.7081C31.394 54.2936 28.4659 52.602 29.6977 50.1065C30.7432 47.9856 33.2552 46.703 33.2552 46.703C33.2552 46.703 33.6917 49.654 32.6772 51.7081ZM39.0018 44.0051C37.7186 46.5906 34.7905 44.899 36.0223 42.4035C37.0678 40.2826 39.5798 39 39.5798 39C39.5798 39 40.0163 41.952 39.0018 44.0051ZM40.3286 51.7081C39.0454 54.2936 36.1173 52.602 37.3491 50.1065C38.3946 47.9856 40.9066 46.703 40.9066 46.703C40.9066 46.703 41.3431 49.654 40.3286 51.7081ZM12.2756 51.7081C10.9924 54.2936 8.06435 52.602 9.29611 50.1065C10.3416 47.9856 12.8537 46.703 12.8537 46.703C12.8537 46.703 13.2901 49.654 12.2756 51.7081ZM19.2093 44.0051C17.9262 46.5906 14.9981 44.899 16.2298 42.4035C17.2754 40.2826 19.7874 39 19.7874 39C19.7874 39 20.2238 41.952 19.2093 44.0051Z" fill="#009EFF"/>
</svg>
