<svg width="55" height="55" viewBox="0 0 55 55" fill="none" xmlns="http://www.w3.org/2000/svg">
<path fill-rule="evenodd" clip-rule="evenodd" d="M28.1659 10.0071C28.1441 9.98339 28.1194 9.96358 28.0986 9.93884C28.1829 9.8933 28.273 9.84577 28.3526 9.80122C29.1659 9.43195 30.0294 9.16167 30.9318 9.01416C31.728 8.88249 32.546 8.84388 33.3611 8.90229C36.2474 9.10524 38.8863 10.4734 40.7896 12.7525C42.69 15.0305 43.6294 17.9431 43.4284 20.9587C43.4038 21.3596 43.3498 21.7527 43.2844 22.1427C43.2796 22.1279 43.272 22.115 43.2682 22.1021C42.673 20.2033 41.4 18.6302 39.7403 17.7114C39.728 17.7035 39.7166 17.6946 39.7033 17.6867C39.5223 17.5877 39.327 17.5154 39.1374 17.4322C38.9526 17.3501 38.7725 17.261 38.581 17.1946C38.4152 17.1392 38.2408 17.1055 38.0711 17.061C37.8446 17.0026 37.619 16.9412 37.3848 16.9066C37.3374 16.8996 37.2957 16.8828 37.2483 16.8759C37.2919 15.874 36.9166 14.8147 36.9118 14.8018C36.2635 13.0009 35.0303 11.5407 33.3431 10.5784C32.3355 10.0042 31.2521 9.7141 30.1223 9.7141C29.4692 9.7141 28.8085 9.81706 28.1735 10.0151L28.1659 10.0071ZM26.8796 8.7825C26.3668 8.35778 25.8275 7.99544 25.2682 7.68655L25 2.62362L29.8635 7.59151C28.8076 7.84496 27.8142 8.26373 26.8796 8.7825ZM33.4654 7.28956C32.7602 7.23907 32.054 7.27273 31.3526 7.34698L34.4351 1L36.2682 7.841C35.3659 7.5529 34.4294 7.35688 33.4654 7.28956ZM37.6882 8.39738L43.3858 4.51455L41.6891 11.3991C40.5431 10.1091 39.1867 9.09732 37.6882 8.39738ZM42.6588 12.6188L49.4446 12.2258L44.6967 17.2927C44.3308 15.6176 43.6408 14.0335 42.6588 12.6188ZM44.9308 18.8668L51 22.0784L44.4398 24C44.7213 23.0595 44.909 22.0804 44.9744 21.0696C45.0228 20.328 45 19.5925 44.9308 18.8668Z" fill="#FFF500"/>
<path fill-rule="evenodd" clip-rule="evenodd" d="M12.2686 29.6903C12.2686 30.6319 12.4213 31.5397 12.6994 32.3915C11.5219 32.1822 10.5729 31.9236 10.5729 31.9236C7.11643 30.7245 4.69152 27.3286 5.03183 23.4254C5.30796 20.2533 7.5316 17.5714 10.5146 16.3964L11.1777 16.1349L11.3751 15.1625C12.3795 10.1816 17.5122 6.83886 22.783 8.37759C24.364 8.83873 25.7612 9.78512 26.8842 10.9823L27.5171 11.6586C27.5171 11.6586 27.5609 11.6837 27.628 11.7252C29.1564 10.9987 30.9649 10.9631 32.5818 11.839C34.0889 12.6561 35.0476 13.8476 35.5444 15.1567C35.5979 15.2985 35.8273 16.1156 35.7875 16.6298C35.2984 16.6694 34.8084 16.7398 34.3261 16.8739L34.2639 16.8913L34.2192 16.843C32.4292 14.9329 29.8934 13.8379 27.2634 13.8379C22.7548 13.8379 18.8404 17.0225 17.9546 21.4129L17.9449 21.4689L17.8904 21.4901C14.5273 22.8118 12.2686 26.1073 12.2686 29.6903ZM43.2868 24.9332C45.5425 25.9636 46.999 28.2171 47 30.6772C47 34.1637 44.1453 37 40.6363 37H21.1632C17.1019 37 13.7961 33.7199 13.7961 29.6912C13.7961 26.7238 15.6678 23.9945 18.4534 22.8996L19.2798 22.5735L19.4529 21.711C20.1967 18.0268 23.4831 15.3535 27.2634 15.3535C29.4714 15.3535 31.5988 16.2729 33.101 17.8763L33.7787 18.5998L34.7384 18.3335C35.2858 18.1821 35.841 18.1039 36.3893 18.1039C39.4978 18.1039 42.1113 20.509 42.3408 23.5816L42.4117 24.5338L43.2868 24.9332Z" fill="white"/>
<path fill-rule="evenodd" clip-rule="evenodd" d="M39.7599 43.3255C39.927 43.3654 40.0337 43.5351 39.9903 43.7002L39.9742 43.7596C39.9336 43.9238 39.7618 44.0277 39.5947 43.986L37.4187 43.4646L37.9502 45.6039C37.9937 45.769 37.8879 45.936 37.7171 45.9777L37.6566 45.9907C37.4896 46.0324 37.3177 45.9295 37.2771 45.7643L36.7532 43.6641L35.1946 45.1873C35.0709 45.3061 34.8736 45.3061 34.75 45.1845L34.7047 45.1409C34.5848 45.0194 34.5848 44.8237 34.7075 44.7022L36.2623 43.1863L34.1345 42.6752C33.9664 42.6362 33.8588 42.4692 33.9032 42.3013L33.9164 42.2419C33.9589 42.0749 34.1316 41.9748 34.2987 42.0146L36.4766 42.5369L35.9423 40.3977C35.9017 40.2344 36.0084 40.0628 36.1764 40.0238L36.2368 40.009C36.4067 39.9682 36.5786 40.0702 36.6192 40.2354L37.1384 42.3319L38.6989 40.8124C38.8216 40.6927 39.0217 40.6927 39.1425 40.8152L39.1879 40.8588C39.3115 40.9794 39.3087 41.1742 39.1879 41.2948L37.6302 42.8125L39.7599 43.3255ZM21.8668 43.3255C22.0339 43.3654 22.1396 43.5351 22.0981 43.7002L22.082 43.7596C22.0414 43.9238 21.8696 44.0277 21.7025 43.986L19.5265 43.4646L20.058 45.6039C20.1005 45.769 19.9948 45.936 19.8239 45.9777L19.7635 45.9907C19.5964 46.0324 19.4246 45.9295 19.384 45.7643L18.86 43.6641L17.3015 45.1873C17.1778 45.3061 16.9805 45.3061 16.8568 45.1845L16.8115 45.1409C16.6916 45.0194 16.6916 44.8237 16.8143 44.7022L18.3692 43.1863L16.2413 42.6752C16.0733 42.6362 15.9657 42.4692 16.01 42.3013L16.0232 42.2419C16.0657 42.0749 16.2385 41.9748 16.4056 42.0146L18.5834 42.5369L18.0491 40.3977C18.0085 40.2344 18.1152 40.0628 18.2832 40.0238L18.3437 40.009C18.5136 39.9682 18.6854 40.0702 18.726 40.2354L19.2452 42.3319L20.8057 40.8124C20.9284 40.6927 21.1286 40.6927 21.2494 40.8152L21.2947 40.8588C21.4184 40.9794 21.4155 41.1742 21.2947 41.2948L19.7371 42.8125L21.8668 43.3255Z" fill="#38C0E0"/>
<path fill-rule="evenodd" clip-rule="evenodd" d="M31 43.0311L28.2392 42.9886L30.5028 39L27.0083 39.0296L24.0435 44.9804H26.6249L23 54L31 43.0311Z" fill="#FFA800"/>
</svg>
