<svg width="55" height="55" viewBox="0 0 55 55" fill="none" xmlns="http://www.w3.org/2000/svg">
<path fill-rule="evenodd" clip-rule="evenodd" d="M28.1659 10.0071C28.1441 9.98339 28.1194 9.96358 28.0986 9.93884C28.1829 9.8933 28.273 9.84577 28.3526 9.80122C29.1659 9.43195 30.0294 9.16167 30.9318 9.01416C31.728 8.88249 32.546 8.84388 33.3611 8.90229C36.2474 9.10524 38.8863 10.4734 40.7896 12.7525C42.69 15.0305 43.6294 17.9431 43.4284 20.9587C43.4038 21.3596 43.3498 21.7527 43.2844 22.1427C43.2796 22.1279 43.272 22.115 43.2682 22.1021C42.673 20.2033 41.4 18.6302 39.7403 17.7114C39.728 17.7035 39.7166 17.6946 39.7033 17.6867C39.5223 17.5877 39.327 17.5154 39.1374 17.4322C38.9526 17.3501 38.7725 17.261 38.581 17.1946C38.4152 17.1392 38.2408 17.1055 38.0711 17.061C37.8446 17.0026 37.619 16.9412 37.3848 16.9066C37.3374 16.8996 37.2957 16.8828 37.2483 16.8759C37.2919 15.874 36.9166 14.8147 36.9118 14.8018C36.2635 13.0009 35.0303 11.5407 33.3431 10.5784C32.3355 10.0042 31.2521 9.7141 30.1223 9.7141C29.4692 9.7141 28.8085 9.81706 28.1735 10.0151L28.1659 10.0071ZM26.8796 8.7825C26.3668 8.35778 25.8275 7.99544 25.2682 7.68655L25 2.62362L29.8635 7.59151C28.8076 7.84496 27.8142 8.26373 26.8796 8.7825ZM33.4654 7.28956C32.7602 7.23907 32.054 7.27273 31.3526 7.34698L34.4351 1L36.2682 7.841C35.3659 7.5529 34.4294 7.35688 33.4654 7.28956ZM37.6882 8.39738L43.3858 4.51455L41.6891 11.3991C40.5431 10.1091 39.1867 9.09732 37.6882 8.39738ZM42.6588 12.6188L49.4446 12.2258L44.6967 17.2927C44.3308 15.6176 43.6408 14.0335 42.6588 12.6188ZM44.9308 18.8668L51 22.0784L44.4398 24C44.7213 23.0595 44.909 22.0804 44.9744 21.0696C45.0228 20.328 45 19.5925 44.9308 18.8668Z" fill="#FFF500"/>
<path fill-rule="evenodd" clip-rule="evenodd" d="M12.2686 29.6903C12.2686 30.6319 12.4213 31.5397 12.6994 32.3915C11.5219 32.1822 10.5729 31.9236 10.5729 31.9236C7.11643 30.7245 4.69152 27.3286 5.03183 23.4254C5.30796 20.2533 7.5316 17.5714 10.5146 16.3964L11.1777 16.1349L11.3751 15.1625C12.3795 10.1816 17.5122 6.83886 22.783 8.37759C24.364 8.83873 25.7612 9.78512 26.8842 10.9823L27.5171 11.6586C27.5171 11.6586 27.5609 11.6837 27.628 11.7252C29.1564 10.9987 30.9649 10.9631 32.5818 11.839C34.0889 12.6561 35.0476 13.8476 35.5444 15.1567C35.5979 15.2985 35.8273 16.1156 35.7875 16.6298C35.2984 16.6694 34.8084 16.7398 34.3261 16.8739L34.2639 16.8913L34.2192 16.843C32.4292 14.9329 29.8934 13.8379 27.2634 13.8379C22.7548 13.8379 18.8404 17.0225 17.9546 21.4129L17.9449 21.4689L17.8904 21.4901C14.5273 22.8118 12.2686 26.1073 12.2686 29.6903ZM43.2868 24.9332C45.5425 25.9636 46.999 28.2171 47 30.6772C47 34.1637 44.1453 37 40.6363 37H21.1632C17.1019 37 13.7961 33.7199 13.7961 29.6912C13.7961 26.7238 15.6678 23.9945 18.4534 22.8996L19.2798 22.5735L19.4529 21.711C20.1967 18.0268 23.4831 15.3535 27.2634 15.3535C29.4714 15.3535 31.5988 16.2729 33.101 17.8763L33.7787 18.5998L34.7384 18.3335C35.2858 18.1821 35.841 18.1039 36.3893 18.1039C39.4978 18.1039 42.1113 20.509 42.3408 23.5816L42.4117 24.5338L43.2868 24.9332Z" fill="white"/>
<path fill-rule="evenodd" clip-rule="evenodd" d="M21.6276 43.5034C21.8032 43.5455 21.9153 43.7243 21.8706 43.8983L21.8538 43.9608C21.8111 44.1338 21.6306 44.2433 21.455 44.1993L19.1687 43.65L19.7272 45.9038C19.7728 46.0777 19.6617 46.2537 19.4822 46.2976L19.4187 46.3113C19.2431 46.3553 19.0626 46.2468 19.0199 46.0728L18.4694 43.8602L16.8318 45.4649C16.7019 45.59 16.4946 45.59 16.3646 45.462L16.317 45.4161C16.191 45.288 16.191 45.0818 16.32 44.9538L17.9536 43.3568L15.7179 42.8183C15.5413 42.7773 15.4283 42.6014 15.4749 42.4245L15.4888 42.3619C15.5334 42.186 15.7149 42.0804 15.8905 42.1225L18.1788 42.6727L17.6174 40.419C17.5737 40.247 17.6858 40.0662 17.8624 40.0251L17.9259 40.0095C18.1044 39.9665 18.2849 40.074 18.3276 40.2479L18.8731 42.4567L20.5127 40.8558C20.6417 40.7298 20.852 40.7298 20.9789 40.8588L21.0265 40.9047C21.1565 41.0318 21.1535 41.237 21.0265 41.3641L19.3899 42.963L21.6276 43.5034ZM37.2837 51.1823C37.4593 51.2244 37.5714 51.4032 37.5258 51.5772L37.5089 51.6397C37.4662 51.8127 37.2857 51.9222 37.1102 51.8782L34.8238 51.3289L35.3823 53.5827C35.4279 53.7566 35.3168 53.9325 35.1373 53.9765L35.0738 53.9902C34.8982 54.0342 34.7177 53.9257 34.675 53.7517L34.1245 51.5391L32.4869 53.1438C32.357 53.2689 32.1497 53.2689 32.0197 53.1409L31.9721 53.095C31.8462 52.9669 31.8462 52.7607 31.9751 52.6327L33.6088 51.0357L31.373 50.4972C31.1965 50.4562 31.0834 50.2803 31.13 50.1034L31.1439 50.0408C31.1885 49.8649 31.37 49.7593 31.5456 49.8014L33.8339 50.3516L33.2725 48.0979C33.2299 47.9259 33.3419 47.7451 33.5185 47.704L33.582 47.6884C33.7605 47.6454 33.941 47.7529 33.9837 47.9268L34.5292 50.1356L36.1688 48.5347C36.2978 48.4087 36.5081 48.4087 36.635 48.5377L36.6826 48.5836C36.8126 48.7107 36.8096 48.9159 36.6826 49.043L35.046 50.6419L37.2837 51.1823ZM27.337 51.1823C27.5126 51.2244 27.6246 51.4032 27.579 51.5772L27.5621 51.6397C27.5195 51.8127 27.339 51.9222 27.1634 51.8782L24.8771 51.3289L25.4355 53.5827C25.4811 53.7566 25.3701 53.9325 25.1905 53.9765L25.127 53.9902C24.9515 54.0342 24.7709 53.9257 24.7283 53.7517L24.1778 51.5391L22.5402 53.1438C22.4102 53.2689 22.2029 53.2689 22.073 53.1409L22.0254 53.095C21.8994 52.9669 21.8994 52.7607 22.0284 52.6327L23.662 51.0357L21.4263 50.4972C21.2497 50.4562 21.1366 50.2803 21.1833 50.1034L21.1971 50.0408C21.2418 49.8649 21.4233 49.7593 21.5989 49.8014L23.8872 50.3516L23.3258 48.0979C23.2831 47.9259 23.3952 47.7451 23.5717 47.704L23.6352 47.6884C23.8138 47.6454 23.9943 47.7529 24.0369 47.9268L24.5825 50.1356L26.2221 48.5347C26.351 48.4087 26.5613 48.4087 26.6883 48.5377L26.7359 48.5836C26.8658 48.7107 26.8629 48.9159 26.7359 49.043L25.0993 50.6419L27.337 51.1823ZM16.1643 51.1823C16.3398 51.2244 16.4509 51.4032 16.4073 51.5772L16.3904 51.6397C16.3478 51.8127 16.1672 51.9222 15.9917 51.8782L13.7053 51.3289L14.2638 53.5827C14.3084 53.7566 14.1973 53.9325 14.0178 53.9765L13.9543 53.9902C13.7787 54.0342 13.5982 53.9257 13.5556 53.7517L13.0051 51.5391L11.3674 53.1438C11.2375 53.2689 11.0302 53.2689 10.9003 53.1409L10.8526 53.095C10.7267 52.9669 10.7267 52.7607 10.8556 52.6327L12.4893 51.0357L10.2535 50.4972C10.077 50.4562 9.96391 50.2803 10.0105 50.1034L10.0244 50.0408C10.069 49.8649 10.2506 49.7593 10.4261 49.8014L12.7144 50.3516L12.153 48.0979C12.1104 47.9259 12.2225 47.7451 12.399 47.704L12.4625 47.6884C12.641 47.6454 12.8216 47.7529 12.8642 47.9268L13.4098 50.1356L15.0494 48.5347C15.1783 48.4087 15.3886 48.4087 15.5156 48.5377L15.5632 48.5836C15.6931 48.7107 15.6901 48.9159 15.5632 49.043L13.9265 50.6419L16.1643 51.1823ZM42.7481 43.5034C42.9237 43.5455 43.0347 43.7243 42.9901 43.8983L42.9733 43.9608C42.9306 44.1338 42.7501 44.2433 42.5745 44.1993L40.2882 43.65L40.8466 45.9038C40.8923 46.0777 40.7812 46.2537 40.6016 46.2976L40.5381 46.3113C40.3626 46.3553 40.1821 46.2468 40.1394 46.0728L39.5889 43.8602L37.9513 45.4649C37.8213 45.59 37.614 45.59 37.4841 45.462L37.4365 45.4161C37.3105 45.288 37.3105 45.0818 37.4395 44.9538L39.0731 43.3568L36.8374 42.8183C36.6608 42.7773 36.5477 42.6014 36.5944 42.4245L36.6083 42.3619C36.6529 42.186 36.8344 42.0804 37.01 42.1225L39.2983 42.6727L38.7369 40.419C38.6942 40.247 38.8063 40.0662 38.9829 40.0251L39.0463 40.0095C39.2249 39.9665 39.4054 40.074 39.4481 40.2479L39.9936 42.4567L41.6332 40.8558C41.7621 40.7298 41.9724 40.7298 42.0994 40.8588L42.147 40.9047C42.2769 41.0318 42.274 41.237 42.147 41.3641L40.5104 42.963L42.7481 43.5034ZM32.1884 43.5034C32.3629 43.5455 32.475 43.7243 32.4304 43.8983L32.4135 43.9608C32.3709 44.1338 32.1903 44.2433 32.0148 44.1993L29.7285 43.65L30.2869 45.9038C30.3325 46.0777 30.2214 46.2537 30.0419 46.2976L29.9784 46.3113C29.8028 46.3553 29.6223 46.2468 29.5797 46.0728L29.0292 43.8602L27.3915 45.4649C27.2616 45.59 27.0543 45.59 26.9244 45.462L26.8767 45.4161C26.7508 45.288 26.7508 45.0818 26.8797 44.9538L28.5134 43.3568L26.2776 42.8183C26.1011 42.7773 25.988 42.6014 26.0346 42.4245L26.0485 42.3619C26.0931 42.186 26.2747 42.0804 26.4502 42.1225L28.7385 42.6727L28.1771 40.419C28.1345 40.247 28.2466 40.0662 28.4231 40.0251L28.4866 40.0095C28.6651 39.9665 28.8457 40.074 28.8883 40.2479L29.4339 42.4567L31.0735 40.8558C31.2024 40.7298 31.4127 40.7298 31.5397 40.8588L31.5873 40.9047C31.7172 41.0318 31.7142 41.237 31.5873 41.3641L29.9506 42.963L32.1884 43.5034Z" fill="#38C0E0"/>
</svg>
