<svg width="55" height="55" viewBox="0 0 55 55" fill="none" xmlns="http://www.w3.org/2000/svg">
<path fill-rule="evenodd" clip-rule="evenodd" d="M28.2876 10.0071C28.265 9.98339 28.2394 9.96358 28.2178 9.93884C28.3054 9.8933 28.3989 9.84577 28.4816 9.80122C29.3261 9.43195 30.2228 9.16167 31.1599 9.01416C31.9867 8.88249 32.8362 8.84388 33.6827 8.90229C36.68 9.10524 39.4203 10.4734 41.3969 12.7525C43.3704 15.0305 44.3459 17.9431 44.1372 20.9587C44.1116 21.3596 44.0555 21.7527 43.9876 22.1427C43.9827 22.1279 43.9748 22.115 43.9709 22.1021C43.3527 20.2033 42.0308 18.6302 40.3072 17.7114C40.2944 17.7035 40.2826 17.6946 40.2688 17.6867C40.0808 17.5877 39.8781 17.5154 39.6812 17.4322C39.4892 17.3501 39.3022 17.261 39.1034 17.1946C38.9311 17.1392 38.75 17.1055 38.5738 17.061C38.3386 17.0026 38.1043 16.9412 37.8612 16.9066C37.812 16.8996 37.7686 16.8828 37.7194 16.8759C37.7647 15.874 37.3749 14.8147 37.37 14.8018C36.6967 13.0009 35.4161 11.5407 33.664 10.5784C32.6177 10.0042 31.4926 9.7141 30.3193 9.7141C29.6411 9.7141 28.955 9.81706 28.2955 10.0151L28.2876 10.0071ZM26.9519 8.7825C26.4194 8.35778 25.8593 7.99544 25.2786 7.68655L25 2.62362L30.0506 7.59151C28.954 7.84496 27.9225 8.26373 26.9519 8.7825ZM33.791 7.28956C33.0587 7.23907 32.3253 7.27273 31.5969 7.34698L34.798 1L36.7016 7.841C35.7646 7.5529 34.7921 7.35688 33.791 7.28956ZM38.1762 8.39738L44.0929 4.51455L42.331 11.3991C41.1409 10.1091 39.7324 9.09732 38.1762 8.39738ZM43.338 12.6188L50.3847 12.2258L45.4542 17.2927C45.0743 15.6176 44.3577 14.0335 43.338 12.6188ZM45.6974 18.8668L52 22.0784L45.1875 24C45.4798 23.0595 45.6747 22.0804 45.7427 21.0696C45.7929 20.328 45.7692 19.5925 45.6974 18.8668Z" fill="#FFF500"/>
<path fill-rule="evenodd" clip-rule="evenodd" d="M11.4417 30.4382C11.4417 31.4123 11.598 32.3514 11.8827 33.2326C10.6772 33.016 9.70563 32.7486 9.70563 32.7486C6.16682 31.5081 3.68418 27.9951 4.03258 23.9573C4.31529 20.6759 6.59187 17.9015 9.6459 16.6859L10.3248 16.4155L10.5269 15.4095C11.5552 10.2569 16.8101 6.79882 22.2064 8.39061C23.825 8.86765 25.2555 9.84668 26.4052 11.0852L27.0533 11.7848C27.0533 11.7848 27.0981 11.8107 27.1667 11.8536C28.7316 11.1022 30.5831 11.0652 32.2385 11.9714C33.7815 12.8167 34.763 14.0492 35.2717 15.4035C35.3264 15.5502 35.5613 16.3955 35.5205 16.9274C35.0198 16.9683 34.5181 17.0412 34.0244 17.1799L33.9607 17.1979L33.9149 17.148C32.0823 15.172 29.4861 14.0392 26.7934 14.0392C22.1776 14.0392 18.1699 17.3336 17.2631 21.8755L17.2531 21.9333L17.1974 21.9553C13.7541 23.3225 11.4417 26.7317 11.4417 30.4382ZM43.1984 25.5171C45.5078 26.583 46.999 28.9143 47 31.4592C47 35.0659 44.0774 38 40.4848 38H20.548C16.39 38 13.0055 34.6068 13.0055 30.4392C13.0055 27.3694 14.9218 24.5461 17.7737 23.4134L18.6198 23.076L18.797 22.1838C19.5585 18.3725 22.9232 15.6071 26.7934 15.6071C29.0541 15.6071 31.2321 16.5582 32.7701 18.2168L33.4639 18.9653L34.4464 18.6899C35.0069 18.5332 35.5753 18.4524 36.1367 18.4524C39.3191 18.4524 41.9949 20.9403 42.2298 24.1189L42.3025 25.104L43.1984 25.5171Z" fill="white"/>
</svg>
