<svg width="55" height="55" viewBox="0 0 55 55" fill="none" xmlns="http://www.w3.org/2000/svg">
<path fill-rule="evenodd" clip-rule="evenodd" d="M28.1659 10.0071C28.1441 9.98339 28.1194 9.96358 28.0986 9.93884C28.1829 9.8933 28.273 9.84577 28.3526 9.80122C29.1659 9.43195 30.0294 9.16167 30.9318 9.01416C31.728 8.88249 32.546 8.84388 33.3611 8.90229C36.2474 9.10524 38.8863 10.4734 40.7896 12.7525C42.69 15.0305 43.6294 17.9431 43.4284 20.9587C43.4038 21.3596 43.3498 21.7527 43.2844 22.1427C43.2796 22.1279 43.272 22.115 43.2682 22.1021C42.673 20.2033 41.4 18.6302 39.7403 17.7114C39.728 17.7035 39.7166 17.6946 39.7033 17.6867C39.5223 17.5877 39.327 17.5154 39.1374 17.4322C38.9526 17.3501 38.7725 17.261 38.581 17.1946C38.4152 17.1392 38.2408 17.1055 38.0711 17.061C37.8446 17.0026 37.619 16.9412 37.3848 16.9066C37.3374 16.8996 37.2957 16.8828 37.2483 16.8759C37.2919 15.874 36.9166 14.8147 36.9118 14.8018C36.2635 13.0009 35.0303 11.5407 33.3431 10.5784C32.3355 10.0042 31.2521 9.7141 30.1223 9.7141C29.4692 9.7141 28.8085 9.81706 28.1735 10.0151L28.1659 10.0071ZM26.8796 8.7825C26.3668 8.35778 25.8275 7.99544 25.2682 7.68655L25 2.62362L29.8635 7.59151C28.8076 7.84496 27.8142 8.26373 26.8796 8.7825ZM33.4654 7.28956C32.7602 7.23907 32.054 7.27273 31.3526 7.34698L34.4351 1L36.2682 7.841C35.3659 7.5529 34.4294 7.35688 33.4654 7.28956ZM37.6882 8.39738L43.3858 4.51455L41.6891 11.3991C40.5431 10.1091 39.1867 9.09732 37.6882 8.39738ZM42.6588 12.6188L49.4446 12.2258L44.6967 17.2927C44.3308 15.6176 43.6408 14.0335 42.6588 12.6188ZM44.9308 18.8668L51 22.0784L44.4398 24C44.7213 23.0595 44.909 22.0804 44.9744 21.0696C45.0228 20.328 45 19.5925 44.9308 18.8668Z" fill="#FFF500"/>
<path fill-rule="evenodd" clip-rule="evenodd" d="M12.2686 29.6903C12.2686 30.6319 12.4213 31.5397 12.6994 32.3915C11.5219 32.1822 10.5729 31.9236 10.5729 31.9236C7.11643 30.7245 4.69152 27.3286 5.03183 23.4254C5.30796 20.2533 7.5316 17.5714 10.5146 16.3964L11.1777 16.1349L11.3751 15.1625C12.3795 10.1816 17.5122 6.83886 22.783 8.37759C24.364 8.83873 25.7612 9.78512 26.8842 10.9823L27.5171 11.6586C27.5171 11.6586 27.5609 11.6837 27.628 11.7252C29.1564 10.9987 30.9649 10.9631 32.5818 11.839C34.0889 12.6561 35.0476 13.8476 35.5444 15.1567C35.5979 15.2985 35.8273 16.1156 35.7875 16.6298C35.2984 16.6694 34.8084 16.7398 34.3261 16.8739L34.2639 16.8913L34.2192 16.843C32.4292 14.9329 29.8934 13.8379 27.2634 13.8379C22.7548 13.8379 18.8404 17.0225 17.9546 21.4129L17.9449 21.4689L17.8904 21.4901C14.5273 22.8118 12.2686 26.1073 12.2686 29.6903ZM43.2868 24.9332C45.5425 25.9636 46.999 28.2171 47 30.6772C47 34.1637 44.1453 37 40.6363 37H21.1632C17.1019 37 13.7961 33.7199 13.7961 29.6912C13.7961 26.7238 15.6678 23.9945 18.4534 22.8996L19.2798 22.5735L19.4529 21.711C20.1967 18.0268 23.4831 15.3535 27.2634 15.3535C29.4714 15.3535 31.5988 16.2729 33.101 17.8763L33.7787 18.5998L34.7384 18.3335C35.2858 18.1821 35.841 18.1039 36.3893 18.1039C39.4978 18.1039 42.1113 20.509 42.3408 23.5816L42.4117 24.5338L43.2868 24.9332Z" fill="white"/>
<path fill-rule="evenodd" clip-rule="evenodd" d="M18.2407 44.933C16.9712 47.4813 14.0743 45.814 15.293 43.3545C16.3274 41.2642 18.8126 40 18.8126 40C18.8126 40 19.2445 42.9095 18.2407 44.933ZM20.1925 52.7267C18.923 55.275 16.0261 53.6077 17.2447 51.1482C18.2791 49.0578 20.7644 47.7936 20.7644 47.7936C20.7644 47.7936 21.1962 50.7022 20.1925 52.7267ZM40.3357 44.933C39.0662 47.4813 36.1693 45.814 37.3879 43.3545C38.4224 41.2642 40.9076 40 40.9076 40C40.9076 40 41.3394 42.9095 40.3357 44.933Z" fill="#009EFF"/>
<path fill-rule="evenodd" clip-rule="evenodd" d="M32 43.0311L29.2392 42.9886L31.5028 39L28.0083 39.0296L25.0435 44.9804H27.6249L24 54L32 43.0311Z" fill="#FFA800"/>
<path fill-rule="evenodd" clip-rule="evenodd" d="M13.9302 51.3239C14.0991 51.3638 14.207 51.5344 14.164 51.6985L14.1478 51.7579C14.1068 51.922 13.9331 52.0259 13.7642 51.9841L11.5647 51.463L12.1019 53.6013C12.1449 53.7663 12.038 53.9332 11.8653 53.9749L11.8042 53.9879C11.6353 54.0297 11.4616 53.9267 11.4206 53.7617L10.891 51.6624L9.31553 53.1849C9.19052 53.3036 8.99109 53.3036 8.86608 53.1821L8.82028 53.1386C8.69909 53.0171 8.69909 52.8214 8.82314 52.7L10.3948 51.1848L8.24392 50.6739C8.07406 50.635 7.96528 50.4681 8.01013 50.3002L8.02349 50.2409C8.06643 50.074 8.24105 49.9738 8.40995 50.0137L10.6114 50.5358L10.0713 48.3975C10.0303 48.2343 10.1381 48.0628 10.3079 48.0238L10.369 48.009C10.5408 47.9682 10.7144 48.0702 10.7555 48.2352L11.2803 50.3308L12.8577 48.812C12.9817 48.6924 13.184 48.6924 13.3062 48.8148L13.352 48.8584C13.477 48.9789 13.4741 49.1736 13.352 49.2942L11.7775 50.8112L13.9302 51.3239ZM36.6431 51.3239C36.812 51.3638 36.9188 51.5344 36.8759 51.6985L36.8597 51.7579C36.8186 51.922 36.645 52.0259 36.4761 51.9841L34.2766 51.463L34.8138 53.6013C34.8577 53.7663 34.7508 53.9332 34.5781 53.9749L34.517 53.9879C34.3481 54.0297 34.1744 53.9267 34.1334 53.7617L33.6038 51.6624L32.0284 53.1849C31.9034 53.3036 31.7039 53.3036 31.5789 53.1821L31.5331 53.1386C31.4119 53.0171 31.4119 52.8214 31.536 52.7L33.1076 51.1848L30.9567 50.6739C30.7869 50.635 30.6781 50.4681 30.723 50.3002L30.7363 50.2409C30.7793 50.074 30.9539 49.9738 31.1228 50.0137L33.3242 50.5358L32.7841 48.3975C32.7431 48.2343 32.8509 48.0628 33.0208 48.0238L33.0818 48.009C33.2536 47.9682 33.4273 48.0702 33.4683 48.2352L33.9931 50.3308L35.5705 48.812C35.6945 48.6924 35.8969 48.6924 36.019 48.8148L36.0648 48.8584C36.1898 48.9789 36.1869 49.1736 36.0648 49.2942L34.4903 50.8112L36.6431 51.3239ZM44.7579 51.3239C44.9268 51.3638 45.0347 51.5344 44.9898 51.7013L44.9736 51.7607C44.9326 51.9248 44.7589 52.0286 44.59 51.9869L42.3905 51.4658L42.9277 53.604C42.9716 53.7691 42.8647 53.936 42.692 53.9777L42.6309 53.9907C42.462 54.0324 42.2884 53.9295 42.2473 53.7645L41.7177 51.6652L40.1423 53.1877C40.0173 53.3064 39.8178 53.3064 39.6928 53.1849L39.647 53.1413C39.5258 53.0199 39.5258 52.8242 39.6499 52.7028L41.2225 51.1848L39.0716 50.6739C38.9018 50.635 38.793 50.4681 38.8378 50.3002L38.8512 50.2409C38.8941 50.074 39.0687 49.9738 39.2376 50.0137L41.4391 50.5358L40.899 48.3975C40.8579 48.2343 40.9658 48.0628 41.1356 48.0238L41.1967 48.009C41.3685 47.9682 41.5421 48.0702 41.5832 48.2352L42.108 50.3308L43.6854 48.812C43.8094 48.6924 44.0117 48.6924 44.1339 48.8148L44.1797 48.8584C44.3047 48.9789 44.3018 49.1736 44.1797 49.2942L42.6052 50.8112L44.7579 51.3239Z" fill="#38C0E0"/>
</svg>
