<svg width="55" height="55" viewBox="0 0 55 55" fill="none" xmlns="http://www.w3.org/2000/svg">
<path fill-rule="evenodd" clip-rule="evenodd" d="M28.1659 10.0071C28.1441 9.98339 28.1194 9.96358 28.0986 9.93884C28.1829 9.8933 28.273 9.84577 28.3526 9.80122C29.1659 9.43195 30.0294 9.16167 30.9318 9.01416C31.728 8.88249 32.546 8.84388 33.3611 8.90229C36.2474 9.10524 38.8863 10.4734 40.7896 12.7525C42.69 15.0305 43.6294 17.9431 43.4284 20.9587C43.4038 21.3596 43.3498 21.7527 43.2844 22.1427C43.2796 22.1279 43.272 22.115 43.2682 22.1021C42.673 20.2033 41.4 18.6302 39.7403 17.7114C39.728 17.7035 39.7166 17.6946 39.7033 17.6867C39.5223 17.5877 39.327 17.5154 39.1374 17.4322C38.9526 17.3501 38.7725 17.261 38.581 17.1946C38.4152 17.1392 38.2408 17.1055 38.0711 17.061C37.8446 17.0026 37.619 16.9412 37.3848 16.9066C37.3374 16.8996 37.2957 16.8828 37.2483 16.8759C37.2919 15.874 36.9166 14.8147 36.9118 14.8018C36.2635 13.0009 35.0303 11.5407 33.3431 10.5784C32.3355 10.0042 31.2521 9.7141 30.1223 9.7141C29.4692 9.7141 28.8085 9.81706 28.1735 10.0151L28.1659 10.0071ZM26.8796 8.7825C26.3668 8.35778 25.8275 7.99544 25.2682 7.68655L25 2.62362L29.8635 7.59151C28.8076 7.84496 27.8142 8.26373 26.8796 8.7825ZM33.4654 7.28956C32.7602 7.23907 32.054 7.27273 31.3526 7.34698L34.4351 1L36.2682 7.841C35.3659 7.5529 34.4294 7.35688 33.4654 7.28956ZM37.6882 8.39738L43.3858 4.51455L41.6891 11.3991C40.5431 10.1091 39.1867 9.09732 37.6882 8.39738ZM42.6588 12.6188L49.4446 12.2258L44.6967 17.2927C44.3308 15.6176 43.6408 14.0335 42.6588 12.6188ZM44.9308 18.8668L51 22.0784L44.4398 24C44.7213 23.0595 44.909 22.0804 44.9744 21.0696C45.0228 20.328 45 19.5925 44.9308 18.8668Z" fill="#FFF500"/>
<path fill-rule="evenodd" clip-rule="evenodd" d="M12.2686 29.6903C12.2686 30.6319 12.4213 31.5397 12.6994 32.3915C11.5219 32.1822 10.5729 31.9236 10.5729 31.9236C7.11643 30.7245 4.69152 27.3286 5.03183 23.4254C5.30796 20.2533 7.5316 17.5714 10.5146 16.3964L11.1777 16.1349L11.3751 15.1625C12.3795 10.1816 17.5122 6.83886 22.783 8.37759C24.364 8.83873 25.7612 9.78512 26.8842 10.9823L27.5171 11.6586C27.5171 11.6586 27.5609 11.6837 27.628 11.7252C29.1564 10.9987 30.9649 10.9631 32.5818 11.839C34.0889 12.6561 35.0476 13.8476 35.5444 15.1567C35.5979 15.2985 35.8273 16.1156 35.7875 16.6298C35.2984 16.6694 34.8084 16.7398 34.3261 16.8739L34.2639 16.8913L34.2192 16.843C32.4292 14.9329 29.8934 13.8379 27.2634 13.8379C22.7548 13.8379 18.8404 17.0225 17.9546 21.4129L17.9449 21.4689L17.8904 21.4901C14.5273 22.8118 12.2686 26.1073 12.2686 29.6903ZM43.2868 24.9332C45.5425 25.9636 46.999 28.2171 47 30.6772C47 34.1637 44.1453 37 40.6363 37H21.1632C17.1019 37 13.7961 33.7199 13.7961 29.6912C13.7961 26.7238 15.6678 23.9945 18.4534 22.8996L19.2798 22.5735L19.4529 21.711C20.1967 18.0268 23.4831 15.3535 27.2634 15.3535C29.4714 15.3535 31.5988 16.2729 33.101 17.8763L33.7787 18.5998L34.7384 18.3335C35.2858 18.1821 35.841 18.1039 36.3893 18.1039C39.4978 18.1039 42.1113 20.509 42.3408 23.5816L42.4117 24.5338L43.2868 24.9332Z" fill="white"/>
<path fill-rule="evenodd" clip-rule="evenodd" d="M22.7293 43.5034C22.9011 43.5455 23.0114 43.7243 22.9685 43.8983L22.9519 43.9608C22.9099 44.1338 22.7322 44.2433 22.5594 44.1993L20.309 43.65L20.8586 45.9038C20.9035 46.0777 20.7942 46.2537 20.6175 46.2976L20.555 46.3113C20.3822 46.3553 20.2045 46.2468 20.1625 46.0728L19.6206 43.8602L18.0087 45.4649C17.8808 45.59 17.6768 45.59 17.5489 45.462L17.502 45.4161C17.378 45.288 17.378 45.0818 17.5049 44.9538L19.1129 43.3568L16.9123 42.8183C16.7385 42.7773 16.6272 42.6014 16.6731 42.4245L16.6868 42.3619C16.7307 42.186 16.9094 42.0804 17.0822 42.1225L19.3346 42.6727L18.782 40.419C18.739 40.247 18.8493 40.0662 19.0231 40.0251L19.0856 40.0095C19.2613 39.9665 19.439 40.074 19.481 40.2479L20.018 42.4567L21.6319 40.8558C21.7588 40.7298 21.9658 40.7298 22.0908 40.8588L22.1376 40.9047C22.2655 41.0318 22.2626 41.237 22.1376 41.3641L20.5267 42.963L22.7293 43.5034ZM17.0675 51.1823C17.2403 51.2244 17.3497 51.4032 17.3067 51.5772L17.2901 51.6397C17.2482 51.8127 17.0705 51.9222 16.8976 51.8782L14.6472 51.3289L15.1969 53.5827C15.2408 53.7566 15.1315 53.9325 14.9547 53.9765L14.8923 53.9902C14.7194 54.0342 14.5418 53.9257 14.4998 53.7517L13.9579 51.5391L12.346 53.1438C12.2181 53.2689 12.014 53.2689 11.8861 53.1409L11.8393 53.095C11.7153 52.9669 11.7153 52.7607 11.8422 52.6327L13.4502 51.0357L11.2496 50.4972C11.0758 50.4562 10.9645 50.2803 11.0104 50.1034L11.024 50.0408C11.068 49.8649 11.2466 49.7593 11.4194 49.8014L13.6718 50.3516L13.1192 48.0979C13.0773 47.9259 13.1876 47.7451 13.3614 47.704L13.4239 47.6884C13.5996 47.6454 13.7773 47.7529 13.8193 47.9268L14.3563 50.1356L15.9701 48.5347C16.0971 48.4087 16.304 48.4087 16.429 48.5377L16.4759 48.5836C16.6038 48.7107 16.6008 48.9159 16.4759 49.043L14.8649 50.6419L17.0675 51.1823ZM31.9654 51.1823C32.1382 51.2244 32.2475 51.4032 32.2036 51.5772L32.187 51.6397C32.145 51.8127 31.9673 51.9222 31.7945 51.8782L29.5441 51.3289L30.0938 53.5827C30.1387 53.7566 30.0293 53.9325 29.8526 53.9765L29.7901 53.9902C29.6173 54.0342 29.4396 53.9257 29.3976 53.7517L28.8558 51.5391L27.2438 53.1438C27.1159 53.2689 26.9119 53.2689 26.784 53.1409L26.7371 53.095C26.6131 52.9669 26.6131 52.7607 26.7401 52.6327L28.3481 51.0357L26.1474 50.4972C25.9736 50.4562 25.8623 50.2803 25.9082 50.1034L25.9219 50.0408C25.9658 49.8649 26.1445 49.7593 26.3173 49.8014L28.5697 50.3516L28.0171 48.0979C27.9751 47.9259 28.0854 47.7451 28.2592 47.704L28.3217 47.6884C28.4975 47.6454 28.6751 47.7529 28.7171 47.9268L29.2541 50.1356L30.868 48.5347C30.9949 48.4087 31.2019 48.4087 31.3269 48.5377L31.3737 48.5836C31.5016 48.7107 31.4987 48.9159 31.3737 49.043L29.7628 50.6419L31.9654 51.1823ZM37.7521 43.5034C37.9239 43.5455 38.0343 43.7243 37.9903 43.8983L37.9737 43.9608C37.9317 44.1338 37.7541 44.2433 37.5812 44.1993L35.3308 43.65L35.8805 45.9038C35.9254 46.0777 35.816 46.2537 35.6393 46.2976L35.5768 46.3113C35.404 46.3553 35.2263 46.2468 35.1844 46.0728L34.6425 43.8602L33.0306 45.4649C32.9027 45.59 32.6986 45.59 32.5707 45.462L32.5238 45.4161C32.3998 45.288 32.3999 45.0818 32.5268 44.9538L34.1348 43.3568L31.9341 42.8183C31.7604 42.7773 31.649 42.6014 31.6949 42.4245L31.7086 42.3619C31.7525 42.186 31.9312 42.0804 32.104 42.1225L34.3564 42.6727L33.8038 40.419C33.7618 40.247 33.8722 40.0662 34.0459 40.0251L34.1084 40.0095C34.2842 39.9665 34.4619 40.074 34.5038 40.2479L35.0408 42.4567L36.6547 40.8558C36.7816 40.7298 36.9886 40.7298 37.1136 40.8588L37.1604 40.9047C37.2883 41.0318 37.2854 41.237 37.1604 41.3641L35.5495 42.963L37.7521 43.5034Z" fill="#38C0E0"/>
</svg>
