<svg width="55" height="55" viewBox="0 0 55 55" fill="none" xmlns="http://www.w3.org/2000/svg">
<path fill-rule="evenodd" clip-rule="evenodd" d="M28.1659 9.61553C28.1441 9.5928 28.1194 9.57386 28.0986 9.55019C28.1829 9.50663 28.273 9.46117 28.3526 9.41856C29.1659 9.06534 30.0294 8.80682 30.9318 8.66572C31.728 8.53977 32.546 8.50284 33.3611 8.55871C36.2474 8.75284 38.8863 10.0616 40.7896 12.2415C42.69 14.4205 43.6294 17.2064 43.4284 20.0909C43.4038 20.4744 43.3498 20.8504 43.2844 21.2235C43.2796 21.2093 43.272 21.197 43.2682 21.1847C42.673 19.3684 41.4 17.8636 39.7403 16.9848C39.728 16.9773 39.7166 16.9688 39.7033 16.9612C39.5223 16.8665 39.327 16.7973 39.1374 16.7178C38.9526 16.6392 38.7725 16.554 38.581 16.4905C38.4152 16.4375 38.2408 16.4053 38.0711 16.3627C37.8446 16.3068 37.619 16.2481 37.3848 16.215C37.3374 16.2083 37.2957 16.1922 37.2483 16.1856C37.2919 15.2273 36.9166 14.214 36.9118 14.2017C36.2635 12.4792 35.0303 11.0824 33.3431 10.1619C32.3355 9.61269 31.2521 9.33523 30.1223 9.33523C29.4692 9.33523 28.8085 9.43371 28.1735 9.62311L28.1659 9.61553ZM26.8796 8.44413C26.3668 8.03788 25.8275 7.69129 25.2682 7.39583L25 2.55303L29.8635 7.30492C28.8076 7.54735 27.8142 7.94792 26.8796 8.44413ZM33.4654 7.0161C32.7602 6.9678 32.054 7 31.3526 7.07102L34.4351 1L36.2682 7.54356C35.3659 7.26799 34.4294 7.08049 33.4654 7.0161ZM37.6882 8.07576L43.3858 4.36174L41.6891 10.947C40.5431 9.71307 39.1867 8.74527 37.6882 8.07576ZM42.6588 12.1136L49.4446 11.7377L44.6967 16.5843C44.3308 14.982 43.6408 13.4669 42.6588 12.1136ZM44.9308 18.09L51 21.1619L44.4398 23C44.7213 22.1004 44.909 21.1638 44.9744 20.197C45.0228 19.4877 45 18.7841 44.9308 18.09Z" fill="#FFF500"/>
<path fill-rule="evenodd" clip-rule="evenodd" d="M12.2686 29.6903C12.2686 30.6319 12.4213 31.5397 12.6994 32.3915C11.5219 32.1822 10.5729 31.9236 10.5729 31.9236C7.11643 30.7245 4.69152 27.3286 5.03183 23.4254C5.30796 20.2533 7.5316 17.5714 10.5146 16.3964L11.1777 16.1349L11.3751 15.1625C12.3795 10.1816 17.5122 6.83886 22.783 8.37759C24.364 8.83873 25.7612 9.78512 26.8842 10.9823L27.5171 11.6586C27.5171 11.6586 27.5609 11.6837 27.628 11.7252C29.1564 10.9987 30.9649 10.9631 32.5818 11.839C34.0889 12.6561 35.0476 13.8476 35.5444 15.1567C35.5979 15.2985 35.8273 16.1156 35.7875 16.6298C35.2984 16.6694 34.8084 16.7398 34.3261 16.8739L34.2639 16.8913L34.2192 16.843C32.4292 14.9329 29.8934 13.8379 27.2634 13.8379C22.7548 13.8379 18.8404 17.0225 17.9546 21.4129L17.9449 21.4689L17.8904 21.4901C14.5273 22.8118 12.2686 26.1073 12.2686 29.6903ZM43.2868 24.9332C45.5425 25.9636 46.999 28.2171 47 30.6772C47 34.1637 44.1453 37 40.6363 37H21.1632C17.1019 37 13.7961 33.7199 13.7961 29.6912C13.7961 26.7238 15.6678 23.9945 18.4534 22.8996L19.2798 22.5735L19.4529 21.711C20.1967 18.0268 23.4831 15.3535 27.2634 15.3535C29.4714 15.3535 31.5988 16.2729 33.101 17.8763L33.7787 18.5998L34.7384 18.3335C35.2858 18.1821 35.841 18.1039 36.3893 18.1039C39.4978 18.1039 42.1113 20.509 42.3408 23.5816L42.4117 24.5338L43.2868 24.9332Z" fill="white"/>
<path fill-rule="evenodd" clip-rule="evenodd" d="M36.3196 44.769C35.0192 47.2326 32.0518 45.6207 33.3001 43.243C34.3597 41.2221 36.9054 40 36.9054 40C36.9054 40 37.3477 42.8128 36.3196 44.769Z" fill="#009EFF"/>
<path fill-rule="evenodd" clip-rule="evenodd" d="M24.7638 43.3255L22.6711 42.8125L24.2017 41.2948C24.3204 41.1742 24.3232 40.9794 24.2017 40.8588L24.1572 40.8152C24.0385 40.6927 23.8418 40.6927 23.7212 40.8124L22.1879 42.3319L21.6777 40.2354C21.6378 40.0702 21.469 39.9682 21.302 40.009L21.2426 40.0238C21.0775 40.0628 20.9727 40.2344 21.0135 40.3977L21.5385 42.5369L19.3985 42.0146C19.2343 41.9748 19.0646 42.0749 19.0228 42.2419L19.0098 42.3013C18.9662 42.4692 19.072 42.6362 19.2371 42.6752L21.328 43.1863L19.8002 44.7022C19.6796 44.8237 19.6796 45.0194 19.7974 45.1409L19.8419 45.1845C19.9634 45.3061 20.1573 45.3061 20.2788 45.1873L21.8103 43.6641L22.3251 45.7643C22.365 45.9295 22.5339 46.0324 22.698 45.9907L22.7574 45.9777C22.9253 45.936 23.0292 45.769 22.9865 45.6039L22.4643 43.4646L24.6024 43.986C24.7666 44.0277 24.9355 43.9238 24.9753 43.7596L24.9911 43.7002C25.0319 43.5351 24.928 43.3654 24.7638 43.3255Z" fill="#38C0E0"/>
</svg>
