<svg width="55" height="55" viewBox="0 0 55 55" fill="none" xmlns="http://www.w3.org/2000/svg">
<path fill-rule="evenodd" clip-rule="evenodd" d="M28.1659 10.0071C28.1441 9.98339 28.1194 9.96358 28.0986 9.93884C28.1829 9.8933 28.273 9.84577 28.3526 9.80122C29.1659 9.43195 30.0294 9.16167 30.9318 9.01416C31.728 8.88249 32.546 8.84388 33.3611 8.90229C36.2474 9.10524 38.8863 10.4734 40.7896 12.7525C42.69 15.0305 43.6294 17.9431 43.4284 20.9587C43.4038 21.3596 43.3498 21.7527 43.2844 22.1427C43.2796 22.1279 43.272 22.115 43.2682 22.1021C42.673 20.2033 41.4 18.6302 39.7403 17.7114C39.728 17.7035 39.7166 17.6946 39.7033 17.6867C39.5223 17.5877 39.327 17.5154 39.1374 17.4322C38.9526 17.3501 38.7725 17.261 38.581 17.1946C38.4152 17.1392 38.2408 17.1055 38.0711 17.061C37.8446 17.0026 37.619 16.9412 37.3848 16.9066C37.3374 16.8996 37.2957 16.8828 37.2483 16.8759C37.2919 15.874 36.9166 14.8147 36.9118 14.8018C36.2635 13.0009 35.0303 11.5407 33.3431 10.5784C32.3355 10.0042 31.2521 9.7141 30.1223 9.7141C29.4692 9.7141 28.8085 9.81706 28.1735 10.0151L28.1659 10.0071ZM26.8796 8.7825C26.3668 8.35778 25.8275 7.99544 25.2682 7.68655L25 2.62362L29.8635 7.59151C28.8076 7.84496 27.8142 8.26373 26.8796 8.7825ZM33.4654 7.28956C32.7602 7.23907 32.054 7.27273 31.3526 7.34698L34.4351 1L36.2682 7.841C35.3659 7.5529 34.4294 7.35688 33.4654 7.28956ZM37.6882 8.39738L43.3858 4.51455L41.6891 11.3991C40.5431 10.1091 39.1867 9.09732 37.6882 8.39738ZM42.6588 12.6188L49.4446 12.2258L44.6967 17.2927C44.3308 15.6176 43.6408 14.0335 42.6588 12.6188ZM44.9308 18.8668L51 22.0784L44.4398 24C44.7213 23.0595 44.909 22.0804 44.9744 21.0696C45.0228 20.328 45 19.5925 44.9308 18.8668Z" fill="#FFF500"/>
<path fill-rule="evenodd" clip-rule="evenodd" d="M12.2686 29.6903C12.2686 30.6319 12.4213 31.5397 12.6994 32.3915C11.5219 32.1822 10.5729 31.9236 10.5729 31.9236C7.11643 30.7245 4.69152 27.3286 5.03183 23.4254C5.30796 20.2533 7.5316 17.5714 10.5146 16.3964L11.1777 16.1349L11.3751 15.1625C12.3795 10.1816 17.5122 6.83886 22.783 8.37759C24.364 8.83873 25.7612 9.78512 26.8842 10.9823L27.5171 11.6586C27.5171 11.6586 27.5609 11.6837 27.628 11.7252C29.1564 10.9987 30.9649 10.9631 32.5818 11.839C34.0889 12.6561 35.0476 13.8476 35.5444 15.1567C35.5979 15.2985 35.8273 16.1156 35.7875 16.6298C35.2984 16.6694 34.8084 16.7398 34.3261 16.8739L34.2639 16.8913L34.2192 16.843C32.4292 14.9329 29.8934 13.8379 27.2634 13.8379C22.7548 13.8379 18.8404 17.0225 17.9546 21.4129L17.9449 21.4689L17.8904 21.4901C14.5273 22.8118 12.2686 26.1073 12.2686 29.6903ZM43.2868 24.9332C45.5425 25.9636 46.999 28.2171 47 30.6772C47 34.1637 44.1453 37 40.6363 37H21.1632C17.1019 37 13.7961 33.7199 13.7961 29.6912C13.7961 26.7238 15.6678 23.9945 18.4534 22.8996L19.2798 22.5735L19.4529 21.711C20.1967 18.0268 23.4831 15.3535 27.2634 15.3535C29.4714 15.3535 31.5988 16.2729 33.101 17.8763L33.7787 18.5998L34.7384 18.3335C35.2858 18.1821 35.841 18.1039 36.3893 18.1039C39.4978 18.1039 42.1113 20.509 42.3408 23.5816L42.4117 24.5338L43.2868 24.9332Z" fill="white"/>
<path fill-rule="evenodd" clip-rule="evenodd" d="M32 43.0311L29.2392 42.9886L31.5028 39L28.0083 39.0296L25.0435 44.9804H27.6249L24 54L32 43.0311Z" fill="#FFA800"/>
<path fill-rule="evenodd" clip-rule="evenodd" d="M20.2886 44.9169C19.0003 47.4569 16.0606 45.795 17.2973 43.3436C18.347 41.2601 20.8689 40 20.8689 40C20.8689 40 21.3071 42.9 20.2886 44.9169ZM36.3259 52.7308C35.0377 55.2708 32.098 53.609 33.3346 51.1575C34.3843 49.074 36.9063 47.8139 36.9063 47.8139C36.9063 47.8139 37.3445 50.7139 36.3259 52.7308Z" fill="#009EFF"/>
<path fill-rule="evenodd" clip-rule="evenodd" d="M21.0502 51.1823C21.2226 51.2244 21.3326 51.4032 21.2888 51.5772L21.2722 51.6397C21.2303 51.8127 21.0531 51.9222 20.8808 51.8782L18.6364 51.3289L19.1846 53.5827C19.2294 53.7566 19.1203 53.9325 18.9441 53.9765L18.8818 53.9902C18.7094 54.0342 18.5322 53.9257 18.4903 53.7517L17.9499 51.5391L16.3424 53.1438C16.2148 53.2689 16.0113 53.2689 15.8837 53.1409L15.837 53.095C15.7133 52.9669 15.7133 52.7607 15.8399 52.6327L17.4436 51.0357L15.2489 50.4972C15.0756 50.4562 14.9646 50.2803 15.0103 50.1034L15.024 50.0408C15.0678 49.8649 15.246 49.7593 15.4183 49.8014L17.6646 50.3516L17.1135 48.0979C17.0707 47.9259 17.1807 47.7451 17.354 47.704L17.4164 47.6884C17.5916 47.6454 17.7688 47.7529 17.8107 47.9268L18.3462 50.1356L19.9558 48.5347C20.0824 48.4087 20.2888 48.4087 20.4134 48.5377L20.4601 48.5836C20.5877 48.7107 20.5848 48.9159 20.4601 49.043L18.8535 50.6419L21.0502 51.1823ZM40.7521 43.5034C40.9245 43.5455 41.0335 43.7243 40.9907 43.8983L40.9741 43.9608C40.9322 44.1338 40.755 44.2433 40.5827 44.1993L38.3383 43.65L38.8865 45.9038C38.9303 46.0777 38.8213 46.2537 38.645 46.2976L38.5827 46.3113C38.4104 46.3553 38.2331 46.2468 38.1913 46.0728L37.6509 43.8602L36.0433 45.4649C35.9157 45.59 35.7122 45.59 35.5847 45.462L35.5379 45.4161C35.4143 45.288 35.4143 45.0818 35.5409 44.9538L37.1445 43.3568L34.9498 42.8183C34.7765 42.7773 34.6655 42.6014 34.7113 42.4245L34.7249 42.3619C34.7687 42.186 34.9469 42.0804 35.1192 42.1225L37.3656 42.6727L36.8145 40.419C36.7726 40.247 36.8826 40.0662 37.0559 40.0251L37.1183 40.0095C37.2935 39.9665 37.4707 40.074 37.5126 40.2479L38.0481 42.4567L39.6577 40.8558C39.7843 40.7298 39.9907 40.7298 40.1153 40.8588L40.162 40.9047C40.2896 41.0318 40.2867 41.237 40.162 41.3641L38.5554 42.963L40.7521 43.5034Z" fill="#38C0E0"/>
</svg>
