<svg width="55" height="55" viewBox="0 0 55 55" fill="none" xmlns="http://www.w3.org/2000/svg">
<path fill-rule="evenodd" clip-rule="evenodd" d="M27.2876 9.61553C27.265 9.5928 27.2394 9.57386 27.2178 9.55019C27.3054 9.50663 27.3989 9.46117 27.4816 9.41856C28.3261 9.06534 29.2228 8.80682 30.1599 8.66572C30.9867 8.53977 31.8362 8.50284 32.6827 8.55871C35.68 8.75284 38.4203 10.0616 40.3969 12.2415C42.3704 14.4205 43.3459 17.2064 43.1372 20.0909C43.1116 20.4744 43.0555 20.8504 42.9876 21.2235C42.9827 21.2093 42.9748 21.197 42.9709 21.1847C42.3527 19.3684 41.0308 17.8636 39.3072 16.9848C39.2944 16.9773 39.2826 16.9688 39.2688 16.9612C39.0808 16.8665 38.8781 16.7973 38.6812 16.7178C38.4892 16.6392 38.3022 16.554 38.1034 16.4905C37.9311 16.4375 37.75 16.4053 37.5738 16.3627C37.3386 16.3068 37.1043 16.2481 36.8612 16.215C36.812 16.2083 36.7686 16.1922 36.7194 16.1856C36.7647 15.2273 36.3749 14.214 36.37 14.2017C35.6967 12.4792 34.4161 11.0824 32.664 10.1619C31.6177 9.61269 30.4926 9.33523 29.3193 9.33523C28.6411 9.33523 27.955 9.43371 27.2955 9.62311L27.2876 9.61553ZM25.9519 8.44413C25.4194 8.03788 24.8593 7.69129 24.2786 7.39583L24 2.55303L29.0506 7.30492C27.954 7.54735 26.9225 7.94792 25.9519 8.44413ZM32.791 7.0161C32.0587 6.9678 31.3253 7 30.5969 7.07102L33.798 1L35.7016 7.54356C34.7646 7.26799 33.7921 7.08049 32.791 7.0161ZM37.1762 8.07576L43.0929 4.36174L41.331 10.947C40.1409 9.71307 38.7324 8.74527 37.1762 8.07576ZM42.338 12.1136L49.3847 11.7377L44.4542 16.5843C44.0743 14.982 43.3577 13.4669 42.338 12.1136ZM44.6974 18.09L51 21.1619L44.1875 23C44.4798 22.1004 44.6747 21.1638 44.7427 20.197C44.7929 19.4877 44.7692 18.7841 44.6974 18.09Z" fill="#FFF500"/>
<path fill-rule="evenodd" clip-rule="evenodd" d="M12.2686 30.4382C12.2686 31.4123 12.4213 32.3514 12.6994 33.2326C11.5219 33.016 10.5729 32.7486 10.5729 32.7486C7.11643 31.5081 4.69152 27.9951 5.03183 23.9573C5.30796 20.6759 7.5316 17.9015 10.5146 16.6859L11.1777 16.4155L11.3751 15.4095C12.3795 10.2569 17.5122 6.79882 22.783 8.39061C24.364 8.86765 25.7612 9.84668 26.8842 11.0852L27.5171 11.7848C27.5171 11.7848 27.5609 11.8107 27.628 11.8536C29.1564 11.1022 30.9649 11.0652 32.5818 11.9714C34.0889 12.8167 35.0476 14.0492 35.5444 15.4035C35.5979 15.5502 35.8273 16.3955 35.7875 16.9274C35.2984 16.9683 34.8084 17.0412 34.3261 17.1799L34.2639 17.1979L34.2192 17.148C32.4292 15.172 29.8934 14.0392 27.2634 14.0392C22.7548 14.0392 18.8404 17.3336 17.9546 21.8755L17.9449 21.9333L17.8904 21.9553C14.5273 23.3225 12.2686 26.7317 12.2686 30.4382ZM43.2868 25.5171C45.5425 26.583 46.999 28.9143 47 31.4592C47 35.0659 44.1453 38 40.6363 38H21.1632C17.1019 38 13.7961 34.6068 13.7961 30.4392C13.7961 27.3694 15.6678 24.5461 18.4534 23.4134L19.2798 23.076L19.4529 22.1838C20.1967 18.3725 23.4831 15.6071 27.2634 15.6071C29.4714 15.6071 31.5988 16.5582 33.101 18.2168L33.7787 18.9653L34.7384 18.6899C35.2858 18.5332 35.841 18.4524 36.3893 18.4524C39.4978 18.4524 42.1113 20.9403 42.3408 24.1189L42.4117 25.104L43.2868 25.5171Z" fill="white"/>
<path fill-rule="evenodd" clip-rule="evenodd" d="M20.1914 45.5408C18.9412 47.8866 16.0884 46.3518 17.2885 44.0878C18.3072 42.1637 20.7546 41 20.7546 41C20.7546 41 21.1808 43.6782 20.1914 45.5408ZM26.8733 52.8279C25.6231 55.1736 22.7702 53.6389 23.9703 51.3749C24.989 49.4507 27.4365 48.287 27.4365 48.287C27.4365 48.287 27.8626 50.9652 26.8733 52.8279ZM39.3458 45.5408C38.0957 47.8866 35.2428 46.3518 36.4429 44.0878C37.4616 42.1637 39.909 41 39.909 41C39.909 41 40.3343 43.6782 39.3458 45.5408Z" fill="#009EFF"/>
<path fill-rule="evenodd" clip-rule="evenodd" d="M30.8776 44.2602C31.0497 44.3003 31.1586 44.4667 31.1149 44.6277L31.0983 44.6859C31.0565 44.8469 30.8795 44.9487 30.7074 44.9078L28.4659 44.3967L29.0134 46.494C29.0581 46.6558 28.9492 46.8196 28.7732 46.8605L28.711 46.8732C28.5389 46.9141 28.3619 46.8132 28.3201 46.6513L27.7804 44.5922L26.1749 46.0856C26.0475 46.202 25.8442 46.202 25.7168 46.0829L25.6702 46.0401C25.5467 45.921 25.5467 45.7291 25.6731 45.6099L27.2747 44.1238L25.0828 43.6227C24.9097 43.5845 24.7989 43.4208 24.8446 43.2562L24.8582 43.198C24.9019 43.0343 25.0799 42.936 25.252 42.9751L27.4954 43.4872L26.945 41.3899C26.9032 41.2298 27.0131 41.0616 27.1862 41.0234L27.2484 41.0088C27.4235 40.9688 27.6005 41.0688 27.6423 41.2307L28.1771 43.2862L29.7846 41.7964C29.911 41.6791 30.1171 41.6791 30.2416 41.7992L30.2883 41.8419C30.4157 41.9601 30.4128 42.1511 30.2883 42.2694L28.6838 43.7573L30.8776 44.2602ZM37.7527 51.3779C37.9248 51.417 38.0347 51.5844 37.99 51.7454L37.9735 51.8036C37.9316 51.9645 37.7547 52.0664 37.5825 52.0255L35.3411 51.5143L35.8886 53.6116C35.9333 53.7735 35.8244 53.9372 35.6484 53.9782L35.5861 53.9909C35.414 54.0318 35.237 53.9309 35.1952 53.769L34.6555 51.7099L33.05 53.2033C32.9226 53.3197 32.7194 53.3197 32.592 53.2005L32.5453 53.1578C32.4218 53.0387 32.4218 52.8467 32.5482 52.7276L34.1498 51.2415L31.958 50.7404C31.7849 50.7022 31.674 50.5385 31.7197 50.3738L31.7333 50.3156C31.7771 50.1519 31.955 50.0537 32.1272 50.0928L34.3706 50.6049L33.8202 48.5076C33.7784 48.3475 33.8882 48.1792 34.0613 48.141L34.1236 48.1265C34.2986 48.0865 34.4756 48.1865 34.5174 48.3484L35.0523 50.4039L36.6597 48.9141C36.7861 48.7968 36.9923 48.7968 37.1167 48.9168L37.1634 48.9596C37.2908 49.0778 37.2879 49.2688 37.1634 49.387L35.5589 50.875L37.7527 51.3779ZM18.0424 51.3779C18.2145 51.417 18.3234 51.5844 18.2806 51.7454L18.2641 51.8036C18.2223 51.9645 18.0453 52.0664 17.8732 52.0255L15.6317 51.5143L16.1792 53.6116C16.2239 53.7735 16.115 53.9372 15.939 53.9782L15.8767 53.9909C15.7046 54.0318 15.5276 53.9309 15.4858 53.769L14.9461 51.7099L13.3406 53.2033C13.2132 53.3197 13.01 53.3197 12.8826 53.2005L12.8359 53.1578C12.7124 53.0387 12.7124 52.8467 12.8388 52.7276L14.4404 51.2415L12.2486 50.7404C12.0755 50.7022 11.9646 50.5385 12.0103 50.3738L12.0239 50.3156C12.0677 50.1519 12.2457 50.0537 12.4178 50.0928L14.6612 50.6049L14.1108 48.5076C14.068 48.3475 14.1779 48.1792 14.351 48.141L14.4132 48.1265C14.5883 48.0865 14.7652 48.1865 14.8071 48.3484L15.3419 50.4039L16.9493 48.9141C17.0758 48.7968 17.2819 48.7968 17.4064 48.9168L17.4531 48.9596C17.5805 49.0778 17.5775 49.2688 17.4531 49.387L15.8485 50.875L18.0424 51.3779Z" fill="#38C0E0"/>
</svg>
