<svg width="55" height="55" viewBox="0 0 55 55" fill="none" xmlns="http://www.w3.org/2000/svg">
<path fill-rule="evenodd" clip-rule="evenodd" d="M28.1659 9.61553C28.1441 9.5928 28.1194 9.57386 28.0986 9.55019C28.1829 9.50663 28.273 9.46117 28.3526 9.41856C29.1659 9.06534 30.0294 8.80682 30.9318 8.66572C31.728 8.53977 32.546 8.50284 33.3611 8.55871C36.2474 8.75284 38.8863 10.0616 40.7896 12.2415C42.69 14.4205 43.6294 17.2064 43.4284 20.0909C43.4038 20.4744 43.3498 20.8504 43.2844 21.2235C43.2796 21.2093 43.272 21.197 43.2682 21.1847C42.673 19.3684 41.4 17.8636 39.7403 16.9848C39.728 16.9773 39.7166 16.9688 39.7033 16.9612C39.5223 16.8665 39.327 16.7973 39.1374 16.7178C38.9526 16.6392 38.7725 16.554 38.581 16.4905C38.4152 16.4375 38.2408 16.4053 38.0711 16.3627C37.8446 16.3068 37.619 16.2481 37.3848 16.215C37.3374 16.2083 37.2957 16.1922 37.2483 16.1856C37.2919 15.2273 36.9166 14.214 36.9118 14.2017C36.2635 12.4792 35.0303 11.0824 33.3431 10.1619C32.3355 9.61269 31.2521 9.33523 30.1223 9.33523C29.4692 9.33523 28.8085 9.43371 28.1735 9.62311L28.1659 9.61553ZM26.8796 8.44413C26.3668 8.03788 25.8275 7.69129 25.2682 7.39583L25 2.55303L29.8635 7.30492C28.8076 7.54735 27.8142 7.94792 26.8796 8.44413ZM33.4654 7.0161C32.7602 6.9678 32.054 7 31.3526 7.07102L34.4351 1L36.2682 7.54356C35.3659 7.26799 34.4294 7.08049 33.4654 7.0161ZM37.6882 8.07576L43.3858 4.36174L41.6891 10.947C40.5431 9.71307 39.1867 8.74527 37.6882 8.07576ZM42.6588 12.1136L49.4446 11.7377L44.6967 16.5843C44.3308 14.982 43.6408 13.4669 42.6588 12.1136ZM44.9308 18.09L51 21.1619L44.4398 23C44.7213 22.1004 44.909 21.1638 44.9744 20.197C45.0228 19.4877 45 18.7841 44.9308 18.09Z" fill="#FFF500"/>
<path fill-rule="evenodd" clip-rule="evenodd" d="M12.0956 28.9423C12.0956 29.8514 12.2446 30.7279 12.516 31.5504C11.3666 31.3483 10.4402 31.0987 10.4402 31.0987C7.06604 29.9409 4.69887 26.6621 5.03107 22.8935C5.30063 19.8308 7.47132 17.2414 10.3833 16.1068L11.0306 15.8544L11.2233 14.9155C12.2038 10.1064 17.2143 6.8789 22.3596 8.36457C23.9029 8.80981 25.2669 9.72357 26.3631 10.8795L26.981 11.5325C26.981 11.5325 27.0237 11.5567 27.0892 11.5967C28.5813 10.8953 30.3467 10.8609 31.9251 11.7066C33.3963 12.4956 34.3321 13.6459 34.8172 14.9099C34.8694 15.0469 35.0934 15.8358 35.0544 16.3323C34.577 16.3705 34.0987 16.4384 33.6279 16.5679L33.5671 16.5847L33.5235 16.5381C31.7761 14.6938 29.3007 13.6366 26.7333 13.6366C22.3321 13.6366 18.5108 16.7114 17.6462 20.9504L17.6367 21.0045L17.5835 21.0249C14.3004 22.301 12.0956 25.4829 12.0956 28.9423ZM42.3752 24.3493C44.5772 25.3441 45.9991 27.52 46 29.8952C46 33.2615 43.2133 36 39.7878 36H20.7783C16.8138 36 13.5867 32.833 13.5867 28.9433C13.5867 26.0781 15.4138 23.443 18.1331 22.3858L18.9399 22.071L19.1088 21.2383C19.8349 17.681 23.043 15.0999 26.7333 15.0999C28.8888 15.0999 30.9655 15.9876 32.432 17.5357L33.0935 18.2343L34.0303 17.9772C34.5647 17.831 35.1067 17.7555 35.642 17.7555C38.6764 17.7555 41.2277 20.0777 41.4517 23.0443L41.521 23.9637L42.3752 24.3493Z" fill="white"/>
<path fill-rule="evenodd" clip-rule="evenodd" d="M36.319 43.769C35.0175 46.2326 32.0475 44.6207 33.2969 42.243C34.3574 40.2221 36.9053 39 36.9053 39C36.9053 39 37.348 41.8128 36.319 43.769ZM23.3225 43.769C22.0209 46.2326 19.051 44.6207 20.3003 42.243C21.3608 40.2221 23.9088 39 23.9088 39C23.9088 39 24.3515 41.8128 23.3225 43.769Z" fill="#009EFF"/>
</svg>
