<svg width="55" height="55" viewBox="0 0 55 55" fill="none" xmlns="http://www.w3.org/2000/svg">
<path fill-rule="evenodd" clip-rule="evenodd" d="M28.1659 10.0071C28.1441 9.98339 28.1194 9.96358 28.0986 9.93884C28.1829 9.8933 28.273 9.84577 28.3526 9.80122C29.1659 9.43195 30.0294 9.16167 30.9318 9.01416C31.728 8.88249 32.546 8.84388 33.3611 8.90229C36.2474 9.10524 38.8863 10.4734 40.7896 12.7525C42.69 15.0305 43.6294 17.9431 43.4284 20.9587C43.4038 21.3596 43.3498 21.7527 43.2844 22.1427C43.2796 22.1279 43.272 22.115 43.2682 22.1021C42.673 20.2033 41.4 18.6302 39.7403 17.7114C39.728 17.7035 39.7166 17.6946 39.7033 17.6867C39.5223 17.5877 39.327 17.5154 39.1374 17.4322C38.9526 17.3501 38.7725 17.261 38.581 17.1946C38.4152 17.1392 38.2408 17.1055 38.0711 17.061C37.8446 17.0026 37.619 16.9412 37.3848 16.9066C37.3374 16.8996 37.2957 16.8828 37.2483 16.8759C37.2919 15.874 36.9166 14.8147 36.9118 14.8018C36.2635 13.0009 35.0303 11.5407 33.3431 10.5784C32.3355 10.0042 31.2521 9.7141 30.1223 9.7141C29.4692 9.7141 28.8085 9.81706 28.1735 10.0151L28.1659 10.0071ZM26.8796 8.7825C26.3668 8.35778 25.8275 7.99544 25.2682 7.68655L25 2.62362L29.8635 7.59151C28.8076 7.84496 27.8142 8.26373 26.8796 8.7825ZM33.4654 7.28956C32.7602 7.23907 32.054 7.27273 31.3526 7.34698L34.4351 1L36.2682 7.841C35.3659 7.5529 34.4294 7.35688 33.4654 7.28956ZM37.6882 8.39738L43.3858 4.51455L41.6891 11.3991C40.5431 10.1091 39.1867 9.09732 37.6882 8.39738ZM42.6588 12.6188L49.4446 12.2258L44.6967 17.2927C44.3308 15.6176 43.6408 14.0335 42.6588 12.6188ZM44.9308 18.8668L51 22.0784L44.4398 24C44.7213 23.0595 44.909 22.0804 44.9744 21.0696C45.0228 20.328 45 19.5925 44.9308 18.8668Z" fill="#FFF500"/>
<path fill-rule="evenodd" clip-rule="evenodd" d="M12.2686 29.6903C12.2686 30.6319 12.4213 31.5397 12.6994 32.3915C11.5219 32.1822 10.5729 31.9236 10.5729 31.9236C7.11643 30.7245 4.69152 27.3286 5.03183 23.4254C5.30796 20.2533 7.5316 17.5714 10.5146 16.3964L11.1777 16.1349L11.3751 15.1625C12.3795 10.1816 17.5122 6.83886 22.783 8.37759C24.364 8.83873 25.7612 9.78512 26.8842 10.9823L27.5171 11.6586C27.5171 11.6586 27.5609 11.6837 27.628 11.7252C29.1564 10.9987 30.9649 10.9631 32.5818 11.839C34.0889 12.6561 35.0476 13.8476 35.5444 15.1567C35.5979 15.2985 35.8273 16.1156 35.7875 16.6298C35.2984 16.6694 34.8084 16.7398 34.3261 16.8739L34.2639 16.8913L34.2192 16.843C32.4292 14.9329 29.8934 13.8379 27.2634 13.8379C22.7548 13.8379 18.8404 17.0225 17.9546 21.4129L17.9449 21.4689L17.8904 21.4901C14.5273 22.8118 12.2686 26.1073 12.2686 29.6903ZM43.2868 24.9332C45.5425 25.9636 46.999 28.2171 47 30.6772C47 34.1637 44.1453 37 40.6363 37H21.1632C17.1019 37 13.7961 33.7199 13.7961 29.6912C13.7961 26.7238 15.6678 23.9945 18.4534 22.8996L19.2798 22.5735L19.4529 21.711C20.1967 18.0268 23.4831 15.3535 27.2634 15.3535C29.4714 15.3535 31.5988 16.2729 33.101 17.8763L33.7787 18.5998L34.7384 18.3335C35.2858 18.1821 35.841 18.1039 36.3893 18.1039C39.4978 18.1039 42.1113 20.509 42.3408 23.5816L42.4117 24.5338L43.2868 24.9332Z" fill="white"/>
<path fill-rule="evenodd" clip-rule="evenodd" d="M33 43.0311L30.2392 42.9886L32.5028 39L29.0083 39.0296L26.0435 44.9804H28.6249L25 54L33 43.0311Z" fill="#FFA800"/>
<path fill-rule="evenodd" clip-rule="evenodd" d="M37.6765 51.1816C37.8505 51.2236 37.9616 51.4024 37.9164 51.5773L37.8997 51.6399C37.8574 51.8129 37.6785 51.9223 37.5045 51.8783L35.2387 51.3291L35.7921 53.5827C35.8374 53.7566 35.7273 53.9325 35.5493 53.9765L35.4864 53.9902C35.3124 54.0342 35.1335 53.9257 35.0913 53.7518L34.5457 51.5392L32.9228 53.1439C32.794 53.269 32.5886 53.269 32.4598 53.141L32.4126 53.095C32.2878 52.967 32.2878 52.7608 32.4156 52.6328L34.0346 51.0359L31.8189 50.4975C31.6439 50.4564 31.5319 50.2805 31.5781 50.1036L31.5918 50.0411C31.6361 49.8652 31.8159 49.7596 31.9899 49.8017L34.2577 50.3509L33.7013 48.0973C33.659 47.9253 33.7701 47.7445 33.9451 47.7035L34.008 47.6878C34.1849 47.6448 34.3639 47.7523 34.4061 47.9263L34.9468 50.1349L36.5717 48.5341C36.6994 48.4081 36.9078 48.4081 37.0337 48.5371L37.0808 48.583C37.2096 48.7101 37.2067 48.9153 37.0808 49.0423L35.4589 50.6411L37.6765 51.1816ZM42.7498 43.5032C42.9237 43.5452 43.0338 43.7241 42.9906 43.898L42.9739 43.9606C42.9316 44.1335 42.7527 44.243 42.5787 44.199L40.3129 43.6498L40.8663 45.9034C40.9106 46.0773 40.8005 46.2532 40.6226 46.2972L40.5596 46.3109C40.3857 46.3548 40.2068 46.2464 40.1645 46.0724L39.6189 43.8599L37.996 45.4646C37.8672 45.5896 37.6618 45.5897 37.533 45.4616L37.4858 45.4157C37.361 45.2877 37.361 45.0815 37.4888 44.9535L39.1078 43.3566L36.8921 42.8181C36.7171 42.7771 36.6051 42.6012 36.6513 42.4243L36.665 42.3617C36.7093 42.1858 36.8892 42.0803 37.0631 42.1223L39.3309 42.6725L38.7745 40.419C38.7323 40.247 38.8433 40.0662 39.0183 40.0251L39.0812 40.0095C39.2582 39.9665 39.4371 40.074 39.4793 40.2479L40.02 42.4565L41.6449 40.8558C41.7727 40.7297 41.9811 40.7297 42.1069 40.8587L42.1541 40.9046C42.2828 41.0317 42.2799 41.2369 42.1541 41.364L40.5321 42.9628L42.7498 43.5032ZM22.1079 51.1816C22.2819 51.2236 22.392 51.4024 22.3488 51.5764L22.332 51.6389C22.2898 51.8119 22.1109 51.9213 21.9369 51.8774L19.6711 51.3281L20.2245 53.5817C20.2697 53.7557 20.1596 53.9316 19.9817 53.9755L19.9188 53.9892C19.7448 54.0332 19.5659 53.9247 19.5236 53.7508L18.9781 51.5383L17.3552 53.1429C17.2264 53.268 17.0209 53.268 16.8922 53.14L16.845 53.0941C16.7202 52.966 16.7202 52.7598 16.8479 52.6318L18.4669 51.035L16.2513 50.4965C16.0763 50.4554 15.9642 50.2795 16.0104 50.1027L16.0242 50.0401C16.0684 49.8642 16.2483 49.7587 16.4223 49.8007L18.6901 50.3509L18.1337 48.0973C18.0904 47.9253 18.2015 47.7445 18.3765 47.7035L18.4394 47.6878C18.6163 47.6448 18.7952 47.7523 18.8375 47.9263L19.3782 50.1349L21.003 48.5341C21.1308 48.4081 21.3392 48.4081 21.4651 48.5371L21.5122 48.583C21.641 48.7101 21.6381 48.9153 21.5122 49.0423L19.8903 50.6411L22.1079 51.1816ZM22.2485 43.5032C22.4215 43.5452 22.5326 43.7241 22.4893 43.898L22.4726 43.9606C22.4303 44.1335 22.2514 44.243 22.0775 44.199L19.8117 43.6498L20.3651 45.9034C20.4103 46.0773 20.3002 46.2532 20.1223 46.2972L20.0594 46.3109C19.8854 46.3548 19.7065 46.2464 19.6642 46.0724L19.1187 43.8599L17.4957 45.4646C17.367 45.5896 17.1615 45.5897 17.0327 45.4616L16.9856 45.4157C16.8607 45.2877 16.8607 45.0815 16.9885 44.9535L18.6075 43.3566L16.3918 42.8181C16.2169 42.7771 16.1048 42.6012 16.151 42.4243L16.1648 42.3617C16.209 42.1858 16.3889 42.0803 16.5629 42.1223L18.8306 42.6725L18.2743 40.419C18.231 40.247 18.3421 40.0662 18.5171 40.0251L18.58 40.0095C18.7569 39.9665 18.9358 40.074 18.9781 40.2479L19.5187 42.4565L21.1436 40.8558C21.2714 40.7297 21.4798 40.7297 21.6056 40.8587L21.6528 40.9046C21.7816 41.0317 21.7786 41.2369 21.6528 41.364L20.0309 42.9628L22.2485 43.5032Z" fill="#38C0E0"/>
</svg>
