<svg width="55" height="55" viewBox="0 0 55 55" fill="none" xmlns="http://www.w3.org/2000/svg">
<path fill-rule="evenodd" clip-rule="evenodd" d="M28.1659 10.0071C28.1441 9.98339 28.1194 9.96358 28.0986 9.93884C28.1829 9.8933 28.273 9.84577 28.3526 9.80122C29.1659 9.43195 30.0294 9.16167 30.9318 9.01416C31.728 8.88249 32.546 8.84388 33.3611 8.90229C36.2474 9.10524 38.8863 10.4734 40.7896 12.7525C42.69 15.0305 43.6294 17.9431 43.4284 20.9587C43.4038 21.3596 43.3498 21.7527 43.2844 22.1427C43.2796 22.1279 43.272 22.115 43.2682 22.1021C42.673 20.2033 41.4 18.6302 39.7403 17.7114C39.728 17.7035 39.7166 17.6946 39.7033 17.6867C39.5223 17.5877 39.327 17.5154 39.1374 17.4322C38.9526 17.3501 38.7725 17.261 38.581 17.1946C38.4152 17.1392 38.2408 17.1055 38.0711 17.061C37.8446 17.0026 37.619 16.9412 37.3848 16.9066C37.3374 16.8996 37.2957 16.8828 37.2483 16.8759C37.2919 15.874 36.9166 14.8147 36.9118 14.8018C36.2635 13.0009 35.0303 11.5407 33.3431 10.5784C32.3355 10.0042 31.2521 9.7141 30.1223 9.7141C29.4692 9.7141 28.8085 9.81706 28.1735 10.0151L28.1659 10.0071ZM26.8796 8.7825C26.3668 8.35778 25.8275 7.99544 25.2682 7.68655L25 2.62362L29.8635 7.59151C28.8076 7.84496 27.8142 8.26373 26.8796 8.7825ZM33.4654 7.28956C32.7602 7.23907 32.054 7.27273 31.3526 7.34698L34.4351 1L36.2682 7.841C35.3659 7.5529 34.4294 7.35688 33.4654 7.28956ZM37.6882 8.39738L43.3858 4.51455L41.6891 11.3991C40.5431 10.1091 39.1867 9.09732 37.6882 8.39738ZM42.6588 12.6188L49.4446 12.2258L44.6967 17.2927C44.3308 15.6176 43.6408 14.0335 42.6588 12.6188ZM44.9308 18.8668L51 22.0784L44.4398 24C44.7213 23.0595 44.909 22.0804 44.9744 21.0696C45.0228 20.328 45 19.5925 44.9308 18.8668Z" fill="#FFF500"/>
<path fill-rule="evenodd" clip-rule="evenodd" d="M12.2686 29.6903C12.2686 30.6319 12.4213 31.5397 12.6994 32.3915C11.5219 32.1822 10.5729 31.9236 10.5729 31.9236C7.11643 30.7245 4.69152 27.3286 5.03183 23.4254C5.30796 20.2533 7.5316 17.5714 10.5146 16.3964L11.1777 16.1349L11.3751 15.1625C12.3795 10.1816 17.5122 6.83886 22.783 8.37759C24.364 8.83873 25.7612 9.78512 26.8842 10.9823L27.5171 11.6586C27.5171 11.6586 27.5609 11.6837 27.628 11.7252C29.1564 10.9987 30.9649 10.9631 32.5818 11.839C34.0889 12.6561 35.0476 13.8476 35.5444 15.1567C35.5979 15.2985 35.8273 16.1156 35.7875 16.6298C35.2984 16.6694 34.8084 16.7398 34.3261 16.8739L34.2639 16.8913L34.2192 16.843C32.4292 14.9329 29.8934 13.8379 27.2634 13.8379C22.7548 13.8379 18.8404 17.0225 17.9546 21.4129L17.9449 21.4689L17.8904 21.4901C14.5273 22.8118 12.2686 26.1073 12.2686 29.6903ZM43.2868 24.9332C45.5425 25.9636 46.999 28.2171 47 30.6772C47 34.1637 44.1453 37 40.6363 37H21.1632C17.1019 37 13.7961 33.7199 13.7961 29.6912C13.7961 26.7238 15.6678 23.9945 18.4534 22.8996L19.2798 22.5735L19.4529 21.711C20.1967 18.0268 23.4831 15.3535 27.2634 15.3535C29.4714 15.3535 31.5988 16.2729 33.101 17.8763L33.7787 18.5998L34.7384 18.3335C35.2858 18.1821 35.841 18.1039 36.3893 18.1039C39.4978 18.1039 42.1113 20.509 42.3408 23.5816L42.4117 24.5338L43.2868 24.9332Z" fill="white"/>
<path fill-rule="evenodd" clip-rule="evenodd" d="M31.2838 52.7308C29.9149 55.2708 26.7913 53.609 28.1053 51.1575C29.2206 49.074 31.9004 47.8139 31.9004 47.8139C31.9004 47.8139 32.366 50.7139 31.2838 52.7308ZM22.4943 44.9169C21.1255 47.4569 18.0019 45.795 19.3159 43.3436C20.4312 41.2601 23.111 40 23.111 40C23.111 40 23.5766 42.9 22.4943 44.9169Z" fill="#009EFF"/>
<path fill-rule="evenodd" clip-rule="evenodd" d="M38.7539 43.5034L36.5676 42.963L38.1666 41.3641C38.2906 41.237 38.2936 41.0318 38.1666 40.9047L38.1201 40.8588C37.996 40.7298 37.7906 40.7298 37.6646 40.8558L36.0626 42.4567L35.5296 40.2479C35.488 40.074 35.3116 39.9665 35.1371 40.0095L35.0751 40.0251C34.9026 40.0662 34.7931 40.247 34.8348 40.419L35.3833 42.6727L33.1475 42.1225C32.976 42.0804 32.7987 42.186 32.7551 42.3619L32.7415 42.4245C32.6959 42.6014 32.8064 42.7773 32.9789 42.8183L35.1633 43.3568L33.5672 44.9538C33.4412 45.0818 33.4412 45.288 33.5643 45.4161L33.6108 45.462C33.7377 45.59 33.9403 45.59 34.0672 45.4649L35.6672 43.8602L36.2051 46.0728C36.2468 46.2468 36.4232 46.3553 36.5947 46.3113L36.6567 46.2976C36.8321 46.2537 36.9407 46.0777 36.8961 45.9038L36.3505 43.65L38.5843 44.1993C38.7558 44.2433 38.9322 44.1338 38.9739 43.9608L38.9903 43.8983C39.034 43.7243 38.9254 43.5455 38.7539 43.5034ZM19.0227 51.1823L16.8364 50.6419L18.4354 49.043C18.5594 48.9159 18.5624 48.7107 18.4354 48.5836L18.3889 48.5377C18.2648 48.4087 18.0594 48.4087 17.9334 48.5347L16.3314 50.1356L15.7984 47.9268C15.7568 47.7529 15.5804 47.6454 15.4059 47.6884L15.3439 47.704C15.1714 47.7451 15.0619 47.9259 15.1036 48.0979L15.6521 50.3516L13.4163 49.8014C13.2448 49.7593 13.0675 49.8649 13.0239 50.0408L13.0103 50.1034C12.9647 50.2803 13.0752 50.4562 13.2477 50.4972L15.4321 51.0357L13.836 52.6327C13.71 52.7607 13.71 52.9669 13.8331 53.095L13.8796 53.1409C14.0065 53.2689 14.2091 53.2689 14.336 53.1438L15.936 51.5391L16.4739 53.7517C16.5156 53.9257 16.692 54.0342 16.8635 53.9902L16.9255 53.9765C17.1009 53.9325 17.2095 53.7566 17.1649 53.5827L16.6193 51.3289L18.8531 51.8782C19.0246 51.9222 19.201 51.8127 19.2427 51.6397L19.2591 51.5772C19.3028 51.4032 19.1942 51.2244 19.0227 51.1823Z" fill="#38C0E0"/>
</svg>
