<svg width="55" height="55" viewBox="0 0 55 55" fill="none" xmlns="http://www.w3.org/2000/svg">
<path fill-rule="evenodd" clip-rule="evenodd" d="M28.1659 10.0071C28.1441 9.98339 28.1194 9.96358 28.0986 9.93884C28.1829 9.8933 28.273 9.84577 28.3526 9.80122C29.1659 9.43195 30.0294 9.16167 30.9318 9.01416C31.728 8.88249 32.546 8.84388 33.3611 8.90229C36.2474 9.10524 38.8863 10.4734 40.7896 12.7525C42.69 15.0305 43.6294 17.9431 43.4284 20.9587C43.4038 21.3596 43.3498 21.7527 43.2844 22.1427C43.2796 22.1279 43.272 22.115 43.2682 22.1021C42.673 20.2033 41.4 18.6302 39.7403 17.7114C39.728 17.7035 39.7166 17.6946 39.7033 17.6867C39.5223 17.5877 39.327 17.5154 39.1374 17.4322C38.9526 17.3501 38.7725 17.261 38.581 17.1946C38.4152 17.1392 38.2408 17.1055 38.0711 17.061C37.8446 17.0026 37.619 16.9412 37.3848 16.9066C37.3374 16.8996 37.2957 16.8828 37.2483 16.8759C37.2919 15.874 36.9166 14.8147 36.9118 14.8018C36.2635 13.0009 35.0303 11.5407 33.3431 10.5784C32.3355 10.0042 31.2521 9.7141 30.1223 9.7141C29.4692 9.7141 28.8085 9.81706 28.1735 10.0151L28.1659 10.0071ZM26.8796 8.7825C26.3668 8.35778 25.8275 7.99544 25.2682 7.68655L25 2.62362L29.8635 7.59151C28.8076 7.84496 27.8142 8.26373 26.8796 8.7825ZM33.4654 7.28956C32.7602 7.23907 32.054 7.27273 31.3526 7.34698L34.4351 1L36.2682 7.841C35.3659 7.5529 34.4294 7.35688 33.4654 7.28956ZM37.6882 8.39738L43.3858 4.51455L41.6891 11.3991C40.5431 10.1091 39.1867 9.09732 37.6882 8.39738ZM42.6588 12.6188L49.4446 12.2258L44.6967 17.2927C44.3308 15.6176 43.6408 14.0335 42.6588 12.6188ZM44.9308 18.8668L51 22.0784L44.4398 24C44.7213 23.0595 44.909 22.0804 44.9744 21.0696C45.0228 20.328 45 19.5925 44.9308 18.8668Z" fill="#FFF500"/>
<path fill-rule="evenodd" clip-rule="evenodd" d="M12.2686 29.6903C12.2686 30.6319 12.4213 31.5397 12.6994 32.3915C11.5219 32.1822 10.5729 31.9236 10.5729 31.9236C7.11643 30.7245 4.69152 27.3286 5.03183 23.4254C5.30796 20.2533 7.5316 17.5714 10.5146 16.3964L11.1777 16.1349L11.3751 15.1625C12.3795 10.1816 17.5122 6.83886 22.783 8.37759C24.364 8.83873 25.7612 9.78512 26.8842 10.9823L27.5171 11.6586C27.5171 11.6586 27.5609 11.6837 27.628 11.7252C29.1564 10.9987 30.9649 10.9631 32.5818 11.839C34.0889 12.6561 35.0476 13.8476 35.5444 15.1567C35.5979 15.2985 35.8273 16.1156 35.7875 16.6298C35.2984 16.6694 34.8084 16.7398 34.3261 16.8739L34.2639 16.8913L34.2192 16.843C32.4292 14.9329 29.8934 13.8379 27.2634 13.8379C22.7548 13.8379 18.8404 17.0225 17.9546 21.4129L17.9449 21.4689L17.8904 21.4901C14.5273 22.8118 12.2686 26.1073 12.2686 29.6903ZM43.2868 24.9332C45.5425 25.9636 46.999 28.2171 47 30.6772C47 34.1637 44.1453 37 40.6363 37H21.1632C17.1019 37 13.7961 33.7199 13.7961 29.6912C13.7961 26.7238 15.6678 23.9945 18.4534 22.8996L19.2798 22.5735L19.4529 21.711C20.1967 18.0268 23.4831 15.3535 27.2634 15.3535C29.4714 15.3535 31.5988 16.2729 33.101 17.8763L33.7787 18.5998L34.7384 18.3335C35.2858 18.1821 35.841 18.1039 36.3893 18.1039C39.4978 18.1039 42.1113 20.509 42.3408 23.5816L42.4117 24.5338L43.2868 24.9332Z" fill="white"/>
<path fill-rule="evenodd" clip-rule="evenodd" d="M22.4447 43.5032C22.6119 43.5452 22.7192 43.7241 22.6774 43.898L22.6613 43.9606C22.6205 44.1335 22.4476 44.243 22.2795 44.199L20.0903 43.6498L20.625 45.9034C20.6687 46.0773 20.5623 46.2532 20.3904 46.2972L20.3296 46.3109C20.1615 46.3548 19.9886 46.2464 19.9478 46.0724L19.4207 43.8599L17.8526 45.4646C17.7282 45.5896 17.5297 45.5897 17.4052 45.4616L17.3597 45.4157C17.239 45.2877 17.239 45.0815 17.3625 44.9535L18.9268 43.3566L16.786 42.8181C16.6169 42.7771 16.5087 42.6012 16.5533 42.4243L16.5666 42.3617C16.6093 42.1858 16.7831 42.0803 16.9513 42.1223L19.1424 42.6725L18.6048 40.419C18.563 40.247 18.6703 40.0662 18.8394 40.0251L18.9002 40.0095C19.0711 39.9665 19.244 40.074 19.2848 40.2479L19.8072 42.4565L21.3772 40.8558C21.5007 40.7297 21.702 40.7297 21.8236 40.8587L21.8692 40.9046C21.9936 41.0317 21.9908 41.2369 21.8692 41.364L20.3021 42.9628L22.4447 43.5032ZM13.9025 51.1816C14.0706 51.2236 14.1779 51.4024 14.1342 51.5773L14.1181 51.6399C14.0772 51.8129 13.9044 51.9223 13.7363 51.8783L11.547 51.3291L12.0818 53.5827C12.1255 53.7566 12.0191 53.9325 11.8472 53.9765L11.7864 53.9902C11.6183 54.0342 11.4454 53.9257 11.4046 53.7518L10.8774 51.5392L9.30937 53.1439C9.18495 53.269 8.98645 53.269 8.86203 53.141L8.81644 53.095C8.69582 52.967 8.69582 52.7608 8.81929 52.6328L10.3836 51.0359L8.24278 50.4975C8.07372 50.4564 7.96544 50.2805 8.01008 50.1036L8.02338 50.0411C8.06612 49.8652 8.23993 49.7596 8.40804 49.8017L10.5992 50.3519L10.0616 48.0983C10.0208 47.9263 10.1281 47.7455 10.2971 47.7044L10.3579 47.6878C10.5289 47.6448 10.7017 47.7523 10.7426 47.9263L11.265 50.1349L12.8349 48.5341C12.9584 48.4081 13.1598 48.4081 13.2813 48.5371L13.3269 48.583C13.4513 48.7101 13.4485 48.9153 13.3269 49.0423L11.7598 50.6411L13.9025 51.1816ZM22.3089 51.1816C22.477 51.2236 22.5834 51.4024 22.5416 51.5764L22.5255 51.6389C22.4846 51.8119 22.3118 51.9213 22.1437 51.8774L19.9544 51.3281L20.4892 53.5817C20.5328 53.7557 20.4265 53.9316 20.2546 53.9755L20.1938 53.9892C20.0257 54.0332 19.8528 53.9247 19.812 53.7508L19.2848 51.5383L17.7168 53.1429C17.5924 53.268 17.3938 53.268 17.2694 53.14L17.2238 53.0941C17.1032 52.966 17.1032 52.7598 17.2267 52.6318L18.791 51.035L16.6502 50.4965C16.4811 50.4554 16.3728 50.2795 16.4175 50.1027L16.4308 50.0401C16.4735 49.8642 16.6473 49.7587 16.8154 49.8007L19.0066 50.3509L18.469 48.0973C18.4272 47.9253 18.5345 47.7445 18.7036 47.7035L18.7644 47.6878C18.9353 47.6448 19.1082 47.7523 19.149 47.9263L19.6714 50.1349L21.2414 48.5341C21.3649 48.4081 21.5662 48.4081 21.6878 48.5371L21.7334 48.583C21.8578 48.7101 21.8549 48.9153 21.7334 49.0423L20.1662 50.6411L22.3089 51.1816ZM37.3514 51.1816C37.5196 51.2236 37.6269 51.4024 37.5832 51.5773L37.567 51.6399C37.5262 51.8129 37.3533 51.9223 37.1852 51.8783L34.996 51.3291L35.5307 53.5827C35.5744 53.7566 35.468 53.9325 35.2961 53.9765L35.2353 53.9902C35.0672 54.0342 34.8944 53.9257 34.8535 53.7518L34.3264 51.5392L32.7583 53.1439C32.6339 53.269 32.4354 53.269 32.311 53.141L32.2654 53.095C32.1448 52.967 32.1448 52.7608 32.2683 52.6328L33.8325 51.0359L31.6917 50.4975C31.5227 50.4564 31.4144 50.2805 31.459 50.1036L31.4723 50.0411C31.5151 49.8652 31.6889 49.7596 31.857 49.8017L34.0481 50.3509L33.5106 48.0973C33.4697 47.9253 33.577 47.7445 33.7461 47.7035L33.8069 47.6878C33.9778 47.6448 34.1507 47.7523 34.1915 47.9263L34.7139 50.1349L36.2839 48.5341C36.4074 48.4081 36.6087 48.4081 36.7303 48.5371L36.7759 48.583C36.9003 48.7101 36.8975 48.9153 36.7759 49.0423L35.2088 50.6411L37.3514 51.1816ZM45.7588 51.1816C45.926 51.2236 46.0333 51.4024 45.9906 51.5773L45.9744 51.6399C45.9336 51.8129 45.7607 51.9223 45.5926 51.8783L43.4034 51.3291L43.9381 53.5827C43.9818 53.7566 43.8754 53.9325 43.7035 53.9765L43.6427 53.9902C43.4746 54.0342 43.3018 53.9257 43.2609 53.7518L42.7338 51.5392L41.1657 53.1439C41.0413 53.269 40.8428 53.269 40.7184 53.141L40.6728 53.095C40.5522 52.967 40.5522 52.7608 40.6757 52.6328L42.2399 51.0359L40.0991 50.4975C39.9301 50.4564 39.8218 50.2805 39.8664 50.1036L39.8797 50.0411C39.9225 49.8652 40.0963 49.7596 40.2644 49.8017L42.4555 50.3519L41.918 48.0983C41.8762 47.9263 41.9835 47.7455 42.1526 47.7044L42.2143 47.6878C42.3852 47.6448 42.5581 47.7523 42.5989 47.9263L43.1213 50.1349L44.6913 48.5341C44.8148 48.4081 45.0161 48.4081 45.1377 48.5371L45.1833 48.583C45.3077 48.7101 45.3049 48.9153 45.1833 49.0423L43.6162 50.6411L45.7588 51.1816ZM42.2532 43.5032C42.4213 43.5452 42.5277 43.7241 42.4859 43.898L42.4698 43.9606C42.4289 44.1335 42.2561 44.243 42.088 44.199L39.8987 43.6498L40.4335 45.9034C40.4762 46.0773 40.3698 46.2532 40.1979 46.2972L40.1371 46.3109C39.969 46.3548 39.7962 46.2464 39.7553 46.0724L39.2282 43.8599L37.6601 45.4646C37.5357 45.5896 37.3372 45.5897 37.2128 45.4616L37.1672 45.4157C37.0466 45.2877 37.0466 45.0815 37.17 44.9535L38.7343 43.3566L36.5935 42.8181C36.4245 42.7771 36.3162 42.6012 36.3608 42.4243L36.3741 42.3617C36.4169 42.1858 36.5907 42.0803 36.7588 42.1223L38.9499 42.6725L38.4123 40.419C38.3715 40.247 38.4788 40.0662 38.6479 40.0251L38.7087 40.0095C38.8796 39.9665 39.0525 40.074 39.0933 40.2479L39.6157 42.4565L41.1857 40.8558C41.3092 40.7297 41.5105 40.7297 41.6321 40.8587L41.6777 40.9046C41.8021 41.0317 41.7992 41.2369 41.6777 41.364L40.1105 42.9628L42.2532 43.5032Z" fill="#38C0E0"/>
<path fill-rule="evenodd" clip-rule="evenodd" d="M33 43.0311L30.2392 42.9886L32.5028 39L29.0083 39.0296L26.0435 44.9804H28.6249L25 54L33 43.0311Z" fill="#FFA800"/>
</svg>
