<svg width="55" height="55" viewBox="0 0 55 55" fill="none" xmlns="http://www.w3.org/2000/svg">
<path fill-rule="evenodd" clip-rule="evenodd" d="M27.2876 10.0071C27.265 9.98339 27.2394 9.96358 27.2178 9.93884C27.3054 9.8933 27.3989 9.84577 27.4816 9.80122C28.3261 9.43195 29.2228 9.16167 30.1599 9.01416C30.9867 8.88249 31.8362 8.84388 32.6827 8.90229C35.68 9.10524 38.4203 10.4734 40.3969 12.7525C42.3704 15.0305 43.3459 17.9431 43.1372 20.9587C43.1116 21.3596 43.0555 21.7527 42.9876 22.1427C42.9827 22.1279 42.9748 22.115 42.9709 22.1021C42.3527 20.2033 41.0308 18.6302 39.3072 17.7114C39.2944 17.7035 39.2826 17.6946 39.2688 17.6867C39.0808 17.5877 38.8781 17.5154 38.6812 17.4322C38.4892 17.3501 38.3022 17.261 38.1034 17.1946C37.9311 17.1392 37.75 17.1055 37.5738 17.061C37.3386 17.0026 37.1043 16.9412 36.8612 16.9066C36.812 16.8996 36.7686 16.8828 36.7194 16.8759C36.7647 15.874 36.3749 14.8147 36.37 14.8018C35.6967 13.0009 34.4161 11.5407 32.664 10.5784C31.6177 10.0042 30.4926 9.7141 29.3193 9.7141C28.6411 9.7141 27.955 9.81706 27.2955 10.0151L27.2876 10.0071ZM25.9519 8.7825C25.4194 8.35778 24.8593 7.99544 24.2786 7.68655L24 2.62362L29.0506 7.59151C27.954 7.84496 26.9225 8.26373 25.9519 8.7825ZM32.791 7.28956C32.0587 7.23907 31.3253 7.27273 30.5969 7.34698L33.798 1L35.7016 7.841C34.7646 7.5529 33.7921 7.35688 32.791 7.28956ZM37.1762 8.39738L43.0929 4.51455L41.331 11.3991C40.1409 10.1091 38.7324 9.09732 37.1762 8.39738ZM42.338 12.6188L49.3847 12.2258L44.4542 17.2927C44.0743 15.6176 43.3577 14.0335 42.338 12.6188ZM44.6974 18.8668L51 22.0784L44.1875 24C44.4798 23.0595 44.6747 22.0804 44.7427 21.0696C44.7929 20.328 44.7692 19.5925 44.6974 18.8668Z" fill="#FFF500"/>
<path fill-rule="evenodd" clip-rule="evenodd" d="M11.2686 30.4382C11.2686 31.4123 11.4213 32.3514 11.6994 33.2326C10.5219 33.016 9.57294 32.7486 9.57294 32.7486C6.11643 31.5081 3.69152 27.9951 4.03183 23.9573C4.30796 20.6759 6.5316 17.9015 9.5146 16.6859L10.1777 16.4155L10.3751 15.4095C11.3795 10.2569 16.5122 6.79882 21.783 8.39061C23.364 8.86765 24.7612 9.84668 25.8842 11.0852L26.5171 11.7848C26.5171 11.7848 26.5609 11.8107 26.628 11.8536C28.1564 11.1022 29.9649 11.0652 31.5818 11.9714C33.0889 12.8167 34.0476 14.0492 34.5444 15.4035C34.5979 15.5502 34.8273 16.3955 34.7875 16.9274C34.2984 16.9683 33.8084 17.0412 33.3261 17.1799L33.2639 17.1979L33.2192 17.148C31.4292 15.172 28.8934 14.0392 26.2634 14.0392C21.7548 14.0392 17.8404 17.3336 16.9546 21.8755L16.9449 21.9333L16.8904 21.9553C13.5273 23.3225 11.2686 26.7317 11.2686 30.4382ZM42.2868 25.5171C44.5425 26.583 45.999 28.9143 46 31.4592C46 35.0659 43.1453 38 39.6363 38H20.1632C16.1019 38 12.7961 34.6068 12.7961 30.4392C12.7961 27.3694 14.6678 24.5461 17.4534 23.4134L18.2798 23.076L18.4529 22.1838C19.1967 18.3725 22.4831 15.6071 26.2634 15.6071C28.4714 15.6071 30.5988 16.5582 32.101 18.2168L32.7787 18.9653L33.7384 18.6899C34.2858 18.5332 34.841 18.4524 35.3893 18.4524C38.4978 18.4524 41.1113 20.9403 41.3408 24.1189L41.4117 25.104L42.2868 25.5171Z" fill="white"/>
<path fill-rule="evenodd" clip-rule="evenodd" d="M24.9709 44.3255C25.141 44.3654 25.2486 44.5351 25.2053 44.7002L25.189 44.7596C25.1477 44.9238 24.9728 45.0277 24.8028 44.986L22.5882 44.4646L23.1291 46.6039C23.1733 46.769 23.0657 46.936 22.8918 46.9777L22.8303 46.9907C22.6602 47.0324 22.4854 46.9295 22.444 46.7643L21.9108 44.6641L20.3246 46.1873C20.1987 46.3061 19.9979 46.3061 19.872 46.1845L19.8259 46.1409C19.7039 46.0194 19.7039 45.8237 19.8288 45.7022L21.4112 44.1863L19.2456 43.6752C19.0746 43.6362 18.965 43.4692 19.0102 43.3013L19.0236 43.2419C19.0669 43.0749 19.2427 42.9748 19.4128 43.0146L21.6293 43.5369L21.0855 41.3977C21.0442 41.2344 21.1527 41.0628 21.3238 41.0238L21.3853 41.009C21.5582 40.9682 21.7331 41.0702 21.7744 41.2354L22.3028 43.3319L23.891 41.8124C24.0159 41.6927 24.2196 41.6927 24.3426 41.8152L24.3887 41.8588C24.5145 41.9794 24.5117 42.1742 24.3887 42.2948L22.8034 43.8125L24.9709 44.3255ZM39.7555 44.3255C39.9246 44.3654 40.0331 44.5351 39.9908 44.7002L39.9745 44.7596C39.9332 44.9238 39.7583 45.0277 39.5883 44.986L37.3737 44.4646L37.9146 46.6039C37.9578 46.769 37.8502 46.936 37.6763 46.9777L37.6148 46.9907C37.4448 47.0324 37.2699 46.9295 37.2286 46.7643L36.6954 44.6641L35.1091 46.1873C34.9832 46.3061 34.7824 46.3061 34.6566 46.1845L34.6105 46.1409C34.4884 46.0194 34.4884 45.8237 34.6133 45.7022L36.1957 44.1863L34.0301 43.6752C33.8591 43.6362 33.7496 43.4692 33.7948 43.3013L33.8082 43.2419C33.8514 43.0749 34.0273 42.9748 34.1973 43.0146L36.4138 43.5369L35.87 41.3977C35.8287 41.2344 35.9373 41.0628 36.1083 41.0238L36.1698 41.009C36.3427 40.9682 36.5176 41.0702 36.5589 41.2354L37.0874 43.3319L38.6755 41.8124C38.8004 41.6927 39.0041 41.6927 39.1271 41.8152L39.1732 41.8588C39.2991 41.9794 39.2962 42.1742 39.1732 42.2948L37.5879 43.8125L39.7555 44.3255Z" fill="#38C0E0"/>
</svg>
