<svg width="55" height="55" viewBox="0 0 55 55" fill="none" xmlns="http://www.w3.org/2000/svg">
<path fill-rule="evenodd" clip-rule="evenodd" d="M20.6608 31.6806L22.1007 34.7173L25.3917 35.2408L23.1291 37.6492L23.7462 41L20.7637 39.4293L17.7812 41L18.3982 37.6492L16.0328 35.2408L19.3238 34.7173L20.6608 31.6806ZM45.035 2.7801L45.9606 4.66492L48.0175 4.97906L46.5777 6.44503L46.8862 8.53927L45.035 7.59686L43.1838 8.53927L43.4923 6.44503L42.0525 4.97906L44.1094 4.66492L45.035 2.7801ZM6.98249 17.4398L7.9081 19.3246L9.96499 19.6387L8.52516 21.1047L8.8337 23.199L6.98249 22.2565L5.13129 23.199L5.43982 21.1047L4 19.6387L6.05689 19.3246L6.98249 17.4398ZM49.2516 32.0995L49.7659 33.2513L51 33.4607L50.0744 34.4031L50.2801 35.6597L49.1488 35.0314L48.1203 35.555L48.326 34.2984L47.4004 33.356L48.6346 33.1466L49.2516 32.0995ZM29.0941 16.288C25.5974 11.2618 25.5974 5.29319 28.3742 1C23.1291 2.88482 19.3238 8.01571 19.3238 14.089C19.3238 21.733 25.3917 28.0157 33.0022 28.0157C37.733 28.0157 41.8468 25.6073 44.3151 21.9424C38.7615 23.7225 32.5908 21.3141 29.0941 16.288Z" fill="#82BEFF"/>
</svg>
