<svg width="55" height="55" viewBox="0 0 55 55" fill="none" xmlns="http://www.w3.org/2000/svg">
<path fill-rule="evenodd" clip-rule="evenodd" d="M41.3096 24.7371L40.4399 24.3312L40.3694 23.3615C40.1413 20.2407 37.5438 17.7953 34.4545 17.7953C33.9095 17.7953 33.3577 17.8738 32.8137 18.0287L31.8599 18.2993L31.1864 17.564C29.6934 15.9344 27.5791 15 25.3846 15C21.6275 15 18.3613 17.7169 17.6221 21.4614L17.4491 22.3379L16.6287 22.6693C13.8602 23.7822 12 26.5559 12 29.5719C12 33.6664 15.2855 37 19.3218 37H38.6754C42.1629 37 45 34.1174 45 30.5739C44.999 28.0757 43.5515 25.7843 41.3096 24.7371Z" fill="white"/>
<path fill-rule="evenodd" clip-rule="evenodd" d="M36.4161 13.6934C33.8542 10.4519 32.2504 4.82189 35.8593 1C34.4711 1.39969 33.1314 2.06424 31.9253 3.01756C29.8677 4.64117 28.6702 6.86813 28.2154 9.22418C28.0123 10.8631 27.9741 12.4245 28.0142 13.9277C29.7314 14.3685 31.3113 15.2855 32.5355 16.6031L32.5794 16.6509L32.6394 16.6337C33.3088 16.4463 33.9896 16.3507 34.6637 16.3507C38.4327 16.3507 41.5992 19.2594 41.9653 23C43.4203 22.7179 44.8362 22.1289 46.1205 21.1144C47.3295 20.163 48.2868 19.0156 49 17.7534C44.4462 20.3695 39.2861 17.3231 36.4161 13.6934Z" fill="#82BEFF"/>
<path fill-rule="evenodd" clip-rule="evenodd" d="M21.4447 43.5032C21.6119 43.5452 21.7192 43.7241 21.6774 43.898L21.6613 43.9606C21.6205 44.1335 21.4476 44.243 21.2795 44.199L19.0903 43.6498L19.625 45.9034C19.6687 46.0773 19.5623 46.2532 19.3904 46.2972L19.3296 46.3109C19.1615 46.3548 18.9886 46.2464 18.9478 46.0724L18.4207 43.8599L16.8526 45.4646C16.7282 45.5896 16.5297 45.5897 16.4052 45.4616L16.3597 45.4157C16.239 45.2877 16.239 45.0815 16.3625 44.9535L17.9268 43.3566L15.786 42.8181C15.6169 42.7771 15.5087 42.6012 15.5533 42.4243L15.5666 42.3617C15.6093 42.1858 15.7831 42.0803 15.9513 42.1223L18.1424 42.6725L17.6048 40.419C17.563 40.247 17.6703 40.0662 17.8394 40.0251L17.9002 40.0095C18.0711 39.9665 18.244 40.074 18.2848 40.2479L18.8072 42.4565L20.3772 40.8558C20.5007 40.7297 20.702 40.7297 20.8236 40.8587L20.8692 40.9046C20.9936 41.0317 20.9908 41.2369 20.8692 41.364L19.3021 42.9628L21.4447 43.5032ZM12.9025 51.1816C13.0706 51.2236 13.1779 51.4024 13.1342 51.5773L13.1181 51.6399C13.0772 51.8129 12.9044 51.9223 12.7363 51.8783L10.547 51.3291L11.0818 53.5827C11.1255 53.7566 11.0191 53.9325 10.8472 53.9765L10.7864 53.9902C10.6183 54.0342 10.4454 53.9257 10.4046 53.7518L9.87745 51.5392L8.30937 53.1439C8.18495 53.269 7.98645 53.269 7.86203 53.141L7.81644 53.095C7.69582 52.967 7.69582 52.7608 7.81929 52.6328L9.38357 51.0359L7.24278 50.4975C7.07372 50.4564 6.96544 50.2805 7.01008 50.1036L7.02338 50.0411C7.06612 49.8652 7.23993 49.7596 7.40804 49.8017L9.59916 50.3519L9.06159 48.0983C9.02075 47.9263 9.12808 47.7455 9.29714 47.7044L9.35792 47.6878C9.52888 47.6448 9.70174 47.7523 9.74258 47.9263L10.265 50.1349L11.8349 48.5341C11.9584 48.4081 12.1598 48.4081 12.2813 48.5371L12.3269 48.583C12.4513 48.7101 12.4485 48.9153 12.3269 49.0423L10.7598 50.6411L12.9025 51.1816ZM21.3089 51.1816C21.477 51.2236 21.5834 51.4024 21.5416 51.5764L21.5255 51.6389C21.4846 51.8119 21.3118 51.9213 21.1437 51.8774L18.9544 51.3281L19.4892 53.5817C19.5328 53.7557 19.4265 53.9316 19.2546 53.9755L19.1938 53.9892C19.0257 54.0332 18.8528 53.9247 18.812 53.7508L18.2848 51.5383L16.7168 53.1429C16.5924 53.268 16.3938 53.268 16.2694 53.14L16.2238 53.0941C16.1032 52.966 16.1032 52.7598 16.2267 52.6318L17.791 51.035L15.6502 50.4965C15.4811 50.4554 15.3728 50.2795 15.4175 50.1027L15.4308 50.0401C15.4735 49.8642 15.6473 49.7587 15.8154 49.8007L18.0066 50.3509L17.469 48.0973C17.4272 47.9253 17.5345 47.7445 17.7036 47.7035L17.7644 47.6878C17.9353 47.6448 18.1082 47.7523 18.149 47.9263L18.6714 50.1349L20.2414 48.5341C20.3649 48.4081 20.5662 48.4081 20.6878 48.5371L20.7334 48.583C20.8578 48.7101 20.8549 48.9153 20.7334 49.0423L19.1662 50.6411L21.3089 51.1816ZM36.3514 51.1816C36.5196 51.2236 36.6269 51.4024 36.5832 51.5773L36.567 51.6399C36.5262 51.8129 36.3533 51.9223 36.1852 51.8783L33.996 51.3291L34.5307 53.5827C34.5744 53.7566 34.468 53.9325 34.2961 53.9765L34.2353 53.9902C34.0672 54.0342 33.8944 53.9257 33.8535 53.7518L33.3264 51.5392L31.7583 53.1439C31.6339 53.269 31.4354 53.269 31.311 53.141L31.2654 53.095C31.1448 52.967 31.1448 52.7608 31.2683 52.6328L32.8325 51.0359L30.6917 50.4975C30.5227 50.4564 30.4144 50.2805 30.459 50.1036L30.4723 50.0411C30.5151 49.8652 30.6889 49.7596 30.857 49.8017L33.0481 50.3509L32.5106 48.0973C32.4697 47.9253 32.577 47.7445 32.7461 47.7035L32.8069 47.6878C32.9778 47.6448 33.1507 47.7523 33.1915 47.9263L33.7139 50.1349L35.2839 48.5341C35.4074 48.4081 35.6087 48.4081 35.7303 48.5371L35.7759 48.583C35.9003 48.7101 35.8975 48.9153 35.7759 49.0423L34.2088 50.6411L36.3514 51.1816ZM44.7588 51.1816C44.926 51.2236 45.0333 51.4024 44.9906 51.5773L44.9744 51.6399C44.9336 51.8129 44.7607 51.9223 44.5926 51.8783L42.4034 51.3291L42.9381 53.5827C42.9818 53.7566 42.8754 53.9325 42.7035 53.9765L42.6427 53.9902C42.4746 54.0342 42.3018 53.9257 42.2609 53.7518L41.7338 51.5392L40.1657 53.1439C40.0413 53.269 39.8428 53.269 39.7184 53.141L39.6728 53.095C39.5522 52.967 39.5522 52.7608 39.6757 52.6328L41.2399 51.0359L39.0991 50.4975C38.9301 50.4564 38.8218 50.2805 38.8664 50.1036L38.8797 50.0411C38.9225 49.8652 39.0963 49.7596 39.2644 49.8017L41.4555 50.3519L40.918 48.0983C40.8762 47.9263 40.9835 47.7455 41.1526 47.7044L41.2143 47.6878C41.3852 47.6448 41.5581 47.7523 41.5989 47.9263L42.1213 50.1349L43.6913 48.5341C43.8148 48.4081 44.0161 48.4081 44.1377 48.5371L44.1833 48.583C44.3077 48.7101 44.3049 48.9153 44.1833 49.0423L42.6162 50.6411L44.7588 51.1816ZM41.2532 43.5032C41.4213 43.5452 41.5277 43.7241 41.4859 43.898L41.4698 43.9606C41.4289 44.1335 41.2561 44.243 41.088 44.199L38.8987 43.6498L39.4335 45.9034C39.4762 46.0773 39.3698 46.2532 39.1979 46.2972L39.1371 46.3109C38.969 46.3548 38.7962 46.2464 38.7553 46.0724L38.2282 43.8599L36.6601 45.4646C36.5357 45.5896 36.3372 45.5897 36.2128 45.4616L36.1672 45.4157C36.0466 45.2877 36.0466 45.0815 36.17 44.9535L37.7343 43.3566L35.5935 42.8181C35.4245 42.7771 35.3162 42.6012 35.3608 42.4243L35.3741 42.3617C35.4169 42.1858 35.5907 42.0803 35.7588 42.1223L37.9499 42.6725L37.4123 40.419C37.3715 40.247 37.4788 40.0662 37.6479 40.0251L37.7087 40.0095C37.8796 39.9665 38.0525 40.074 38.0933 40.2479L38.6157 42.4565L40.1857 40.8558C40.3092 40.7297 40.5105 40.7297 40.6321 40.8587L40.6777 40.9046C40.8021 41.0317 40.7992 41.2369 40.6777 41.364L39.1105 42.9628L41.2532 43.5032Z" fill="#38C0E0"/>
<path fill-rule="evenodd" clip-rule="evenodd" d="M32 43.0311L29.2392 42.9886L31.5028 39L28.0083 39.0296L25.0435 44.9804H27.6249L24 54L32 43.0311Z" fill="#FFA800"/>
</svg>
