<svg width="55" height="55" viewBox="0 0 55 55" fill="none" xmlns="http://www.w3.org/2000/svg">
<path fill-rule="evenodd" clip-rule="evenodd" d="M39.1978 25.7371L38.3017 25.3312L38.229 24.3615C37.9941 21.2407 35.3179 18.7953 32.1349 18.7953C31.5734 18.7953 31.0049 18.8738 30.4444 19.0287L29.4617 19.2993L28.7678 18.564C27.2296 16.9344 25.0512 16 22.7902 16C18.9192 16 15.5541 18.7169 14.7924 22.4614L14.6142 23.3379L13.769 23.6693C10.9165 24.7822 9 27.5559 9 30.5719C9 34.6664 12.3851 38 16.5437 38H36.4837C40.0769 38 43 35.1174 43 31.5739C42.999 29.0757 41.5076 26.7843 39.1978 25.7371Z" fill="white"/>
<path fill-rule="evenodd" clip-rule="evenodd" d="M34.4161 14.2704C31.8542 10.8816 30.2504 4.99561 33.8593 1C32.4711 1.41785 31.1314 2.11261 29.9253 3.10927C27.8677 4.80668 26.6702 7.13487 26.2154 9.59801C26.0123 11.3114 25.9741 12.9438 26.0142 14.5153C27.7314 14.9761 29.3113 15.9348 30.5355 17.3123L30.5794 17.3623L30.6394 17.3443C31.3088 17.1484 31.9896 17.0484 32.6637 17.0484C36.4327 17.0484 39.5992 20.0894 39.9653 24C41.4203 23.7051 42.8362 23.0893 44.1205 22.0287C45.3295 21.034 46.2868 19.8344 47 18.5149C42.4462 21.25 37.2861 18.0651 34.4161 14.2704Z" fill="#82BEFF"/>
<path fill-rule="evenodd" clip-rule="evenodd" d="M30 44.0311L27.2392 43.9886L29.5028 40L26.0083 40.0296L23.0435 45.9804H25.6249L22 55L30 44.0311Z" fill="#FFA800"/>
<path fill-rule="evenodd" clip-rule="evenodd" d="M18.453 45.9169C17.1004 48.4569 14.0137 46.795 15.3121 44.3436C16.4143 42.2601 19.0624 41 19.0624 41C19.0624 41 19.5225 43.9 18.453 45.9169ZM35.2922 53.7308C33.9396 56.2708 30.8529 54.609 32.1514 52.1575C33.2535 50.074 35.9016 48.8139 35.9016 48.8139C35.9016 48.8139 36.3617 51.7139 35.2922 53.7308Z" fill="#009EFF"/>
<path fill-rule="evenodd" clip-rule="evenodd" d="M19.0502 52.1823C19.2226 52.2244 19.3326 52.4032 19.2888 52.5772L19.2722 52.6397C19.2303 52.8127 19.0531 52.9222 18.8808 52.8782L16.6364 52.3289L17.1846 54.5827C17.2294 54.7566 17.1203 54.9325 16.9441 54.9765L16.8818 54.9902C16.7094 55.0342 16.5322 54.9257 16.4903 54.7517L15.9499 52.5391L14.3424 54.1438C14.2148 54.2689 14.0113 54.2689 13.8837 54.1409L13.837 54.095C13.7133 53.9669 13.7133 53.7607 13.8399 53.6327L15.4436 52.0357L13.2489 51.4972C13.0756 51.4562 12.9646 51.2803 13.0103 51.1034L13.024 51.0408C13.0678 50.8649 13.246 50.7593 13.4183 50.8014L15.6646 51.3516L15.1135 49.0979C15.0707 48.9259 15.1807 48.7451 15.354 48.704L15.4164 48.6884C15.5916 48.6454 15.7688 48.7529 15.8107 48.9268L16.3462 51.1356L17.9558 49.5347C18.0824 49.4087 18.2888 49.4087 18.4134 49.5377L18.4601 49.5836C18.5877 49.7107 18.5848 49.9159 18.4601 50.043L16.8535 51.6419L19.0502 52.1823ZM38.7521 44.5034C38.9245 44.5455 39.0335 44.7243 38.9907 44.8983L38.9741 44.9608C38.9322 45.1338 38.755 45.2433 38.5827 45.1993L36.3383 44.65L36.8865 46.9038C36.9303 47.0777 36.8213 47.2537 36.645 47.2976L36.5827 47.3113C36.4104 47.3553 36.2331 47.2468 36.1913 47.0728L35.6509 44.8602L34.0433 46.4649C33.9157 46.59 33.7122 46.59 33.5847 46.462L33.5379 46.4161C33.4143 46.288 33.4143 46.0818 33.5409 45.9538L35.1445 44.3568L32.9498 43.8183C32.7765 43.7773 32.6655 43.6014 32.7113 43.4245L32.7249 43.3619C32.7687 43.186 32.9469 43.0804 33.1192 43.1225L35.3656 43.6727L34.8145 41.419C34.7726 41.247 34.8826 41.0662 35.0559 41.0251L35.1183 41.0095C35.2935 40.9665 35.4707 41.074 35.5126 41.2479L36.0481 43.4567L37.6577 41.8558C37.7843 41.7298 37.9907 41.7298 38.1153 41.8588L38.162 41.9047C38.2896 42.0318 38.2867 42.237 38.162 42.3641L36.5554 43.963L38.7521 44.5034Z" fill="#38C0E0"/>
</svg>
