<svg width="55" height="55" viewBox="0 0 55 55" fill="none" xmlns="http://www.w3.org/2000/svg">
<path fill-rule="evenodd" clip-rule="evenodd" d="M38.3096 24.7371L37.4399 24.3312L37.3694 23.3615C37.1413 20.2407 34.5438 17.7953 31.4545 17.7953C30.9095 17.7953 30.3577 17.8738 29.8137 18.0287L28.8599 18.2993L28.1864 17.564C26.6934 15.9344 24.5791 15 22.3846 15C18.6275 15 15.3613 17.7169 14.6221 21.4614L14.4491 22.3379L13.6287 22.6693C10.8602 23.7822 9 26.5559 9 29.5719C9 33.6664 12.2855 37 16.3218 37H35.6754C39.1629 37 42 34.1174 42 30.5739C41.999 28.0757 40.5515 25.7843 38.3096 24.7371Z" fill="white"/>
<path fill-rule="evenodd" clip-rule="evenodd" d="M33.4161 13.6934C30.8542 10.4519 29.2504 4.82189 32.8593 1C31.4711 1.39969 30.1314 2.06424 28.9253 3.01756C26.8677 4.64117 25.6702 6.86813 25.2154 9.22418C25.0123 10.8631 24.9741 12.4245 25.0142 13.9277C26.7314 14.3685 28.3113 15.2855 29.5355 16.6031L29.5794 16.6509L29.6394 16.6337C30.3088 16.4463 30.9896 16.3507 31.6637 16.3507C35.4327 16.3507 38.5992 19.2594 38.9653 23C40.4203 22.7179 41.8362 22.1289 43.1205 21.1144C44.3295 20.163 45.2868 19.0156 46 17.7534C41.4462 20.3695 36.2861 17.3231 33.4161 13.6934Z" fill="#82BEFF"/>
<path fill-rule="evenodd" clip-rule="evenodd" d="M16.32 45.0051C15.0195 47.5906 12.0517 45.899 13.3001 43.4035C14.3598 41.2826 16.9059 40 16.9059 40C16.9059 40 17.3483 42.952 16.32 45.0051ZM17.5999 52.7081C16.2994 55.2936 13.3316 53.602 14.58 51.1065C15.6398 48.9856 18.1858 47.703 18.1858 47.703C18.1858 47.703 18.6282 50.654 17.5999 52.7081ZM32.2571 52.7081C30.9565 55.2936 27.9887 53.602 29.2372 51.1065C30.2969 48.9856 32.843 47.703 32.843 47.703C32.843 47.703 33.2863 50.654 32.2571 52.7081ZM38.3195 45.0051C37.0189 47.5906 34.0511 45.899 35.2996 43.4035C36.3593 41.2826 38.9054 40 38.9054 40C38.9054 40 39.3477 42.952 38.3195 45.0051Z" fill="#009EFF"/>
<path fill-rule="evenodd" clip-rule="evenodd" d="M30 43.0311L27.2392 42.9886L29.5028 39L26.0083 39.0296L23.0435 44.9804H25.6249L22 54L30 43.0311Z" fill="#FFA800"/>
</svg>
