<svg width="55" height="55" viewBox="0 0 55 55" fill="none" xmlns="http://www.w3.org/2000/svg">
<path fill-rule="evenodd" clip-rule="evenodd" d="M39.3096 24.2945L38.4399 23.9071L38.3694 22.9815C38.1413 20.0025 35.5438 17.6683 32.4545 17.6683C31.9095 17.6683 31.3577 17.7432 30.8137 17.891L29.8599 18.1493L29.1864 17.4474C27.6934 15.8919 25.5791 15 23.3846 15C19.6275 15 16.3613 17.5934 15.6221 21.1677L15.4491 22.0044L14.6287 22.3207C11.8602 23.383 10 26.0307 10 28.9095C10 32.8179 13.2855 36 17.3218 36H36.6754C40.1629 36 43 33.2484 43 29.866C42.999 27.4813 41.5515 25.2941 39.3096 24.2945Z" fill="white"/>
<path fill-rule="evenodd" clip-rule="evenodd" d="M34.4161 13.6934C31.8542 10.4519 30.2504 4.82189 33.8593 1C32.4711 1.39969 31.1314 2.06424 29.9253 3.01756C27.8677 4.64117 26.6702 6.86813 26.2154 9.22418C26.0123 10.8631 25.9741 12.4245 26.0142 13.9277C27.7314 14.3685 29.3113 15.2855 30.5355 16.6031L30.5794 16.6509L30.6394 16.6337C31.3088 16.4463 31.9896 16.3507 32.6637 16.3507C36.4327 16.3507 39.5992 19.2594 39.9653 23C41.4203 22.7179 42.8362 22.1289 44.1205 21.1144C45.3295 20.163 46.2868 19.0156 47 17.7534C42.4462 20.3695 37.2861 17.3231 34.4161 13.6934Z" fill="#82BEFF"/>
<path fill-rule="evenodd" clip-rule="evenodd" d="M30 42.7624L27.2392 42.7227L29.5028 39L26.0083 39.0277L23.0435 44.5817H25.6249L22 53L30 42.7624Z" fill="#FFA800"/>
<path fill-rule="evenodd" clip-rule="evenodd" d="M18.896 51.7081C17.6128 54.2936 14.6847 52.602 15.9165 50.1065C16.962 47.9856 19.474 46.703 19.474 46.703C19.474 46.703 19.9105 49.654 18.896 51.7081ZM31.6772 51.7081C30.394 54.2936 27.4659 52.602 28.6977 50.1065C29.7432 47.9856 32.2552 46.703 32.2552 46.703C32.2552 46.703 32.6917 49.654 31.6772 51.7081ZM38.0018 44.0051C36.7186 46.5906 33.7905 44.899 35.0223 42.4035C36.0678 40.2826 38.5798 39 38.5798 39C38.5798 39 39.0163 41.952 38.0018 44.0051ZM39.3286 51.7081C38.0454 54.2936 35.1173 52.602 36.3491 50.1065C37.3946 47.9856 39.9066 46.703 39.9066 46.703C39.9066 46.703 40.3431 49.654 39.3286 51.7081ZM11.2756 51.7081C9.99244 54.2936 7.06435 52.602 8.29611 50.1065C9.34165 47.9856 11.8537 46.703 11.8537 46.703C11.8537 46.703 12.2901 49.654 11.2756 51.7081ZM18.2093 44.0051C16.9262 46.5906 13.9981 44.899 15.2298 42.4035C16.2754 40.2826 18.7874 39 18.7874 39C18.7874 39 19.2238 41.952 18.2093 44.0051Z" fill="#009EFF"/>
</svg>
