<svg width="55" height="55" viewBox="0 0 55 55" fill="none" xmlns="http://www.w3.org/2000/svg">
<path fill-rule="evenodd" clip-rule="evenodd" d="M38.3096 24.7371L37.4399 24.3312L37.3694 23.3615C37.1413 20.2407 34.5438 17.7953 31.4545 17.7953C30.9095 17.7953 30.3577 17.8738 29.8137 18.0287L28.8599 18.2993L28.1864 17.564C26.6934 15.9344 24.5791 15 22.3846 15C18.6275 15 15.3613 17.7169 14.6221 21.4614L14.4491 22.3379L13.6287 22.6693C10.8602 23.7822 9 26.5559 9 29.5719C9 33.6664 12.2855 37 16.3218 37H35.6754C39.1629 37 42 34.1174 42 30.5739C41.999 28.0757 40.5515 25.7843 38.3096 24.7371Z" fill="white"/>
<path fill-rule="evenodd" clip-rule="evenodd" d="M33.4161 13.6934C30.8542 10.4519 29.2504 4.82189 32.8593 1C31.4711 1.39969 30.1314 2.06424 28.9253 3.01756C26.8677 4.64117 25.6702 6.86813 25.2154 9.22418C25.0123 10.8631 24.9741 12.4245 25.0142 13.9277C26.7314 14.3685 28.3113 15.2855 29.5355 16.6031L29.5794 16.6509L29.6394 16.6337C30.3088 16.4463 30.9896 16.3507 31.6637 16.3507C35.4327 16.3507 38.5992 19.2594 38.9653 23C40.4203 22.7179 41.8362 22.1289 43.1205 21.1144C44.3295 20.163 45.2868 19.0156 46 17.7534C41.4462 20.3695 36.2861 17.3231 33.4161 13.6934Z" fill="#82BEFF"/>
<path fill-rule="evenodd" clip-rule="evenodd" d="M37.7599 43.3255C37.927 43.3654 38.0337 43.5351 37.9903 43.7002L37.9742 43.7596C37.9336 43.9238 37.7618 44.0277 37.5947 43.986L35.4187 43.4646L35.9502 45.6039C35.9937 45.769 35.8879 45.936 35.7171 45.9777L35.6566 45.9907C35.4896 46.0324 35.3177 45.9295 35.2771 45.7643L34.7532 43.6641L33.1946 45.1873C33.0709 45.3061 32.8736 45.3061 32.75 45.1845L32.7047 45.1409C32.5848 45.0194 32.5848 44.8237 32.7075 44.7022L34.2623 43.1863L32.1345 42.6752C31.9664 42.6362 31.8588 42.4692 31.9032 42.3013L31.9164 42.2419C31.9589 42.0749 32.1316 41.9748 32.2987 42.0146L34.4766 42.5369L33.9423 40.3977C33.9017 40.2344 34.0084 40.0628 34.1764 40.0238L34.2368 40.009C34.4067 39.9682 34.5786 40.0702 34.6192 40.2354L35.1384 42.3319L36.6989 40.8124C36.8216 40.6927 37.0217 40.6927 37.1425 40.8152L37.1879 40.8588C37.3115 40.9794 37.3087 41.1742 37.1879 41.2948L35.6302 42.8125L37.7599 43.3255ZM19.8668 43.3255C20.0339 43.3654 20.1396 43.5351 20.0981 43.7002L20.082 43.7596C20.0414 43.9238 19.8696 44.0277 19.7025 43.986L17.5265 43.4646L18.058 45.6039C18.1005 45.769 17.9948 45.936 17.8239 45.9777L17.7635 45.9907C17.5964 46.0324 17.4246 45.9295 17.384 45.7643L16.86 43.6641L15.3015 45.1873C15.1778 45.3061 14.9805 45.3061 14.8568 45.1845L14.8115 45.1409C14.6916 45.0194 14.6916 44.8237 14.8143 44.7022L16.3692 43.1863L14.2413 42.6752C14.0733 42.6362 13.9657 42.4692 14.01 42.3013L14.0232 42.2419C14.0657 42.0749 14.2385 41.9748 14.4056 42.0146L16.5834 42.5369L16.0491 40.3977C16.0085 40.2344 16.1152 40.0628 16.2832 40.0238L16.3437 40.009C16.5136 39.9682 16.6854 40.0702 16.726 40.2354L17.2452 42.3319L18.8057 40.8124C18.9284 40.6927 19.1286 40.6927 19.2494 40.8152L19.2947 40.8588C19.4184 40.9794 19.4155 41.1742 19.2947 41.2948L17.7371 42.8125L19.8668 43.3255Z" fill="#38C0E0"/>
<path fill-rule="evenodd" clip-rule="evenodd" d="M29 43.0311L26.2392 42.9886L28.5028 39L25.0083 39.0296L22.0435 44.9804H24.6249L21 54L29 43.0311Z" fill="#FFA800"/>
</svg>
