<svg width="55" height="55" viewBox="0 0 55 55" fill="none" xmlns="http://www.w3.org/2000/svg">
<path fill-rule="evenodd" clip-rule="evenodd" d="M39.3096 24.7371L38.4399 24.3312L38.3694 23.3615C38.1413 20.2407 35.5438 17.7953 32.4545 17.7953C31.9095 17.7953 31.3577 17.8738 30.8137 18.0287L29.8599 18.2993L29.1864 17.564C27.6934 15.9344 25.5791 15 23.3846 15C19.6275 15 16.3613 17.7169 15.6221 21.4614L15.4491 22.3379L14.6287 22.6693C11.8602 23.7822 10 26.5559 10 29.5719C10 33.6664 13.2855 37 17.3218 37H36.6754C40.1629 37 43 34.1174 43 30.5739C42.999 28.0757 41.5515 25.7843 39.3096 24.7371Z" fill="white"/>
<path fill-rule="evenodd" clip-rule="evenodd" d="M34.4161 14.2704C31.8542 10.8816 30.2504 4.99561 33.8593 1C32.4711 1.41785 31.1314 2.11261 29.9253 3.10927C27.8677 4.80668 26.6702 7.13487 26.2154 9.59801C26.0123 11.3114 25.9741 12.9438 26.0142 14.5153C27.7314 14.9761 29.3113 15.9348 30.5355 17.3123L30.5794 17.3623L30.6394 17.3443C31.3088 17.1484 31.9896 17.0484 32.6637 17.0484C36.4327 17.0484 39.5992 20.0894 39.9653 24C41.4203 23.7051 42.8362 23.0893 44.1205 22.0287C45.3295 21.034 46.2868 19.8344 47 18.5149C42.4462 21.25 37.2861 18.0651 34.4161 14.2704Z" fill="#82BEFF"/>
<path fill-rule="evenodd" clip-rule="evenodd" d="M18.28 45.0051C16.9774 47.5906 14.0051 45.899 15.2554 43.4035C16.3168 41.2826 18.8667 40 18.8667 40C18.8667 40 19.3108 42.952 18.28 45.0051ZM31.3636 52.7081C30.061 55.2936 27.0887 53.602 28.3391 51.1065C29.4004 48.9856 31.9504 47.703 31.9504 47.703C31.9504 47.703 32.3934 50.654 31.3636 52.7081ZM21.3449 52.7081C20.0423 55.2936 17.0699 53.602 18.3203 51.1065C19.3817 48.9856 21.9316 47.703 21.9316 47.703C21.9316 47.703 22.3747 50.654 21.3449 52.7081ZM11.3251 52.7081C10.0226 55.2936 7.05021 53.602 8.30058 51.1065C9.36193 48.9856 11.9119 47.703 11.9119 47.703C11.9119 47.703 12.3559 50.654 11.3251 52.7081ZM38.3184 45.0051C37.0159 47.5906 34.0435 45.899 35.2939 43.4035C36.3553 41.2826 38.9052 40 38.9052 40C38.9052 40 39.3483 42.952 38.3184 45.0051ZM28.2987 45.0051C26.9962 47.5906 24.0238 45.899 25.2742 43.4035C26.3355 41.2826 28.8855 40 28.8855 40C28.8855 40 29.3285 42.952 28.2987 45.0051Z" fill="#009EFF"/>
</svg>
