<svg width="55" height="55" viewBox="0 0 55 55" fill="none" xmlns="http://www.w3.org/2000/svg">
<path fill-rule="evenodd" clip-rule="evenodd" d="M38.1978 25.7371L37.3017 25.3312L37.229 24.3615C36.9941 21.2407 34.3179 18.7953 31.1349 18.7953C30.5734 18.7953 30.0049 18.8738 29.4444 19.0287L28.4617 19.2993L27.7678 18.564C26.2296 16.9344 24.0512 16 21.7902 16C17.9192 16 14.5541 18.7169 13.7924 22.4614L13.6142 23.3379L12.769 23.6693C9.91654 24.7822 8 27.5559 8 30.5719C8 34.6664 11.3851 38 15.5437 38H35.4837C39.0769 38 42 35.1174 42 31.5739C41.999 29.0757 40.5076 26.7843 38.1978 25.7371Z" fill="white"/>
<path fill-rule="evenodd" clip-rule="evenodd" d="M33.8169 14.2704C31.1329 10.8816 29.4528 4.99561 33.2336 1C31.7792 1.41785 30.3758 2.11261 29.1122 3.10927C26.9566 4.80668 25.7021 7.13487 25.2256 9.59801C25.0128 11.3114 24.9729 12.9438 25.0148 14.5153C26.8138 14.9761 28.4689 15.9348 29.7515 17.3123L29.7974 17.3623L29.8604 17.3443C30.5616 17.1484 31.2748 17.0484 31.981 17.0484C35.9295 17.0484 39.2468 20.0894 39.6303 24C41.1546 23.7051 42.6379 23.0893 43.9834 22.0287C45.25 21.034 46.2528 19.8344 47 18.5149C42.2294 21.25 36.8235 18.0651 33.8169 14.2704Z" fill="#82BEFF"/>
<path fill-rule="evenodd" clip-rule="evenodd" d="M31 44.0311L28.5843 43.9886L30.5649 40L27.5073 40.0296L24.9131 45.9804H27.1718L24 55L31 44.0311Z" fill="#FFA800"/>
<path fill-rule="evenodd" clip-rule="evenodd" d="M35.6765 52.3829C35.8505 52.4219 35.9616 52.588 35.9164 52.7504L35.8997 52.8085C35.8574 52.9691 35.6785 53.0707 35.5045 53.0299L33.2387 52.5199L33.7921 54.6125C33.8374 54.774 33.7273 54.9374 33.5493 54.9782L33.4864 54.9909C33.3124 55.0317 33.1335 54.931 33.0913 54.7695L32.5457 52.715L30.9228 54.205C30.794 54.3212 30.5886 54.3212 30.4598 54.2023L30.4126 54.1597C30.2878 54.0408 30.2878 53.8493 30.4156 53.7304L32.0346 52.2477L29.8189 51.7476C29.6439 51.7095 29.5319 51.5462 29.5781 51.3819L29.5918 51.3239C29.6361 51.1605 29.8159 51.0625 29.9899 51.1015L32.2577 51.6115L31.7013 49.5189C31.659 49.3592 31.7701 49.1913 31.9451 49.1532L32.008 49.1387C32.1849 49.0988 32.3639 49.1986 32.4061 49.3601L32.9468 51.411L34.5717 49.9246C34.6994 49.8075 34.9078 49.8075 35.0337 49.9273L35.0808 49.9699C35.2096 50.0879 35.2067 50.2785 35.0808 50.3964L33.4589 51.881L35.6765 52.3829ZM40.7498 45.253C40.9237 45.292 41.0338 45.458 40.9906 45.6196L40.9739 45.6777C40.9316 45.8383 40.7527 45.9399 40.5787 45.8991L38.3129 45.3891L38.8663 47.4817C38.9106 47.6432 38.8005 47.8066 38.6226 47.8474L38.5596 47.8601C38.3857 47.9009 38.2068 47.8002 38.1645 47.6387L37.6189 45.5842L35.996 47.0742C35.8672 47.1904 35.6618 47.1904 35.533 47.0715L35.4858 47.0289C35.361 46.91 35.361 46.7185 35.4888 46.5996L37.1078 45.1168L34.8921 44.6168C34.7171 44.5787 34.6051 44.4154 34.6513 44.2511L34.665 44.1931C34.7093 44.0297 34.8892 43.9317 35.0631 43.9707L37.3309 44.4816L36.7745 42.389C36.7323 42.2293 36.8433 42.0614 37.0183 42.0233L37.0812 42.0088C37.2582 41.9689 37.4371 42.0687 37.4793 42.2302L38.02 44.2811L39.6449 42.7947C39.7727 42.6776 39.9811 42.6776 40.1069 42.7974L40.1541 42.84C40.2828 42.958 40.2799 43.1486 40.1541 43.2665L38.5321 44.7511L40.7498 45.253ZM20.1079 52.3829C20.2819 52.4219 20.392 52.588 20.3488 52.7495L20.332 52.8076C20.2898 52.9682 20.1109 53.0698 19.9369 53.029L17.6711 52.519L18.2245 54.6116C18.2697 54.7731 18.1596 54.9365 17.9817 54.9773L17.9188 54.99C17.7448 55.0308 17.5659 54.9301 17.5236 54.7686L16.9781 52.7141L15.3552 54.2041C15.2264 54.3203 15.0209 54.3203 14.8922 54.2014L14.845 54.1588C14.7202 54.0399 14.7202 53.8484 14.8479 53.7295L16.4669 52.2467L14.2513 51.7467C14.0763 51.7086 13.9642 51.5453 14.0104 51.381L14.0242 51.323C14.0684 51.1596 14.2483 51.0616 14.4223 51.1006L16.6901 51.6115L16.1337 49.5189C16.0904 49.3592 16.2015 49.1913 16.3765 49.1532L16.4394 49.1387C16.6163 49.0988 16.7952 49.1986 16.8375 49.3601L17.3782 51.411L19.003 49.9246C19.1308 49.8075 19.3392 49.8075 19.4651 49.9273L19.5122 49.9699C19.641 50.0879 19.6381 50.2785 19.5122 50.3964L17.8903 51.881L20.1079 52.3829ZM20.2485 45.253C20.4215 45.292 20.5326 45.458 20.4893 45.6196L20.4726 45.6777C20.4303 45.8383 20.2514 45.9399 20.0775 45.8991L17.8117 45.3891L18.3651 47.4817C18.4103 47.6432 18.3002 47.8066 18.1223 47.8474L18.0594 47.8601C17.8854 47.9009 17.7065 47.8002 17.6642 47.6387L17.1187 45.5842L15.4957 47.0742C15.367 47.1904 15.1615 47.1904 15.0327 47.0715L14.9856 47.0289C14.8607 46.91 14.8607 46.7185 14.9885 46.5996L16.6075 45.1168L14.3918 44.6168C14.2169 44.5787 14.1048 44.4154 14.151 44.2511L14.1648 44.1931C14.209 44.0297 14.3889 43.9317 14.5629 43.9707L16.8306 44.4816L16.2743 42.389C16.231 42.2293 16.3421 42.0614 16.5171 42.0233L16.58 42.0088C16.7569 41.9689 16.9358 42.0687 16.9781 42.2302L17.5187 44.2811L19.1436 42.7947C19.2714 42.6776 19.4798 42.6776 19.6056 42.7974L19.6528 42.84C19.7816 42.958 19.7786 43.1486 19.6528 43.2665L18.0309 44.7511L20.2485 45.253Z" fill="#38C0E0"/>
</svg>
