<svg width="55" height="55" viewBox="0 0 55 55" fill="none" xmlns="http://www.w3.org/2000/svg">
<path fill-rule="evenodd" clip-rule="evenodd" d="M38.3096 24.2945L37.4399 23.9071L37.3694 22.9815C37.1413 20.0025 34.5438 17.6683 31.4545 17.6683C30.9095 17.6683 30.3577 17.7432 29.8137 17.891L28.8599 18.1493L28.1864 17.4474C26.6934 15.8919 24.5791 15 22.3846 15C18.6275 15 15.3613 17.5934 14.6221 21.1677L14.4491 22.0044L13.6287 22.3207C10.8602 23.383 9 26.0307 9 28.9095C9 32.8179 12.2855 36 16.3218 36H35.6754C39.1629 36 42 33.2484 42 29.866C41.999 27.4813 40.5515 25.2941 38.3096 24.2945Z" fill="white"/>
<path fill-rule="evenodd" clip-rule="evenodd" d="M33.4161 13.6934C30.8542 10.4519 29.2504 4.82189 32.8593 1C31.4711 1.39969 30.1314 2.06424 28.9253 3.01756C26.8677 4.64117 25.6702 6.86813 25.2154 9.22418C25.0123 10.8631 24.9741 12.4245 25.0142 13.9277C26.7314 14.3685 28.3113 15.2855 29.5355 16.6031L29.5794 16.6509L29.6394 16.6337C30.3088 16.4463 30.9896 16.3507 31.6637 16.3507C35.4327 16.3507 38.5992 19.2594 38.9653 23C40.4203 22.7179 41.8362 22.1289 43.1205 21.1144C44.3295 20.163 45.2868 19.0156 46 17.7534C41.4462 20.3695 36.2861 17.3231 33.4161 13.6934Z" fill="#82BEFF"/>
<path fill-rule="evenodd" clip-rule="evenodd" d="M21.7293 42.5034C21.9011 42.5455 22.0114 42.7243 21.9685 42.8983L21.9519 42.9608C21.9099 43.1338 21.7322 43.2433 21.5594 43.1993L19.309 42.65L19.8586 44.9038C19.9035 45.0777 19.7942 45.2537 19.6175 45.2976L19.555 45.3113C19.3822 45.3553 19.2045 45.2468 19.1625 45.0728L18.6206 42.8602L17.0087 44.4649C16.8808 44.59 16.6768 44.59 16.5489 44.462L16.502 44.4161C16.378 44.288 16.378 44.0818 16.5049 43.9538L18.1129 42.3568L15.9123 41.8183C15.7385 41.7773 15.6272 41.6014 15.6731 41.4245L15.6868 41.3619C15.7307 41.186 15.9094 41.0804 16.0822 41.1225L18.3346 41.6727L17.782 39.419C17.739 39.247 17.8493 39.0662 18.0231 39.0251L18.0856 39.0095C18.2613 38.9665 18.439 39.074 18.481 39.2479L19.018 41.4567L20.6319 39.8558C20.7588 39.7298 20.9658 39.7298 21.0908 39.8588L21.1376 39.9047C21.2655 40.0318 21.2626 40.237 21.1376 40.3641L19.5267 41.963L21.7293 42.5034ZM16.0675 50.1823C16.2403 50.2244 16.3497 50.4032 16.3067 50.5772L16.2901 50.6397C16.2482 50.8127 16.0705 50.9222 15.8976 50.8782L13.6472 50.3289L14.1969 52.5827C14.2408 52.7566 14.1315 52.9325 13.9547 52.9765L13.8923 52.9902C13.7194 53.0342 13.5418 52.9257 13.4998 52.7517L12.9579 50.5391L11.346 52.1438C11.2181 52.2689 11.014 52.2689 10.8861 52.1409L10.8393 52.095C10.7153 51.9669 10.7153 51.7607 10.8422 51.6327L12.4502 50.0357L10.2496 49.4972C10.0758 49.4562 9.96448 49.2803 10.0104 49.1034L10.024 49.0408C10.068 48.8649 10.2466 48.7593 10.4194 48.8014L12.6718 49.3516L12.1192 47.0979C12.0773 46.9259 12.1876 46.7451 12.3614 46.704L12.4239 46.6884C12.5996 46.6454 12.7773 46.7529 12.8193 46.9268L13.3563 49.1356L14.9701 47.5347C15.0971 47.4087 15.304 47.4087 15.429 47.5377L15.4759 47.5836C15.6038 47.7107 15.6008 47.9159 15.4759 48.043L13.8649 49.6419L16.0675 50.1823ZM30.9654 50.1823C31.1382 50.2244 31.2475 50.4032 31.2036 50.5772L31.187 50.6397C31.145 50.8127 30.9673 50.9222 30.7945 50.8782L28.5441 50.3289L29.0938 52.5827C29.1387 52.7566 29.0293 52.9325 28.8526 52.9765L28.7901 52.9902C28.6173 53.0342 28.4396 52.9257 28.3976 52.7517L27.8558 50.5391L26.2438 52.1438C26.1159 52.2689 25.9119 52.2689 25.784 52.1409L25.7371 52.095C25.6131 51.9669 25.6131 51.7607 25.7401 51.6327L27.3481 50.0357L25.1474 49.4972C24.9736 49.4562 24.8623 49.2803 24.9082 49.1034L24.9219 49.0408C24.9658 48.8649 25.1445 48.7593 25.3173 48.8014L27.5697 49.3516L27.0171 47.0979C26.9751 46.9259 27.0854 46.7451 27.2592 46.704L27.3217 46.6884C27.4975 46.6454 27.6751 46.7529 27.7171 46.9268L28.2541 49.1356L29.868 47.5347C29.9949 47.4087 30.2019 47.4087 30.3269 47.5377L30.3737 47.5836C30.5016 47.7107 30.4987 47.9159 30.3737 48.043L28.7628 49.6419L30.9654 50.1823ZM36.7521 42.5034C36.9239 42.5455 37.0343 42.7243 36.9903 42.8983L36.9737 42.9608C36.9317 43.1338 36.7541 43.2433 36.5812 43.1993L34.3308 42.65L34.8805 44.9038C34.9254 45.0777 34.816 45.2537 34.6393 45.2976L34.5768 45.3113C34.404 45.3553 34.2263 45.2468 34.1844 45.0728L33.6425 42.8602L32.0306 44.4649C31.9027 44.59 31.6986 44.59 31.5707 44.462L31.5238 44.4161C31.3998 44.288 31.3999 44.0818 31.5268 43.9538L33.1348 42.3568L30.9341 41.8183C30.7604 41.7773 30.649 41.6014 30.6949 41.4245L30.7086 41.3619C30.7525 41.186 30.9312 41.0804 31.104 41.1225L33.3564 41.6727L32.8038 39.419C32.7618 39.247 32.8722 39.0662 33.0459 39.0251L33.1084 39.0095C33.2842 38.9665 33.4619 39.074 33.5038 39.2479L34.0408 41.4567L35.6547 39.8558C35.7816 39.7298 35.9886 39.7298 36.1136 39.8588L36.1604 39.9047C36.2883 40.0318 36.2854 40.237 36.1604 40.3641L34.5495 41.963L36.7521 42.5034Z" fill="#38C0E0"/>
</svg>
