<svg width="55" height="55" viewBox="0 0 55 55" fill="none" xmlns="http://www.w3.org/2000/svg">
<path fill-rule="evenodd" clip-rule="evenodd" d="M39.3096 24.2945L38.4399 23.9071L38.3694 22.9815C38.1413 20.0025 35.5438 17.6683 32.4545 17.6683C31.9095 17.6683 31.3577 17.7432 30.8137 17.891L29.8599 18.1493L29.1864 17.4474C27.6934 15.8919 25.5791 15 23.3846 15C19.6275 15 16.3613 17.5934 15.6221 21.1677L15.4491 22.0044L14.6287 22.3207C11.8602 23.383 10 26.0307 10 28.9095C10 32.8179 13.2855 36 17.3218 36H36.6754C40.1629 36 43 33.2484 43 29.866C42.999 27.4813 41.5515 25.2941 39.3096 24.2945Z" fill="white"/>
<path fill-rule="evenodd" clip-rule="evenodd" d="M34.4161 13.6934C31.8542 10.4519 30.2504 4.82189 33.8593 1C32.4711 1.39969 31.1314 2.06424 29.9253 3.01756C27.8677 4.64117 26.6702 6.86813 26.2154 9.22418C26.0123 10.8631 25.9741 12.4245 26.0142 13.9277C27.7314 14.3685 29.3113 15.2855 30.5355 16.6031L30.5794 16.6509L30.6394 16.6337C31.3088 16.4463 31.9896 16.3507 32.6637 16.3507C36.4327 16.3507 39.5992 19.2594 39.9653 23C41.4203 22.7179 42.8362 22.1289 44.1205 21.1144C45.3295 20.163 46.2868 19.0156 47 17.7534C42.4462 20.3695 37.2861 17.3231 34.4161 13.6934Z" fill="#82BEFF"/>
<path fill-rule="evenodd" clip-rule="evenodd" d="M20.2753 42.5034C20.4455 42.5455 20.5542 42.7243 20.5109 42.8983L20.4946 42.9608C20.4532 43.1338 20.2782 43.2433 20.1079 43.1993L17.8909 42.65L18.4324 44.9038C18.4766 45.0777 18.3689 45.2537 18.1948 45.2976L18.1333 45.3113C17.963 45.3553 17.788 45.2468 17.7466 45.0728L17.2128 42.8602L15.6248 44.4649C15.4988 44.59 15.2978 44.59 15.1718 44.462L15.1256 44.4161C15.0034 44.288 15.0034 44.0818 15.1285 43.9538L16.7126 42.3568L14.5446 41.8183C14.3734 41.7773 14.2638 41.6014 14.309 41.4245L14.3224 41.3619C14.3657 41.186 14.5417 41.0804 14.712 41.1225L16.931 41.6727L16.3866 39.419C16.3442 39.247 16.4529 39.0662 16.6241 39.0251L16.6857 39.0095C16.8588 38.9665 17.0339 39.074 17.0752 39.2479L17.6042 41.4567L19.1942 39.8558C19.3192 39.7298 19.5231 39.7298 19.6462 39.8588L19.6924 39.9047C19.8184 40.0318 19.8155 40.237 19.6924 40.3641L18.1054 41.963L20.2753 42.5034ZM35.457 50.1823C35.6272 50.2244 35.7359 50.4032 35.6916 50.5772L35.6753 50.6397C35.6339 50.8127 35.4589 50.9222 35.2886 50.8782L33.0716 50.3289L33.6131 52.5827C33.6574 52.7566 33.5496 52.9325 33.3755 52.9765L33.314 52.9902C33.1437 53.0342 32.9687 52.9257 32.9273 52.7517L32.3935 50.5391L30.8055 52.1438C30.6795 52.2689 30.4785 52.2689 30.3525 52.1409L30.3063 52.095C30.1841 51.9669 30.1841 51.7607 30.3092 51.6327L31.8933 50.0357L29.7253 49.4972C29.5541 49.4562 29.4445 49.2803 29.4897 49.1034L29.5032 49.0408C29.5464 48.8649 29.7225 48.7593 29.8927 48.8014L32.1117 49.3516L31.5673 47.0979C31.5259 46.9259 31.6346 46.7451 31.8058 46.704L31.8674 46.6884C32.0405 46.6454 32.2156 46.7529 32.2569 46.9268L32.7859 49.1356L34.3758 47.5347C34.5009 47.4087 34.7048 47.4087 34.8279 47.5377L34.8741 47.5836C35.0001 47.7107 34.9972 47.9159 34.8741 48.043L33.287 49.6419L35.457 50.1823ZM25.8116 50.1823C25.9819 50.2244 26.0906 50.4032 26.0463 50.5772L26.03 50.6397C25.9886 50.8127 25.8135 50.9222 25.6433 50.8782L23.4263 50.3289L23.9678 52.5827C24.012 52.7566 23.9043 52.9325 23.7302 52.9765L23.6686 52.9902C23.4984 53.0342 23.3233 52.9257 23.282 52.7517L22.7482 50.5391L21.1602 52.1438C21.0342 52.2689 20.8331 52.2689 20.7071 52.1409L20.661 52.095C20.5388 51.9669 20.5388 51.7607 20.6639 51.6327L22.248 50.0357L20.08 49.4972C19.9088 49.4562 19.7992 49.2803 19.8444 49.1034L19.8578 49.0408C19.9011 48.8649 20.0771 48.7593 20.2474 48.8014L22.4663 49.3516L21.9219 47.0979C21.8806 46.9259 21.9893 46.7451 22.1605 46.704L22.222 46.6884C22.3952 46.6454 22.5702 46.7529 22.6116 46.9268L23.1406 49.1356L24.7305 47.5347C24.8556 47.4087 25.0595 47.4087 25.1826 47.5377L25.2288 47.5836C25.3548 47.7107 25.3519 47.9159 25.2288 48.043L23.6417 49.6419L25.8116 50.1823ZM14.9775 50.1823C15.1477 50.2244 15.2554 50.4032 15.2131 50.5772L15.1968 50.6397C15.1554 50.8127 14.9803 50.9222 14.8101 50.8782L12.5931 50.3289L13.1346 52.5827C13.1779 52.7566 13.0701 52.9325 12.896 52.9765L12.8345 52.9902C12.6642 53.0342 12.4892 52.9257 12.4478 52.7517L11.914 50.5391L10.326 52.1438C10.2 52.2689 9.99898 52.2689 9.87298 52.1409L9.82681 52.095C9.70466 51.9669 9.70466 51.7607 9.8297 51.6327L11.4138 50.0357L9.24586 49.4972C9.07465 49.4562 8.965 49.2803 9.01021 49.1034L9.02367 49.0408C9.06696 48.8649 9.24297 48.7593 9.41322 48.8014L11.6322 49.3516L11.0878 47.0979C11.0464 46.9259 11.1551 46.7451 11.3263 46.704L11.3879 46.6884C11.561 46.6454 11.7361 46.7529 11.7774 46.9268L12.3064 49.1356L13.8964 47.5347C14.0214 47.4087 14.2253 47.4087 14.3484 47.5377L14.3946 47.5836C14.5206 47.7107 14.5177 47.9159 14.3946 48.043L12.8076 49.6419L14.9775 50.1823ZM40.7557 42.5034C40.926 42.5455 41.0337 42.7243 40.9904 42.8983L40.9741 42.9608C40.9327 43.1338 40.7577 43.2433 40.5874 43.1993L38.3704 42.65L38.9119 44.9038C38.9561 45.0777 38.8484 45.2537 38.6743 45.2976L38.6127 45.3113C38.4425 45.3553 38.2674 45.2468 38.2261 45.0728L37.6923 42.8602L36.1043 44.4649C35.9783 44.59 35.7772 44.59 35.6512 44.462L35.6051 44.4161C35.4829 44.288 35.4829 44.0818 35.608 43.9538L37.1921 42.3568L35.0241 41.8183C34.8529 41.7773 34.7433 41.6014 34.7885 41.4245L34.8019 41.3619C34.8452 41.186 35.0212 41.0804 35.1915 41.1225L37.4104 41.6727L36.866 39.419C36.8247 39.247 36.9334 39.0662 37.1046 39.0251L37.1661 39.0095C37.3393 38.9665 37.5143 39.074 37.5557 39.2479L38.0847 41.4567L39.6746 39.8558C39.7997 39.7298 40.0036 39.7298 40.1267 39.8588L40.1729 39.9047C40.2989 40.0318 40.296 40.237 40.1729 40.3641L38.5858 41.963L40.7557 42.5034ZM30.516 42.5034C30.6853 42.5455 30.794 42.7243 30.7507 42.8983L30.7343 42.9608C30.693 43.1338 30.5179 43.2433 30.3477 43.1993L28.1306 42.65L28.6721 44.9038C28.7164 45.0777 28.6087 45.2537 28.4346 45.2976L28.373 45.3113C28.2028 45.3553 28.0277 45.2468 27.9863 45.0728L27.4525 42.8602L25.8645 44.4649C25.7385 44.59 25.5375 44.59 25.4115 44.462L25.3653 44.4161C25.2432 44.288 25.2432 44.0818 25.3682 43.9538L26.9524 42.3568L24.7844 41.8183C24.6132 41.7773 24.5035 41.6014 24.5487 41.4245L24.5622 41.3619C24.6055 41.186 24.7815 41.0804 24.9517 41.1225L27.1707 41.6727L26.6263 39.419C26.5849 39.247 26.6936 39.0662 26.8648 39.0251L26.9264 39.0095C27.0995 38.9665 27.2746 39.074 27.3159 39.2479L27.845 41.4567L29.4349 39.8558C29.5599 39.7298 29.7638 39.7298 29.8869 39.8588L29.9331 39.9047C30.0591 40.0318 30.0562 40.237 29.9331 40.3641L28.3461 41.963L30.516 42.5034Z" fill="#38C0E0"/>
</svg>
