<svg width="55" height="55" viewBox="0 0 55 55" fill="none" xmlns="http://www.w3.org/2000/svg">
<path fill-rule="evenodd" clip-rule="evenodd" d="M38.3096 25.7371L37.4399 25.3312L37.3694 24.3615C37.1413 21.2407 34.5438 18.7953 31.4545 18.7953C30.9095 18.7953 30.3577 18.8738 29.8137 19.0287L28.8599 19.2993L28.1864 18.564C26.6934 16.9344 24.5791 16 22.3846 16C18.6275 16 15.3613 18.7169 14.6221 22.4614L14.4491 23.3379L13.6287 23.6693C10.8602 24.7822 9 27.5559 9 30.5719C9 34.6664 12.2855 38 16.3218 38H35.6754C39.1629 38 42 35.1174 42 31.5739C41.999 29.0757 40.5515 26.7843 38.3096 25.7371Z" fill="white"/>
<path fill-rule="evenodd" clip-rule="evenodd" d="M33.4161 14.2704C30.8542 10.8816 29.2504 4.99561 32.8593 1C31.4711 1.41785 30.1314 2.11261 28.9253 3.10927C26.8677 4.80668 25.6702 7.13487 25.2154 9.59801C25.0123 11.3114 24.9741 12.9438 25.0142 14.5153C26.7314 14.9761 28.3113 15.9348 29.5355 17.3123L29.5794 17.3623L29.6394 17.3443C30.3088 17.1484 30.9896 17.0484 31.6637 17.0484C35.4327 17.0484 38.5992 20.0894 38.9653 24C40.4203 23.7051 41.8362 23.0893 43.1205 22.0287C44.3295 21.034 45.2868 19.8344 46 18.5149C41.4462 21.25 36.2861 18.0651 33.4161 14.2704Z" fill="#82BEFF"/>
<path fill-rule="evenodd" clip-rule="evenodd" d="M33.3196 45.769C32.0192 48.2326 29.0518 46.6207 30.3001 44.243C31.3597 42.2221 33.9054 41 33.9054 41C33.9054 41 34.3477 43.8128 33.3196 45.769Z" fill="#009EFF"/>
<path fill-rule="evenodd" clip-rule="evenodd" d="M21.7638 44.3255L19.6711 43.8125L21.2017 42.2948C21.3204 42.1742 21.3232 41.9794 21.2017 41.8588L21.1572 41.8152C21.0385 41.6927 20.8418 41.6927 20.7212 41.8124L19.1879 43.3319L18.6777 41.2354C18.6378 41.0702 18.469 40.9682 18.302 41.009L18.2426 41.0238C18.0775 41.0628 17.9727 41.2344 18.0135 41.3977L18.5385 43.5369L16.3985 43.0146C16.2343 42.9748 16.0646 43.0749 16.0228 43.2419L16.0098 43.3013C15.9662 43.4692 16.072 43.6362 16.2371 43.6752L18.328 44.1863L16.8002 45.7022C16.6796 45.8237 16.6796 46.0194 16.7974 46.1409L16.8419 46.1845C16.9634 46.3061 17.1573 46.3061 17.2788 46.1873L18.8103 44.6641L19.3251 46.7643C19.365 46.9295 19.5339 47.0324 19.698 46.9907L19.7574 46.9777C19.9253 46.936 20.0292 46.769 19.9865 46.6039L19.4643 44.4646L21.6024 44.986C21.7666 45.0277 21.9355 44.9238 21.9753 44.7596L21.9911 44.7002C22.0319 44.5351 21.928 44.3654 21.7638 44.3255Z" fill="#38C0E0"/>
</svg>
