<svg width="55" height="55" viewBox="0 0 55 55" fill="none" xmlns="http://www.w3.org/2000/svg">
<path fill-rule="evenodd" clip-rule="evenodd" d="M38.3096 24.2945L37.4399 23.9071L37.3694 22.9815C37.1413 20.0025 34.5438 17.6683 31.4545 17.6683C30.9095 17.6683 30.3577 17.7432 29.8137 17.891L28.8599 18.1493L28.1864 17.4474C26.6934 15.8919 24.5791 15 22.3846 15C18.6275 15 15.3613 17.5934 14.6221 21.1677L14.4491 22.0044L13.6287 22.3207C10.8602 23.383 9 26.0307 9 28.9095C9 32.8179 12.2855 36 16.3218 36H35.6754C39.1629 36 42 33.2484 42 29.866C41.999 27.4813 40.5515 25.2941 38.3096 24.2945Z" fill="white"/>
<path fill-rule="evenodd" clip-rule="evenodd" d="M33.4161 13.6934C30.8542 10.4519 29.2504 4.82189 32.8593 1C31.4711 1.39969 30.1314 2.06424 28.9253 3.01756C26.8677 4.64117 25.6702 6.86813 25.2154 9.22418C25.0123 10.8631 24.9741 12.4245 25.0142 13.9277C26.7314 14.3685 28.3113 15.2855 29.5355 16.6031L29.5794 16.6509L29.6394 16.6337C30.3088 16.4463 30.9896 16.3507 31.6637 16.3507C35.4327 16.3507 38.5992 19.2594 38.9653 23C40.4203 22.7179 41.8362 22.1289 43.1205 21.1144C44.3295 20.163 45.2868 19.0156 46 17.7534C41.4462 20.3695 36.2861 17.3231 33.4161 13.6934Z" fill="#82BEFF"/>
<path fill-rule="evenodd" clip-rule="evenodd" d="M28.3389 51.7308C27.0753 54.2708 24.1919 52.609 25.4049 50.1575C26.4344 48.074 28.9081 46.8139 28.9081 46.8139C28.9081 46.8139 29.3379 49.7139 28.3389 51.7308ZM20.2256 43.9169C18.962 46.4569 16.0786 44.795 17.2916 42.3436C18.3211 40.2601 20.7948 39 20.7948 39C20.7948 39 21.2246 41.9 20.2256 43.9169Z" fill="#009EFF"/>
<path fill-rule="evenodd" clip-rule="evenodd" d="M35.7633 42.5034L33.6611 41.963L35.1987 40.3641C35.3179 40.237 35.3207 40.0318 35.1987 39.9047L35.1539 39.8588C35.0346 39.7298 34.8371 39.7298 34.716 39.8558L33.1756 41.4567L32.6631 39.2479C32.623 39.074 32.4534 38.9665 32.2857 39.0095L32.2261 39.0251C32.0602 39.0662 31.9549 39.247 31.995 39.419L32.5224 41.6727L30.3726 41.1225C30.2077 41.0804 30.0372 41.186 29.9952 41.3619L29.9822 41.4245C29.9384 41.6014 30.0446 41.7773 30.2105 41.8183L32.3109 42.3568L30.7761 43.9538C30.655 44.0818 30.655 44.288 30.7733 44.4161L30.8181 44.462C30.9401 44.59 31.1349 44.59 31.257 44.4649L32.7954 42.8602L33.3126 45.0728C33.3527 45.2468 33.5223 45.3553 33.6872 45.3113L33.7468 45.2976C33.9155 45.2537 34.0199 45.0777 33.977 44.9038L33.4524 42.65L35.6003 43.1993C35.7652 43.2433 35.9348 43.1338 35.9749 42.9608L35.9907 42.8983C36.0326 42.7243 35.9283 42.5455 35.7633 42.5034ZM16.791 50.1823L14.6888 49.6419L16.2263 48.043C16.3456 47.9159 16.3484 47.7107 16.2263 47.5836L16.1816 47.5377C16.0623 47.4087 15.8648 47.4087 15.7436 47.5347L14.2033 49.1356L13.6908 46.9268C13.6507 46.7529 13.4811 46.6454 13.3134 46.6884L13.2538 46.704C13.0879 46.7451 12.9826 46.9259 13.0227 47.0979L13.5501 49.3516L11.4003 48.8014C11.2354 48.7593 11.0649 48.8649 11.0229 49.0408L11.0099 49.1034C10.9661 49.2803 11.0723 49.4562 11.2382 49.4972L13.3386 50.0357L11.8038 51.6327C11.6827 51.7607 11.6827 51.9669 11.801 52.095L11.8458 52.1409C11.9678 52.2689 12.1626 52.2689 12.2847 52.1438L13.8231 50.5391L14.3403 52.7517C14.3804 52.9257 14.55 53.0342 14.7149 52.9902L14.7745 52.9765C14.9432 52.9325 15.0476 52.7566 15.0047 52.5827L14.4801 50.3289L16.628 50.8782C16.7929 50.9222 16.9625 50.8127 17.0026 50.6397L17.0184 50.5772C17.0603 50.4032 16.956 50.2244 16.791 50.1823Z" fill="#38C0E0"/>
</svg>
