<svg width="55" height="55" viewBox="0 0 55 55" fill="none" xmlns="http://www.w3.org/2000/svg">
<path fill-rule="evenodd" clip-rule="evenodd" d="M39.1978 25.7371L38.3017 25.3312L38.229 24.3615C37.9941 21.2407 35.3179 18.7953 32.1349 18.7953C31.5734 18.7953 31.0049 18.8738 30.4444 19.0287L29.4617 19.2993L28.7678 18.564C27.2296 16.9344 25.0512 16 22.7902 16C18.9192 16 15.5541 18.7169 14.7924 22.4614L14.6142 23.3379L13.769 23.6693C10.9165 24.7822 9 27.5559 9 30.5719C9 34.6664 12.3851 38 16.5437 38H36.4837C40.0769 38 43 35.1174 43 31.5739C42.999 29.0757 41.5076 26.7843 39.1978 25.7371Z" fill="white"/>
<path fill-rule="evenodd" clip-rule="evenodd" d="M34.4161 14.2704C31.8542 10.8816 30.2504 4.99561 33.8593 1C32.4711 1.41785 31.1314 2.11261 29.9253 3.10927C27.8677 4.80668 26.6702 7.13487 26.2154 9.59801C26.0123 11.3114 25.9741 12.9438 26.0142 14.5153C27.7314 14.9761 29.3113 15.9348 30.5355 17.3123L30.5794 17.3623L30.6394 17.3443C31.3088 17.1484 31.9896 17.0484 32.6637 17.0484C36.4327 17.0484 39.5992 20.0894 39.9653 24C41.4203 23.7051 42.8362 23.0893 44.1205 22.0287C45.3295 21.034 46.2868 19.8344 47 18.5149C42.4462 21.25 37.2861 18.0651 34.4161 14.2704Z" fill="#82BEFF"/>
</svg>
