<svg width="55" height="55" viewBox="0 0 55 55" fill="none" xmlns="http://www.w3.org/2000/svg">
<path fill-rule="evenodd" clip-rule="evenodd" d="M38.3096 24.7371L37.4399 24.3312L37.3694 23.3615C37.1413 20.2407 34.5438 17.7953 31.4545 17.7953C30.9095 17.7953 30.3577 17.8738 29.8137 18.0287L28.8599 18.2993L28.1864 17.564C26.6934 15.9344 24.5791 15 22.3846 15C18.6275 15 15.3613 17.7169 14.6221 21.4614L14.4491 22.3379L13.6287 22.6693C10.8602 23.7822 9 26.5559 9 29.5719C9 33.6664 12.2855 37 16.3218 37H35.6754C39.1629 37 42 34.1174 42 30.5739C41.999 28.0757 40.5515 25.7843 38.3096 24.7371Z" fill="white"/>
<path fill-rule="evenodd" clip-rule="evenodd" d="M33.4161 13.6934C30.8542 10.4519 29.2504 4.82189 32.8593 1C31.4711 1.39969 30.1314 2.06424 28.9253 3.01756C26.8677 4.64117 25.6702 6.86813 25.2154 9.22418C25.0123 10.8631 24.9741 12.4245 25.0142 13.9277C26.7314 14.3685 28.3113 15.2855 29.5355 16.6031L29.5794 16.6509L29.6394 16.6337C30.3088 16.4463 30.9896 16.3507 31.6637 16.3507C35.4327 16.3507 38.5992 19.2594 38.9653 23C40.4203 22.7179 41.8362 22.1289 43.1205 21.1144C44.3295 20.163 45.2868 19.0156 46 17.7534C41.4462 20.3695 36.2861 17.3231 33.4161 13.6934Z" fill="#82BEFF"/>
<path fill-rule="evenodd" clip-rule="evenodd" d="M29 43.0311L26.2392 42.9886L28.5028 39L25.0083 39.0296L22.0435 44.9804H24.6249L21 54L29 43.0311Z" fill="#FFA800"/>
<path fill-rule="evenodd" clip-rule="evenodd" d="M36.3196 44.769C35.0192 47.2326 32.0518 45.6207 33.3001 43.243C34.3597 41.2221 36.9054 40 36.9054 40C36.9054 40 37.3477 42.8128 36.3196 44.769Z" fill="#009EFF"/>
<path fill-rule="evenodd" clip-rule="evenodd" d="M19.7636 43.3255L17.671 42.8125L19.2015 41.2948C19.3202 41.1742 19.323 40.9794 19.2015 40.8588L19.1569 40.8152C19.0382 40.6927 18.8416 40.6927 18.721 40.8124L17.1877 42.3319L16.6775 40.2354C16.6377 40.0702 16.4688 39.9682 16.3019 40.009L16.2425 40.0238C16.0774 40.0628 15.9726 40.2344 16.0134 40.3977L16.5384 42.5369L14.3985 42.0146C14.2343 41.9748 14.0646 42.0749 14.0228 42.2419L14.0098 42.3013C13.9662 42.4692 14.072 42.6362 14.2371 42.6752L16.3278 43.1863L14.8001 44.7022C14.6796 44.8237 14.6796 45.0194 14.7974 45.1409L14.8419 45.1845C14.9634 45.3061 15.1572 45.3061 15.2788 45.1873L16.8102 43.6641L17.325 45.7643C17.3649 45.9295 17.5337 46.0324 17.6979 45.9907L17.7572 45.9777C17.9251 45.936 18.029 45.769 17.9863 45.6039L17.4641 43.4646L19.6022 43.986C19.7663 44.0277 19.9352 43.9238 19.975 43.7596L19.9908 43.7002C20.0326 43.5351 19.9277 43.3654 19.7636 43.3255Z" fill="#38C0E0"/>
</svg>
