<svg width="55" height="55" viewBox="0 0 55 55" fill="none" xmlns="http://www.w3.org/2000/svg">
<path fill-rule="evenodd" clip-rule="evenodd" d="M38.3096 24.7371L37.4399 24.3312L37.3694 23.3615C37.1413 20.2407 34.5438 17.7953 31.4545 17.7953C30.9095 17.7953 30.3577 17.8738 29.8137 18.0287L28.8599 18.2993L28.1864 17.564C26.6934 15.9344 24.5791 15 22.3846 15C18.6275 15 15.3613 17.7169 14.6221 21.4614L14.4491 22.3379L13.6287 22.6693C10.8602 23.7822 9 26.5559 9 29.5719C9 33.6664 12.2855 37 16.3218 37H35.6754C39.1629 37 42 34.1174 42 30.5739C41.999 28.0757 40.5515 25.7843 38.3096 24.7371Z" fill="white"/>
<path fill-rule="evenodd" clip-rule="evenodd" d="M33.4161 14.2704C30.8542 10.8816 29.2504 4.99561 32.8593 1C31.4711 1.41785 30.1314 2.11261 28.9253 3.10927C26.8677 4.80668 25.6702 7.13487 25.2154 9.59801C25.0123 11.3114 24.9741 12.9438 25.0142 14.5153C26.7314 14.9761 28.3113 15.9348 29.5355 17.3123L29.5794 17.3623L29.6394 17.3443C30.3088 17.1484 30.9896 17.0484 31.6637 17.0484C35.4327 17.0484 38.5992 20.0894 38.9653 24C40.4203 23.7051 41.8362 23.0893 43.1205 22.0287C44.3295 21.034 45.2868 19.8344 46 18.5149C41.4462 21.25 36.2861 18.0651 33.4161 14.2704Z" fill="#82BEFF"/>
<path fill-rule="evenodd" clip-rule="evenodd" d="M32.339 45.0051C31.0757 47.5906 28.193 45.899 29.4057 43.4035C30.435 41.2826 32.9081 40 32.9081 40C32.9081 40 33.3378 42.952 32.339 45.0051ZM25.6589 52.7081C24.3956 55.2936 21.5129 53.602 22.7256 51.1065C23.7549 48.9856 26.228 47.703 26.228 47.703C26.228 47.703 26.6576 50.654 25.6589 52.7081ZM19.7369 45.0051C18.4736 47.5906 15.5909 45.899 16.8036 43.4035C17.8329 41.2826 20.306 40 20.306 40C20.306 40 20.7357 42.952 19.7369 45.0051ZM13.2248 52.7081C11.9615 55.2936 9.07886 53.602 10.2915 51.1065C11.3208 48.9856 13.7939 47.703 13.7939 47.703C13.7939 47.703 14.2245 50.654 13.2248 52.7081Z" fill="#009EFF"/>
</svg>
