<svg width="55" height="55" viewBox="0 0 55 55" fill="none" xmlns="http://www.w3.org/2000/svg">
<path fill-rule="evenodd" clip-rule="evenodd" d="M38.3096 24.7371L37.4399 24.3312L37.3694 23.3615C37.1413 20.2407 34.5438 17.7953 31.4545 17.7953C30.9095 17.7953 30.3577 17.8738 29.8137 18.0287L28.8599 18.2993L28.1864 17.564C26.6934 15.9344 24.5791 15 22.3846 15C18.6275 15 15.3613 17.7169 14.6221 21.4614L14.4491 22.3379L13.6287 22.6693C10.8602 23.7822 9 26.5559 9 29.5719C9 33.6664 12.2855 37 16.3218 37H35.6754C39.1629 37 42 34.1174 42 30.5739C41.999 28.0757 40.5515 25.7843 38.3096 24.7371Z" fill="white"/>
<path fill-rule="evenodd" clip-rule="evenodd" d="M33.4161 13.6934C30.8542 10.4519 29.2504 4.82189 32.8593 1C31.4711 1.39969 30.1314 2.06424 28.9253 3.01756C26.8677 4.64117 25.6702 6.86813 25.2154 9.22418C25.0123 10.8631 24.9741 12.4245 25.0142 13.9277C26.7314 14.3685 28.3113 15.2855 29.5355 16.6031L29.5794 16.6509L29.6394 16.6337C30.3088 16.4463 30.9896 16.3507 31.6637 16.3507C35.4327 16.3507 38.5992 19.2594 38.9653 23C40.4203 22.7179 41.8362 22.1289 43.1205 21.1144C44.3295 20.163 45.2868 19.0156 46 17.7534C41.4462 20.3695 36.2861 17.3231 33.4161 13.6934Z" fill="#82BEFF"/>
<path fill-rule="evenodd" clip-rule="evenodd" d="M18.2994 44.769C17.0069 47.2326 14.0576 45.6207 15.2983 43.243C16.3514 41.2221 18.8816 40 18.8816 40C18.8816 40 19.3212 42.8128 18.2994 44.769ZM36.3237 44.769C35.0312 47.2326 32.0819 45.6207 33.3226 43.243C34.3757 41.2221 36.906 40 36.906 40C36.906 40 37.3456 42.8128 36.3237 44.769Z" fill="#009EFF"/>
<path fill-rule="evenodd" clip-rule="evenodd" d="M29 43.0314L26.2382 42.9889L28.5028 39L25.0083 39.0277L22.0425 44.9808H24.6239L21 54L29 43.0314Z" fill="#FFA800"/>
</svg>
