<svg width="55" height="55" viewBox="0 0 55 55" fill="none" xmlns="http://www.w3.org/2000/svg">
<path fill-rule="evenodd" clip-rule="evenodd" d="M38.3096 24.7371L37.4399 24.3312L37.3694 23.3615C37.1413 20.2407 34.5438 17.7953 31.4545 17.7953C30.9095 17.7953 30.3577 17.8738 29.8137 18.0287L28.8599 18.2993L28.1864 17.564C26.6934 15.9344 24.5791 15 22.3846 15C18.6275 15 15.3613 17.7169 14.6221 21.4614L14.4491 22.3379L13.6287 22.6693C10.8602 23.7822 9 26.5559 9 29.5719C9 33.6664 12.2855 37 16.3218 37H35.6754C39.1629 37 42 34.1174 42 30.5739C41.999 28.0757 40.5515 25.7843 38.3096 24.7371Z" fill="white"/>
<path fill-rule="evenodd" clip-rule="evenodd" d="M33.4161 13.6934C30.8542 10.4519 29.2504 4.82189 32.8593 1C31.4711 1.39969 30.1314 2.06424 28.9253 3.01756C26.8677 4.64117 25.6702 6.86813 25.2154 9.22418C25.0123 10.8631 24.9741 12.4245 25.0142 13.9277C26.7314 14.3685 28.3113 15.2855 29.5355 16.6031L29.5794 16.6509L29.6394 16.6337C30.3088 16.4463 30.9896 16.3507 31.6637 16.3507C35.4327 16.3507 38.5992 19.2594 38.9653 23C40.4203 22.7179 41.8362 22.1289 43.1205 21.1144C44.3295 20.163 45.2868 19.0156 46 17.7534C41.4462 20.3695 36.2861 17.3231 33.4161 13.6934Z" fill="#82BEFF"/>
<path fill-rule="evenodd" clip-rule="evenodd" d="M16.3302 44.8901C15.0256 47.4163 12.0488 45.7635 13.301 43.3254C14.364 41.2532 16.9179 40 16.9179 40C16.9179 40 17.3626 42.8842 16.3302 44.8901ZM23.3025 52.7377C21.998 55.2639 19.0211 53.6111 20.2734 51.1729C21.3364 49.1008 23.8902 47.8476 23.8902 47.8476C23.8902 47.8476 24.3349 50.7318 23.3025 52.7377ZM36.3174 44.8901C35.0129 47.4163 32.036 45.7635 33.2883 43.3254C34.3512 41.2532 36.9051 40 36.9051 40C36.9051 40 37.3488 42.8842 36.3174 44.8901Z" fill="#009EFF"/>
<path fill-rule="evenodd" clip-rule="evenodd" d="M27.8776 43.511C28.0497 43.5541 28.1586 43.7334 28.1149 43.9067L28.0983 43.9694C28.0565 44.1428 27.8795 44.2525 27.7074 44.2084L25.4659 43.658L26.0134 45.9166C26.0581 46.0909 25.9492 46.2672 25.7732 46.3113L25.711 46.325C25.5389 46.3691 25.3619 46.2604 25.3201 46.086L24.7804 43.8685L23.1749 45.4768C23.0475 45.6022 22.8442 45.6022 22.7168 45.4739L22.6702 45.4278C22.5467 45.2995 22.5467 45.0929 22.6731 44.9645L24.2747 43.3641L22.0828 42.8244C21.9097 42.7833 21.7989 42.607 21.8446 42.4297L21.8582 42.367C21.9019 42.1907 22.0799 42.085 22.252 42.1271L24.4954 42.6785L23.945 40.4199C23.9032 40.2475 24.0131 40.0663 24.1862 40.0252L24.2484 40.0095C24.4235 39.9664 24.6005 40.0741 24.6423 40.2485L25.1771 42.462L26.7846 40.8577C26.911 40.7314 27.1171 40.7314 27.2416 40.8606L27.2883 40.9067C27.4157 41.034 27.4128 41.2397 27.2883 41.367L25.6838 42.9694L27.8776 43.511ZM34.7527 51.1762C34.9248 51.2183 35.0347 51.3986 34.99 51.5719L34.9735 51.6346C34.9316 51.808 34.7547 51.9177 34.5825 51.8736L32.3411 51.3231L32.8886 53.5818C32.9333 53.7561 32.8244 53.9324 32.6484 53.9765L32.5861 53.9902C32.414 54.0343 32.237 53.9255 32.1952 53.7512L31.6555 51.5337L30.05 53.142C29.9226 53.2674 29.7194 53.2674 29.592 53.139L29.5453 53.093C29.4218 52.9647 29.4218 52.758 29.5482 52.6297L31.1498 51.0293L28.958 50.4896C28.7849 50.4485 28.674 50.2722 28.7197 50.0949L28.7333 50.0322C28.7771 49.8559 28.955 49.7501 29.1272 49.7923L31.3706 50.3437L30.8202 48.0851C30.7784 47.9127 30.8882 47.7315 31.0613 47.6904L31.1236 47.6747C31.2986 47.6316 31.4756 47.7393 31.5174 47.9137L32.0523 50.1272L33.6597 48.5229C33.7861 48.3965 33.9923 48.3965 34.1167 48.5258L34.1634 48.5719C34.2908 48.6992 34.2879 48.9049 34.1634 49.0322L32.5589 50.6346L34.7527 51.1762ZM15.0424 51.1762C15.2145 51.2183 15.3234 51.3986 15.2806 51.5719L15.2641 51.6346C15.2223 51.808 15.0453 51.9177 14.8732 51.8736L12.6317 51.3231L13.1792 53.5818C13.2239 53.7561 13.115 53.9324 12.939 53.9765L12.8767 53.9902C12.7046 54.0343 12.5276 53.9255 12.4858 53.7512L11.9461 51.5337L10.3406 53.142C10.2132 53.2674 10.01 53.2674 9.8826 53.139L9.83592 53.093C9.71242 52.9647 9.71242 52.758 9.83884 52.6297L11.4404 51.0293L9.24857 50.4896C9.07547 50.4485 8.96462 50.2722 9.01032 50.0949L9.02394 50.0322C9.0677 49.8559 9.24565 49.7501 9.41777 49.7923L11.6612 50.3437L11.1108 48.0851C11.068 47.9127 11.1779 47.7315 11.351 47.6904L11.4132 47.6747C11.5883 47.6316 11.7652 47.7393 11.8071 47.9137L12.3419 50.1272L13.9493 48.5229C14.0758 48.3965 14.2819 48.3965 14.4064 48.5258L14.4531 48.5719C14.5805 48.6992 14.5775 48.9049 14.4531 49.0322L12.8485 50.6346L15.0424 51.1762Z" fill="#38C0E0"/>
</svg>
