<svg width="55" height="55" viewBox="0 0 55 55" fill="none" xmlns="http://www.w3.org/2000/svg">
<path fill-rule="evenodd" clip-rule="evenodd" d="M38.3096 24.7371L37.4399 24.3312L37.3694 23.3615C37.1413 20.2407 34.5438 17.7953 31.4545 17.7953C30.9095 17.7953 30.3577 17.8738 29.8137 18.0287L28.8599 18.2993L28.1864 17.564C26.6934 15.9344 24.5791 15 22.3846 15C18.6275 15 15.3613 17.7169 14.6221 21.4614L14.4491 22.3379L13.6287 22.6693C10.8602 23.7822 9 26.5559 9 29.5719C9 33.6664 12.2855 37 16.3218 37H35.6754C39.1629 37 42 34.1174 42 30.5739C41.999 28.0757 40.5515 25.7843 38.3096 24.7371Z" fill="white"/>
<path fill-rule="evenodd" clip-rule="evenodd" d="M33.4161 13.6934C30.8542 10.4519 29.2504 4.82189 32.8593 1C31.4711 1.39969 30.1314 2.06424 28.9253 3.01756C26.8677 4.64117 25.6702 6.86813 25.2154 9.22418C25.0123 10.8631 24.9741 12.4245 25.0142 13.9277C26.7314 14.3685 28.3113 15.2855 29.5355 16.6031L29.5794 16.6509L29.6394 16.6337C30.3088 16.4463 30.9896 16.3507 31.6637 16.3507C35.4327 16.3507 38.5992 19.2594 38.9653 23C40.4203 22.7179 41.8362 22.1289 43.1205 21.1144C44.3295 20.163 45.2868 19.0156 46 17.7534C41.4462 20.3695 36.2861 17.3231 33.4161 13.6934Z" fill="#82BEFF"/>
<path fill-rule="evenodd" clip-rule="evenodd" d="M21.9709 43.3255C22.141 43.3654 22.2486 43.5351 22.2053 43.7002L22.189 43.7596C22.1477 43.9238 21.9728 44.0277 21.8028 43.986L19.5882 43.4646L20.1291 45.6039C20.1733 45.769 20.0657 45.936 19.8918 45.9777L19.8303 45.9907C19.6602 46.0324 19.4854 45.9295 19.444 45.7643L18.9108 43.6641L17.3246 45.1873C17.1987 45.3061 16.9979 45.3061 16.872 45.1845L16.8259 45.1409C16.7039 45.0194 16.7039 44.8237 16.8288 44.7022L18.4112 43.1863L16.2456 42.6752C16.0746 42.6362 15.965 42.4692 16.0102 42.3013L16.0236 42.2419C16.0669 42.0749 16.2427 41.9748 16.4128 42.0146L18.6293 42.5369L18.0855 40.3977C18.0442 40.2344 18.1527 40.0628 18.3238 40.0238L18.3853 40.009C18.5582 39.9682 18.7331 40.0702 18.7744 40.2354L19.3028 42.3319L20.891 40.8124C21.0159 40.6927 21.2196 40.6927 21.3426 40.8152L21.3887 40.8588C21.5145 40.9794 21.5117 41.1742 21.3887 41.2948L19.8034 42.8125L21.9709 43.3255ZM36.7555 43.3255C36.9246 43.3654 37.0331 43.5351 36.9908 43.7002L36.9745 43.7596C36.9332 43.9238 36.7583 44.0277 36.5883 43.986L34.3737 43.4646L34.9146 45.6039C34.9578 45.769 34.8502 45.936 34.6763 45.9777L34.6148 45.9907C34.4448 46.0324 34.2699 45.9295 34.2286 45.7643L33.6954 43.6641L32.1091 45.1873C31.9832 45.3061 31.7824 45.3061 31.6566 45.1845L31.6105 45.1409C31.4884 45.0194 31.4884 44.8237 31.6133 44.7022L33.1957 43.1863L31.0301 42.6752C30.8591 42.6362 30.7496 42.4692 30.7948 42.3013L30.8082 42.2419C30.8514 42.0749 31.0273 41.9748 31.1973 42.0146L33.4138 42.5369L32.87 40.3977C32.8287 40.2344 32.9373 40.0628 33.1083 40.0238L33.1698 40.009C33.3427 39.9682 33.5176 40.0702 33.5589 40.2354L34.0874 42.3319L35.6755 40.8124C35.8004 40.6927 36.0041 40.6927 36.1271 40.8152L36.1732 40.8588C36.2991 40.9794 36.2962 41.1742 36.1732 41.2948L34.5879 42.8125L36.7555 43.3255Z" fill="#38C0E0"/>
</svg>
