<svg width="55" height="55" viewBox="0 0 55 55" fill="none" xmlns="http://www.w3.org/2000/svg">
<path fill-rule="evenodd" clip-rule="evenodd" d="M38.3096 24.2945L37.4399 23.9071L37.3694 22.9815C37.1413 20.0025 34.5438 17.6683 31.4545 17.6683C30.9095 17.6683 30.3577 17.7432 29.8137 17.891L28.8599 18.1493L28.1864 17.4474C26.6934 15.8919 24.5791 15 22.3846 15C18.6275 15 15.3613 17.5934 14.6221 21.1677L14.4491 22.0044L13.6287 22.3207C10.8602 23.383 9 26.0307 9 28.9095C9 32.8179 12.2855 36 16.3218 36H35.6754C39.1629 36 42 33.2484 42 29.866C41.999 27.4813 40.5515 25.2941 38.3096 24.2945Z" fill="white"/>
<path fill-rule="evenodd" clip-rule="evenodd" d="M33.4161 13.6934C30.8542 10.4519 29.2504 4.82189 32.8593 1C31.4711 1.39969 30.1314 2.06424 28.9253 3.01756C26.8677 4.64117 25.6702 6.86813 25.2154 9.22418C25.0123 10.8631 24.9741 12.4245 25.0142 13.9277C26.7314 14.3685 28.3113 15.2855 29.5355 16.6031L29.5794 16.6509L29.6394 16.6337C30.3088 16.4463 30.9896 16.3507 31.6637 16.3507C35.4327 16.3507 38.5992 19.2594 38.9653 23C40.4203 22.7179 41.8362 22.1289 43.1205 21.1144C44.3295 20.163 45.2868 19.0156 46 17.7534C41.4462 20.3695 36.2861 17.3231 33.4161 13.6934Z" fill="#82BEFF"/>
<path fill-rule="evenodd" clip-rule="evenodd" d="M30 42.7624L27.2392 42.7227L29.5028 39L26.0083 39.0277L23.0435 44.5817H25.6249L22 53L30 42.7624Z" fill="#FFA800"/>
</svg>
