<svg width="55" height="55" viewBox="0 0 55 55" fill="none" xmlns="http://www.w3.org/2000/svg">
<path fill-rule="evenodd" clip-rule="evenodd" d="M40.3096 24.7371L39.4399 24.3312L39.3694 23.3615C39.1413 20.2407 36.5438 17.7953 33.4545 17.7953C32.9095 17.7953 32.3577 17.8738 31.8137 18.0287L30.8599 18.2993L30.1864 17.564C28.6934 15.9344 26.5791 15 24.3846 15C20.6275 15 17.3613 17.7169 16.6221 21.4614L16.4491 22.3379L15.6287 22.6693C12.8602 23.7822 11 26.5559 11 29.5719C11 33.6664 14.2855 37 18.3218 37H37.6754C41.1629 37 44 34.1174 44 30.5739C43.999 28.0757 42.5515 25.7843 40.3096 24.7371Z" fill="white"/>
<path fill-rule="evenodd" clip-rule="evenodd" d="M35.4161 13.6934C32.8542 10.4519 31.2504 4.82189 34.8593 1C33.4711 1.39969 32.1314 2.06424 30.9253 3.01756C28.8677 4.64117 27.6702 6.86813 27.2154 9.22418C27.0123 10.8631 26.9741 12.4245 27.0142 13.9277C28.7314 14.3685 30.3113 15.2855 31.5355 16.6031L31.5794 16.6509L31.6394 16.6337C32.3088 16.4463 32.9896 16.3507 33.6637 16.3507C37.4327 16.3507 40.5992 19.2594 40.9653 23C42.4203 22.7179 43.8362 22.1289 45.1205 21.1144C46.3295 20.163 47.2868 19.0156 48 17.7534C43.4462 20.3695 38.2861 17.3231 35.4161 13.6934Z" fill="#82BEFF"/>
<path fill-rule="evenodd" clip-rule="evenodd" d="M17.2407 44.933C15.9712 47.4813 13.0743 45.814 14.293 43.3545C15.3274 41.2642 17.8126 40 17.8126 40C17.8126 40 18.2445 42.9095 17.2407 44.933ZM19.1925 52.7267C17.923 55.275 15.0261 53.6077 16.2447 51.1482C17.2791 49.0578 19.7644 47.7936 19.7644 47.7936C19.7644 47.7936 20.1962 50.7022 19.1925 52.7267ZM39.3357 44.933C38.0662 47.4813 35.1693 45.814 36.3879 43.3545C37.4224 41.2642 39.9076 40 39.9076 40C39.9076 40 40.3394 42.9095 39.3357 44.933Z" fill="#009EFF"/>
<path fill-rule="evenodd" clip-rule="evenodd" d="M31 43.0311L28.2392 42.9886L30.5028 39L27.0083 39.0296L24.0435 44.9804H26.6249L23 54L31 43.0311Z" fill="#FFA800"/>
<path fill-rule="evenodd" clip-rule="evenodd" d="M12.9302 51.3239C13.0991 51.3638 13.207 51.5344 13.164 51.6985L13.1478 51.7579C13.1068 51.922 12.9331 52.0259 12.7642 51.9841L10.5647 51.463L11.1019 53.6013C11.1449 53.7663 11.038 53.9332 10.8653 53.9749L10.8042 53.9879C10.6353 54.0297 10.4616 53.9267 10.4206 53.7617L9.89098 51.6624L8.31553 53.1849C8.19052 53.3036 7.99109 53.3036 7.86608 53.1821L7.82028 53.1386C7.69909 53.0171 7.69909 52.8214 7.82314 52.7L9.39477 51.1848L7.24392 50.6739C7.07406 50.635 6.96528 50.4681 7.01013 50.3002L7.02349 50.2409C7.06643 50.074 7.24105 49.9738 7.40995 50.0137L9.61139 50.5358L9.07129 48.3975C9.03026 48.2343 9.13808 48.0628 9.30794 48.0238L9.36901 48.009C9.54077 47.9682 9.71445 48.0702 9.75548 48.2352L10.2803 50.3308L11.8577 48.812C11.9817 48.6924 12.184 48.6924 12.3062 48.8148L12.352 48.8584C12.477 48.9789 12.4741 49.1736 12.352 49.2942L10.7775 50.8112L12.9302 51.3239ZM35.6431 51.3239C35.812 51.3638 35.9188 51.5344 35.8759 51.6985L35.8597 51.7579C35.8186 51.922 35.645 52.0259 35.4761 51.9841L33.2766 51.463L33.8138 53.6013C33.8577 53.7663 33.7508 53.9332 33.5781 53.9749L33.517 53.9879C33.3481 54.0297 33.1744 53.9267 33.1334 53.7617L32.6038 51.6624L31.0284 53.1849C30.9034 53.3036 30.7039 53.3036 30.5789 53.1821L30.5331 53.1386C30.4119 53.0171 30.4119 52.8214 30.536 52.7L32.1076 51.1848L29.9567 50.6739C29.7869 50.635 29.6781 50.4681 29.723 50.3002L29.7363 50.2409C29.7793 50.074 29.9539 49.9738 30.1228 50.0137L32.3242 50.5358L31.7841 48.3975C31.7431 48.2343 31.8509 48.0628 32.0208 48.0238L32.0818 48.009C32.2536 47.9682 32.4273 48.0702 32.4683 48.2352L32.9931 50.3308L34.5705 48.812C34.6945 48.6924 34.8969 48.6924 35.019 48.8148L35.0648 48.8584C35.1898 48.9789 35.1869 49.1736 35.0648 49.2942L33.4903 50.8112L35.6431 51.3239ZM43.7579 51.3239C43.9268 51.3638 44.0347 51.5344 43.9898 51.7013L43.9736 51.7607C43.9326 51.9248 43.7589 52.0286 43.59 51.9869L41.3905 51.4658L41.9277 53.604C41.9716 53.7691 41.8647 53.936 41.692 53.9777L41.6309 53.9907C41.462 54.0324 41.2884 53.9295 41.2473 53.7645L40.7177 51.6652L39.1423 53.1877C39.0173 53.3064 38.8178 53.3064 38.6928 53.1849L38.647 53.1413C38.5258 53.0199 38.5258 52.8242 38.6499 52.7028L40.2225 51.1848L38.0716 50.6739C37.9018 50.635 37.793 50.4681 37.8378 50.3002L37.8512 50.2409C37.8941 50.074 38.0687 49.9738 38.2376 50.0137L40.4391 50.5358L39.899 48.3975C39.8579 48.2343 39.9658 48.0628 40.1356 48.0238L40.1967 48.009C40.3685 47.9682 40.5421 48.0702 40.5832 48.2352L41.108 50.3308L42.6854 48.812C42.8094 48.6924 43.0117 48.6924 43.1339 48.8148L43.1797 48.8584C43.3047 48.9789 43.3018 49.1736 43.1797 49.2942L41.6052 50.8112L43.7579 51.3239Z" fill="#38C0E0"/>
</svg>
