<svg width="55" height="55" viewBox="0 0 55 55" fill="none" xmlns="http://www.w3.org/2000/svg">
<path fill-rule="evenodd" clip-rule="evenodd" d="M43.3016 24.9663C45.5555 26.0022 47.0058 28.2551 47 30.7083C46.9903 34.1887 44.1255 37.0106 40.6149 37L21.1329 36.9432C17.0698 36.9316 13.7732 33.6486 13.7848 29.628C13.7936 26.6666 15.6739 23.9487 18.4647 22.8636L19.2925 22.5411L19.4685 21.6804C20.2234 18.0055 23.519 15.3473 27.301 15.3588C29.5092 15.3656 31.6356 16.2898 33.1336 17.8938L33.8087 18.6178L34.7697 18.355C35.3174 18.2057 35.8738 18.1287 36.4224 18.1306C39.5323 18.1393 42.1402 20.5482 42.36 23.6146L42.4281 24.5658L43.3016 24.9663ZM12.2547 29.6232C12.2518 30.5629 12.4026 31.4689 12.6778 32.3209C11.5008 32.1091 10.5524 31.8482 10.5524 31.8482C7.09724 30.6418 4.68193 27.2452 5.03406 23.3508C5.32005 20.1862 7.55151 17.5164 10.5398 16.3524L11.2041 16.0934L11.4045 15.1229C12.424 10.1541 17.5688 6.83349 22.8371 8.38451C24.4178 8.84953 25.8127 9.79786 26.9324 10.9965L27.5637 11.6733C27.5637 11.6733 27.6075 11.6993 27.6746 11.7407C29.2066 11.0206 31.0159 10.9907 32.6307 11.8688C34.1365 12.6891 35.0917 13.881 35.5849 15.1884C35.6384 15.3299 35.865 16.1464 35.8242 16.6595C35.3349 16.6971 34.8446 16.7664 34.3612 16.8983L34.2989 16.9156L34.2542 16.8675C32.4682 14.9554 29.9352 13.855 27.304 13.8473C22.7934 13.8338 18.8684 17.0003 17.9686 21.379L17.9579 21.4349L17.9034 21.456C14.5348 22.7654 12.2654 26.0475 12.2547 29.6232Z" fill="white"/>
<path fill-rule="evenodd" clip-rule="evenodd" d="M38.2998 13.6855C35.7211 10.4387 34.1181 4.80777 37.7748 1C36.3713 1.39463 35.015 2.05585 33.7935 3.00374C31.7099 4.62048 30.4932 6.84208 30.027 9.19554C30.0144 9.29013 30.0087 9.38282 30 9.4755C30.0732 9.47359 30.1474 9.45926 30.2206 9.46022C31.3689 9.46404 32.4689 9.74878 33.49 10.3059C35.2018 11.2394 36.4522 12.6517 37.1063 14.3917C37.1853 14.6019 37.481 15.6023 37.4348 16.425C37.8625 16.4805 38.2748 16.5703 38.6765 16.6954C38.6851 16.6983 38.6957 16.7002 38.7054 16.7031C39.082 16.8216 39.4423 16.9678 39.791 17.1426C39.8392 17.1665 39.8864 17.1904 39.9355 17.2153C40.238 17.3748 40.527 17.5506 40.8034 17.7494C40.9017 17.8182 40.9932 17.8918 41.0876 17.9644C41.3053 18.1364 41.5144 18.3132 41.7118 18.509C41.8554 18.6485 41.9845 18.7986 42.1164 18.9495C42.2484 19.1034 42.3813 19.2543 42.4998 19.4187C42.6703 19.6509 42.8187 19.8965 42.9622 20.1487C43.0239 20.2586 43.0932 20.3647 43.1481 20.4774C43.3157 20.8118 43.4516 21.1616 43.5662 21.5218C43.5826 21.5744 43.6047 21.6231 43.6201 21.6756C43.7454 22.1028 43.835 22.5442 43.8773 23C45.3473 22.7239 46.7817 22.1381 48.0812 21.1291C49.3055 20.1822 50.2766 19.0384 51 17.779C46.3925 20.3809 41.1878 17.3213 38.2998 13.6855Z" fill="#82BEFF"/>
<path fill-rule="evenodd" clip-rule="evenodd" d="M31.2838 52.7308C29.9149 55.2708 26.7913 53.609 28.1053 51.1575C29.2206 49.074 31.9004 47.8139 31.9004 47.8139C31.9004 47.8139 32.366 50.7139 31.2838 52.7308ZM22.4943 44.9169C21.1255 47.4569 18.0019 45.795 19.3159 43.3436C20.4312 41.2601 23.111 40 23.111 40C23.111 40 23.5766 42.9 22.4943 44.9169Z" fill="#009EFF"/>
<path fill-rule="evenodd" clip-rule="evenodd" d="M38.7539 43.5034L36.5676 42.963L38.1666 41.3641C38.2906 41.237 38.2936 41.0318 38.1666 40.9047L38.1201 40.8588C37.996 40.7298 37.7906 40.7298 37.6646 40.8558L36.0626 42.4567L35.5296 40.2479C35.488 40.074 35.3116 39.9665 35.1371 40.0095L35.0751 40.0251C34.9026 40.0662 34.7931 40.247 34.8348 40.419L35.3833 42.6727L33.1475 42.1225C32.976 42.0804 32.7987 42.186 32.7551 42.3619L32.7415 42.4245C32.6959 42.6014 32.8064 42.7773 32.9789 42.8183L35.1633 43.3568L33.5672 44.9538C33.4412 45.0818 33.4412 45.288 33.5643 45.4161L33.6108 45.462C33.7377 45.59 33.9403 45.59 34.0672 45.4649L35.6672 43.8602L36.2051 46.0728C36.2468 46.2468 36.4232 46.3553 36.5947 46.3113L36.6567 46.2976C36.8321 46.2537 36.9407 46.0777 36.8961 45.9038L36.3505 43.65L38.5843 44.1993C38.7558 44.2433 38.9322 44.1338 38.9739 43.9608L38.9903 43.8983C39.034 43.7243 38.9254 43.5455 38.7539 43.5034ZM19.0227 51.1823L16.8364 50.6419L18.4354 49.043C18.5594 48.9159 18.5624 48.7107 18.4354 48.5836L18.3889 48.5377C18.2648 48.4087 18.0594 48.4087 17.9334 48.5347L16.3314 50.1356L15.7984 47.9268C15.7568 47.7529 15.5804 47.6454 15.4059 47.6884L15.3439 47.704C15.1714 47.7451 15.0619 47.9259 15.1036 48.0979L15.6521 50.3516L13.4163 49.8014C13.2448 49.7593 13.0675 49.8649 13.0239 50.0408L13.0103 50.1034C12.9647 50.2803 13.0752 50.4562 13.2477 50.4972L15.4321 51.0357L13.836 52.6327C13.71 52.7607 13.71 52.9669 13.8331 53.095L13.8796 53.1409C14.0065 53.2689 14.2091 53.2689 14.336 53.1438L15.936 51.5391L16.4739 53.7517C16.5156 53.9257 16.692 54.0342 16.8635 53.9902L16.9255 53.9765C17.1009 53.9325 17.2095 53.7566 17.1649 53.5827L16.6193 51.3289L18.8531 51.8782C19.0246 51.9222 19.201 51.8127 19.2427 51.6397L19.2591 51.5772C19.3028 51.4032 19.1942 51.2244 19.0227 51.1823Z" fill="#38C0E0"/>
</svg>
