<svg width="55" height="55" viewBox="0 0 55 55" fill="none" xmlns="http://www.w3.org/2000/svg">
<path fill-rule="evenodd" clip-rule="evenodd" d="M43.3016 24.9663C45.5555 26.0022 47.0058 28.2551 47 30.7083C46.9903 34.1887 44.1255 37.0106 40.6149 37L21.1329 36.9432C17.0698 36.9316 13.7732 33.6486 13.7848 29.628C13.7936 26.6666 15.6739 23.9487 18.4647 22.8636L19.2925 22.5411L19.4685 21.6804C20.2234 18.0055 23.519 15.3473 27.301 15.3588C29.5092 15.3656 31.6356 16.2898 33.1336 17.8938L33.8087 18.6178L34.7697 18.355C35.3174 18.2057 35.8738 18.1287 36.4224 18.1306C39.5323 18.1393 42.1402 20.5482 42.36 23.6146L42.4281 24.5658L43.3016 24.9663ZM12.2547 29.6232C12.2518 30.5629 12.4026 31.4689 12.6778 32.3209C11.5008 32.1091 10.5524 31.8482 10.5524 31.8482C7.09724 30.6418 4.68193 27.2452 5.03406 23.3508C5.32005 20.1862 7.55151 17.5164 10.5398 16.3524L11.2041 16.0934L11.4045 15.1229C12.424 10.1541 17.5688 6.83349 22.8371 8.38451C24.4178 8.84953 25.8127 9.79786 26.9324 10.9965L27.5637 11.6733C27.5637 11.6733 27.6075 11.6993 27.6746 11.7407C29.2066 11.0206 31.0159 10.9907 32.6307 11.8688C34.1365 12.6891 35.0917 13.881 35.5849 15.1884C35.6384 15.3299 35.865 16.1464 35.8242 16.6595C35.3349 16.6971 34.8446 16.7664 34.3612 16.8983L34.2989 16.9156L34.2542 16.8675C32.4682 14.9554 29.9352 13.855 27.304 13.8473C22.7934 13.8338 18.8684 17.0003 17.9686 21.379L17.9579 21.4349L17.9034 21.456C14.5348 22.7654 12.2654 26.0475 12.2547 29.6232Z" fill="white"/>
<path fill-rule="evenodd" clip-rule="evenodd" d="M38.2998 13.6855C35.721 10.4387 34.1181 4.80777 37.7748 1C36.3712 1.39463 35.0149 2.05585 33.7934 3.00374C31.7098 4.62048 30.4931 6.84208 30.0269 9.19554C30.0144 9.29013 30.0086 9.38282 29.9999 9.4755C30.0731 9.47359 30.1473 9.45926 30.2205 9.46022C31.3688 9.46404 32.4689 9.74878 33.49 10.3059C35.2018 11.2394 36.4521 12.6517 37.1062 14.3917C37.1852 14.6019 37.4809 15.6023 37.4347 16.425C37.8624 16.4805 38.2747 16.5703 38.6764 16.6954C38.6851 16.6983 38.6957 16.7002 38.7053 16.7031C39.082 16.8216 39.4422 16.9678 39.7909 17.1426C39.8391 17.1665 39.8863 17.1904 39.9354 17.2153C40.2379 17.3748 40.5269 17.5506 40.8034 17.7494C40.9016 17.8182 40.9932 17.8918 41.0876 17.9644C41.3053 18.1364 41.5143 18.3132 41.7118 18.509C41.8553 18.6485 41.9844 18.7986 42.1164 18.9495C42.2483 19.1034 42.3813 19.2543 42.4998 19.4187C42.6703 19.6509 42.8186 19.8965 42.9621 20.1487C43.0238 20.2586 43.0932 20.3647 43.1481 20.4774C43.3157 20.8118 43.4515 21.1616 43.5661 21.5218C43.5825 21.5744 43.6047 21.6231 43.6201 21.6756C43.7453 22.1028 43.8349 22.5442 43.8773 23C45.3473 22.7239 46.7816 22.1381 48.0811 21.1291C49.3055 20.1822 50.2765 19.0384 50.9999 17.779C46.3925 20.3809 41.1877 17.3213 38.2998 13.6855Z" fill="#82BEFF"/>
<path fill-rule="evenodd" clip-rule="evenodd" d="M18.3654 44.933C17.0471 47.4813 14.0387 45.814 15.3042 43.3545C16.3784 41.2642 18.9593 40 18.9593 40C18.9593 40 19.4077 42.9095 18.3654 44.933ZM20.3922 52.7267C19.0739 55.275 16.0655 53.6077 17.3311 51.1482C18.4052 49.0578 20.9861 47.7936 20.9861 47.7936C20.9861 47.7936 21.4345 50.7022 20.3922 52.7267ZM41.3102 44.933C39.9919 47.4813 36.9835 45.814 38.249 43.3545C39.3232 41.2642 41.9041 40 41.9041 40C41.9041 40 42.3525 42.9095 41.3102 44.933Z" fill="#009EFF"/>
<path fill-rule="evenodd" clip-rule="evenodd" d="M32 43.0311L29.2392 42.9886L31.5028 39L28.0083 39.0296L25.0435 44.9804H27.6249L24 54L32 43.0311Z" fill="#FFA800"/>
<path fill-rule="evenodd" clip-rule="evenodd" d="M14.0905 51.3239C14.264 51.3638 14.3747 51.5344 14.3306 51.6985L14.314 51.7579C14.2718 51.922 14.0935 52.0259 13.92 51.9841L11.661 51.463L12.2128 53.6013C12.2569 53.7663 12.1471 53.9332 11.9697 53.9749L11.907 53.9879C11.7335 54.0297 11.5552 53.9267 11.513 53.7617L10.9691 51.6624L9.35108 53.1849C9.2227 53.3036 9.01787 53.3036 8.88949 53.1821L8.84245 53.1386C8.71798 53.0171 8.71798 52.8214 8.84539 52.7L10.4595 51.1848L8.25051 50.6739C8.07606 50.635 7.96434 50.4681 8.0104 50.3002L8.02412 50.2409C8.06822 50.074 8.24757 49.9738 8.42103 50.0137L10.682 50.5358L10.1273 48.3975C10.0851 48.2343 10.1959 48.0628 10.3703 48.0238L10.433 48.009C10.6094 47.9682 10.7878 48.0702 10.83 48.2352L11.369 50.3308L12.989 48.812C13.1164 48.6924 13.3241 48.6924 13.4496 48.8148L13.4966 48.8584C13.625 48.9789 13.6221 49.1736 13.4966 49.2942L11.8796 50.8112L14.0905 51.3239ZM37.4172 51.3239C37.5907 51.3638 37.7004 51.5344 37.6563 51.6985L37.6397 51.7579C37.5975 51.922 37.4192 52.0259 37.2457 51.9841L34.9867 51.463L35.5385 53.6013C35.5836 53.7663 35.4738 53.9332 35.2964 53.9749L35.2337 53.9879C35.0602 54.0297 34.8819 53.9267 34.8397 53.7617L34.2958 51.6624L32.6778 53.1849C32.5494 53.3036 32.3446 53.3036 32.2162 53.1821L32.1691 53.1386C32.0447 53.0171 32.0447 52.8214 32.1721 52.7L33.7862 51.1848L31.5772 50.6739C31.4028 50.635 31.291 50.4681 31.3371 50.3002L31.3508 50.2409C31.3949 50.074 31.5743 49.9738 31.7477 50.0137L34.0087 50.5358L33.454 48.3975C33.4118 48.2343 33.5226 48.0628 33.697 48.0238L33.7597 48.009C33.9361 47.9682 34.1145 48.0702 34.1566 48.2352L34.6957 50.3308L36.3156 48.812C36.4431 48.6924 36.6508 48.6924 36.7763 48.8148L36.8233 48.8584C36.9517 48.9789 36.9487 49.1736 36.8233 49.2942L35.2063 50.8112L37.4172 51.3239ZM45.7514 51.3239C45.9249 51.3638 46.0356 51.5344 45.9895 51.7013L45.9729 51.7607C45.9307 51.9248 45.7524 52.0286 45.5789 51.9869L43.3199 51.4658L43.8717 53.604C43.9168 53.7691 43.807 53.936 43.6296 53.9777L43.5669 53.9907C43.3934 54.0324 43.2151 53.9295 43.1729 53.7645L42.629 51.6652L41.011 53.1877C40.8826 53.3064 40.6778 53.3064 40.5494 53.1849L40.5023 53.1413C40.3779 53.0199 40.3779 52.8242 40.5053 52.7028L42.1204 51.1848L39.9114 50.6739C39.7369 50.635 39.6252 50.4681 39.6713 50.3002L39.685 50.2409C39.7291 50.074 39.9084 49.9738 40.0819 50.0137L42.3428 50.5358L41.7881 48.3975C41.746 48.2343 41.8567 48.0628 42.0312 48.0238L42.0939 48.009C42.2703 47.9682 42.4487 48.0702 42.4908 48.2352L43.0298 50.3308L44.6498 48.812C44.7772 48.6924 44.985 48.6924 45.1104 48.8148L45.1575 48.8584C45.2859 48.9789 45.2829 49.1736 45.1575 49.2942L43.5404 50.8112L45.7514 51.3239Z" fill="#38C0E0"/>
</svg>
