<svg width="55" height="55" viewBox="0 0 55 55" fill="none" xmlns="http://www.w3.org/2000/svg">
<path fill-rule="evenodd" clip-rule="evenodd" d="M43.3016 24.9663C45.5555 26.0022 47.0058 28.2551 47 30.7083C46.9903 34.1887 44.1255 37.0106 40.6149 37L21.1329 36.9432C17.0698 36.9316 13.7732 33.6486 13.7848 29.628C13.7936 26.6666 15.6739 23.9487 18.4647 22.8636L19.2925 22.5411L19.4685 21.6804C20.2234 18.0055 23.519 15.3473 27.301 15.3588C29.5092 15.3656 31.6356 16.2898 33.1336 17.8938L33.8087 18.6178L34.7697 18.355C35.3174 18.2057 35.8738 18.1287 36.4224 18.1306C39.5323 18.1393 42.1402 20.5482 42.36 23.6146L42.4281 24.5658L43.3016 24.9663ZM12.2547 29.6232C12.2518 30.5629 12.4026 31.4689 12.6778 32.3209C11.5008 32.1091 10.5524 31.8482 10.5524 31.8482C7.09724 30.6418 4.68193 27.2452 5.03406 23.3508C5.32005 20.1862 7.55151 17.5164 10.5398 16.3524L11.2041 16.0934L11.4045 15.1229C12.424 10.1541 17.5688 6.83349 22.8371 8.38451C24.4178 8.84953 25.8127 9.79786 26.9324 10.9965L27.5637 11.6733C27.5637 11.6733 27.6075 11.6993 27.6746 11.7407C29.2066 11.0206 31.0159 10.9907 32.6307 11.8688C34.1365 12.6891 35.0917 13.881 35.5849 15.1884C35.6384 15.3299 35.865 16.1464 35.8242 16.6595C35.3349 16.6971 34.8446 16.7664 34.3612 16.8983L34.2989 16.9156L34.2542 16.8675C32.4682 14.9554 29.9352 13.855 27.304 13.8473C22.7934 13.8338 18.8684 17.0003 17.9686 21.379L17.9579 21.4349L17.9034 21.456C14.5348 22.7654 12.2654 26.0475 12.2547 29.6232Z" fill="white"/>
<path fill-rule="evenodd" clip-rule="evenodd" d="M38.2998 13.6855C35.7211 10.4387 34.1181 4.80777 37.7748 1C36.3713 1.39463 35.015 2.05585 33.7935 3.00374C31.7099 4.62048 30.4932 6.84208 30.027 9.19554C30.0144 9.29013 30.0087 9.38282 30 9.4755C30.0732 9.47359 30.1474 9.45926 30.2206 9.46022C31.3689 9.46404 32.4689 9.74878 33.49 10.3059C35.2018 11.2394 36.4522 12.6517 37.1063 14.3917C37.1853 14.6019 37.481 15.6023 37.4348 16.425C37.8625 16.4805 38.2748 16.5703 38.6765 16.6954C38.6851 16.6983 38.6957 16.7002 38.7054 16.7031C39.082 16.8216 39.4423 16.9678 39.791 17.1426C39.8392 17.1665 39.8864 17.1904 39.9355 17.2153C40.238 17.3748 40.527 17.5506 40.8034 17.7494C40.9017 17.8182 40.9932 17.8918 41.0876 17.9644C41.3053 18.1364 41.5144 18.3132 41.7118 18.509C41.8554 18.6485 41.9845 18.7986 42.1164 18.9495C42.2484 19.1034 42.3813 19.2543 42.4998 19.4187C42.6703 19.6509 42.8187 19.8965 42.9622 20.1487C43.0239 20.2586 43.0932 20.3647 43.1481 20.4774C43.3157 20.8118 43.4516 21.1616 43.5662 21.5218C43.5826 21.5744 43.6047 21.6231 43.6201 21.6756C43.7454 22.1028 43.835 22.5442 43.8773 23C45.3473 22.7239 46.7817 22.1381 48.0812 21.1291C49.3055 20.1822 50.2766 19.0384 51 17.779C46.3925 20.3809 41.1878 17.3213 38.2998 13.6855Z" fill="#82BEFF"/>
<path fill-rule="evenodd" clip-rule="evenodd" d="M33 43.0311L30.2392 42.9886L32.5028 39L29.0083 39.0296L26.0435 44.9804H28.6249L25 54L33 43.0311Z" fill="#FFA800"/>
<path fill-rule="evenodd" clip-rule="evenodd" d="M37.6765 51.1816C37.8505 51.2236 37.9616 51.4024 37.9164 51.5773L37.8997 51.6399C37.8574 51.8129 37.6785 51.9223 37.5045 51.8783L35.2387 51.3291L35.7921 53.5827C35.8374 53.7566 35.7273 53.9325 35.5493 53.9765L35.4864 53.9902C35.3124 54.0342 35.1335 53.9257 35.0913 53.7518L34.5457 51.5392L32.9228 53.1439C32.794 53.269 32.5886 53.269 32.4598 53.141L32.4126 53.095C32.2878 52.967 32.2878 52.7608 32.4156 52.6328L34.0346 51.0359L31.8189 50.4975C31.6439 50.4564 31.5319 50.2805 31.5781 50.1036L31.5918 50.0411C31.6361 49.8652 31.8159 49.7596 31.9899 49.8017L34.2577 50.3509L33.7013 48.0973C33.659 47.9253 33.7701 47.7445 33.9451 47.7035L34.008 47.6878C34.1849 47.6448 34.3639 47.7523 34.4061 47.9263L34.9468 50.1349L36.5717 48.5341C36.6994 48.4081 36.9078 48.4081 37.0337 48.5371L37.0808 48.583C37.2096 48.7101 37.2067 48.9153 37.0808 49.0423L35.4589 50.6411L37.6765 51.1816ZM42.7498 43.5032C42.9237 43.5452 43.0338 43.7241 42.9906 43.898L42.9739 43.9606C42.9316 44.1335 42.7527 44.243 42.5787 44.199L40.3129 43.6498L40.8663 45.9034C40.9106 46.0773 40.8005 46.2532 40.6226 46.2972L40.5596 46.3109C40.3857 46.3548 40.2068 46.2464 40.1645 46.0724L39.6189 43.8599L37.996 45.4646C37.8672 45.5896 37.6618 45.5897 37.533 45.4616L37.4858 45.4157C37.361 45.2877 37.361 45.0815 37.4888 44.9535L39.1078 43.3566L36.8921 42.8181C36.7171 42.7771 36.6051 42.6012 36.6513 42.4243L36.665 42.3617C36.7093 42.1858 36.8892 42.0803 37.0631 42.1223L39.3309 42.6725L38.7745 40.419C38.7323 40.247 38.8433 40.0662 39.0183 40.0251L39.0812 40.0095C39.2582 39.9665 39.4371 40.074 39.4793 40.2479L40.02 42.4565L41.6449 40.8558C41.7727 40.7297 41.9811 40.7297 42.1069 40.8587L42.1541 40.9046C42.2828 41.0317 42.2799 41.2369 42.1541 41.364L40.5321 42.9628L42.7498 43.5032ZM22.1079 51.1816C22.2819 51.2236 22.392 51.4024 22.3488 51.5764L22.332 51.6389C22.2898 51.8119 22.1109 51.9213 21.9369 51.8774L19.6711 51.3281L20.2245 53.5817C20.2697 53.7557 20.1596 53.9316 19.9817 53.9755L19.9188 53.9892C19.7448 54.0332 19.5659 53.9247 19.5236 53.7508L18.9781 51.5383L17.3552 53.1429C17.2264 53.268 17.0209 53.268 16.8922 53.14L16.845 53.0941C16.7202 52.966 16.7202 52.7598 16.8479 52.6318L18.4669 51.035L16.2513 50.4965C16.0763 50.4554 15.9642 50.2795 16.0104 50.1027L16.0242 50.0401C16.0684 49.8642 16.2483 49.7587 16.4223 49.8007L18.6901 50.3509L18.1337 48.0973C18.0904 47.9253 18.2015 47.7445 18.3765 47.7035L18.4394 47.6878C18.6163 47.6448 18.7952 47.7523 18.8375 47.9263L19.3782 50.1349L21.003 48.5341C21.1308 48.4081 21.3392 48.4081 21.4651 48.5371L21.5122 48.583C21.641 48.7101 21.6381 48.9153 21.5122 49.0423L19.8903 50.6411L22.1079 51.1816ZM22.2485 43.5032C22.4215 43.5452 22.5326 43.7241 22.4893 43.898L22.4726 43.9606C22.4303 44.1335 22.2514 44.243 22.0775 44.199L19.8117 43.6498L20.3651 45.9034C20.4103 46.0773 20.3002 46.2532 20.1223 46.2972L20.0594 46.3109C19.8854 46.3548 19.7065 46.2464 19.6642 46.0724L19.1187 43.8599L17.4957 45.4646C17.367 45.5896 17.1615 45.5897 17.0327 45.4616L16.9856 45.4157C16.8607 45.2877 16.8607 45.0815 16.9885 44.9535L18.6075 43.3566L16.3918 42.8181C16.2169 42.7771 16.1048 42.6012 16.151 42.4243L16.1648 42.3617C16.209 42.1858 16.3889 42.0803 16.5629 42.1223L18.8306 42.6725L18.2743 40.419C18.231 40.247 18.3421 40.0662 18.5171 40.0251L18.58 40.0095C18.7569 39.9665 18.9358 40.074 18.9781 40.2479L19.5187 42.4565L21.1436 40.8558C21.2714 40.7297 21.4798 40.7297 21.6056 40.8587L21.6528 40.9046C21.7816 41.0317 21.7786 41.2369 21.6528 41.364L20.0309 42.9628L22.2485 43.5032Z" fill="#38C0E0"/>
</svg>
