<svg width="55" height="55" viewBox="0 0 55 55" fill="none" xmlns="http://www.w3.org/2000/svg">
<path fill-rule="evenodd" clip-rule="evenodd" d="M43.3016 24.9663C45.5555 26.0022 47.0058 28.2551 47 30.7083C46.9903 34.1887 44.1255 37.0106 40.6149 37L21.1329 36.9432C17.0698 36.9316 13.7732 33.6486 13.7848 29.628C13.7936 26.6666 15.6739 23.9487 18.4647 22.8636L19.2925 22.5411L19.4685 21.6804C20.2234 18.0055 23.519 15.3473 27.301 15.3588C29.5092 15.3656 31.6356 16.2898 33.1336 17.8938L33.8087 18.6178L34.7697 18.355C35.3174 18.2057 35.8738 18.1287 36.4224 18.1306C39.5323 18.1393 42.1402 20.5482 42.36 23.6146L42.4281 24.5658L43.3016 24.9663ZM12.2547 29.6232C12.2518 30.5629 12.4026 31.4689 12.6778 32.3209C11.5008 32.1091 10.5524 31.8482 10.5524 31.8482C7.09724 30.6418 4.68193 27.2452 5.03406 23.3508C5.32005 20.1862 7.55151 17.5164 10.5398 16.3524L11.2041 16.0934L11.4045 15.1229C12.424 10.1541 17.5688 6.83349 22.8371 8.38451C24.4178 8.84953 25.8127 9.79786 26.9324 10.9965L27.5637 11.6733C27.5637 11.6733 27.6075 11.6993 27.6746 11.7407C29.2066 11.0206 31.0159 10.9907 32.6307 11.8688C34.1365 12.6891 35.0917 13.881 35.5849 15.1884C35.6384 15.3299 35.865 16.1464 35.8242 16.6595C35.3349 16.6971 34.8446 16.7664 34.3612 16.8983L34.2989 16.9156L34.2542 16.8675C32.4682 14.9554 29.9352 13.855 27.304 13.8473C22.7934 13.8338 18.8684 17.0003 17.9686 21.379L17.9579 21.4349L17.9034 21.456C14.5348 22.7654 12.2654 26.0475 12.2547 29.6232Z" fill="white"/>
<path fill-rule="evenodd" clip-rule="evenodd" d="M38.2998 13.6855C35.7211 10.4387 34.1181 4.80777 37.7748 1C36.3713 1.39463 35.015 2.05585 33.7935 3.00374C31.7099 4.62048 30.4932 6.84208 30.027 9.19554C30.0144 9.29013 30.0087 9.38282 30 9.4755C30.0732 9.47359 30.1474 9.45926 30.2206 9.46022C31.3689 9.46404 32.4689 9.74878 33.49 10.3059C35.2018 11.2394 36.4522 12.6517 37.1063 14.3917C37.1853 14.6019 37.481 15.6023 37.4348 16.425C37.8625 16.4805 38.2748 16.5703 38.6765 16.6954C38.6851 16.6983 38.6957 16.7002 38.7054 16.7031C39.082 16.8216 39.4423 16.9678 39.791 17.1426C39.8392 17.1665 39.8864 17.1904 39.9355 17.2153C40.238 17.3748 40.527 17.5506 40.8034 17.7494C40.9017 17.8182 40.9932 17.8918 41.0876 17.9644C41.3053 18.1364 41.5144 18.3132 41.7118 18.509C41.8554 18.6485 41.9845 18.7986 42.1164 18.9495C42.2484 19.1034 42.3813 19.2543 42.4998 19.4187C42.6703 19.6509 42.8187 19.8965 42.9622 20.1487C43.0239 20.2586 43.0932 20.3647 43.1481 20.4774C43.3157 20.8118 43.4516 21.1616 43.5662 21.5218C43.5826 21.5744 43.6047 21.6231 43.6201 21.6756C43.7454 22.1028 43.835 22.5442 43.8773 23C45.3473 22.7239 46.7817 22.1381 48.0812 21.1291C49.3055 20.1822 50.2766 19.0384 51 17.779C46.3925 20.3809 41.1878 17.3213 38.2998 13.6855Z" fill="#82BEFF"/>
<path fill-rule="evenodd" clip-rule="evenodd" d="M39.7599 43.3255C39.927 43.3654 40.0337 43.5351 39.9903 43.7002L39.9742 43.7596C39.9336 43.9238 39.7618 44.0277 39.5947 43.986L37.4187 43.4646L37.9502 45.6039C37.9937 45.769 37.8879 45.936 37.7171 45.9777L37.6566 45.9907C37.4896 46.0324 37.3177 45.9295 37.2771 45.7643L36.7532 43.6641L35.1946 45.1873C35.0709 45.3061 34.8736 45.3061 34.75 45.1845L34.7047 45.1409C34.5848 45.0194 34.5848 44.8237 34.7075 44.7022L36.2623 43.1863L34.1345 42.6752C33.9664 42.6362 33.8588 42.4692 33.9032 42.3013L33.9164 42.2419C33.9589 42.0749 34.1316 41.9748 34.2987 42.0146L36.4766 42.5369L35.9423 40.3977C35.9017 40.2344 36.0084 40.0628 36.1764 40.0238L36.2368 40.009C36.4067 39.9682 36.5786 40.0702 36.6192 40.2354L37.1384 42.3319L38.6989 40.8124C38.8216 40.6927 39.0217 40.6927 39.1425 40.8152L39.1879 40.8588C39.3115 40.9794 39.3087 41.1742 39.1879 41.2948L37.6302 42.8125L39.7599 43.3255ZM21.8668 43.3255C22.0339 43.3654 22.1396 43.5351 22.0981 43.7002L22.082 43.7596C22.0414 43.9238 21.8696 44.0277 21.7025 43.986L19.5265 43.4646L20.058 45.6039C20.1005 45.769 19.9948 45.936 19.8239 45.9777L19.7635 45.9907C19.5964 46.0324 19.4246 45.9295 19.384 45.7643L18.86 43.6641L17.3015 45.1873C17.1778 45.3061 16.9805 45.3061 16.8568 45.1845L16.8115 45.1409C16.6916 45.0194 16.6916 44.8237 16.8143 44.7022L18.3692 43.1863L16.2413 42.6752C16.0733 42.6362 15.9657 42.4692 16.01 42.3013L16.0232 42.2419C16.0657 42.0749 16.2385 41.9748 16.4056 42.0146L18.5834 42.5369L18.0491 40.3977C18.0085 40.2344 18.1152 40.0628 18.2832 40.0238L18.3437 40.009C18.5136 39.9682 18.6854 40.0702 18.726 40.2354L19.2452 42.3319L20.8057 40.8124C20.9284 40.6927 21.1286 40.6927 21.2494 40.8152L21.2947 40.8588C21.4184 40.9794 21.4155 41.1742 21.2947 41.2948L19.7371 42.8125L21.8668 43.3255Z" fill="#38C0E0"/>
<path fill-rule="evenodd" clip-rule="evenodd" d="M31 43.0311L28.2392 42.9886L30.5028 39L27.0083 39.0296L24.0435 44.9804H26.6249L23 54L31 43.0311Z" fill="#FFA800"/>
</svg>
