<svg width="55" height="55" viewBox="0 0 55 55" fill="none" xmlns="http://www.w3.org/2000/svg">
<path fill-rule="evenodd" clip-rule="evenodd" d="M43.3016 24.9663C45.5555 26.0022 47.0058 28.2551 47 30.7083C46.9903 34.1887 44.1255 37.0106 40.6149 37L21.1329 36.9432C17.0698 36.9316 13.7732 33.6486 13.7848 29.628C13.7936 26.6666 15.6739 23.9487 18.4647 22.8636L19.2925 22.5411L19.4685 21.6804C20.2234 18.0055 23.519 15.3473 27.301 15.3588C29.5092 15.3656 31.6356 16.2898 33.1336 17.8938L33.8087 18.6178L34.7697 18.355C35.3174 18.2057 35.8738 18.1287 36.4224 18.1306C39.5323 18.1393 42.1402 20.5482 42.36 23.6146L42.4281 24.5658L43.3016 24.9663ZM12.2547 29.6232C12.2518 30.5629 12.4026 31.4689 12.6778 32.3209C11.5008 32.1091 10.5524 31.8482 10.5524 31.8482C7.09724 30.6418 4.68193 27.2452 5.03406 23.3508C5.32005 20.1862 7.55151 17.5164 10.5398 16.3524L11.2041 16.0934L11.4045 15.1229C12.424 10.1541 17.5688 6.83349 22.8371 8.38451C24.4178 8.84953 25.8127 9.79786 26.9324 10.9965L27.5637 11.6733C27.5637 11.6733 27.6075 11.6993 27.6746 11.7407C29.2066 11.0206 31.0159 10.9907 32.6307 11.8688C34.1365 12.6891 35.0917 13.881 35.5849 15.1884C35.6384 15.3299 35.865 16.1464 35.8242 16.6595C35.3349 16.6971 34.8446 16.7664 34.3612 16.8983L34.2989 16.9156L34.2542 16.8675C32.4682 14.9554 29.9352 13.855 27.304 13.8473C22.7934 13.8338 18.8684 17.0003 17.9686 21.379L17.9579 21.4349L17.9034 21.456C14.5348 22.7654 12.2654 26.0475 12.2547 29.6232Z" fill="white"/>
<path fill-rule="evenodd" clip-rule="evenodd" d="M38.2998 13.6855C35.7211 10.4387 34.1181 4.80777 37.7748 1C36.3713 1.39463 35.015 2.05585 33.7935 3.00374C31.7099 4.62048 30.4932 6.84208 30.027 9.19554C30.0144 9.29013 30.0087 9.38282 30 9.4755C30.0732 9.47359 30.1474 9.45926 30.2206 9.46022C31.3689 9.46404 32.4689 9.74878 33.49 10.3059C35.2018 11.2394 36.4522 12.6517 37.1063 14.3917C37.1853 14.6019 37.481 15.6023 37.4348 16.425C37.8625 16.4805 38.2748 16.5703 38.6765 16.6954C38.6851 16.6983 38.6957 16.7002 38.7054 16.7031C39.082 16.8216 39.4423 16.9678 39.791 17.1426C39.8392 17.1665 39.8864 17.1904 39.9355 17.2153C40.238 17.3748 40.527 17.5506 40.8034 17.7494C40.9017 17.8182 40.9932 17.8918 41.0876 17.9644C41.3053 18.1364 41.5144 18.3132 41.7118 18.509C41.8554 18.6485 41.9845 18.7986 42.1164 18.9495C42.2484 19.1034 42.3813 19.2543 42.4998 19.4187C42.6703 19.6509 42.8187 19.8965 42.9622 20.1487C43.0239 20.2586 43.0932 20.3647 43.1481 20.4774C43.3157 20.8118 43.4516 21.1616 43.5662 21.5218C43.5826 21.5744 43.6047 21.6231 43.6201 21.6756C43.7454 22.1028 43.835 22.5442 43.8773 23C45.3473 22.7239 46.7817 22.1381 48.0812 21.1291C49.3055 20.1822 50.2766 19.0384 51 17.779C46.3925 20.3809 41.1878 17.3213 38.2998 13.6855Z" fill="#82BEFF"/>
<path fill-rule="evenodd" clip-rule="evenodd" d="M21.6276 43.5034C21.8032 43.5455 21.9153 43.7243 21.8706 43.8983L21.8538 43.9608C21.8111 44.1338 21.6306 44.2433 21.455 44.1993L19.1687 43.65L19.7272 45.9038C19.7728 46.0777 19.6617 46.2537 19.4822 46.2976L19.4187 46.3113C19.2431 46.3553 19.0626 46.2468 19.0199 46.0728L18.4694 43.8602L16.8318 45.4649C16.7019 45.59 16.4946 45.59 16.3646 45.462L16.317 45.4161C16.191 45.288 16.191 45.0818 16.32 44.9538L17.9536 43.3568L15.7179 42.8183C15.5413 42.7773 15.4283 42.6014 15.4749 42.4245L15.4888 42.3619C15.5334 42.186 15.7149 42.0804 15.8905 42.1225L18.1788 42.6727L17.6174 40.419C17.5737 40.247 17.6858 40.0662 17.8624 40.0251L17.9259 40.0095C18.1044 39.9665 18.2849 40.074 18.3276 40.2479L18.8731 42.4567L20.5127 40.8558C20.6417 40.7298 20.852 40.7298 20.9789 40.8588L21.0265 40.9047C21.1565 41.0318 21.1535 41.237 21.0265 41.3641L19.3899 42.963L21.6276 43.5034ZM37.2837 51.1823C37.4593 51.2244 37.5714 51.4032 37.5258 51.5772L37.5089 51.6397C37.4662 51.8127 37.2857 51.9222 37.1102 51.8782L34.8238 51.3289L35.3823 53.5827C35.4279 53.7566 35.3168 53.9325 35.1373 53.9765L35.0738 53.9902C34.8982 54.0342 34.7177 53.9257 34.675 53.7517L34.1245 51.5391L32.4869 53.1438C32.357 53.2689 32.1497 53.2689 32.0197 53.1409L31.9721 53.095C31.8462 52.9669 31.8462 52.7607 31.9751 52.6327L33.6088 51.0357L31.373 50.4972C31.1965 50.4562 31.0834 50.2803 31.13 50.1034L31.1439 50.0408C31.1885 49.8649 31.37 49.7593 31.5456 49.8014L33.8339 50.3516L33.2725 48.0979C33.2299 47.9259 33.3419 47.7451 33.5185 47.704L33.582 47.6884C33.7605 47.6454 33.941 47.7529 33.9837 47.9268L34.5292 50.1356L36.1688 48.5347C36.2978 48.4087 36.5081 48.4087 36.635 48.5377L36.6826 48.5836C36.8126 48.7107 36.8096 48.9159 36.6826 49.043L35.046 50.6419L37.2837 51.1823ZM27.337 51.1823C27.5126 51.2244 27.6246 51.4032 27.579 51.5772L27.5621 51.6397C27.5195 51.8127 27.339 51.9222 27.1634 51.8782L24.8771 51.3289L25.4355 53.5827C25.4811 53.7566 25.3701 53.9325 25.1905 53.9765L25.127 53.9902C24.9515 54.0342 24.7709 53.9257 24.7283 53.7517L24.1778 51.5391L22.5402 53.1438C22.4102 53.2689 22.2029 53.2689 22.073 53.1409L22.0254 53.095C21.8994 52.9669 21.8994 52.7607 22.0284 52.6327L23.662 51.0357L21.4263 50.4972C21.2497 50.4562 21.1366 50.2803 21.1833 50.1034L21.1971 50.0408C21.2418 49.8649 21.4233 49.7593 21.5989 49.8014L23.8872 50.3516L23.3258 48.0979C23.2831 47.9259 23.3952 47.7451 23.5717 47.704L23.6352 47.6884C23.8138 47.6454 23.9943 47.7529 24.0369 47.9268L24.5825 50.1356L26.2221 48.5347C26.351 48.4087 26.5613 48.4087 26.6883 48.5377L26.7359 48.5836C26.8658 48.7107 26.8629 48.9159 26.7359 49.043L25.0993 50.6419L27.337 51.1823ZM16.1643 51.1823C16.3398 51.2244 16.4509 51.4032 16.4073 51.5772L16.3904 51.6397C16.3478 51.8127 16.1672 51.9222 15.9917 51.8782L13.7053 51.3289L14.2638 53.5827C14.3084 53.7566 14.1973 53.9325 14.0178 53.9765L13.9543 53.9902C13.7787 54.0342 13.5982 53.9257 13.5556 53.7517L13.0051 51.5391L11.3674 53.1438C11.2375 53.2689 11.0302 53.2689 10.9003 53.1409L10.8526 53.095C10.7267 52.9669 10.7267 52.7607 10.8556 52.6327L12.4893 51.0357L10.2535 50.4972C10.077 50.4562 9.96391 50.2803 10.0105 50.1034L10.0244 50.0408C10.069 49.8649 10.2506 49.7593 10.4261 49.8014L12.7144 50.3516L12.153 48.0979C12.1104 47.9259 12.2225 47.7451 12.399 47.704L12.4625 47.6884C12.641 47.6454 12.8216 47.7529 12.8642 47.9268L13.4098 50.1356L15.0494 48.5347C15.1783 48.4087 15.3886 48.4087 15.5156 48.5377L15.5632 48.5836C15.6931 48.7107 15.6901 48.9159 15.5632 49.043L13.9265 50.6419L16.1643 51.1823ZM42.7481 43.5034C42.9237 43.5455 43.0347 43.7243 42.9901 43.8983L42.9733 43.9608C42.9306 44.1338 42.7501 44.2433 42.5745 44.1993L40.2882 43.65L40.8466 45.9038C40.8923 46.0777 40.7812 46.2537 40.6016 46.2976L40.5381 46.3113C40.3626 46.3553 40.1821 46.2468 40.1394 46.0728L39.5889 43.8602L37.9513 45.4649C37.8213 45.59 37.614 45.59 37.4841 45.462L37.4365 45.4161C37.3105 45.288 37.3105 45.0818 37.4395 44.9538L39.0731 43.3568L36.8374 42.8183C36.6608 42.7773 36.5477 42.6014 36.5944 42.4245L36.6083 42.3619C36.6529 42.186 36.8344 42.0804 37.01 42.1225L39.2983 42.6727L38.7369 40.419C38.6942 40.247 38.8063 40.0662 38.9829 40.0251L39.0463 40.0095C39.2249 39.9665 39.4054 40.074 39.4481 40.2479L39.9936 42.4567L41.6332 40.8558C41.7621 40.7298 41.9724 40.7298 42.0994 40.8588L42.147 40.9047C42.2769 41.0318 42.274 41.237 42.147 41.3641L40.5104 42.963L42.7481 43.5034ZM32.1884 43.5034C32.3629 43.5455 32.475 43.7243 32.4304 43.8983L32.4135 43.9608C32.3709 44.1338 32.1903 44.2433 32.0148 44.1993L29.7285 43.65L30.2869 45.9038C30.3325 46.0777 30.2214 46.2537 30.0419 46.2976L29.9784 46.3113C29.8028 46.3553 29.6223 46.2468 29.5797 46.0728L29.0292 43.8602L27.3915 45.4649C27.2616 45.59 27.0543 45.59 26.9244 45.462L26.8767 45.4161C26.7508 45.288 26.7508 45.0818 26.8797 44.9538L28.5134 43.3568L26.2776 42.8183C26.1011 42.7773 25.988 42.6014 26.0346 42.4245L26.0485 42.3619C26.0931 42.186 26.2747 42.0804 26.4502 42.1225L28.7385 42.6727L28.1771 40.419C28.1345 40.247 28.2466 40.0662 28.4231 40.0251L28.4866 40.0095C28.6651 39.9665 28.8457 40.074 28.8883 40.2479L29.4339 42.4567L31.0735 40.8558C31.2024 40.7298 31.4127 40.7298 31.5397 40.8588L31.5873 40.9047C31.7172 41.0318 31.7142 41.237 31.5873 41.3641L29.9506 42.963L32.1884 43.5034Z" fill="#38C0E0"/>
</svg>
