<svg width="55" height="55" viewBox="0 0 55 55" fill="none" xmlns="http://www.w3.org/2000/svg">
<path fill-rule="evenodd" clip-rule="evenodd" d="M43.3016 25.5513C45.5555 26.623 47.0058 28.9536 47 31.4913C46.9903 35.0917 44.1255 38.0109 40.6149 38L21.1329 37.9412C17.0698 37.9293 13.7732 34.533 13.7848 30.3738C13.7936 27.3102 15.6739 24.4986 18.4647 23.3762L19.2925 23.0425L19.4685 22.1521C20.2234 18.3505 23.519 15.6006 27.301 15.6126C29.5092 15.6195 31.6356 16.5757 33.1336 18.235L33.8087 18.9839L34.7697 18.712C35.3174 18.5577 35.8738 18.478 36.4224 18.48C39.5323 18.4889 42.1402 20.9808 42.36 24.153L42.4281 25.137L43.3016 25.5513ZM12.2547 30.3689C12.2518 31.3409 12.4026 32.2781 12.6778 33.1596C11.5008 32.9404 10.5524 32.6705 10.5524 32.6705C7.09724 31.4226 4.68193 27.9088 5.03406 23.8801C5.32005 20.6064 7.55151 17.8445 10.5398 16.6404L11.2041 16.3725L11.4045 15.3686C12.424 10.2284 17.5688 6.79327 22.8371 8.39777C24.4178 8.87883 25.8127 9.85986 26.9324 11.0998L27.5637 11.8C27.5637 11.8 27.6075 11.8269 27.6746 11.8697C29.2066 11.1247 31.0159 11.0939 32.6307 12.0022C34.1365 12.8508 35.0917 14.0838 35.5849 15.4363C35.6384 15.5827 35.865 16.4273 35.8242 16.9581C35.3349 16.997 34.8446 17.0687 34.3612 17.2051L34.2989 17.2231L34.2542 17.1733C32.4682 15.1953 29.9352 14.0569 27.304 14.0489C22.7934 14.035 18.8684 17.3107 17.9686 21.8404L17.9579 21.8981L17.9034 21.92C14.5348 23.2746 12.2654 26.6698 12.2547 30.3689Z" fill="white"/>
<path fill-rule="evenodd" clip-rule="evenodd" d="M38.2998 14.2622C35.7211 10.8677 34.1181 4.98085 37.7748 1C36.3713 1.41257 35.015 2.10385 33.7935 3.09481C31.7099 4.78505 30.4932 7.10763 30.027 9.56806C30.0144 9.66696 30.0087 9.76385 30 9.86075C30.0732 9.85876 30.1474 9.84377 30.2206 9.84477C31.3689 9.84877 32.4689 10.1465 33.49 10.7288C35.2018 11.7048 36.4522 13.1813 37.1063 15.0004C37.1853 15.2202 37.481 16.2661 37.4348 17.1262C37.8625 17.1841 38.2748 17.278 38.6765 17.4089C38.6851 17.4119 38.6957 17.4139 38.7054 17.4169C39.082 17.5407 39.4423 17.6936 39.791 17.8764C39.8392 17.9014 39.8864 17.9263 39.9355 17.9523C40.238 18.1191 40.527 18.3029 40.8034 18.5107C40.9017 18.5827 40.9932 18.6596 41.0876 18.7355C41.3053 18.9153 41.5144 19.1001 41.7118 19.3049C41.8554 19.4507 41.9845 19.6076 42.1164 19.7654C42.2484 19.9262 42.3813 20.0841 42.4998 20.2559C42.6703 20.4987 42.8187 20.7554 42.9622 21.0191C43.0239 21.134 43.0932 21.2449 43.1481 21.3628C43.3157 21.7124 43.4516 22.078 43.5662 22.4546C43.5826 22.5096 43.6047 22.5605 43.6201 22.6154C43.7454 23.062 43.835 23.5235 43.8773 24C45.3473 23.7113 46.7817 23.0989 48.0812 22.044C49.3055 21.0541 50.2766 19.8583 51 18.5417C46.3925 21.2619 41.1878 18.0632 38.2998 14.2622Z" fill="#82BEFF"/>
<path fill-rule="evenodd" clip-rule="evenodd" d="M36.3196 45.769C35.0192 48.2326 32.0518 46.6207 33.3001 44.243C34.3597 42.2221 36.9054 41 36.9054 41C36.9054 41 37.3477 43.8128 36.3196 45.769Z" fill="#009EFF"/>
<path fill-rule="evenodd" clip-rule="evenodd" d="M24.7638 44.3255L22.6711 43.8125L24.2017 42.2948C24.3204 42.1742 24.3232 41.9794 24.2017 41.8588L24.1572 41.8152C24.0385 41.6927 23.8418 41.6927 23.7212 41.8124L22.1879 43.3319L21.6777 41.2354C21.6378 41.0702 21.469 40.9682 21.302 41.009L21.2426 41.0238C21.0775 41.0628 20.9727 41.2344 21.0135 41.3977L21.5385 43.5369L19.3985 43.0146C19.2343 42.9748 19.0646 43.0749 19.0228 43.2419L19.0098 43.3013C18.9662 43.4692 19.072 43.6362 19.2371 43.6752L21.328 44.1863L19.8002 45.7022C19.6796 45.8237 19.6796 46.0194 19.7974 46.1409L19.8419 46.1845C19.9634 46.3061 20.1573 46.3061 20.2788 46.1873L21.8103 44.6641L22.3251 46.7643C22.365 46.9295 22.5339 47.0324 22.698 46.9907L22.7574 46.9777C22.9253 46.936 23.0292 46.769 22.9865 46.6039L22.4643 44.4646L24.6024 44.986C24.7666 45.0277 24.9355 44.9238 24.9753 44.7596L24.9911 44.7002C25.0319 44.5351 24.928 44.3654 24.7638 44.3255Z" fill="#38C0E0"/>
</svg>
