<svg width="55" height="55" viewBox="0 0 55 55" fill="none" xmlns="http://www.w3.org/2000/svg">
<path fill-rule="evenodd" clip-rule="evenodd" d="M43.3016 24.9663C45.5555 26.0022 47.0058 28.2551 47 30.7083C46.9903 34.1887 44.1255 37.0106 40.6149 37L21.1329 36.9432C17.0698 36.9316 13.7732 33.6486 13.7848 29.628C13.7936 26.6666 15.6739 23.9487 18.4647 22.8636L19.2925 22.5411L19.4685 21.6804C20.2234 18.0055 23.519 15.3473 27.301 15.3588C29.5092 15.3656 31.6356 16.2898 33.1336 17.8938L33.8087 18.6178L34.7697 18.355C35.3174 18.2057 35.8738 18.1287 36.4224 18.1306C39.5323 18.1393 42.1402 20.5482 42.36 23.6146L42.4281 24.5658L43.3016 24.9663ZM12.2547 29.6232C12.2518 30.5629 12.4026 31.4689 12.6778 32.3209C11.5008 32.1091 10.5524 31.8482 10.5524 31.8482C7.09724 30.6418 4.68193 27.2452 5.03406 23.3508C5.32005 20.1862 7.55151 17.5164 10.5398 16.3524L11.2041 16.0934L11.4045 15.1229C12.424 10.1541 17.5688 6.83349 22.8371 8.38451C24.4178 8.84953 25.8127 9.79786 26.9324 10.9965L27.5637 11.6733C27.5637 11.6733 27.6075 11.6993 27.6746 11.7407C29.2066 11.0206 31.0159 10.9907 32.6307 11.8688C34.1365 12.6891 35.0917 13.881 35.5849 15.1884C35.6384 15.3299 35.865 16.1464 35.8242 16.6595C35.3349 16.6971 34.8446 16.7664 34.3612 16.8983L34.2989 16.9156L34.2542 16.8675C32.4682 14.9554 29.9352 13.855 27.304 13.8473C22.7934 13.8338 18.8684 17.0003 17.9686 21.379L17.9579 21.4349L17.9034 21.456C14.5348 22.7654 12.2654 26.0475 12.2547 29.6232Z" fill="white"/>
<path fill-rule="evenodd" clip-rule="evenodd" d="M38.2998 13.6855C35.7211 10.4387 34.1181 4.80777 37.7748 1C36.3713 1.39463 35.015 2.05585 33.7935 3.00374C31.7099 4.62048 30.4932 6.84208 30.027 9.19554C30.0144 9.29013 30.0087 9.38282 30 9.4755C30.0732 9.47359 30.1474 9.45926 30.2206 9.46022C31.3689 9.46404 32.4689 9.74878 33.49 10.3059C35.2018 11.2394 36.4522 12.6517 37.1063 14.3917C37.1853 14.6019 37.481 15.6023 37.4348 16.425C37.8625 16.4805 38.2748 16.5703 38.6765 16.6954C38.6851 16.6983 38.6957 16.7002 38.7054 16.7031C39.082 16.8216 39.4423 16.9678 39.791 17.1426C39.8392 17.1665 39.8864 17.1904 39.9355 17.2153C40.238 17.3748 40.527 17.5506 40.8034 17.7494C40.9017 17.8182 40.9932 17.8918 41.0876 17.9644C41.3053 18.1364 41.5144 18.3132 41.7118 18.509C41.8554 18.6485 41.9845 18.7986 42.1164 18.9495C42.2484 19.1034 42.3813 19.2543 42.4998 19.4187C42.6703 19.6509 42.8187 19.8965 42.9622 20.1487C43.0239 20.2586 43.0932 20.3647 43.1481 20.4774C43.3157 20.8118 43.4516 21.1616 43.5662 21.5218C43.5826 21.5744 43.6047 21.6231 43.6201 21.6756C43.7454 22.1028 43.835 22.5442 43.8773 23C45.3473 22.7239 46.7817 22.1381 48.0812 21.1291C49.3055 20.1822 50.2766 19.0384 51 17.779C46.3925 20.3809 41.1878 17.3213 38.2998 13.6855Z" fill="#82BEFF"/>
<path fill-rule="evenodd" clip-rule="evenodd" d="M22.7293 43.5034C22.9011 43.5455 23.0114 43.7243 22.9685 43.8983L22.9519 43.9608C22.9099 44.1338 22.7322 44.2433 22.5594 44.1993L20.309 43.65L20.8586 45.9038C20.9035 46.0777 20.7942 46.2537 20.6175 46.2976L20.555 46.3113C20.3822 46.3553 20.2045 46.2468 20.1625 46.0728L19.6206 43.8602L18.0087 45.4649C17.8808 45.59 17.6768 45.59 17.5489 45.462L17.502 45.4161C17.378 45.288 17.378 45.0818 17.5049 44.9538L19.1129 43.3568L16.9123 42.8183C16.7385 42.7773 16.6272 42.6014 16.6731 42.4245L16.6868 42.3619C16.7307 42.186 16.9094 42.0804 17.0822 42.1225L19.3346 42.6727L18.782 40.419C18.739 40.247 18.8493 40.0662 19.0231 40.0251L19.0856 40.0095C19.2613 39.9665 19.439 40.074 19.481 40.2479L20.018 42.4567L21.6319 40.8558C21.7588 40.7298 21.9658 40.7298 22.0908 40.8588L22.1376 40.9047C22.2655 41.0318 22.2626 41.237 22.1376 41.3641L20.5267 42.963L22.7293 43.5034ZM17.0675 51.1823C17.2403 51.2244 17.3497 51.4032 17.3067 51.5772L17.2901 51.6397C17.2482 51.8127 17.0705 51.9222 16.8976 51.8782L14.6472 51.3289L15.1969 53.5827C15.2408 53.7566 15.1315 53.9325 14.9547 53.9765L14.8923 53.9902C14.7194 54.0342 14.5418 53.9257 14.4998 53.7517L13.9579 51.5391L12.346 53.1438C12.2181 53.2689 12.014 53.2689 11.8861 53.1409L11.8393 53.095C11.7153 52.9669 11.7153 52.7607 11.8422 52.6327L13.4502 51.0357L11.2496 50.4972C11.0758 50.4562 10.9645 50.2803 11.0104 50.1034L11.024 50.0408C11.068 49.8649 11.2466 49.7593 11.4194 49.8014L13.6718 50.3516L13.1192 48.0979C13.0773 47.9259 13.1876 47.7451 13.3614 47.704L13.4239 47.6884C13.5996 47.6454 13.7773 47.7529 13.8193 47.9268L14.3563 50.1356L15.9701 48.5347C16.0971 48.4087 16.304 48.4087 16.429 48.5377L16.4759 48.5836C16.6038 48.7107 16.6008 48.9159 16.4759 49.043L14.8649 50.6419L17.0675 51.1823ZM31.9654 51.1823C32.1382 51.2244 32.2475 51.4032 32.2036 51.5772L32.187 51.6397C32.145 51.8127 31.9673 51.9222 31.7945 51.8782L29.5441 51.3289L30.0938 53.5827C30.1387 53.7566 30.0293 53.9325 29.8526 53.9765L29.7901 53.9902C29.6173 54.0342 29.4396 53.9257 29.3976 53.7517L28.8558 51.5391L27.2438 53.1438C27.1159 53.2689 26.9119 53.2689 26.784 53.1409L26.7371 53.095C26.6131 52.9669 26.6131 52.7607 26.7401 52.6327L28.3481 51.0357L26.1474 50.4972C25.9736 50.4562 25.8623 50.2803 25.9082 50.1034L25.9219 50.0408C25.9658 49.8649 26.1445 49.7593 26.3173 49.8014L28.5697 50.3516L28.0171 48.0979C27.9751 47.9259 28.0854 47.7451 28.2592 47.704L28.3217 47.6884C28.4975 47.6454 28.6751 47.7529 28.7171 47.9268L29.2541 50.1356L30.868 48.5347C30.9949 48.4087 31.2019 48.4087 31.3269 48.5377L31.3737 48.5836C31.5016 48.7107 31.4987 48.9159 31.3737 49.043L29.7628 50.6419L31.9654 51.1823ZM37.7521 43.5034C37.9239 43.5455 38.0343 43.7243 37.9903 43.8983L37.9737 43.9608C37.9317 44.1338 37.7541 44.2433 37.5812 44.1993L35.3308 43.65L35.8805 45.9038C35.9254 46.0777 35.816 46.2537 35.6393 46.2976L35.5768 46.3113C35.404 46.3553 35.2263 46.2468 35.1844 46.0728L34.6425 43.8602L33.0306 45.4649C32.9027 45.59 32.6986 45.59 32.5707 45.462L32.5238 45.4161C32.3998 45.288 32.3999 45.0818 32.5268 44.9538L34.1348 43.3568L31.9341 42.8183C31.7604 42.7773 31.649 42.6014 31.6949 42.4245L31.7086 42.3619C31.7525 42.186 31.9312 42.0804 32.104 42.1225L34.3564 42.6727L33.8038 40.419C33.7618 40.247 33.8722 40.0662 34.0459 40.0251L34.1084 40.0095C34.2842 39.9665 34.4619 40.074 34.5038 40.2479L35.0408 42.4567L36.6547 40.8558C36.7816 40.7298 36.9886 40.7298 37.1136 40.8588L37.1604 40.9047C37.2883 41.0318 37.2854 41.237 37.1604 41.3641L35.5495 42.963L37.7521 43.5034Z" fill="#38C0E0"/>
</svg>
