<svg width="55" height="55" viewBox="0 0 55 55" fill="none" xmlns="http://www.w3.org/2000/svg">
<path fill-rule="evenodd" clip-rule="evenodd" d="M43.2136 25.5513C45.5211 26.623 47.006 28.9536 47 31.4913C46.99 35.0917 44.0571 38.0109 40.4629 38L20.517 37.9412C16.3571 37.9293 12.982 34.533 12.994 30.3738C13.003 27.3102 14.928 24.4986 17.7853 23.3762L18.6328 23.0425L18.813 22.1521C19.5858 18.3505 22.96 15.6006 26.832 15.6126C29.0927 15.6195 31.2697 16.5757 32.8034 18.235L33.4946 18.9839L34.4785 18.712C35.0392 18.5577 35.6089 18.478 36.1706 18.48C39.3545 18.4889 42.0245 20.9808 42.2495 24.153L42.3193 25.137L43.2136 25.5513ZM11.4274 30.3689C11.4244 31.3409 11.5788 32.2781 11.8607 33.1596C10.6556 32.9404 9.68461 32.6705 9.68461 32.6705C6.14718 31.4226 3.67436 27.9088 4.03487 23.8801C4.32767 20.6064 6.61226 17.8445 9.67167 16.6404L10.3519 16.3725L10.557 15.3686C11.6007 10.2284 16.868 6.79327 22.2618 8.39777C23.8802 8.87883 25.3083 9.85986 26.4546 11.0998L27.1009 11.8C27.1009 11.8 27.1457 11.8269 27.2144 11.8697C28.783 11.1247 30.6354 11.0939 32.2885 12.0022C33.8302 12.8508 34.8082 14.0838 35.3131 15.4363C35.3679 15.5827 35.5999 16.4273 35.5581 16.9581C35.0571 16.997 34.5552 17.0687 34.0603 17.2051L33.9965 17.2231L33.9507 17.1733C32.1222 15.1953 29.5289 14.0569 26.835 14.0489C22.217 14.035 18.1986 17.3107 17.2774 21.8404L17.2664 21.8981L17.2106 21.92C13.7618 23.2746 11.4384 26.6698 11.4274 30.3689Z" fill="white"/>
<path fill-rule="evenodd" clip-rule="evenodd" d="M38.2998 14.2622C35.7211 10.8677 34.1181 4.98085 37.7748 1C36.3713 1.41257 35.015 2.10385 33.7935 3.09481C31.7099 4.78505 30.4932 7.10763 30.027 9.56806C30.0144 9.66696 30.0087 9.76385 30 9.86075C30.0732 9.85876 30.1474 9.84377 30.2206 9.84477C31.3689 9.84877 32.4689 10.1465 33.49 10.7288C35.2018 11.7048 36.4522 13.1813 37.1063 15.0004C37.1853 15.2202 37.481 16.2661 37.4348 17.1262C37.8625 17.1841 38.2748 17.278 38.6765 17.4089C38.6851 17.4119 38.6957 17.4139 38.7054 17.4169C39.082 17.5407 39.4423 17.6936 39.791 17.8764C39.8392 17.9014 39.8864 17.9263 39.9355 17.9523C40.238 18.1191 40.527 18.3029 40.8034 18.5107C40.9017 18.5827 40.9932 18.6596 41.0876 18.7355C41.3053 18.9153 41.5144 19.1001 41.7118 19.3049C41.8554 19.4507 41.9845 19.6076 42.1164 19.7654C42.2484 19.9262 42.3813 20.0841 42.4998 20.2559C42.6703 20.4987 42.8187 20.7554 42.9622 21.0191C43.0239 21.134 43.0932 21.2449 43.1481 21.3628C43.3157 21.7124 43.4516 22.078 43.5662 22.4546C43.5826 22.5096 43.6047 22.5605 43.6201 22.6154C43.7454 23.062 43.835 23.5235 43.8773 24C45.3473 23.7113 46.7817 23.0989 48.0812 22.044C49.3055 21.0541 50.2766 19.8583 51 18.5417C46.3925 21.2619 41.1878 18.0632 38.2998 14.2622Z" fill="#82BEFF"/>
</svg>
