<svg width="55" height="55" viewBox="0 0 55 55" fill="none" xmlns="http://www.w3.org/2000/svg">
<path fill-rule="evenodd" clip-rule="evenodd" d="M42.3897 24.9663C44.5899 26.0022 46.0057 28.2551 46 30.7083C45.9905 34.1887 43.194 37.0106 39.7669 37L20.7488 36.9432C16.7824 36.9316 13.5643 33.6486 13.5757 29.628C13.5842 26.6666 15.4197 23.9487 18.1441 22.8636L18.9522 22.5411L19.1241 21.6804C19.8609 18.0055 23.0781 15.3473 26.7701 15.3588C28.9256 15.3656 31.0014 16.2898 32.4637 17.8938L33.1227 18.6178L34.0609 18.355C34.5955 18.2057 35.1387 18.1287 35.6743 18.1306C38.7101 18.1393 41.2559 20.5482 41.4705 23.6146L41.537 24.5658L42.3897 24.9663ZM12.082 29.6232C12.0791 30.5629 12.2263 31.4689 12.495 32.3209C11.3461 32.1091 10.4202 31.8482 10.4202 31.8482C7.04731 30.6418 4.6895 27.2452 5.03325 23.3508C5.31243 20.1862 7.49076 17.5164 10.4079 16.3524L11.0564 16.0934L11.252 15.1229C12.2472 10.1541 17.2695 6.83349 22.4124 8.38451C23.9555 8.84953 25.3172 9.79786 26.4102 10.9965L27.0264 11.6733C27.0264 11.6733 27.0692 11.6993 27.1347 11.7407C28.6303 11.0206 30.3965 10.9907 31.9728 11.8688C33.4427 12.6891 34.3752 13.881 34.8567 15.1884C34.9089 15.3299 35.1302 16.1464 35.0903 16.6595C34.6126 16.6971 34.134 16.7664 33.6621 16.8983L33.6013 16.9156L33.5577 16.8675C31.8142 14.9554 29.3415 13.855 26.7729 13.8473C22.3697 13.8338 18.5382 17.0003 17.6598 21.379L17.6494 21.4349L17.5962 21.456C14.3078 22.7654 12.0924 26.0475 12.082 29.6232Z" fill="white"/>
<path fill-rule="evenodd" clip-rule="evenodd" d="M37.2998 13.6855C34.7211 10.4387 33.1181 4.80777 36.7748 1C35.3713 1.39463 34.015 2.05585 32.7935 3.00374C30.7099 4.62048 29.4932 6.84208 29.027 9.19554C29.0144 9.29013 29.0087 9.38282 29 9.4755C29.0732 9.47359 29.1474 9.45926 29.2206 9.46022C30.3689 9.46404 31.4689 9.74878 32.49 10.3059C34.2018 11.2394 35.4522 12.6517 36.1063 14.3917C36.1853 14.6019 36.481 15.6023 36.4348 16.425C36.8625 16.4805 37.2748 16.5703 37.6765 16.6954C37.6851 16.6983 37.6957 16.7002 37.7054 16.7031C38.082 16.8216 38.4423 16.9678 38.791 17.1426C38.8392 17.1665 38.8864 17.1904 38.9355 17.2153C39.238 17.3748 39.527 17.5506 39.8034 17.7494C39.9017 17.8182 39.9932 17.8918 40.0876 17.9644C40.3053 18.1364 40.5144 18.3132 40.7118 18.509C40.8554 18.6485 40.9845 18.7986 41.1164 18.9495C41.2484 19.1034 41.3813 19.2543 41.4998 19.4187C41.6703 19.6509 41.8187 19.8965 41.9622 20.1487C42.0239 20.2586 42.0932 20.3647 42.1481 20.4774C42.3157 20.8118 42.4516 21.1616 42.5662 21.5218C42.5826 21.5744 42.6047 21.6231 42.6201 21.6756C42.7454 22.1028 42.835 22.5442 42.8773 23C44.3473 22.7239 45.7817 22.1381 47.0812 21.1291C48.3055 20.1822 49.2766 19.0384 50 17.779C45.3925 20.3809 40.1878 17.3213 37.2998 13.6855Z" fill="#82BEFF"/>
<path fill-rule="evenodd" clip-rule="evenodd" d="M25.6866 42.3255C25.8485 42.3654 25.951 42.5351 25.9098 42.7002L25.8943 42.7596C25.8549 42.9238 25.6884 43.0277 25.5264 42.986L23.4173 42.4646L23.9325 44.6039C23.9745 44.769 23.8721 44.936 23.7064 44.9777L23.6479 44.9907C23.4859 45.0324 23.3194 44.9295 23.28 44.7643L22.7722 42.6641L21.2615 44.1873C21.1416 44.3061 20.9504 44.3061 20.8305 44.1845L20.7866 44.1409C20.6704 44.0194 20.6704 43.8237 20.7893 43.7022L22.2964 42.1863L20.2339 41.6752C20.071 41.6362 19.9667 41.4692 20.0097 41.3013L20.0225 41.2419C20.0637 41.0749 20.2312 40.9748 20.3931 41.0146L22.5041 41.5369L21.9862 39.3977C21.9468 39.2344 22.0502 39.0628 22.2131 39.0238L22.2717 39.009C22.4364 38.9682 22.6029 39.0702 22.6423 39.2354L23.1455 41.3319L24.6581 39.8124C24.777 39.6927 24.971 39.6927 25.0881 39.8152L25.1321 39.8588C25.2519 39.9794 25.2492 40.1742 25.1321 40.2948L23.6223 41.8125L25.6866 42.3255ZM39.7671 42.3255C39.9281 42.3654 40.0315 42.5351 39.9913 42.7002L39.9757 42.7596C39.9364 42.9238 39.7698 43.0277 39.6079 42.986L37.4987 42.4646L38.0139 44.6039C38.0551 44.769 37.9526 44.936 37.787 44.9777L37.7284 44.9907C37.5664 45.0324 37.3999 44.9295 37.3606 44.7643L36.8527 42.6641L35.342 44.1873C35.2221 44.3061 35.0309 44.3061 34.911 44.1845L34.8671 44.1409C34.7509 44.0194 34.7509 43.8237 34.8698 43.7022L36.3769 42.1863L34.3144 41.6752C34.1515 41.6362 34.0472 41.4692 34.0902 41.3013L34.103 41.2419C34.1442 41.0749 34.3117 40.9748 34.4736 41.0146L36.5846 41.5369L36.0667 39.3977C36.0274 39.2344 36.1308 39.0628 36.2936 39.0238L36.3522 39.009C36.5169 38.9682 36.6834 39.0702 36.7228 39.2354L37.2261 41.3319L38.7386 39.8124C38.8576 39.6927 39.0515 39.6927 39.1687 39.8152L39.2126 39.8588C39.3325 39.9794 39.3297 40.1742 39.2126 40.2948L37.7028 41.8125L39.7671 42.3255Z" fill="#38C0E0"/>
</svg>
