<svg width="55" height="55" viewBox="0 0 55 55" fill="none" xmlns="http://www.w3.org/2000/svg">
<path fill-rule="evenodd" clip-rule="evenodd" d="M43.3016 24.9663C45.5555 26.0022 47.0058 28.2551 47 30.7083C46.9903 34.1887 44.1255 37.0106 40.6149 37L21.1329 36.9432C17.0698 36.9316 13.7732 33.6486 13.7848 29.628C13.7936 26.6666 15.6739 23.9487 18.4647 22.8636L19.2925 22.5411L19.4685 21.6804C20.2234 18.0055 23.519 15.3473 27.301 15.3588C29.5092 15.3656 31.6356 16.2898 33.1336 17.8938L33.8087 18.6178L34.7697 18.355C35.3174 18.2057 35.8738 18.1287 36.4224 18.1306C39.5323 18.1393 42.1402 20.5482 42.36 23.6146L42.4281 24.5658L43.3016 24.9663ZM12.2547 29.6232C12.2518 30.5629 12.4026 31.4689 12.6778 32.3209C11.5008 32.1091 10.5524 31.8482 10.5524 31.8482C7.09724 30.6418 4.68193 27.2452 5.03406 23.3508C5.32005 20.1862 7.55151 17.5164 10.5398 16.3524L11.2041 16.0934L11.4045 15.1229C12.424 10.1541 17.5688 6.83349 22.8371 8.38451C24.4178 8.84953 25.8127 9.79786 26.9324 10.9965L27.5637 11.6733C27.5637 11.6733 27.6075 11.6993 27.6746 11.7407C29.2066 11.0206 31.0159 10.9907 32.6307 11.8688C34.1365 12.6891 35.0917 13.881 35.5849 15.1884C35.6384 15.3299 35.865 16.1464 35.8242 16.6595C35.3349 16.6971 34.8446 16.7664 34.3612 16.8983L34.2989 16.9156L34.2542 16.8675C32.4682 14.9554 29.9352 13.855 27.304 13.8473C22.7934 13.8338 18.8684 17.0003 17.9686 21.379L17.9579 21.4349L17.9034 21.456C14.5348 22.7654 12.2654 26.0475 12.2547 29.6232Z" fill="white"/>
<path fill-rule="evenodd" clip-rule="evenodd" d="M38.2998 14.2622C35.7211 10.8677 34.1181 4.98085 37.7748 1C36.3713 1.41257 35.015 2.10385 33.7935 3.09481C31.7099 4.78505 30.4932 7.10763 30.027 9.56806C30.0144 9.66696 30.0087 9.76385 30 9.86075C30.0732 9.85876 30.1474 9.84377 30.2206 9.84477C31.3689 9.84877 32.4689 10.1465 33.49 10.7288C35.2018 11.7048 36.4522 13.1813 37.1063 15.0004C37.1853 15.2202 37.481 16.2661 37.4348 17.1262C37.8625 17.1841 38.2748 17.278 38.6765 17.4089C38.6851 17.4119 38.6957 17.4139 38.7054 17.4169C39.082 17.5407 39.4423 17.6936 39.791 17.8764C39.8392 17.9014 39.8864 17.9263 39.9355 17.9523C40.238 18.1191 40.527 18.3029 40.8034 18.5107C40.9017 18.5827 40.9932 18.6596 41.0876 18.7355C41.3053 18.9153 41.5144 19.1001 41.7118 19.3049C41.8554 19.4507 41.9845 19.6076 42.1164 19.7654C42.2484 19.9262 42.3813 20.0841 42.4998 20.2559C42.6703 20.4987 42.8187 20.7554 42.9622 21.0191C43.0239 21.134 43.0932 21.2449 43.1481 21.3628C43.3157 21.7124 43.4516 22.078 43.5662 22.4546C43.5826 22.5096 43.6047 22.5605 43.6201 22.6154C43.7454 23.062 43.835 23.5235 43.8773 24C45.3473 23.7113 46.7817 23.0989 48.0812 22.044C49.3055 21.0541 50.2766 19.8583 51 18.5417C46.3925 21.2619 41.1878 18.0632 38.2998 14.2622Z" fill="#82BEFF"/>
<path fill-rule="evenodd" clip-rule="evenodd" d="M36.339 45.0051C35.0757 47.5906 32.193 45.899 33.4057 43.4035C34.435 41.2826 36.9081 40 36.9081 40C36.9081 40 37.3378 42.952 36.339 45.0051ZM29.6589 52.7081C28.3956 55.2936 25.5129 53.602 26.7256 51.1065C27.7549 48.9856 30.228 47.703 30.228 47.703C30.228 47.703 30.6576 50.654 29.6589 52.7081ZM23.7369 45.0051C22.4736 47.5906 19.5909 45.899 20.8036 43.4035C21.8329 41.2826 24.306 40 24.306 40C24.306 40 24.7357 42.952 23.7369 45.0051ZM17.2248 52.7081C15.9615 55.2936 13.0789 53.602 14.2915 51.1065C15.3208 48.9856 17.7939 47.703 17.7939 47.703C17.7939 47.703 18.2245 50.654 17.2248 52.7081Z" fill="#009EFF"/>
</svg>
