<svg width="55" height="55" viewBox="0 0 55 55" fill="none" xmlns="http://www.w3.org/2000/svg">
<path fill-rule="evenodd" clip-rule="evenodd" d="M43.3016 24.9663C45.5555 26.0022 47.0058 28.2551 47 30.7083C46.9903 34.1887 44.1255 37.0106 40.6149 37L21.1329 36.9432C17.0698 36.9316 13.7732 33.6486 13.7848 29.628C13.7936 26.6666 15.6739 23.9487 18.4647 22.8636L19.2925 22.5411L19.4685 21.6804C20.2234 18.0055 23.519 15.3473 27.301 15.3588C29.5092 15.3656 31.6356 16.2898 33.1336 17.8938L33.8087 18.6178L34.7697 18.355C35.3174 18.2057 35.8738 18.1287 36.4224 18.1306C39.5323 18.1393 42.1402 20.5482 42.36 23.6146L42.4281 24.5658L43.3016 24.9663ZM12.2547 29.6232C12.2518 30.5629 12.4026 31.4689 12.6778 32.3209C11.5008 32.1091 10.5524 31.8482 10.5524 31.8482C7.09724 30.6418 4.68193 27.2452 5.03406 23.3508C5.32005 20.1862 7.55151 17.5164 10.5398 16.3524L11.2041 16.0934L11.4045 15.1229C12.424 10.1541 17.5688 6.83349 22.8371 8.38451C24.4178 8.84953 25.8127 9.79786 26.9324 10.9965L27.5637 11.6733C27.5637 11.6733 27.6075 11.6993 27.6746 11.7407C29.2066 11.0206 31.0159 10.9907 32.6307 11.8688C34.1365 12.6891 35.0917 13.881 35.5849 15.1884C35.6384 15.3299 35.865 16.1464 35.8242 16.6595C35.3349 16.6971 34.8446 16.7664 34.3612 16.8983L34.2989 16.9156L34.2542 16.8675C32.4682 14.9554 29.9352 13.855 27.304 13.8473C22.7934 13.8338 18.8684 17.0003 17.9686 21.379L17.9579 21.4349L17.9034 21.456C14.5348 22.7654 12.2654 26.0475 12.2547 29.6232Z" fill="white"/>
<path fill-rule="evenodd" clip-rule="evenodd" d="M38.2998 13.6855C35.7211 10.4387 34.1181 4.80777 37.7748 1C36.3713 1.39463 35.015 2.05585 33.7935 3.00374C31.7099 4.62048 30.4932 6.84208 30.027 9.19554C30.0144 9.29013 30.0087 9.38282 30 9.4755C30.0732 9.47359 30.1474 9.45926 30.2206 9.46022C31.3689 9.46404 32.4689 9.74878 33.49 10.3059C35.2018 11.2394 36.4522 12.6517 37.1063 14.3917C37.1853 14.6019 37.481 15.6023 37.4348 16.425C37.8625 16.4805 38.2748 16.5703 38.6765 16.6954C38.6851 16.6983 38.6957 16.7002 38.7054 16.7031C39.082 16.8216 39.4423 16.9678 39.791 17.1426C39.8392 17.1665 39.8864 17.1904 39.9355 17.2153C40.238 17.3748 40.527 17.5506 40.8034 17.7494C40.9017 17.8182 40.9932 17.8918 41.0876 17.9644C41.3053 18.1364 41.5144 18.3132 41.7118 18.509C41.8554 18.6485 41.9845 18.7986 42.1164 18.9495C42.2484 19.1034 42.3813 19.2543 42.4998 19.4187C42.6703 19.6509 42.8187 19.8965 42.9622 20.1487C43.0239 20.2586 43.0932 20.3647 43.1481 20.4774C43.3157 20.8118 43.4516 21.1616 43.5662 21.5218C43.5826 21.5744 43.6047 21.6231 43.6201 21.6756C43.7454 22.1028 43.835 22.5442 43.8773 23C45.3473 22.7239 46.7817 22.1381 48.0812 21.1291C49.3055 20.1822 50.2766 19.0384 51 17.779C46.3925 20.3809 41.1878 17.3213 38.2998 13.6855Z" fill="#82BEFF"/>
<path fill-rule="evenodd" clip-rule="evenodd" d="M19.3302 44.8901C18.0256 47.4163 15.0488 45.7635 16.301 43.3254C17.364 41.2532 19.9179 40 19.9179 40C19.9179 40 20.3626 42.8842 19.3302 44.8901ZM26.3025 52.7377C24.998 55.2639 22.0211 53.6111 23.2734 51.1729C24.3364 49.1008 26.8902 47.8476 26.8902 47.8476C26.8902 47.8476 27.3349 50.7318 26.3025 52.7377ZM39.3174 44.8901C38.0129 47.4163 35.036 45.7635 36.2883 43.3254C37.3512 41.2532 39.9051 40 39.9051 40C39.9051 40 40.3488 42.8842 39.3174 44.8901Z" fill="#009EFF"/>
<path fill-rule="evenodd" clip-rule="evenodd" d="M30.8776 43.511C31.0497 43.5541 31.1586 43.7334 31.1149 43.9067L31.0983 43.9694C31.0565 44.1428 30.8795 44.2525 30.7074 44.2084L28.4659 43.658L29.0134 45.9166C29.0581 46.0909 28.9492 46.2672 28.7732 46.3113L28.711 46.325C28.5389 46.3691 28.3619 46.2604 28.3201 46.086L27.7804 43.8685L26.1749 45.4768C26.0475 45.6022 25.8442 45.6022 25.7168 45.4739L25.6702 45.4278C25.5467 45.2995 25.5467 45.0929 25.6731 44.9645L27.2747 43.3641L25.0828 42.8244C24.9097 42.7833 24.7989 42.607 24.8446 42.4297L24.8582 42.367C24.9019 42.1907 25.0799 42.085 25.252 42.1271L27.4954 42.6785L26.945 40.4199C26.9032 40.2475 27.0131 40.0663 27.1862 40.0252L27.2484 40.0095C27.4235 39.9664 27.6005 40.0741 27.6423 40.2485L28.1771 42.462L29.7846 40.8577C29.911 40.7314 30.1171 40.7314 30.2416 40.8606L30.2883 40.9067C30.4157 41.034 30.4128 41.2397 30.2883 41.367L28.6838 42.9694L30.8776 43.511ZM37.7527 51.1762C37.9248 51.2183 38.0347 51.3986 37.99 51.5719L37.9735 51.6346C37.9316 51.808 37.7547 51.9177 37.5825 51.8736L35.3411 51.3231L35.8886 53.5818C35.9333 53.7561 35.8244 53.9324 35.6484 53.9765L35.5861 53.9902C35.414 54.0343 35.237 53.9255 35.1952 53.7512L34.6555 51.5337L33.05 53.142C32.9226 53.2674 32.7194 53.2674 32.592 53.139L32.5453 53.093C32.4218 52.9647 32.4218 52.758 32.5482 52.6297L34.1498 51.0293L31.958 50.4896C31.7849 50.4485 31.674 50.2722 31.7197 50.0949L31.7333 50.0322C31.7771 49.8559 31.955 49.7501 32.1272 49.7923L34.3706 50.3437L33.8202 48.0851C33.7784 47.9127 33.8882 47.7315 34.0613 47.6904L34.1236 47.6747C34.2986 47.6316 34.4756 47.7393 34.5174 47.9137L35.0523 50.1272L36.6597 48.5229C36.7861 48.3965 36.9923 48.3965 37.1167 48.5258L37.1634 48.5719C37.2908 48.6992 37.2879 48.9049 37.1634 49.0322L35.5589 50.6346L37.7527 51.1762ZM18.0424 51.1762C18.2145 51.2183 18.3234 51.3986 18.2806 51.5719L18.2641 51.6346C18.2223 51.808 18.0453 51.9177 17.8732 51.8736L15.6317 51.3231L16.1792 53.5818C16.2239 53.7561 16.115 53.9324 15.939 53.9765L15.8767 53.9902C15.7046 54.0343 15.5276 53.9255 15.4858 53.7512L14.9461 51.5337L13.3406 53.142C13.2132 53.2674 13.01 53.2674 12.8826 53.139L12.8359 53.093C12.7124 52.9647 12.7124 52.758 12.8388 52.6297L14.4404 51.0293L12.2486 50.4896C12.0755 50.4485 11.9646 50.2722 12.0103 50.0949L12.0239 50.0322C12.0677 49.8559 12.2457 49.7501 12.4178 49.7923L14.6612 50.3437L14.1108 48.0851C14.068 47.9127 14.1779 47.7315 14.351 47.6904L14.4132 47.6747C14.5883 47.6316 14.7652 47.7393 14.8071 47.9137L15.3419 50.1272L16.9493 48.5229C17.0758 48.3965 17.2819 48.3965 17.4064 48.5258L17.4531 48.5719C17.5805 48.6992 17.5775 48.9049 17.4531 49.0322L15.8485 50.6346L18.0424 51.1762Z" fill="#38C0E0"/>
</svg>
