<svg width="55" height="55" viewBox="0 0 55 55" fill="none" xmlns="http://www.w3.org/2000/svg">
<path fill-rule="evenodd" clip-rule="evenodd" d="M43.3016 24.9663C45.5555 26.0022 47.0058 28.2551 47 30.7083C46.9903 34.1887 44.1255 37.0106 40.6149 37L21.1329 36.9432C17.0698 36.9316 13.7732 33.6486 13.7848 29.628C13.7936 26.6666 15.6739 23.9487 18.4647 22.8636L19.2925 22.5411L19.4685 21.6804C20.2234 18.0055 23.519 15.3473 27.301 15.3588C29.5092 15.3656 31.6356 16.2898 33.1336 17.8938L33.8087 18.6178L34.7697 18.355C35.3174 18.2057 35.8738 18.1287 36.4224 18.1306C39.5323 18.1393 42.1402 20.5482 42.36 23.6146L42.4281 24.5658L43.3016 24.9663ZM12.2547 29.6232C12.2518 30.5629 12.4026 31.4689 12.6778 32.3209C11.5008 32.1091 10.5524 31.8482 10.5524 31.8482C7.09724 30.6418 4.68193 27.2452 5.03406 23.3508C5.32005 20.1862 7.55151 17.5164 10.5398 16.3524L11.2041 16.0934L11.4045 15.1229C12.424 10.1541 17.5688 6.83349 22.8371 8.38451C24.4178 8.84953 25.8127 9.79786 26.9324 10.9965L27.5637 11.6733C27.5637 11.6733 27.6075 11.6993 27.6746 11.7407C29.2066 11.0206 31.0159 10.9907 32.6307 11.8688C34.1365 12.6891 35.0917 13.881 35.5849 15.1884C35.6384 15.3299 35.865 16.1464 35.8242 16.6595C35.3349 16.6971 34.8446 16.7664 34.3612 16.8983L34.2989 16.9156L34.2542 16.8675C32.4682 14.9554 29.9352 13.855 27.304 13.8473C22.7934 13.8338 18.8684 17.0003 17.9686 21.379L17.9579 21.4349L17.9034 21.456C14.5348 22.7654 12.2654 26.0475 12.2547 29.6232Z" fill="white"/>
<path fill-rule="evenodd" clip-rule="evenodd" d="M38.2998 13.6855C35.7211 10.4387 34.1181 4.80777 37.7748 1C36.3713 1.39463 35.015 2.05585 33.7935 3.00374C31.7099 4.62048 30.4932 6.84208 30.027 9.19554C30.0144 9.29013 30.0087 9.38282 30 9.4755C30.0732 9.47359 30.1474 9.45926 30.2206 9.46022C31.3689 9.46404 32.4689 9.74878 33.49 10.3059C35.2018 11.2394 36.4522 12.6517 37.1063 14.3917C37.1853 14.6019 37.481 15.6023 37.4348 16.425C37.8625 16.4805 38.2748 16.5703 38.6765 16.6954C38.6851 16.6983 38.6957 16.7002 38.7054 16.7031C39.082 16.8216 39.4423 16.9678 39.791 17.1426C39.8392 17.1665 39.8864 17.1904 39.9355 17.2153C40.238 17.3748 40.527 17.5506 40.8034 17.7494C40.9017 17.8182 40.9932 17.8918 41.0876 17.9644C41.3053 18.1364 41.5144 18.3132 41.7118 18.509C41.8554 18.6485 41.9845 18.7986 42.1164 18.9495C42.2484 19.1034 42.3813 19.2543 42.4998 19.4187C42.6703 19.6509 42.8187 19.8965 42.9622 20.1487C43.0239 20.2586 43.0932 20.3647 43.1481 20.4774C43.3157 20.8118 43.4516 21.1616 43.5662 21.5218C43.5826 21.5744 43.6047 21.6231 43.6201 21.6756C43.7454 22.1028 43.835 22.5442 43.8773 23C45.3473 22.7239 46.7817 22.1381 48.0812 21.1291C49.3055 20.1822 50.2766 19.0384 51 17.779C46.3925 20.3809 41.1878 17.3213 38.2998 13.6855Z" fill="#82BEFF"/>
<path fill-rule="evenodd" clip-rule="evenodd" d="M32 43.0311L29.2392 42.9886L31.5028 39L28.0083 39.0296L25.0435 44.9804H27.6249L24 54L32 43.0311Z" fill="#FFA800"/>
<path fill-rule="evenodd" clip-rule="evenodd" d="M20.2886 44.9169C19.0003 47.4569 16.0606 45.795 17.2973 43.3436C18.347 41.2601 20.8689 40 20.8689 40C20.8689 40 21.3071 42.9 20.2886 44.9169ZM36.3259 52.7308C35.0377 55.2708 32.098 53.609 33.3346 51.1575C34.3843 49.074 36.9063 47.8139 36.9063 47.8139C36.9063 47.8139 37.3445 50.7139 36.3259 52.7308Z" fill="#009EFF"/>
<path fill-rule="evenodd" clip-rule="evenodd" d="M21.0502 51.1823C21.2226 51.2244 21.3326 51.4032 21.2888 51.5772L21.2722 51.6397C21.2303 51.8127 21.0531 51.9222 20.8808 51.8782L18.6364 51.3289L19.1846 53.5827C19.2294 53.7566 19.1203 53.9325 18.9441 53.9765L18.8818 53.9902C18.7094 54.0342 18.5322 53.9257 18.4903 53.7517L17.9499 51.5391L16.3424 53.1438C16.2148 53.2689 16.0113 53.2689 15.8837 53.1409L15.837 53.095C15.7133 52.9669 15.7133 52.7607 15.8399 52.6327L17.4436 51.0357L15.2489 50.4972C15.0756 50.4562 14.9646 50.2803 15.0103 50.1034L15.024 50.0408C15.0678 49.8649 15.246 49.7593 15.4183 49.8014L17.6646 50.3516L17.1135 48.0979C17.0707 47.9259 17.1807 47.7451 17.354 47.704L17.4164 47.6884C17.5916 47.6454 17.7688 47.7529 17.8107 47.9268L18.3462 50.1356L19.9558 48.5347C20.0824 48.4087 20.2888 48.4087 20.4134 48.5377L20.4601 48.5836C20.5877 48.7107 20.5848 48.9159 20.4601 49.043L18.8535 50.6419L21.0502 51.1823ZM40.7521 43.5034C40.9245 43.5455 41.0335 43.7243 40.9907 43.8983L40.9741 43.9608C40.9322 44.1338 40.755 44.2433 40.5827 44.1993L38.3383 43.65L38.8865 45.9038C38.9303 46.0777 38.8213 46.2537 38.645 46.2976L38.5827 46.3113C38.4104 46.3553 38.2331 46.2468 38.1913 46.0728L37.6509 43.8602L36.0433 45.4649C35.9157 45.59 35.7122 45.59 35.5847 45.462L35.5379 45.4161C35.4143 45.288 35.4143 45.0818 35.5409 44.9538L37.1445 43.3568L34.9498 42.8183C34.7765 42.7773 34.6655 42.6014 34.7113 42.4245L34.7249 42.3619C34.7687 42.186 34.9469 42.0804 35.1192 42.1225L37.3656 42.6727L36.8145 40.419C36.7726 40.247 36.8826 40.0662 37.0559 40.0251L37.1183 40.0095C37.2935 39.9665 37.4707 40.074 37.5126 40.2479L38.0481 42.4567L39.6577 40.8558C39.7843 40.7298 39.9907 40.7298 40.1153 40.8588L40.162 40.9047C40.2896 41.0318 40.2867 41.237 40.162 41.3641L38.5554 42.963L40.7521 43.5034Z" fill="#38C0E0"/>
</svg>
