<svg width="55" height="55" viewBox="0 0 55 55" fill="none" xmlns="http://www.w3.org/2000/svg">
<path fill-rule="evenodd" clip-rule="evenodd" d="M43.3016 24.9663C45.5555 26.0022 47.0058 28.2551 47 30.7083C46.9903 34.1887 44.1255 37.0106 40.6149 37L21.1329 36.9432C17.0698 36.9316 13.7732 33.6486 13.7848 29.628C13.7936 26.6666 15.6739 23.9487 18.4647 22.8636L19.2925 22.5411L19.4685 21.6804C20.2234 18.0055 23.519 15.3473 27.301 15.3588C29.5092 15.3656 31.6356 16.2898 33.1336 17.8938L33.8087 18.6178L34.7697 18.355C35.3174 18.2057 35.8738 18.1287 36.4224 18.1306C39.5323 18.1393 42.1402 20.5482 42.36 23.6146L42.4281 24.5658L43.3016 24.9663ZM12.2547 29.6232C12.2518 30.5629 12.4026 31.4689 12.6778 32.3209C11.5008 32.1091 10.5524 31.8482 10.5524 31.8482C7.09724 30.6418 4.68193 27.2452 5.03406 23.3508C5.32005 20.1862 7.55151 17.5164 10.5398 16.3524L11.2041 16.0934L11.4045 15.1229C12.424 10.1541 17.5688 6.83349 22.8371 8.38451C24.4178 8.84953 25.8127 9.79786 26.9324 10.9965L27.5637 11.6733C27.5637 11.6733 27.6075 11.6993 27.6746 11.7407C29.2066 11.0206 31.0159 10.9907 32.6307 11.8688C34.1365 12.6891 35.0917 13.881 35.5849 15.1884C35.6384 15.3299 35.865 16.1464 35.8242 16.6595C35.3349 16.6971 34.8446 16.7664 34.3612 16.8983L34.2989 16.9156L34.2542 16.8675C32.4682 14.9554 29.9352 13.855 27.304 13.8473C22.7934 13.8338 18.8684 17.0003 17.9686 21.379L17.9579 21.4349L17.9034 21.456C14.5348 22.7654 12.2654 26.0475 12.2547 29.6232Z" fill="white"/>
<path fill-rule="evenodd" clip-rule="evenodd" d="M38.2998 13.6855C35.7211 10.4387 34.1181 4.80777 37.7748 1C36.3713 1.39463 35.015 2.05585 33.7935 3.00374C31.7099 4.62048 30.4932 6.84208 30.027 9.19554C30.0144 9.29013 30.0087 9.38282 30 9.4755C30.0732 9.47359 30.1474 9.45926 30.2206 9.46022C31.3689 9.46404 32.4689 9.74878 33.49 10.3059C35.2018 11.2394 36.4522 12.6517 37.1063 14.3917C37.1853 14.6019 37.481 15.6023 37.4348 16.425C37.8625 16.4805 38.2748 16.5703 38.6765 16.6954C38.6851 16.6983 38.6957 16.7002 38.7054 16.7031C39.082 16.8216 39.4423 16.9678 39.791 17.1426C39.8392 17.1665 39.8864 17.1904 39.9355 17.2153C40.238 17.3748 40.527 17.5506 40.8034 17.7494C40.9017 17.8182 40.9932 17.8918 41.0876 17.9644C41.3053 18.1364 41.5144 18.3132 41.7118 18.509C41.8554 18.6485 41.9845 18.7986 42.1164 18.9495C42.2484 19.1034 42.3813 19.2543 42.4998 19.4187C42.6703 19.6509 42.8187 19.8965 42.9622 20.1487C43.0239 20.2586 43.0932 20.3647 43.1481 20.4774C43.3157 20.8118 43.4516 21.1616 43.5662 21.5218C43.5826 21.5744 43.6047 21.6231 43.6201 21.6756C43.7454 22.1028 43.835 22.5442 43.8773 23C45.3473 22.7239 46.7817 22.1381 48.0812 21.1291C49.3055 20.1822 50.2766 19.0384 51 17.779C46.3925 20.3809 41.1878 17.3213 38.2998 13.6855Z" fill="#82BEFF"/>
<path fill-rule="evenodd" clip-rule="evenodd" d="M22.4447 43.5032C22.6119 43.5452 22.7192 43.7241 22.6774 43.898L22.6613 43.9606C22.6205 44.1335 22.4476 44.243 22.2795 44.199L20.0903 43.6498L20.625 45.9034C20.6687 46.0773 20.5623 46.2532 20.3904 46.2972L20.3296 46.3109C20.1615 46.3548 19.9886 46.2464 19.9478 46.0724L19.4207 43.8599L17.8526 45.4646C17.7282 45.5896 17.5297 45.5897 17.4052 45.4616L17.3597 45.4157C17.239 45.2877 17.239 45.0815 17.3625 44.9535L18.9268 43.3566L16.786 42.8181C16.6169 42.7771 16.5087 42.6012 16.5533 42.4243L16.5666 42.3617C16.6093 42.1858 16.7831 42.0803 16.9513 42.1223L19.1424 42.6725L18.6048 40.419C18.563 40.247 18.6703 40.0662 18.8394 40.0251L18.9002 40.0095C19.0711 39.9665 19.244 40.074 19.2848 40.2479L19.8072 42.4565L21.3772 40.8558C21.5007 40.7297 21.702 40.7297 21.8236 40.8587L21.8692 40.9046C21.9936 41.0317 21.9908 41.2369 21.8692 41.364L20.3021 42.9628L22.4447 43.5032ZM13.9025 51.1816C14.0706 51.2236 14.1779 51.4024 14.1342 51.5773L14.1181 51.6399C14.0772 51.8129 13.9044 51.9223 13.7363 51.8783L11.547 51.3291L12.0818 53.5827C12.1255 53.7566 12.0191 53.9325 11.8472 53.9765L11.7864 53.9902C11.6183 54.0342 11.4454 53.9257 11.4046 53.7518L10.8774 51.5392L9.30937 53.1439C9.18495 53.269 8.98645 53.269 8.86203 53.141L8.81644 53.095C8.69582 52.967 8.69582 52.7608 8.81929 52.6328L10.3836 51.0359L8.24278 50.4975C8.07372 50.4564 7.96544 50.2805 8.01008 50.1036L8.02338 50.0411C8.06612 49.8652 8.23993 49.7596 8.40804 49.8017L10.5992 50.3519L10.0616 48.0983C10.0208 47.9263 10.1281 47.7455 10.2971 47.7044L10.3579 47.6878C10.5289 47.6448 10.7017 47.7523 10.7426 47.9263L11.265 50.1349L12.8349 48.5341C12.9584 48.4081 13.1598 48.4081 13.2813 48.5371L13.3269 48.583C13.4513 48.7101 13.4485 48.9153 13.3269 49.0423L11.7598 50.6411L13.9025 51.1816ZM22.3089 51.1816C22.477 51.2236 22.5834 51.4024 22.5416 51.5764L22.5255 51.6389C22.4846 51.8119 22.3118 51.9213 22.1437 51.8774L19.9544 51.3281L20.4892 53.5817C20.5328 53.7557 20.4265 53.9316 20.2546 53.9755L20.1938 53.9892C20.0257 54.0332 19.8528 53.9247 19.812 53.7508L19.2848 51.5383L17.7168 53.1429C17.5924 53.268 17.3938 53.268 17.2694 53.14L17.2238 53.0941C17.1032 52.966 17.1032 52.7598 17.2267 52.6318L18.791 51.035L16.6502 50.4965C16.4811 50.4554 16.3728 50.2795 16.4175 50.1027L16.4308 50.0401C16.4735 49.8642 16.6473 49.7587 16.8154 49.8007L19.0066 50.3509L18.469 48.0973C18.4272 47.9253 18.5345 47.7445 18.7036 47.7035L18.7644 47.6878C18.9353 47.6448 19.1082 47.7523 19.149 47.9263L19.6714 50.1349L21.2414 48.5341C21.3649 48.4081 21.5662 48.4081 21.6878 48.5371L21.7334 48.583C21.8578 48.7101 21.8549 48.9153 21.7334 49.0423L20.1662 50.6411L22.3089 51.1816ZM37.3514 51.1816C37.5196 51.2236 37.6269 51.4024 37.5832 51.5773L37.567 51.6399C37.5262 51.8129 37.3533 51.9223 37.1852 51.8783L34.996 51.3291L35.5307 53.5827C35.5744 53.7566 35.468 53.9325 35.2961 53.9765L35.2353 53.9902C35.0672 54.0342 34.8944 53.9257 34.8535 53.7518L34.3264 51.5392L32.7583 53.1439C32.6339 53.269 32.4354 53.269 32.311 53.141L32.2654 53.095C32.1448 52.967 32.1448 52.7608 32.2683 52.6328L33.8325 51.0359L31.6917 50.4975C31.5227 50.4564 31.4144 50.2805 31.459 50.1036L31.4723 50.0411C31.5151 49.8652 31.6889 49.7596 31.857 49.8017L34.0481 50.3509L33.5106 48.0973C33.4697 47.9253 33.577 47.7445 33.7461 47.7035L33.8069 47.6878C33.9778 47.6448 34.1507 47.7523 34.1915 47.9263L34.7139 50.1349L36.2839 48.5341C36.4074 48.4081 36.6087 48.4081 36.7303 48.5371L36.7759 48.583C36.9003 48.7101 36.8975 48.9153 36.7759 49.0423L35.2088 50.6411L37.3514 51.1816ZM45.7588 51.1816C45.926 51.2236 46.0333 51.4024 45.9906 51.5773L45.9744 51.6399C45.9336 51.8129 45.7607 51.9223 45.5926 51.8783L43.4034 51.3291L43.9381 53.5827C43.9818 53.7566 43.8754 53.9325 43.7035 53.9765L43.6427 53.9902C43.4746 54.0342 43.3018 53.9257 43.2609 53.7518L42.7338 51.5392L41.1657 53.1439C41.0413 53.269 40.8428 53.269 40.7184 53.141L40.6728 53.095C40.5522 52.967 40.5522 52.7608 40.6757 52.6328L42.2399 51.0359L40.0991 50.4975C39.9301 50.4564 39.8218 50.2805 39.8664 50.1036L39.8797 50.0411C39.9225 49.8652 40.0963 49.7596 40.2644 49.8017L42.4555 50.3519L41.918 48.0983C41.8762 47.9263 41.9835 47.7455 42.1526 47.7044L42.2143 47.6878C42.3852 47.6448 42.5581 47.7523 42.5989 47.9263L43.1213 50.1349L44.6913 48.5341C44.8148 48.4081 45.0161 48.4081 45.1377 48.5371L45.1833 48.583C45.3077 48.7101 45.3049 48.9153 45.1833 49.0423L43.6162 50.6411L45.7588 51.1816ZM42.2532 43.5032C42.4213 43.5452 42.5277 43.7241 42.4859 43.898L42.4698 43.9606C42.4289 44.1335 42.2561 44.243 42.088 44.199L39.8987 43.6498L40.4335 45.9034C40.4762 46.0773 40.3698 46.2532 40.1979 46.2972L40.1371 46.3109C39.969 46.3548 39.7962 46.2464 39.7553 46.0724L39.2282 43.8599L37.6601 45.4646C37.5357 45.5896 37.3372 45.5897 37.2128 45.4616L37.1672 45.4157C37.0466 45.2877 37.0466 45.0815 37.17 44.9535L38.7343 43.3566L36.5935 42.8181C36.4245 42.7771 36.3162 42.6012 36.3608 42.4243L36.3741 42.3617C36.4169 42.1858 36.5907 42.0803 36.7588 42.1223L38.9499 42.6725L38.4123 40.419C38.3715 40.247 38.4788 40.0662 38.6479 40.0251L38.7087 40.0095C38.8796 39.9665 39.0525 40.074 39.0933 40.2479L39.6157 42.4565L41.1857 40.8558C41.3092 40.7297 41.5105 40.7297 41.6321 40.8587L41.6777 40.9046C41.8021 41.0317 41.7992 41.2369 41.6777 41.364L40.1105 42.9628L42.2532 43.5032Z" fill="#38C0E0"/>
<path fill-rule="evenodd" clip-rule="evenodd" d="M33 43.0311L30.2392 42.9886L32.5028 39L29.0083 39.0296L26.0435 44.9804H28.6249L25 54L33 43.0311Z" fill="#FFA800"/>
</svg>
