<svg width="55" height="55" viewBox="0 0 55 55" fill="none" xmlns="http://www.w3.org/2000/svg">
<path fill-rule="evenodd" clip-rule="evenodd" d="M37.2789 48.769C35.9008 51.2326 32.7562 49.6207 34.079 47.243C35.2019 45.2221 37.8997 44 37.8997 44C37.8997 44 38.3685 46.8128 37.2789 48.769ZM23.5179 48.769C22.1398 51.2326 18.9951 49.6207 20.318 47.243C21.4409 45.2221 24.1387 44 24.1387 44C24.1387 44 24.6075 46.8128 23.5179 48.769Z" fill="#009EFF"/>
<path fill-rule="evenodd" clip-rule="evenodd" d="M44.4233 6.44917H4V5H44.4233V6.44917ZM46.1593 11.7314H5.55538V10.2822H46.1593V11.7314ZM50.3678 16.9764H9.94449V15.5272H50.3678V16.9764ZM52 22.2948H11.3961V20.8457H52V22.2948ZM44.4233 27.5771H4V26.1279H44.4233V27.5771ZM46.1593 32.8583H5.55538V31.4091H46.1593V32.8583ZM49.82 38.1405H9.39663V36.6913H49.82V38.1405ZM52 43.4217H11.3961V41.9725H52V43.4217ZM44.4233 49H4V47.5508H44.4233V49Z" fill="white"/>
</svg>
