<svg width="55" height="55" viewBox="0 0 55 55" fill="none" xmlns="http://www.w3.org/2000/svg">
<path fill-rule="evenodd" clip-rule="evenodd" d="M21.2994 43.769C20.0069 46.2326 17.0576 44.6207 18.2983 42.243C19.3514 40.2221 21.8816 39 21.8816 39C21.8816 39 22.3212 41.8128 21.2994 43.769ZM39.3237 43.769C38.0312 46.2326 35.0819 44.6207 36.3226 42.243C37.3757 40.2221 39.906 39 39.906 39C39.906 39 40.3456 41.8128 39.3237 43.769Z" fill="#009EFF"/>
<path fill-rule="evenodd" clip-rule="evenodd" d="M32 42.0314L29.2382 41.9889L31.5028 38L28.0083 38.0277L25.0425 43.9808H27.6239L24 53L32 42.0314Z" fill="#FFA800"/>
<path fill-rule="evenodd" clip-rule="evenodd" d="M42.8969 3.3833H5V2H42.8969V3.3833ZM44.5243 8.42544H6.45817V7.04213H44.5243V8.42544ZM48.4698 13.432H10.573V12.0487H48.4698V13.432ZM50 18.5087H11.9339V17.1254H50V18.5087ZM42.8969 23.5509H5V22.1675H42.8969V23.5509ZM44.5243 28.592H6.45817V27.2087H44.5243V28.592ZM47.9562 33.6341H10.0593V32.2508H47.9562V33.6341ZM50 38.6753H11.9339V37.292H50V38.6753ZM42.8969 44H5V42.6167H42.8969V44Z" fill="white"/>
</svg>
