<svg width="55" height="55" viewBox="0 0 55 55" fill="none" xmlns="http://www.w3.org/2000/svg">
<path fill-rule="evenodd" clip-rule="evenodd" d="M36.3103 44.0051C34.9921 46.5906 31.984 44.899 33.2494 42.4035C34.3235 40.2826 36.9041 39 36.9041 39C36.9041 39 37.3525 41.952 36.3103 44.0051ZM29.3397 51.7081C28.0215 54.2936 25.0135 52.602 26.2789 50.1065C27.3529 47.9856 29.9335 46.703 29.9335 46.703C29.9335 46.703 30.3819 49.654 29.3397 51.7081ZM23.1602 44.0051C21.842 46.5906 18.834 44.899 20.0994 42.4035C21.1735 40.2826 23.7541 39 23.7541 39C23.7541 39 24.2024 41.952 23.1602 44.0051ZM16.365 51.7081C15.0468 54.2936 12.0388 52.602 13.3042 50.1065C14.3783 47.9856 16.9589 46.703 16.9589 46.703C16.9589 46.703 17.4082 49.654 16.365 51.7081Z" fill="#009EFF"/>
<path fill-rule="evenodd" clip-rule="evenodd" d="M43.739 3.41624H5V2H43.739V3.41624ZM45.4026 8.57842H6.49058V7.16219H45.4026V8.57842ZM49.4358 13.7042H10.6968V12.288H49.4358V13.7042ZM51 18.9018H12.0879V17.4855H51V18.9018ZM43.739 24.064H5V22.6477H43.739V24.064ZM45.4026 29.2251H6.49058V27.8089H45.4026V29.2251ZM48.9108 34.3873H10.1718V32.9711H48.9108V34.3873ZM51 39.5485H12.0879V38.1323H51V39.5485ZM43.739 45H5V43.5838H43.739V45Z" fill="white"/>
</svg>
