<svg width="55" height="55" viewBox="0 0 55 55" fill="none" xmlns="http://www.w3.org/2000/svg">
<path fill-rule="evenodd" clip-rule="evenodd" d="M19.1923 44.0051C17.9418 46.5906 15.0881 44.899 16.2886 42.4035C17.3075 40.2826 19.7557 39 19.7557 39C19.7557 39 20.181 41.952 19.1923 44.0051ZM20.423 51.7081C19.1725 54.2936 16.3188 52.602 17.5193 50.1065C18.5382 47.9856 20.9864 46.703 20.9864 46.703C20.9864 46.703 21.4117 49.654 20.423 51.7081ZM34.5164 51.7081C33.2659 54.2936 30.4122 52.602 31.6127 50.1065C32.6316 47.9856 35.0798 46.703 35.0798 46.703C35.0798 46.703 35.5061 49.654 34.5164 51.7081ZM40.3457 44.0051C39.0951 46.5906 36.2415 44.899 37.4419 42.4035C38.4609 40.2826 40.909 39 40.909 39C40.909 39 41.3344 41.952 40.3457 44.0051Z" fill="#009EFF"/>
<path fill-rule="evenodd" clip-rule="evenodd" d="M32 42.0311L29.2392 41.9886L31.5028 38L28.0083 38.0296L25.0435 43.9804H27.6249L24 53L32 42.0311Z" fill="#FFA800"/>
<path fill-rule="evenodd" clip-rule="evenodd" d="M43.0547 4.35037H6V3H43.0547V4.35037ZM44.646 9.27245H7.42577V7.92208H44.646V9.27245ZM48.5038 14.1598H11.4491V12.8094H48.5038V14.1598ZM50 19.1157H12.7798V17.7653H50V19.1157ZM43.0547 24.0377H6V22.6874H43.0547V24.0377ZM44.646 28.9589H7.42577V27.6085H44.646V28.9589ZM48.0016 33.8809H10.9469V32.5306H48.0016V33.8809ZM50 38.8021H12.7798V37.4517H50V38.8021ZM43.0547 44H6V42.6496H43.0547V44Z" fill="white"/>
</svg>
