<svg width="55" height="55" viewBox="0 0 55 55" fill="none" xmlns="http://www.w3.org/2000/svg">
<path fill-rule="evenodd" clip-rule="evenodd" d="M20.6116 45.0051C19.267 47.5906 16.1988 45.899 17.4895 43.4035C18.5851 41.2826 21.2173 40 21.2173 40C21.2173 40 21.6756 42.952 20.6116 45.0051ZM34.1173 52.7081C32.7727 55.2936 29.7045 53.602 30.9952 51.1065C32.0907 48.9856 34.723 47.703 34.723 47.703C34.723 47.703 35.1803 50.654 34.1173 52.7081ZM23.7753 52.7081C22.4308 55.2936 19.3625 53.602 20.6532 51.1065C21.7488 48.9856 24.381 47.703 24.381 47.703C24.381 47.703 24.8384 50.654 23.7753 52.7081ZM13.4324 52.7081C12.0878 55.2936 9.01957 53.602 10.3103 51.1065C11.4059 48.9856 14.0381 47.703 14.0381 47.703C14.0381 47.703 14.4964 50.654 13.4324 52.7081ZM41.2965 45.0051C39.9519 47.5906 36.8837 45.899 38.1744 43.4035C39.2699 41.2826 41.9022 40 41.9022 40C41.9022 40 42.3595 42.952 41.2965 45.0051ZM30.9535 45.0051C29.6089 47.5906 26.5407 45.899 27.8314 43.4035C28.927 41.2826 31.5592 40 31.5592 40C31.5592 40 32.0166 42.952 30.9535 45.0051Z" fill="#009EFF"/>
<path fill-rule="evenodd" clip-rule="evenodd" d="M43.739 3.44917H5V2H43.739V3.44917ZM45.4026 8.73141H6.49058V7.28224H45.4026V8.73141ZM49.4358 13.9764H10.6968V12.5272H49.4358V13.9764ZM51 19.2948H12.0879V17.8457H51V19.2948ZM43.739 24.5771H5V23.1279H43.739V24.5771ZM45.4026 29.8583H6.49058V28.4091H45.4026V29.8583ZM48.9108 35.1405H10.1718V33.6913H48.9108V35.1405ZM51 40.4217H12.0879V38.9725H51V40.4217ZM43.739 46H5V44.5508H43.739V46Z" fill="white"/>
</svg>
