<svg width="55" height="55" viewBox="0 0 55 55" fill="none" xmlns="http://www.w3.org/2000/svg">
<path fill-rule="evenodd" clip-rule="evenodd" d="M32 43.0311L29.2392 42.9886L31.5028 39L28.0083 39.0296L25.0435 44.9804H27.6249L24 54L32 43.0311Z" fill="#FFA800"/>
<path fill-rule="evenodd" clip-rule="evenodd" d="M20.2365 51.7081C18.9132 54.2936 15.8936 52.602 17.1639 50.1065C18.2421 47.9856 20.8326 46.703 20.8326 46.703C20.8326 46.703 21.2827 49.654 20.2365 51.7081ZM33.4171 51.7081C32.0938 54.2936 29.0742 52.602 30.3445 50.1065C31.4227 47.9856 34.0132 46.703 34.0132 46.703C34.0132 46.703 34.4633 49.654 33.4171 51.7081ZM39.9393 44.0051C38.6161 46.5906 35.5965 44.899 36.8667 42.4035C37.945 40.2826 40.5355 39 40.5355 39C40.5355 39 40.9855 41.952 39.9393 44.0051ZM41.3076 51.7081C39.9844 54.2936 36.9648 52.602 38.235 50.1065C39.3132 47.9856 41.9037 46.703 41.9037 46.703C41.9037 46.703 42.3538 49.654 41.3076 51.7081ZM12.378 51.7081C11.0547 54.2936 8.03511 52.602 9.30536 50.1065C10.3836 47.9856 12.9741 46.703 12.9741 46.703C12.9741 46.703 13.4242 49.654 12.378 51.7081ZM19.5284 44.0051C18.2051 46.5906 15.1855 44.899 16.4558 42.4035C17.534 40.2826 20.1245 39 20.1245 39C20.1245 39 20.5746 41.952 19.5284 44.0051Z" fill="#009EFF"/>
<path fill-rule="evenodd" clip-rule="evenodd" d="M43.739 3.41624H5V2H43.739V3.41624ZM45.4026 8.57842H6.49058V7.16219H45.4026V8.57842ZM49.4358 13.7042H10.6968V12.288H49.4358V13.7042ZM51 18.9018H12.0879V17.4855H51V18.9018ZM43.739 24.064H5V22.6477H43.739V24.064ZM45.4026 29.2251H6.49058V27.8089H45.4026V29.2251ZM48.9108 34.3873H10.1718V32.9711H48.9108V34.3873ZM51 39.5485H12.0879V38.1323H51V39.5485ZM43.739 45H5V43.5838H43.739V45Z" fill="white"/>
</svg>
