<svg width="55" height="55" viewBox="0 0 55 55" fill="none" xmlns="http://www.w3.org/2000/svg">
<path fill-rule="evenodd" clip-rule="evenodd" d="M25.2552 46.8797C25.4334 46.9262 25.5461 47.1243 25.5008 47.317L25.4837 47.3862C25.4404 47.5778 25.2572 47.699 25.0791 47.6503L22.759 47.0421L23.3257 49.5378C23.372 49.7305 23.2593 49.9253 23.0771 49.974L23.0127 49.9892C22.8345 50.0379 22.6513 49.9177 22.608 49.7251L22.0494 47.2748L20.3876 49.0519C20.2558 49.1904 20.0454 49.1904 19.9135 49.0486L19.8652 48.9978C19.7374 48.856 19.7374 48.6276 19.8683 48.4858L21.526 46.7174L19.2573 46.121C19.0781 46.0756 18.9634 45.8807 19.0107 45.6849L19.0248 45.6156C19.0701 45.4208 19.2543 45.3039 19.4324 45.3504L21.7545 45.9598L21.1848 43.464C21.1415 43.2735 21.2553 43.0733 21.4344 43.0278L21.4988 43.0105C21.68 42.9629 21.8632 43.0819 21.9065 43.2746L22.4601 45.7206L24.1239 43.9478C24.2547 43.8081 24.4681 43.8082 24.597 43.951L24.6453 44.0019C24.7771 44.1426 24.7741 44.3699 24.6453 44.5106L22.9845 46.2812L25.2552 46.8797ZM40.7438 46.8797C40.921 46.9262 41.0347 47.1243 40.9904 47.317L40.9733 47.3862C40.93 47.5778 40.7468 47.699 40.5687 47.6503L38.2486 47.0421L38.8153 49.5378C38.8606 49.7305 38.7479 49.9253 38.5657 49.974L38.5012 49.9892C38.3231 50.0379 38.1399 49.9177 38.0966 49.7251L37.538 47.2748L35.8762 49.0519C35.7443 49.1904 35.534 49.1904 35.4021 49.0486L35.3538 48.9978C35.226 48.856 35.226 48.6276 35.3568 48.4858L37.0146 46.7174L34.7459 46.121C34.5667 46.0756 34.452 45.8807 34.4993 45.6849L34.5134 45.6156C34.5586 45.4208 34.7428 45.3039 34.921 45.3504L37.2431 45.9598L36.6734 43.464C36.6301 43.2735 36.7438 43.0733 36.923 43.0278L36.9874 43.0105C37.1686 42.9629 37.3518 43.0819 37.3951 43.2746L37.9487 45.7206L39.6125 43.9478C39.7433 43.8081 39.9567 43.8082 40.0855 43.951L40.1339 44.0019C40.2657 44.1426 40.2627 44.3699 40.1339 44.5106L38.4731 46.2812L40.7438 46.8797Z" fill="#38C0E0"/>
<path fill-rule="evenodd" clip-rule="evenodd" d="M43.5812 7.41624H4V6H43.5812V7.41624ZM45.281 12.5784H5.52298V11.1622H45.281V12.5784ZM49.4018 17.7042H9.82064V16.288H49.4018V17.7042ZM51 22.9018H11.242V21.4855H51V22.9018ZM43.5812 28.064H4V26.6477H43.5812V28.064ZM45.281 33.2251H5.52298V31.8089H45.281V33.2251ZM48.8654 38.3873H9.2842V36.9711H48.8654V38.3873ZM51 43.5485H11.242V42.1323H51V43.5485ZM43.5812 49H4V47.5838H43.5812V49Z" fill="white"/>
</svg>
