<svg width="55" height="55" viewBox="0 0 55 55" fill="none" xmlns="http://www.w3.org/2000/svg">
<path fill-rule="evenodd" clip-rule="evenodd" d="M40.467 41.745C40.644 41.788 40.757 41.971 40.711 42.149L40.694 42.213C40.651 42.39 40.469 42.502 40.292 42.457L37.987 41.895L38.55 44.201C38.596 44.379 38.484 44.559 38.303 44.604L38.239 44.618C38.062 44.663 37.88 44.552 37.837 44.374L37.282 42.11L35.631 43.752C35.5 43.88 35.291 43.88 35.16 43.749L35.112 43.702C34.985 43.571 34.985 43.36 35.115 43.229L36.762 41.595L34.508 41.044C34.33 41.002 34.216 40.822 34.263 40.641L34.277 40.577C34.322 40.397 34.505 40.289 34.682 40.332L36.989 40.895L36.423 38.589C36.38 38.413 36.493 38.228 36.671 38.186L36.735 38.17C36.915 38.126 37.097 38.236 37.14 38.414L37.69 40.674L39.343 39.036C39.473 38.907 39.685 38.907 39.813 39.039L39.861 39.086C39.992 39.216 39.989 39.426 39.861 39.556L38.211 41.192L40.467 41.745ZM21.513 41.745C21.69 41.788 21.802 41.971 21.758 42.149L21.741 42.213C21.698 42.39 21.516 42.502 21.339 42.457L19.034 41.895L19.597 44.201C19.642 44.379 19.53 44.559 19.349 44.604L19.285 44.618C19.108 44.663 18.926 44.552 18.883 44.374L18.328 42.11L16.677 43.752C16.546 43.88 16.337 43.88 16.206 43.749L16.158 43.702C16.031 43.571 16.031 43.36 16.161 43.229L17.808 41.595L15.554 41.044C15.376 41.002 15.262 40.822 15.309 40.641L15.323 40.577C15.368 40.397 15.551 40.289 15.728 40.332L18.035 40.895L17.469 38.589C17.426 38.413 17.539 38.228 17.717 38.186L17.781 38.17C17.961 38.126 18.143 38.236 18.186 38.414L18.736 40.674L20.389 39.036C20.519 38.907 20.731 38.907 20.859 39.039L20.907 39.086C21.038 39.216 21.035 39.426 20.907 39.556L19.257 41.192L21.513 41.745Z" fill="#38C0E0"/>
<path fill-rule="evenodd" clip-rule="evenodd" d="M31.037 41.465L28.222 41.422L30.53 37.385L26.967 37.415L23.944 43.438H26.576L22.88 52.567L31.037 41.465Z" fill="#FFA800"/>
<path fill-rule="evenodd" clip-rule="evenodd" d="M43.519 2.69H4.56097V1.29H43.519V2.69ZM45.192 7.793H6.05997V6.393H45.192V7.793ZM49.248 12.86H10.29V11.46H49.248V12.86ZM50.821 17.998H11.689V16.598H50.821V17.998ZM43.519 23.101H4.56097V21.701H43.519V23.101ZM45.192 28.203H6.05997V26.803H45.192V28.203ZM48.72 33.306H9.76197V31.906H48.72V33.306ZM50.821 38.408H11.689V37.008H50.821V38.408ZM43.519 43.797H4.56097V42.397H43.519V43.797Z" fill="white"/>
</svg>
