<svg width="55" height="55" viewBox="0 0 55 55" fill="none" xmlns="http://www.w3.org/2000/svg">
<path fill-rule="evenodd" clip-rule="evenodd" d="M32 41.2998L29.2392 41.2545L31.5028 37L28.0083 37.0316L25.0435 43.3791H27.6249L24 53L32 41.2998Z" fill="#FFA800"/>
<path fill-rule="evenodd" clip-rule="evenodd" d="M36.4794 49.9802C36.6598 50.0253 36.775 50.2169 36.7281 50.4043L36.7108 50.4713C36.6669 50.6566 36.4814 50.7739 36.301 50.7268L33.9513 50.1383L34.5252 52.5529C34.5721 52.7393 34.4579 52.9277 34.2734 52.9748L34.2082 52.9895C34.0277 53.0366 33.8422 52.9204 33.7984 52.734L33.2326 50.3635L31.5496 52.0827C31.416 52.2168 31.203 52.2168 31.0694 52.0796L31.0205 52.0304C30.891 51.8932 30.891 51.6723 31.0236 51.5351L32.7025 49.8242L30.4048 49.2473C30.2233 49.2033 30.1071 49.0148 30.155 48.8253L30.1693 48.7583C30.2152 48.5698 30.4017 48.4567 30.5822 48.5018L32.9339 49.0902L32.3569 46.6757C32.3131 46.4914 32.4283 46.2977 32.6097 46.2537L32.675 46.237C32.8585 46.1909 33.044 46.3061 33.0878 46.4924L33.6485 48.8588L35.3336 47.1437C35.4661 47.0087 35.6822 47.0087 35.8127 47.1469L35.8616 47.1961C35.9952 47.3322 35.9921 47.5521 35.8616 47.6882L34.1796 49.4012L36.4794 49.9802ZM41.7405 41.7534C41.9209 41.7984 42.0351 41.9901 41.9902 42.1764L41.9729 42.2435C41.9291 42.4288 41.7435 42.5461 41.5631 42.4989L39.2134 41.9105L39.7873 44.325C39.8332 44.5114 39.719 44.6999 39.5345 44.747L39.4693 44.7616C39.2888 44.8088 39.1033 44.6925 39.0595 44.5062L38.4937 42.1356L36.8107 43.8549C36.6771 43.9889 36.4641 43.9889 36.3305 43.8517L36.2816 43.8025C36.1521 43.6654 36.1521 43.4444 36.2847 43.3073L37.9636 41.5964L35.6659 41.0194C35.4844 40.9754 35.3682 40.787 35.4161 40.5975L35.4304 40.5304C35.4763 40.342 35.6628 40.2289 35.8433 40.2739L38.195 40.8634L37.618 38.4489C37.5742 38.2646 37.6894 38.0709 37.8708 38.0269L37.9361 38.0102C38.1196 37.9641 38.3051 38.0793 38.3489 38.2656L38.9096 40.632L40.5947 38.9169C40.7272 38.7818 40.9433 38.7818 41.0738 38.9201L41.1227 38.9693C41.2563 39.1054 41.2532 39.3253 41.1227 39.4614L39.4407 41.1744L41.7405 41.7534ZM20.3341 49.9802C20.5146 50.0253 20.6288 50.2169 20.5839 50.4032L20.5666 50.4703C20.5227 50.6556 20.3372 50.7729 20.1568 50.7257L17.8071 50.1373L18.381 52.5518C18.4279 52.7382 18.3137 52.9267 18.1292 52.9738L18.0639 52.9885C17.8835 53.0356 17.698 52.9194 17.6541 52.733L17.0884 50.3624L15.4054 52.0817C15.2718 52.2157 15.0588 52.2157 14.9252 52.0786L14.8763 52.0293C14.7468 51.8922 14.7468 51.6712 14.8793 51.5341L16.5583 49.8232L14.2606 49.2462C14.0791 49.2023 13.9629 49.0138 14.0108 48.8243L14.0251 48.7573C14.071 48.5688 14.2575 48.4557 14.4379 48.5007L16.7897 49.0902L16.2127 46.6757C16.1679 46.4914 16.2831 46.2977 16.4645 46.2537L16.5298 46.237C16.7132 46.1909 16.8988 46.3061 16.9426 46.4924L17.5033 48.8588L19.1883 47.1437C19.3209 47.0087 19.537 47.0087 19.6675 47.1469L19.7164 47.1961C19.8499 47.3322 19.8469 47.5521 19.7164 47.6882L18.0344 49.4012L20.3341 49.9802ZM20.4799 41.7534C20.6593 41.7984 20.7745 41.9901 20.7297 42.1764L20.7123 42.2435C20.6685 42.4288 20.483 42.5461 20.3025 42.4989L17.9528 41.9105L18.5268 44.325C18.5736 44.5114 18.4595 44.6999 18.275 44.747L18.2097 44.7616C18.0293 44.8088 17.8438 44.6925 17.7999 44.5062L17.2342 42.1356L15.5511 43.8549C15.4176 43.9889 15.2045 43.9889 15.071 43.8517L15.0221 43.8025C14.8926 43.6654 14.8926 43.4444 15.0251 43.3073L16.7041 41.5964L14.4063 41.0194C14.2249 40.9754 14.1087 40.787 14.1566 40.5975L14.1709 40.5304C14.2167 40.342 14.4033 40.2289 14.5837 40.2739L16.9355 40.8634L16.3585 38.4489C16.3136 38.2646 16.4288 38.0709 16.6103 38.0269L16.6755 38.0102C16.859 37.9641 17.0445 38.0793 17.0884 38.2656L17.6491 40.632L19.3341 38.9169C19.4666 38.7818 19.6828 38.7818 19.8132 38.9201L19.8622 38.9693C19.9957 39.1054 19.9926 39.3253 19.8622 39.4614L18.1802 41.1744L20.4799 41.7534Z" fill="#38C0E0"/>
<path fill-rule="evenodd" clip-rule="evenodd" d="M43.5812 2.41624H4V1H43.5812V2.41624ZM45.281 7.57842H5.52298V6.16219H45.281V7.57842ZM49.4018 12.7042H9.82064V11.288H49.4018V12.7042ZM51 17.9018H11.242V16.4855H51V17.9018ZM43.5812 23.064H4V21.6477H43.5812V23.064ZM45.281 28.2251H5.52298V26.8089H45.281V28.2251ZM48.8654 33.3873H9.2842V31.9711H48.8654V33.3873ZM51 38.5485H11.242V37.1323H51V38.5485ZM43.5812 44H4V42.5838H43.5812V44Z" fill="white"/>
</svg>
