<svg width="55" height="55" viewBox="0 0 55 55" fill="none" xmlns="http://www.w3.org/2000/svg">
<path fill-rule="evenodd" clip-rule="evenodd" d="M43.5812 3.41624H4V2H43.5812V3.41624ZM45.281 8.57842H5.52298V7.16219H45.281V8.57842ZM49.4018 13.7042H9.82064V12.288H49.4018V13.7042ZM51 18.9018H11.242V17.4855H51V18.9018ZM43.5812 24.064H4V22.6477H43.5812V24.064ZM45.281 29.2251H5.52298V27.8089H45.281V29.2251ZM48.8654 34.3873H9.2842V32.9711H48.8654V34.3873ZM51 39.5485H11.242V38.1323H51V39.5485ZM43.5812 45H4V43.5838H43.5812V45Z" fill="white"/>
<path fill-rule="evenodd" clip-rule="evenodd" d="M22.6276 42.5034C22.8032 42.5455 22.9153 42.7243 22.8706 42.8983L22.8538 42.9608C22.8111 43.1338 22.6306 43.2433 22.455 43.1993L20.1687 42.65L20.7272 44.9038C20.7728 45.0777 20.6617 45.2537 20.4822 45.2976L20.4187 45.3113C20.2431 45.3553 20.0626 45.2468 20.0199 45.0728L19.4694 42.8602L17.8318 44.4649C17.7019 44.59 17.4946 44.59 17.3646 44.462L17.317 44.4161C17.191 44.288 17.191 44.0818 17.32 43.9538L18.9536 42.3568L16.7179 41.8183C16.5413 41.7773 16.4283 41.6014 16.4749 41.4245L16.4888 41.3619C16.5334 41.186 16.7149 41.0804 16.8905 41.1225L19.1788 41.6727L18.6174 39.419C18.5737 39.247 18.6858 39.0662 18.8624 39.0251L18.9259 39.0095C19.1044 38.9665 19.2849 39.074 19.3276 39.2479L19.8731 41.4567L21.5127 39.8558C21.6417 39.7298 21.852 39.7298 21.9789 39.8588L22.0265 39.9047C22.1565 40.0318 22.1535 40.237 22.0265 40.3641L20.3899 41.963L22.6276 42.5034ZM38.2837 50.1823C38.4593 50.2244 38.5714 50.4032 38.5258 50.5772L38.5089 50.6397C38.4662 50.8127 38.2857 50.9222 38.1102 50.8782L35.8238 50.3289L36.3823 52.5827C36.4279 52.7566 36.3168 52.9325 36.1373 52.9765L36.0738 52.9902C35.8982 53.0342 35.7177 52.9257 35.675 52.7517L35.1245 50.5391L33.4869 52.1438C33.357 52.2689 33.1497 52.2689 33.0197 52.1409L32.9721 52.095C32.8462 51.9669 32.8462 51.7607 32.9751 51.6327L34.6088 50.0357L32.373 49.4972C32.1965 49.4562 32.0834 49.2803 32.13 49.1034L32.1439 49.0408C32.1885 48.8649 32.37 48.7593 32.5456 48.8014L34.8339 49.3516L34.2725 47.0979C34.2299 46.9259 34.3419 46.7451 34.5185 46.704L34.582 46.6884C34.7605 46.6454 34.941 46.7529 34.9837 46.9268L35.5292 49.1356L37.1688 47.5347C37.2978 47.4087 37.5081 47.4087 37.635 47.5377L37.6826 47.5836C37.8126 47.7107 37.8096 47.9159 37.6826 48.043L36.046 49.6419L38.2837 50.1823ZM28.337 50.1823C28.5126 50.2244 28.6246 50.4032 28.579 50.5772L28.5621 50.6397C28.5195 50.8127 28.339 50.9222 28.1634 50.8782L25.8771 50.3289L26.4355 52.5827C26.4811 52.7566 26.3701 52.9325 26.1905 52.9765L26.127 52.9902C25.9515 53.0342 25.7709 52.9257 25.7283 52.7517L25.1778 50.5391L23.5402 52.1438C23.4102 52.2689 23.2029 52.2689 23.073 52.1409L23.0254 52.095C22.8994 51.9669 22.8994 51.7607 23.0284 51.6327L24.662 50.0357L22.4263 49.4972C22.2497 49.4562 22.1366 49.2803 22.1833 49.1034L22.1971 49.0408C22.2418 48.8649 22.4233 48.7593 22.5989 48.8014L24.8872 49.3516L24.3258 47.0979C24.2831 46.9259 24.3952 46.7451 24.5717 46.704L24.6352 46.6884C24.8138 46.6454 24.9943 46.7529 25.0369 46.9268L25.5825 49.1356L27.2221 47.5347C27.351 47.4087 27.5613 47.4087 27.6883 47.5377L27.7359 47.5836C27.8658 47.7107 27.8629 47.9159 27.7359 48.043L26.0993 49.6419L28.337 50.1823ZM17.1643 50.1823C17.3398 50.2244 17.4509 50.4032 17.4073 50.5772L17.3904 50.6397C17.3478 50.8127 17.1672 50.9222 16.9917 50.8782L14.7053 50.3289L15.2638 52.5827C15.3084 52.7566 15.1973 52.9325 15.0178 52.9765L14.9543 52.9902C14.7787 53.0342 14.5982 52.9257 14.5556 52.7517L14.0051 50.5391L12.3674 52.1438C12.2375 52.2689 12.0302 52.2689 11.9003 52.1409L11.8526 52.095C11.7267 51.9669 11.7267 51.7607 11.8556 51.6327L13.4893 50.0357L11.2535 49.4972C11.077 49.4562 10.9639 49.2803 11.0105 49.1034L11.0244 49.0408C11.069 48.8649 11.2506 48.7593 11.4261 48.8014L13.7144 49.3516L13.153 47.0979C13.1104 46.9259 13.2225 46.7451 13.399 46.704L13.4625 46.6884C13.641 46.6454 13.8216 46.7529 13.8642 46.9268L14.4098 49.1356L16.0494 47.5347C16.1783 47.4087 16.3886 47.4087 16.5156 47.5377L16.5632 47.5836C16.6931 47.7107 16.6901 47.9159 16.5632 48.043L14.9265 49.6419L17.1643 50.1823ZM43.7481 42.5034C43.9237 42.5455 44.0347 42.7243 43.9901 42.8983L43.9733 42.9608C43.9306 43.1338 43.7501 43.2433 43.5745 43.1993L41.2882 42.65L41.8466 44.9038C41.8923 45.0777 41.7812 45.2537 41.6016 45.2976L41.5381 45.3113C41.3626 45.3553 41.1821 45.2468 41.1394 45.0728L40.5889 42.8602L38.9513 44.4649C38.8213 44.59 38.614 44.59 38.4841 44.462L38.4365 44.4161C38.3105 44.288 38.3105 44.0818 38.4395 43.9538L40.0731 42.3568L37.8374 41.8183C37.6608 41.7773 37.5477 41.6014 37.5944 41.4245L37.6083 41.3619C37.6529 41.186 37.8344 41.0804 38.01 41.1225L40.2983 41.6727L39.7369 39.419C39.6942 39.247 39.8063 39.0662 39.9829 39.0251L40.0463 39.0095C40.2249 38.9665 40.4054 39.074 40.4481 39.2479L40.9936 41.4567L42.6332 39.8558C42.7621 39.7298 42.9724 39.7298 43.0994 39.8588L43.147 39.9047C43.2769 40.0318 43.274 40.237 43.147 40.3641L41.5104 41.963L43.7481 42.5034ZM33.1884 42.5034C33.3629 42.5455 33.475 42.7243 33.4304 42.8983L33.4135 42.9608C33.3709 43.1338 33.1903 43.2433 33.0148 43.1993L30.7285 42.65L31.2869 44.9038C31.3325 45.0777 31.2214 45.2537 31.0419 45.2976L30.9784 45.3113C30.8028 45.3553 30.6223 45.2468 30.5797 45.0728L30.0292 42.8602L28.3915 44.4649C28.2616 44.59 28.0543 44.59 27.9244 44.462L27.8767 44.4161C27.7508 44.288 27.7508 44.0818 27.8797 43.9538L29.5134 42.3568L27.2776 41.8183C27.1011 41.7773 26.988 41.6014 27.0346 41.4245L27.0485 41.3619C27.0931 41.186 27.2747 41.0804 27.4502 41.1225L29.7385 41.6727L29.1771 39.419C29.1345 39.247 29.2466 39.0662 29.4231 39.0251L29.4866 39.0095C29.6651 38.9665 29.8457 39.074 29.8883 39.2479L30.4339 41.4567L32.0735 39.8558C32.2024 39.7298 32.4127 39.7298 32.5397 39.8588L32.5873 39.9047C32.7172 40.0318 32.7142 40.237 32.5873 40.3641L30.9506 41.963L33.1884 42.5034Z" fill="#38C0E0"/>
</svg>
