<svg width="25" height="24" viewBox="0 0 25 24" fill="none" xmlns="http://www.w3.org/2000/svg">
<g clip-path="url(#clip0_418_23)">
<path d="M3.70667 2.13333L3.96667 2.39333C4.22667 2.64667 4.22667 3.07333 3.96667 3.32667L3.96 3.33333C3.7 3.59333 3.28667 3.59333 3.02667 3.33333L2.76667 3.07333C2.50667 2.82 2.50667 2.4 2.76667 2.14L2.77333 2.13333C3.02667 1.88 3.44667 1.87333 3.70667 2.13333Z" fill="white"/>
<path d="M1.26 6.63333H1.94C2.30667 6.63333 2.6 6.92667 2.6 7.3V7.30667C2.6 7.67333 2.30667 7.96667 1.93333 7.96H1.26C0.893332 7.96 0.599998 7.66667 0.599998 7.3V7.29333C0.599998 6.92667 0.893332 6.63333 1.26 6.63333Z" fill="white"/>
<path d="M7.93333 0H7.94C8.30667 0 8.6 0.293333 8.6 0.66V1.30667C8.6 1.67333 8.30667 1.96667 7.93333 1.96H7.92667C7.56 1.96 7.26667 1.66667 7.26667 1.3V0.66C7.26667 0.293333 7.56 0 7.93333 0Z" fill="white"/>
<path d="M12.16 2.13333C12.42 1.88 12.84 1.88 13.1 2.14C13.36 2.4 13.36 2.81333 13.1 3.07333L12.84 3.33333C12.5867 3.59333 12.1667 3.59333 11.9067 3.33333L11.9 3.32667C11.64 3.07333 11.64 2.65333 11.9 2.39333L12.16 2.13333Z" fill="white"/>
<path d="M3.93333 7.3C3.93333 5.09333 5.72667 3.3 7.93333 3.3C9.44798 3.3 10.7679 4.14492 11.4468 5.38847C10.6727 6.07673 10.0944 6.98028 9.80556 8.00519C9.73748 8.00175 9.66894 8 9.6 8C7.84809 8 6.35923 9.12627 5.81797 10.6942C4.68683 9.98706 3.93333 8.73036 3.93333 7.3Z" fill="white"/>
<path d="M3.70667 12.46C3.44667 12.72 3.02667 12.72 2.76667 12.46C2.50667 12.2 2.50666 11.7867 2.76 11.52L3.02 11.26C3.28 11 3.7 11 3.96 11.26L3.96667 11.2667C4.22 11.52 4.22667 11.94 3.96667 12.2L3.70667 12.46Z" fill="white"/>
<path d="M20.6 19H7.6C5.94314 19 4.6 17.6569 4.6 16C4.6 14.6925 5.43649 13.5803 6.60352 13.1695C6.60118 13.1133 6.6 13.0568 6.6 13C6.6 10.7909 8.39086 9 10.6 9C10.6689 9 10.7375 9.00175 10.8056 9.00519C11.4568 6.69403 13.5806 5 16.1 5C19.1376 5 21.6 7.46243 21.6 10.5C21.6 10.7087 21.5884 10.9147 21.5657 11.1174C23.3083 11.5494 24.6 13.1238 24.6 15C24.6 17.2091 22.8091 19 20.6 19Z" fill="white"/>
<path d="M10.5854 23.0292L11.9146 20.3708C12.0282 20.1436 12.2605 20 12.5146 20C13.0133 20 13.3376 20.5248 13.1146 20.9708L11.7854 23.6292C11.6718 23.8564 11.4395 24 11.1854 24C10.6867 24 10.3624 23.4752 10.5854 23.0292Z" fill="white"/>
<path d="M13.5854 23.0292L14.9146 20.3708C15.0282 20.1436 15.2605 20 15.5146 20C16.0133 20 16.3376 20.5248 16.1146 20.9708L14.7854 23.6292C14.6718 23.8564 14.4395 24 14.1854 24C13.6867 24 13.3624 23.4752 13.5854 23.0292Z" fill="white"/>
</g>
<defs>
<clipPath id="clip0_418_23">
<rect width="24" height="24" fill="white" transform="translate(0.599998)"/>
</clipPath>
</defs>
</svg>
