<svg width="24" height="24" viewBox="0 0 24 24" fill="none" xmlns="http://www.w3.org/2000/svg">
<path fill-rule="evenodd" clip-rule="evenodd" d="M11.7162 6.27432C11.3097 6.81703 11 7.71973 11 9V10.5L14 10.5L14 13.5L11 13.5V16C11 16.9853 10.7456 17.8143 10.3648 18.5H17.9995C17.9996 18.5 18 18.5 18 20C18 21.5 18 21.5 17.9999 21.5H5.99999V18.5C5.89432 18.5 5.81643 18.5122 5.79993 18.5147C5.77226 18.519 5.75403 18.523 5.75072 18.5238C5.74927 18.5241 5.74854 18.5242 5.74854 18.5242C5.74853 18.5242 5.76027 18.5214 5.78444 18.5141C5.84315 18.4966 5.94097 18.4634 6.06568 18.4116C6.31748 18.307 6.63675 18.144 6.94313 17.918C7.55152 17.4691 7.99999 16.8688 7.99999 16V13.5009L5.99999 13.5L5.99999 10.5L7.99999 10.5V9C7.99999 7.28026 8.4108 5.68296 9.3152 4.47567C10.2526 3.22438 11.6472 2.5 13.3029 2.5C16.5696 2.5 17.9074 5.21106 18.4032 6.21584C18.4233 6.25664 18.442 6.29462 18.4595 6.3295L15.7759 7.6705C15.1991 6.51624 14.6273 5.5 13.3029 5.5C12.5966 5.5 12.0898 5.77561 11.7162 6.27432Z" fill="black"/>
</svg>
