<svg width="18" height="18" viewBox="0 0 18 18" fill="none" xmlns="http://www.w3.org/2000/svg">
<path d="M10.3172 11.4758H7.95229V12.5616H12.2053V14.2987H7.95229V16.2727H5.33945V14.2987H3.90906V12.5616H5.33945V11.4758H3.90906V9.08727H5.33945V2.45454H10.3172C11.5759 2.45454 12.6376 2.90199 13.5022 3.79688C14.3795 4.69177 14.8181 5.77091 14.8181 7.03429C14.8181 8.29766 14.3859 9.35706 13.5213 10.2125C12.6694 11.0547 11.6014 11.4758 10.3172 11.4758ZM10.3172 5.00104H7.95229V9.08727H10.3172C10.8512 9.08727 11.2962 8.88987 11.6522 8.49506C12.0209 8.10026 12.2053 7.61333 12.2053 7.03429C12.2053 6.45524 12.0209 5.97489 11.6522 5.59325C11.2962 5.19844 10.8512 5.00104 10.3172 5.00104Z" fill="#070707"/>
</svg>
