<svg width="184" height="171" viewBox="0 0 184 171" fill="none" xmlns="http://www.w3.org/2000/svg">
<g clip-path="url(#clip0_5_472)">
<g clip-path="url(#clip1_5_472)">
<path d="M237.129 105.472C237.129 127.444 219.284 145.257 197.263 145.257H53.0066C23.7339 145.257 0 121.575 0 92.3494C0 63.1326 23.7339 39.4418 53.0066 39.4418C55.6319 39.4418 58.2124 39.643 60.7425 40.009C72.713 16.2818 97.3313 0 125.77 0C160.181 0 189.009 23.8472 196.583 55.8857C197.338 59.0845 197.884 62.3616 198.198 65.7001V65.7085C219.776 66.2001 237.129 83.8118 237.129 105.472Z" fill="white" fill-opacity="0.4"/>
<g filter="url(#filter0_b_5_472)">
<path d="M237.129 105.472C237.129 127.444 219.284 145.257 197.263 145.257H53.0066C23.7339 145.257 0 121.575 0 92.3494C0 63.1326 23.7339 39.4418 53.0066 39.4418C55.6319 39.4418 58.2124 39.643 60.7425 40.009C72.713 16.2818 97.3313 0 125.77 0C160.181 0 189.009 23.8472 196.583 55.8857C197.338 59.0845 197.884 62.3616 198.198 65.7001V65.7085C219.776 66.2001 237.129 83.8118 237.129 105.472Z" fill="url(#paint0_linear_5_472)"/>
</g>
<g filter="url(#filter1_b_5_472)">
<path fill-rule="evenodd" clip-rule="evenodd" d="M61.4487 41.3655L60.5648 41.2377C58.0893 40.8796 55.5683 40.6833 53.0066 40.6833C24.4174 40.6833 1.24151 63.8205 1.24151 92.3494C1.24151 120.887 24.4173 144.016 53.0066 144.016H197.263C218.6 144.016 235.887 126.756 235.887 105.472C235.887 84.4906 219.078 67.4261 198.169 66.9496L196.956 66.922V65.7585C196.647 62.4983 196.113 59.2972 195.374 56.1713C187.931 24.6817 159.594 1.24151 125.77 1.24151C97.8172 1.24151 73.6182 17.2439 61.851 40.5682L61.4487 41.3655ZM198.198 65.7001V65.7085C219.776 66.2001 237.129 83.8118 237.129 105.472C237.129 127.444 219.284 145.257 197.263 145.257H53.0066C23.7339 145.257 0 121.575 0 92.3494C0 63.1326 23.7339 39.4418 53.0066 39.4418C55.6319 39.4418 58.2124 39.643 60.7425 40.009C72.713 16.2818 97.3313 0 125.77 0C160.181 0 189.009 23.8473 196.583 55.8857C197.338 59.0845 197.884 62.3616 198.198 65.7001Z" fill="url(#paint1_linear_5_472)"/>
</g>
</g>
<g clip-path="url(#clip2_5_472)">
<path d="M174.3 141.464C174.3 157.615 161.183 170.708 144.997 170.708H38.9621C17.4454 170.708 0 153.301 0 131.819C0 110.343 17.4454 92.9294 38.9621 92.9294C40.8918 92.9294 42.7886 93.0773 44.6484 93.3463C53.4472 75.9058 71.5427 63.938 92.4463 63.938C117.74 63.938 138.93 81.4667 144.497 105.016C145.052 107.368 145.453 109.776 145.684 112.23V112.237C161.545 112.598 174.3 125.543 174.3 141.464Z" fill="white"/>
<g filter="url(#filter2_b_5_472)">
<path d="M174.3 141.464C174.3 157.615 161.183 170.708 144.997 170.708H38.9621C17.4454 170.708 0 153.301 0 131.819C0 110.343 17.4454 92.9294 38.9621 92.9294C40.8918 92.9294 42.7886 93.0773 44.6484 93.3463C53.4472 75.9058 71.5427 63.938 92.4463 63.938C117.74 63.938 138.93 81.4667 144.497 105.016C145.052 107.368 145.453 109.776 145.684 112.23V112.237C161.545 112.598 174.3 125.543 174.3 141.464Z" fill="url(#paint2_linear_5_472)"/>
</g>
<g filter="url(#filter3_b_5_472)">
<path fill-rule="evenodd" clip-rule="evenodd" d="M45.3545 94.7029L44.4706 94.575C42.6655 94.3139 40.8283 94.1709 38.9621 94.1709C18.1289 94.1709 1.24151 111.031 1.24151 131.819C1.24151 152.613 18.1288 169.467 38.9621 169.467H144.997C160.5 169.467 173.058 156.927 173.058 141.464C173.058 126.222 160.846 113.824 145.655 113.478L144.442 113.45V112.289C144.216 109.913 143.827 107.58 143.288 105.302C137.851 82.3011 117.153 65.1795 92.4463 65.1795C72.0286 65.1795 54.3524 76.8679 45.7568 93.9055L45.3545 94.7029ZM145.684 112.23V112.237C161.545 112.598 174.3 125.543 174.3 141.464C174.3 157.615 161.183 170.708 144.997 170.708H38.9621C17.4454 170.708 0 153.301 0 131.819C0 110.343 17.4454 92.9294 38.9621 92.9294C40.8918 92.9294 42.7886 93.0773 44.6484 93.3463C53.4472 75.9058 71.5427 63.938 92.4463 63.938C117.74 63.938 138.93 81.4667 144.497 105.016C145.052 107.368 145.453 109.776 145.684 112.23Z" fill="url(#paint3_linear_5_472)"/>
</g>
</g>
</g>
<defs>
<filter id="filter0_b_5_472" x="-31.0378" y="-31.0378" width="299.205" height="207.333" filterUnits="userSpaceOnUse" color-interpolation-filters="sRGB">
<feFlood flood-opacity="0" result="BackgroundImageFix"/>
<feGaussianBlur in="BackgroundImageFix" stdDeviation="15.5189"/>
<feComposite in2="SourceAlpha" operator="in" result="effect1_backgroundBlur_5_472"/>
<feBlend mode="normal" in="SourceGraphic" in2="effect1_backgroundBlur_5_472" result="shape"/>
</filter>
<filter id="filter1_b_5_472" x="-31.0378" y="-31.0378" width="299.205" height="207.333" filterUnits="userSpaceOnUse" color-interpolation-filters="sRGB">
<feFlood flood-opacity="0" result="BackgroundImageFix"/>
<feGaussianBlur in="BackgroundImageFix" stdDeviation="15.5189"/>
<feComposite in2="SourceAlpha" operator="in" result="effect1_backgroundBlur_5_472"/>
<feBlend mode="normal" in="SourceGraphic" in2="effect1_backgroundBlur_5_472" result="shape"/>
</filter>
<filter id="filter2_b_5_472" x="-31.0378" y="32.9002" width="236.375" height="168.846" filterUnits="userSpaceOnUse" color-interpolation-filters="sRGB">
<feFlood flood-opacity="0" result="BackgroundImageFix"/>
<feGaussianBlur in="BackgroundImageFix" stdDeviation="15.5189"/>
<feComposite in2="SourceAlpha" operator="in" result="effect1_backgroundBlur_5_472"/>
<feBlend mode="normal" in="SourceGraphic" in2="effect1_backgroundBlur_5_472" result="shape"/>
</filter>
<filter id="filter3_b_5_472" x="-31.0378" y="32.9002" width="236.375" height="168.846" filterUnits="userSpaceOnUse" color-interpolation-filters="sRGB">
<feFlood flood-opacity="0" result="BackgroundImageFix"/>
<feGaussianBlur in="BackgroundImageFix" stdDeviation="15.5189"/>
<feComposite in2="SourceAlpha" operator="in" result="effect1_backgroundBlur_5_472"/>
<feBlend mode="normal" in="SourceGraphic" in2="effect1_backgroundBlur_5_472" result="shape"/>
</filter>
<linearGradient id="paint0_linear_5_472" x1="37.5558" y1="25.451" x2="205.781" y2="145.257" gradientUnits="userSpaceOnUse">
<stop offset="0.416176" stop-color="white" stop-opacity="0.7"/>
<stop offset="1" stop-color="white" stop-opacity="0"/>
</linearGradient>
<linearGradient id="paint1_linear_5_472" x1="-18.1585" y1="38.2772" x2="66.744" y2="99.3442" gradientUnits="userSpaceOnUse">
<stop stop-color="white"/>
<stop offset="1" stop-color="white" stop-opacity="0"/>
</linearGradient>
<linearGradient id="paint2_linear_5_472" x1="27.6051" y1="82.6456" x2="178.5" y2="174.5" gradientUnits="userSpaceOnUse">
<stop offset="0.416176" stop-color="white" stop-opacity="0.7"/>
<stop offset="1" stop-color="white" stop-opacity="0"/>
</linearGradient>
<linearGradient id="paint3_linear_5_472" x1="-13.3473" y1="92.0734" x2="49.0597" y2="136.96" gradientUnits="userSpaceOnUse">
<stop stop-color="white"/>
<stop offset="1" stop-color="white" stop-opacity="0"/>
</linearGradient>
<clipPath id="clip0_5_472">
<rect width="237.129" height="170.708" fill="white"/>
</clipPath>
<clipPath id="clip1_5_472">
<rect width="237.129" height="145.257" fill="white"/>
</clipPath>
<clipPath id="clip2_5_472">
<rect width="174.3" height="106.77" fill="white" transform="translate(0 63.938)"/>
</clipPath>
</defs>
</svg>
