<svg width="80" height="80" viewBox="0 0 80 80" fill="none" xmlns="http://www.w3.org/2000/svg">
<g clip-path="url(#clip0_470_3057)">
<path d="M40 80C17.9086 80 -2.7141e-06 62.0914 -1.74846e-06 40C-7.8281e-07 17.9086 17.9086 -2.7141e-06 40 -1.74846e-06C62.0914 -7.8281e-07 80 17.9086 80 40C80 62.0914 62.0914 80 40 80Z" fill="#0052B5"/>
<path d="M77.4816 26C71.8066 10.8133 57.1661 -8.88017e-07 40 -1.63837e-06C22.8339 -2.38873e-06 8.19337 10.8133 2.51843 26L77.4816 26Z" fill="white"/>
<path d="M2.51844 54C8.19338 69.1867 22.8339 80 40 80C57.1661 80 71.8066 69.1867 77.4816 54L2.51844 54Z" fill="#D90026"/>
</g>
<defs>
<clipPath id="clip0_470_3057">
<rect width="80" height="80" fill="white"/>
</clipPath>
</defs>
</svg>
