<svg width="34" height="36" viewBox="0 0 34 36" fill="none" xmlns="http://www.w3.org/2000/svg">
<path d="M32.4545 18.1565C32.4545 18.1565 27.6617 23.2825 23.6455 23.0087L17.3091 34.4348H15.9182C14.9446 30.3331 8.80909 23.0087 8.80909 23.0087C4.27508 23.2869 1.54545 18.1565 1.54545 18.1565C1.54545 9.51206 8.46469 1.56522 17 1.56522C25.5353 1.56522 32.4545 9.51206 32.4545 18.1565Z" fill="#265CEF"/>
<path fill-rule="evenodd" clip-rule="evenodd" d="M33.5767 19.2328L32.4545 18.1565C32.4545 9.51206 25.5353 1.56522 17 1.56522C8.46469 1.56522 1.54545 9.51206 1.54545 18.1565L0.184948 18.899L0 18.5514V18.1565C0 8.76731 7.49759 0 17 0C26.5024 0 34 8.76731 34 18.1565V18.78L33.5767 19.2328ZM8.80909 23.0087C4.27508 23.2869 1.54545 18.1565 1.54545 18.1565C0.184948 18.899 0.185216 18.8995 0.185493 18.9L0.187518 18.9038L0.191122 18.9105L0.201431 18.9295C0.209677 18.9446 0.220674 18.9645 0.234397 18.9889C0.261832 19.0377 0.30023 19.1045 0.349383 19.1868C0.447561 19.3511 0.589409 19.5782 0.773328 19.8465C1.13905 20.38 1.68217 21.0925 2.39177 21.8013C3.64991 23.0581 5.5855 24.4501 8.08356 24.5758C8.22172 24.7473 8.38721 24.9547 8.57412 25.1924C9.15303 25.9285 9.93341 26.9501 10.7416 28.0943C11.5519 29.2414 12.3777 30.4943 13.0545 31.695C13.7441 32.9184 14.2237 33.9923 14.4155 34.8006L14.7002 36H18.2136L24.5595 24.5567C26.8027 24.3522 28.9597 23.0554 30.4627 21.9529C31.3738 21.2845 32.1453 20.611 32.6882 20.106C32.9607 19.8526 33.1781 19.6393 33.3295 19.4871C33.4052 19.411 33.4646 19.35 33.5062 19.3068C33.527 19.2852 33.5434 19.268 33.5552 19.2555L33.5695 19.2405L33.574 19.2357L33.5762 19.2333C33.5764 19.233 33.5767 19.2328 32.4545 18.1565C32.4545 18.1565 27.6617 23.2825 23.6455 23.0087L17.3091 34.4348H15.9182C14.9446 30.3331 8.80909 23.0087 8.80909 23.0087Z" fill="white"/>
</svg>
