<svg width="40" viewBox="0 0 175 122" fill="none" xmlns="http://www.w3.org/2000/svg">
<path fill-rule="evenodd" clip-rule="evenodd" d="M76.897 108.374H56.9481C56.7938 108.385 56.6422 108.391 56.4933 108.391L76.897 108.374Z" fill="#0B8745"/>
<path d="M56.9481 108.374H76.897V87.183H41.6678L59.3849 70.8115C63.8533 66.6962 67.2046 62.9835 69.4388 59.6734C71.7624 56.2739 73.3263 53.098 74.1306 50.1457C74.9349 47.104 75.3371 44.0623 75.3371 41.0206C75.3371 35.2056 73.7732 30.151 70.6453 25.8568C67.6068 21.5626 63.3618 18.2525 57.9104 15.9265C52.4589 13.6005 46.1138 12.4375 38.875 12.4375C29.6701 12.4375 21.7611 14.2267 15.1479 17.8052C8.53463 21.3837 3.48535 26.1252 0 32.0297L19.7056 43.0335C21.5823 39.9918 23.9953 37.7105 26.9444 36.1897C29.8935 34.6688 33.0661 33.9084 36.4621 33.9084C40.4836 33.9084 43.4775 34.7583 45.4436 36.458C47.499 38.1578 48.5267 40.5286 48.5267 43.5703C48.5267 44.8227 48.3033 46.2094 47.8565 47.7303C47.499 49.1617 46.6947 50.772 45.4436 52.5612C44.2818 54.3505 42.4497 56.4081 39.9474 58.7341L22.3866 75.1727L4.82586 91.6114V108.251L21.3532 108.296L24.1762 108.304L43.6278 108.357L49.9315 108.374H56.9481Z" fill="#0B8745"/>
<path fill-rule="evenodd" clip-rule="evenodd" d="M114.082 95.7805C133.265 95.7805 148.816 80.2089 148.816 60.9998C148.816 41.7908 133.265 26.2189 114.082 26.2189C94.8991 26.2189 79.3482 41.7907 79.3482 60.9998C79.3482 67.8387 81.3197 74.2166 84.7241 79.5952C84.7455 79.6287 84.7614 79.6667 84.7883 79.6961C84.8825 79.7992 85.1334 79.8138 85.2709 79.7513C85.2865 79.7467 85.3021 79.7408 85.3185 79.7346C86.1061 79.4221 88.0193 78.3758 88.6163 78.078C90.626 77.0747 91.7825 74.786 94.4885 73.4108C97.2395 72.0124 100.267 72.1234 103.211 72.8607C103.731 72.991 104.266 73.1196 104.808 73.2798C105.356 73.4421 105.843 73.6225 106.387 73.7825L111.148 75.1347C111.67 75.2951 112.214 75.4405 112.768 75.5964L116.046 76.4153C117.174 76.7001 120.501 77.315 121.14 78.4767C121.601 79.3141 120.897 79.9858 120.178 80.254C118.743 80.7892 115.647 80.4933 114.25 80.2976C112.45 80.0459 109.525 80.2082 107.792 80.5471C106.931 80.7154 105.625 81.0513 104.784 81.0513C104.655 81.0467 104.621 81.3904 104.784 81.4419C105.436 81.5935 105.846 81.5699 106.505 81.4714C108.906 81.1123 110.04 80.7776 112.589 80.8537L116.32 81.1539C117.432 81.3192 119.586 81.2439 120.604 80.8107C120.955 80.662 121.367 80.4164 121.562 80.1429C122.691 78.5637 121.169 77.5704 120.786 77.2208C120.731 77.1714 120.74 77.147 120.807 77.1206C121.343 76.9068 122.123 76.3898 122.652 76.0906C125.014 74.5721 127.816 72.1079 129.667 71.0041C131.513 69.903 132.245 69.8219 134.318 70.4241C137.764 71.4245 134.764 73.8994 133.421 75.6099L132.288 76.9494C131.732 77.6771 128.761 80.6132 127.886 81.266C126.805 82.0717 120.052 86.0366 118.526 86.8686C115.712 88.4025 114.415 89.5329 110.609 88.7613C108.844 88.4032 107.103 87.972 105.392 87.4745C103.66 86.9702 101.978 86.4845 100.228 86.1352C97.0331 85.4975 95.0475 86.864 92.1042 87.9341C92.053 87.9526 92.2267 87.882 92.1881 87.9033L92.1871 87.9038C91.9367 87.9999 92.0847 87.8605 92.1042 87.9341C92.0115 87.858 92.1285 88.0246 92.1042 87.9341C98.0907 92.8382 105.744 95.7805 114.082 95.7805ZM141.802 33.2423C143.477 34.9192 146.192 34.9192 147.867 33.2423L147.944 33.1631C152.086 28.9639 156.204 20.7189 157.157 17.8665C154.29 18.8264 145.971 22.995 141.802 27.1694C140.127 28.8462 140.127 31.5654 141.802 33.2423ZM129.084 24.7327C131.272 25.6404 133.78 24.5997 134.687 22.4088L134.728 22.3061C136.95 16.8388 137.603 7.64341 137.393 4.64307C135.112 6.62855 129.019 13.6684 126.763 19.1222C125.857 21.313 126.895 23.8254 129.084 24.7327ZM150.299 45.9775C151.205 48.1685 153.714 49.2093 155.902 48.3016L156.004 48.258C161.436 45.9659 168.391 39.926 170.361 37.656C167.346 37.4446 158.067 38.1077 152.62 40.3667C150.432 41.2743 149.393 43.7866 150.299 45.9775ZM114.082 100.255C111.713 100.255 109.793 102.177 109.793 104.549L109.794 104.66C109.83 110.562 112.741 119.308 114.082 121.999C115.431 119.291 118.37 110.452 118.37 104.549C118.37 102.177 116.45 100.255 114.082 100.255ZM86.3616 33.2418C88.0365 31.5647 88.0365 28.8455 86.3618 27.1687L86.2828 27.0912C82.0893 22.943 73.8551 18.82 71.0065 17.8659C71.9652 20.7363 76.1284 29.0675 80.2971 33.2416C81.9717 34.9187 84.6873 34.9186 86.3616 33.2418ZM153.284 60.9995C153.284 63.3714 155.204 65.294 157.572 65.294L157.683 65.2928C163.577 65.2566 172.311 62.3419 174.999 60.9995C172.294 59.6487 163.468 56.7056 157.572 56.7056C155.204 56.7056 153.284 58.6282 153.284 60.9995ZM141.801 88.757C140.127 90.4339 140.127 93.1531 141.801 94.8299L141.881 94.9074C146.074 99.0555 154.308 103.179 157.156 104.133C156.198 101.262 152.035 92.9315 147.866 88.7569C146.192 87.0801 143.476 87.0802 141.801 88.757ZM99.0803 97.2661C96.8919 96.3585 94.3838 97.3992 93.4768 99.5905L93.4356 99.6933C91.2134 105.16 90.5604 114.356 90.7698 117.356C93.0516 115.371 99.145 108.331 101.401 102.877C102.307 100.686 101.268 98.1738 99.0803 97.2661ZM150.299 76.0214C149.393 78.2128 150.432 80.7243 152.62 81.6325L152.723 81.6737C158.182 83.8989 167.365 84.5527 170.362 84.3431C168.379 82.0582 161.349 75.9567 155.902 73.6976C153.714 72.7902 151.205 73.8303 150.299 76.0214ZM129.084 97.2661C126.895 98.1738 125.856 100.686 126.763 102.877L126.806 102.979C129.095 108.418 135.127 115.383 137.393 117.356C137.605 114.337 136.943 105.044 134.687 99.5903C133.78 97.3995 131.272 96.3585 129.084 97.2661ZM99.08 24.733C101.268 23.8254 102.307 21.3136 101.401 19.122L101.358 19.0201C99.0685 13.5811 93.0368 6.61658 90.7701 4.64307C90.5586 7.6626 91.221 16.9546 93.4768 22.4087C94.3832 24.5996 96.8919 25.6406 99.08 24.733ZM114.082 21.7448C116.45 21.7448 118.37 19.8223 118.371 17.4505L118.369 17.3397C118.333 11.4373 115.422 2.69168 114.082 0C112.733 2.70858 109.794 11.547 109.794 17.4505C109.794 19.822 111.714 21.7448 114.082 21.7448ZM114.164 64.419L114.898 69.0073C114.968 69.4474 115.216 69.8357 115.631 69.8824C116.269 69.9536 116.417 69.3379 116.377 68.6254C116.225 65.9303 115.911 62.813 116.149 60.1757C116.293 58.578 116.708 59.9953 118.992 57.1898C119.384 56.7081 120.429 55.5132 120.219 55.0828C119.67 53.9598 118.327 56.9348 116.216 57.6863C115.836 57.8212 114.762 57.5728 114.15 57.5686C113.551 57.5643 112.295 57.8199 111.899 57.6704C110.492 57.1395 109.292 55.519 108.704 55.0146C108.446 54.7936 108.081 54.7882 107.941 55.0807C107.734 55.515 108.483 56.2952 108.704 56.5654C109.263 57.2534 110.169 58.4971 110.99 58.936C111.801 59.3684 111.916 59.1638 112.011 60.1853C112.249 62.9536 112.055 65.8799 111.783 68.6254C111.761 68.9835 111.705 69.3764 111.912 69.623C112.109 69.8589 112.406 69.9629 112.807 69.8133C112.983 69.7479 113.145 69.5607 113.187 69.3036L113.993 64.4227C114.02 64.2573 114.135 64.2373 114.164 64.419ZM114.077 53.6937C115.064 53.6937 115.864 54.4948 115.864 55.4829C115.864 56.4712 115.064 57.2723 114.077 57.2723C113.09 57.2723 112.29 56.4712 112.29 55.4829C112.29 54.4948 113.09 53.6937 114.077 53.6937ZM135.273 54.1428C134.841 52.8975 132.984 47.8823 132.526 46.7782C131.613 44.6997 131.242 43.243 128.504 42.8403C128.281 42.8077 126.93 43.8918 126.67 43.891C126.405 43.8918 125.119 42.8027 124.859 42.8393C123.292 43.0593 122.287 43.6403 121.585 44.8712C121.121 45.6838 119.998 48.6815 119.653 49.6753C119.414 50.362 117.893 54.1783 118.072 54.623C118.226 55.0103 118.863 55.1557 119.219 54.8581C119.485 54.6368 122.607 48.0909 123.001 47.3589C123.21 46.9708 123.182 46.9657 123.212 47.3548C123.235 47.663 123.254 48.0804 123.257 48.2935L123.371 52.0131C123.447 54.8329 122.639 68.4856 122.903 69.1645C123.127 69.7402 124.005 70.1354 124.714 69.6828C125.345 69.2809 125.275 68.6206 125.365 67.7337C125.712 64.1626 126.433 56.2779 126.65 56.2805C126.863 56.2802 127.468 64.0321 127.921 67.8509C128.029 68.7521 127.957 69.371 128.639 69.739C129.4 70.1494 130.256 69.6411 130.406 69.0728C130.532 68.647 130.043 57.7587 129.997 56.8477C129.912 55.1998 129.834 53.5951 129.901 51.9509C129.934 51.1478 129.989 48.0401 130.069 47.1723C130.07 47.1631 130.071 47.1544 130.072 47.1457C130.084 47.0247 130.116 47.0529 130.162 47.1342C130.168 47.1444 130.173 47.1544 130.179 47.1641C131.015 48.6455 133.58 54.4926 134.056 54.8614C134.746 55.3959 135.416 54.7556 135.273 54.1428ZM126.665 36.542C128.24 36.542 129.517 37.8209 129.517 39.3983C129.517 40.976 128.24 42.2548 126.665 42.2548C125.09 42.2548 123.813 40.9759 123.813 39.3983C123.813 37.8208 125.09 36.542 126.665 36.542ZM101.501 36.542C103.077 36.542 104.354 37.8209 104.354 39.3983C104.354 40.976 103.077 42.2548 101.501 42.2548C99.9258 42.2548 98.6488 40.9759 98.6488 39.3983C98.6488 37.8208 99.9259 36.542 101.501 36.542ZM92.8907 54.1531C92.6467 55.1487 93.8987 55.3778 94.3131 54.6207L98.3641 47.2171C98.4744 47.0172 98.4803 47.008 98.4567 47.2305C98.2899 48.8051 96.511 57.5348 96.4642 58.6381C96.4614 58.7053 96.4555 58.7034 96.52 58.7034L98.4332 58.7083L99.0362 68.9065C99.069 69.4573 99.2825 69.8636 99.7973 69.8634C100.36 69.8634 100.515 69.4873 100.544 68.9999L101.165 58.7024L101.833 58.7022L102.514 69.0006C102.548 69.4857 102.683 69.8636 103.25 69.8634C103.803 69.8629 104.011 69.4004 104.044 68.8466L104.647 58.7031C105.063 58.7054 105.936 58.7064 106.516 58.6985C106.63 58.6972 106.624 58.6931 106.604 58.5839L104.694 47.6784C104.612 47.2414 104.537 46.7825 104.772 47.2834L105.376 48.3943C106.439 50.3424 107.541 52.4253 108.601 54.3426C108.764 54.6377 108.912 54.8399 108.979 54.8881C109.37 55.169 109.974 54.99 110.095 54.6066C110.235 54.1631 109.447 52.5364 109.269 52.0835L107.304 47.3694C106.719 46.028 105.956 43.9064 104.677 43.2676C104.172 43.0148 103.626 42.8836 103.031 42.8134C103.011 42.811 102.99 42.8087 102.97 42.8064C102.733 42.7806 101.716 45.8501 101.502 45.8498C101.289 45.8503 100.353 42.7582 100.026 42.7972C100.001 42.8001 99.977 42.8031 99.9527 42.8062C98.4948 42.9946 97.6112 43.5629 96.9411 44.8114C96.0593 46.6139 93.7986 51.8461 92.8907 54.1531Z" fill="#0B8745"/>
</svg>
